<?xml version="1.0" standalone="no"?>
<!DOCTYPE svg PUBLIC "-//W3C//DTD SVG 20010904//EN"
 "http://www.w3.org/TR/2001/REC-SVG-20010904/DTD/svg10.dtd">
<svg version="1.0" xmlns="http://www.w3.org/2000/svg" viewBox="0 0 1024 1024" preserveAspectRatio="xMidYMid meet" width="1024pt" height="1024pt">
 <g transform="translate(-15325.330272625435,-11957.924647407975)scale(22.577359580347174)" fill="#000000" stroke="none">
    <path
    d="M682.970002838026,547.4275013916175L685.7851513704957,548.5146977528447L687.896512769848,548.1365424967657L688.4997588839486,546.8602685074989L690.7116613023177,546.43484384441L692.2197765875693,545.5839945182322L692.82302270167,543.3623323887679L695.1354661390558,542.8423689116593L695.6381712341397,541.8497113644518L696.9452044813578,542.5587524696L697.749532633492,542.6532912836196L699.3581889377604,542.7005606906296L701.3690093180959,543.2677935747481L702.2738784892468,543.5986794238172L704.2846988695824,542.7005606906296L705.1895680407333,543.2677935747481L706.0944372118843,541.9915195854815L707.8036345351695,542.0387889924913L708.2057986112366,541.6133643294024L708.507421668287,540.4788985611652L709.7139138964882,539.5335104209677L711.2220291817398,540.1480127120961L710.9204061246894,540.998862038274L711.8252752958405,541.1406702593035L711.5236522387902,543.5041406097976L712.6296034479747,544.4022593429852L713.6350136381424,543.8350264588667L714.8415058663437,543.5514100168074L716.5507031896288,542.2751360275407L718.4609825509476,542.5114830625901L721.3766721024341,542.5114830625901L721.879377197518,543.315062981758L720.2707208932495,543.5986794238172L718.8631466270147,544.1186429009259L715.6458340184779,544.4495287499951L712.6296034479747,545.0640310411235L711.0209471437063,546.2457662163705L711.6241932578068,547.4275013916175L712.0263573338741,548.8455836019139L710.6187830676391,550.0273187771609L710.7193240866559,551.0672457313782L709.9149959345217,552.1071726855955L707.3009294400856,552.0126338715758L708.4068806492701,553.8561407449611L706.5971423069682,554.5651818501092L705.3906500787668,556.219611095455L705.5917321168004,557.9213097478106L704.4857809076159,558.6776202599688L703.4803707174481,558.4412732249193L701.2684682990791,558.8194284809983L700.9668452420287,559.5757389931564L698.9560248616932,559.5757389931564L697.3473685574248,561.1828988314923L697.2468275384081,563.5463691819862L693.6273508538042,564.6808349502234L691.7170714924855,564.4444879151739L691.1138253783847,565.0589902063024L689.5051690741163,564.7281043572332L686.6900205416466,565.1062596133122L681.9645926478582,563.6881774030159L684.4781181232777,561.1828988314923L684.2770360852442,559.3866613651169L682.1656746858919,558.9139672950181L681.9645926478582,557.1177298286427L681.0597234767073,554.8960676991784L682.2662157049085,553.3834466748622L681.0597234767073,552.9580220117733L681.7635106098247,550.9254375103485Z"
    fill="#1868b7"
    />
  </g>
</svg>