<?xml version="1.0" standalone="no"?>
<!DOCTYPE svg PUBLIC "-//W3C//DTD SVG 20010904//EN"
 "http://www.w3.org/TR/2001/REC-SVG-20010904/DTD/svg10.dtd">
<svg version="1.0" xmlns="http://www.w3.org/2000/svg" viewBox="0 0 1024 1024" preserveAspectRatio="xMidYMid meet" width="1024pt" height="1024pt">
 <g transform="translate(-13232.80415173598,-16079.703042885772)scale(24.462677535535953)" fill="#000000" stroke="none">
    <path
    d="M578.809507136647,677.5129094828045L579.1111301936974,678.3637588089823L578.7089661176302,679.7345716122688L579.2116712127141,681.0581150085454L578.809507136647,682.0980419627627L579.1111301936974,683.0434301029603L573.2797510907244,682.9961606959505L573.0786690526909,691.8828092138077L574.9889484140095,694.1990101572918L576.7986867563116,695.9479782166572L571.671094786456,697.0824439848943L564.9348465123321,696.6570193218055L563.0245671510133,695.3334759255289L551.6634320021178,695.4752841465585L551.2612679260507,695.664361774598L549.5520706027655,694.3880877853312L547.7423322604636,694.2935489713116L546.1336759561951,694.7662430414103L544.7261016899603,695.3334759255289L544.5250196519268,693.5372384591535L544.9271837279939,691.1264987016497L545.8320528991449,688.5266813161063L546.0331349371784,687.3449461408593L546.9380041083293,684.8396675693357L547.54125022243,683.7052018010986L549.1499065266984,681.8616949277133L550.0547756978493,680.6326903454565L550.3563987548997,678.5528364370218L550.255857735883,676.945676598686L549.3509885647319,675.9530190514785L548.6472014316146,674.2513203991228L547.9434142984971,672.596891153777L548.1444963365307,672.0296582696585L548.9488244886649,670.8951925014214L548.1444963365307,668.2008363018583L547.54125022243,666.357329428473L546.1336759561951,664.5610919620976L546.4352990132454,664.0411284849889L547.54125022243,663.6629732289099L548.3455783745642,663.7102426359198L549.3509885647319,663.3793567868506L557.5953521241075,663.4266261938606L558.299139257225,665.5064801022952L559.1034674093592,667.160909347641L559.7067135234598,668.0590280808287L560.8126647326443,669.5243796981349L562.6224030749462,669.2880326630856L563.5272722460973,668.9098774070065L565.1359285503656,669.2880326630856L565.5380926264328,668.6262609649473L566.2418797595501,666.9718317196015L567.9510770828354,666.8772929055817L568.1521591208689,666.404598835483L569.5597333871037,666.357329428473L569.2581103300535,667.3972563826903L572.6765049766238,667.3499869756805L572.7770459956406,669.0989550350461L573.2797510907244,670.1861513962732L572.8775870146574,671.8878500486288L573.0786690526909,673.5895487009846L573.9835382238418,674.6294756552019L573.8829972048251,677.9383341458934L574.5867843379425,677.701987110844L575.7932765661437,677.7492565178538L577.502473889429,677.3711012617748ZM546.0331349371784,663.1902791588111L545.2288067850442,661.0631558433666L546.4352990132454,659.8814206681196L547.2396271653797,659.4087265980208L548.2450373555474,660.3541147382184L547.2396271653797,660.921347622337L546.8374630893126,661.677658134495L546.7369220702958,662.859393309742Z"
    fill="#1868b7"
    />
  </g>
</svg>