<?xml version="1.0" standalone="no"?>
<!DOCTYPE svg PUBLIC "-//W3C//DTD SVG 20010904//EN"
 "http://www.w3.org/TR/2001/REC-SVG-20010904/DTD/svg10.dtd">
<svg version="1.0" xmlns="http://www.w3.org/2000/svg" viewBox="0 0 1024 1024" preserveAspectRatio="xMidYMid meet" width="1024pt" height="1024pt">
 <g transform="translate(-2792.7232294581163,-6941.106446393075)scale(9.876775073871382)" fill="#000000" stroke="none">
    <path
    d="M325.0439751383068,800.3188288944701L323.33477781502165,800.2242900804504L320.3185472445183,800.2242900804504L320.3185472445183,793.9847283551463L321.4244984537029,795.2610023444131L322.83207271993774,797.3881256598577L326.45154940454165,799.0425549052034L330.3726491461959,799.7515960103516L329.0656158989778,801.1696782206479L326.45154940454165,801.2642170346677ZM336.90781538228623,709.1361427724136L342.03540735214176,713.6740058453619L344.3478507895276,714.0994305084508L347.76624543609796,716.1792844168855L350.68193498758444,717.2664807781127L351.0840990636515,718.4954853603696L348.2689505311818,722.7497319912586L351.0840990636515,723.5060425034168L354.30141167218835,723.9314671665056L356.5133140905574,723.4587730964068L359.02683956597673,721.3316497809623L359.4290036420439,718.8736406164486L360.83657790827874,718.3536771393399L362.24415217451354,719.9608369776759L362.1436111554968,722.1824991071401L359.831167718111,723.7423895384661L357.92088835679226,724.8768553067032L354.8041167672722,727.5712115062663L351.0840990636515,731.4000334740665L350.3803119305341,733.6216956035308L349.6765247974167,736.5051294311335L349.6765247974167,739.2467550377064L349.07327868331606,739.9085267358448L348.87219664528243,741.7047642022202L348.6711146072489,743.1701158195264L352.19005027283606,745.5335861700204L351.78788619676897,747.4716318574253L353.5976245390709,748.7006364396823L353.39654250103735,750.0714492429688L350.7824760066012,753.6166547687096L346.5597532078966,755.1292757930258L341.02999716197405,755.6965086771444L337.91322557245405,755.4128922350851L338.51647168655467,757.1145908874407L337.91322557245405,759.1944447958754L338.41593066753785,760.6125270061717L336.80727436326947,761.5579151463694L333.891584811783,761.9360704024484L331.27751831734685,760.9434128552409L330.1715671081623,761.652453960389L330.5737311842294,764.4413489739719L332.38346952653137,765.2921983001497L333.99212583079975,764.3940795669621L334.79645398293394,765.8594311842684L332.18238748849785,766.7102805104462L329.9704850701288,768.4592485698117L329.56832099406165,771.2481435833945L328.8645338609442,772.7607646077106L326.25046736650813,772.7607646077106L324.0385649481391,774.2261162250169L323.23423679600484,776.3059701334516L326.0493853284745,778.3385546348763L328.6634518229107,778.9057875189949L327.7585826517597,781.4110660905185L324.4407290242061,782.9709565218445L322.63099068190417,786.2798150125361L320.1174652064848,787.3670113737633L318.9109729782835,788.6905547700399L319.8158421494345,791.5739885976425L321.7261215107532,793.1811484359785L320.51962928255193,793.0393402149488L317.90556278811573,792.6139155518599L311.1693145139918,792.2357602957808L310.0633633048073,790.6286004574449L310.0633633048073,788.5014771420003L308.25362496250534,788.6905547700399L307.24821477233763,787.6978972228324L306.94659171528724,784.7199245812101L309.1584941336563,783.4909199989531L310.0633633048073,781.7419519395877L309.6611992287402,780.3238697292913L311.1693145139918,777.9131299717875L312.17472470415953,774.2261162250169L311.87310164710925,772.5716869796711L313.07959387531054,772.0517235025625L312.7779708182602,771.0117965483452L311.4709375710421,770.4445636642266L312.4763477612099,769.2628284889796L311.1693145139918,768.2229015347623L310.56606839989115,765.0085818580905L311.67201960907573,764.4413489739719L311.1693145139918,761.0379516692607L311.87310164710925,758.154517841658L312.5768887802267,755.6965086771444L314.2860861035119,754.6565817229271L313.38121693236087,751.914956116354L313.38121693236087,749.3624081378206L315.49257833171316,747.5661706714452L315.3920373126964,745.2027003209512L317.0006936169648,742.5083441213881L317.0006936169648,739.9085267358448L316.29690648384735,739.3885632587361L314.98987323662925,734.5670837437284L316.69907055991445,731.7309193231357L316.4979885218809,728.9892937165627L317.5033987120487,726.4840151450392L319.3131370543506,723.8369283524859L321.3239574346861,722.1352297001303L320.4190882635351,721.0007639318932L321.02233437763584,720.1026451987054L320.921793358619,715.4702433117372L323.93802392912227,714.0994305084508L324.94343411929003,711.1687272738383L324.6418110622397,710.5069555757L326.9542544996255,707.9544075971666L330.5737311842294,708.6634487023148L332.18238748849785,710.6487637967297L333.2883386976823,708.4271016672653L336.5056513062191,708.5216404812851Z"
    fill="#1868b7"
    />
  </g>
</svg>