<?xml version="1.0" standalone="no"?>
<!DOCTYPE svg PUBLIC "-//W3C//DTD SVG 20010904//EN"
 "http://www.w3.org/TR/2001/REC-SVG-20010904/DTD/svg10.dtd">
<svg version="1.0" xmlns="http://www.w3.org/2000/svg" viewBox="0 0 1024 1024" preserveAspectRatio="xMidYMid meet" width="1024pt" height="1024pt">
 <g transform="translate(42.632974228829596,-277.3054339297254)scale(0.9167324722093172)" fill="#000000" stroke="none">
    <path
    d="M345.65488403674567,870.5138983041404L344.8505558846115,871.9319805144368L344.04622773247723,873.2082545037035L338.1143076104876,872.8300992476245L331.88076443144746,872.9719074686541L328.46236978487707,872.0265193284565L328.46236978487707,871.9319805144368L326.85371348060875,871.1284005952689L333.18779767866556,871.2229394092885L339.2202588196721,871.5065558513479L341.23107920000757,870.3720900831108L342.7391944852592,869.3794325359033ZM67.35734339831231,869.0012772798243L62.028669390423204,869.3794325359033L58.40919270581935,868.3867749886958L56.6999953825341,867.3941174414883L56.599454363517395,867.2523092204588L54.78971602121544,866.4959987083007L56.49891334450058,865.4560717540834L61.727046333372925,865.8814964171722L64.54219486584259,866.7323457433502L66.65355626519488,867.7250032905575ZM385.87129164345566,864.9361082769747L389.3902273090428,866.1651128592316L390.59671953724416,867.8668115115872L390.89834259429443,869.0485466868342L390.9988836133112,870.4666288971305L386.67561979558985,871.3647476303182L382.151273939835,872.0737887354665L376.92314095096265,872.7355604336047L370.991220828973,873.2555239107135L364.4560545928826,873.1137156896838L360.736036889262,872.1683275494861L361.23874198434584,871.033861781249L367.17066210633556,870.277551269091L369.5836465627381,869.3321631288934L371.3933849050401,868.1031585466366L372.5998771332414,867.0632315924192L374.30907445652656,866.1178434522217L376.11881279882857,864.9361082769747L377.5263870650634,864.9361082769747L381.64856884475114,864.3688753928561ZM173.52865948002676,852.2679071983271L177.14813616463067,852.693331861416L180.46598979218425,852.2206377913172L178.85733348791587,853.1660259315148L176.24326699347972,853.875067036663L172.32216725182548,853.6859894086235L169.60755973837257,852.693331861416L170.2108058524732,851.7479437212185ZM161.363196178997,852.2206377913172L165.68645999671833,853.3078341525445L163.97726267343313,853.1660259315148L160.35778598882928,852.9296788964655L156.53722726619185,852.1260989772975L158.54804764652732,851.558866093179ZM235.56246821337697,847.8718523464083L238.67923980289697,848.2500076024874L241.69547037340027,847.9191217534183L243.4046676966854,849.5262815917541L241.19276527831636,849.2899345567048L237.77437063174602,849.3844733707245L234.3559759851757,849.2899345567048L230.5354172625382,849.4790121847443L227.72026873006854,848.9117793006257L226.21215344481692,847.7773135323886L228.02189178711888,847.25735005528L231.54082745270597,847.635505311359ZM320.8212523396022,845.1302267398354L321.22341641566936,846.4065007291022L320.72071132058545,847.4936970903293L319.91638316845126,848.5336240445467L316.5985295408977,848.9117793006257L313.4817579513777,849.4790121847443L309.8622812667737,849.4317427777344L311.2698555330086,848.2972770094973L307.95200190545506,848.7227016725863L304.835230315935,849.1008569286653L302.7238689165827,848.2500076024874L302.52278687854914,847.1155418342503L305.5390174490524,846.0283454730231L307.5498378293879,845.6974596239539L310.7671504379247,845.7919984379737L311.5714785900589,844.3739162276773L311.67201960907573,843.33398927346L311.67201960907573,841.1123271439957L313.28067591334406,839.7887837477191L315.7942013887635,839.3633590846301L317.30231667401506,840.4032860388475L317.90556278811573,841.4432129930649L319.1120550163171,842.6722175753217L320.1174652064848,843.9012221575786ZM9.345175425633101,883.5603729114343L9.54625746366662,883.607524045877L11.959241920069246,881.9530948005311L16.986292870908017,882.8512135337188L17.287915927958352,882.756674719699L20.304146498461535,881.8585559865114L20.706310574528686,881.8585559865114L21.00793363157902,881.9058253935212L25.029574392250026,883.0875605687681L28.54851005783712,881.9058253935212L29.25229719095455,881.7640171724917L37.39611973131332,881.244053695383L40.110727244766224,881.9058253935212L41.417760491984325,882.2367112425904L45.53994227167209,883.182099382788L53.48268277399728,883.8911404879361L59.8167669720541,884.741989814114L70.57465600684912,885.4037615122522L78.61793752819108,884.6474510000942L90.48177777217063,885.1674144772029L97.21802604629448,886.0655332103906L104.55752043451912,885.2619532912227L112.3997199178275,884.4583733720547L113.00296603192817,883.182099382788L101.94345394008292,883.0402911617583L92.99530324758996,882.37851946362L90.58231879118733,881.2913231023929L83.14228338394605,880.7240902182742L83.64498847902985,879.4478162290075L84.65039866919756,878.3133504607704L85.65580885936532,877.2734235065532L85.15310376428152,876.0916883313062L80.5282168895099,875.3353778191481L78.31631447114074,874.3427202719406L73.99305065341946,873.4918709457628L80.82983994656013,873.6336791667925L87.2644651636337,873.2082545037035L91.28610592430482,874.1536426439011L96.31315687514348,873.3027933177233L100.8375027308984,872.262866363506L103.1499461682842,871.3647476303182L102.14453597811644,870.1830124550713L98.52505929351258,869.4267019429133L94.40287751382476,868.6231220237453L88.67203942986868,868.4340443957058L83.64498847902985,868.0558891396267L78.21577345212404,867.7722726975675L76.40603510982208,866.7323457433502L72.78655842521812,865.8814964171722L70.67519702586594,864.8888388699648L69.77032785471488,861.721788600303L71.17790212094974,862.0054050423622L73.69142759636912,862.85625436854L78.21577345212404,862.5726379264808L82.63957828886208,862.1944826704017L84.95202172624795,863.4234872526586L89.37582656298605,863.1398708105993L93.09584426660672,862.5253685194708L96.61477993219387,861.7690580073129L99.83209254073063,860.8236698671152L103.95427432041845,860.5873228320659L103.85373330140169,859.5473958778485L102.94886413025074,858.5074689236312L103.75319228238493,857.5148113764237L107.37266896698884,856.994847899315L108.98132527125716,857.9402360395126L113.20404806996169,857.3730031553941L116.4213606784985,856.6639620502458L120.4430014391695,856.616692643236L124.26356016180705,856.3330762011767L127.98357786542772,855.7185739100482L130.9998084359309,855.1040716189199L134.41820308250124,854.4895693277915L136.6301055008703,854.678646955831L138.54038486218906,854.8677245838704L142.66256664187682,854.4895693277915L146.38258434549743,854.9622633978902L150.20314306813498,854.9149939908804L153.92316077175565,854.5368387348013L157.64317847537632,854.8204551768606L161.76536025506402,855.1040716189199L165.68645999671833,854.9622633978902L169.70810075738927,855.0568022119099L173.93082355609386,855.1040716189199L177.75138227873134,854.9622633978902L180.56653081120106,854.1586834787223L183.98492545777134,853.7332588156333L187.5038611233585,854.3477611067618L190.82171475091207,853.8277976296531L193.8379453214153,852.8351400824456L195.64768366371726,853.7332588156333L196.55255283486827,854.7259163628408L198.36229117717016,855.6240350960286L201.2779807286567,854.8204551768606L204.59583435621028,855.8603821310779L208.4163930788477,856.1912679801471L211.63370568738452,856.9475784923052L215.55480542903877,856.8057702712755L219.17428211364268,856.2858067941668L223.29646389333044,856.4276150151965L227.11702261596787,856.8057702712755L230.93758133860536,857.2784643413743L232.44569662385692,856.0967291661273L230.63595828155502,855.1513410259297L229.2283840153201,854.1586834787223L225.60890733071625,853.9223364436729L224.10079204546463,852.8824094894555L223.49754593136396,851.8424825352382L222.49213574119625,849.8098980338134L224.60349714054848,850.1880532898924L228.2229738251524,850.329861510922L231.8424505097563,850.1880532898924L235.16030413730988,850.6134779529814L237.9754526697796,851.4170578721494L239.18194489798088,852.4097154193568L243.0025036206183,852.5987930473963L246.62198030522222,852.1733683843074L250.4425390278597,851.6534049071987L253.86093367443004,851.3225190581295L256.67608220689976,851.9842907562679L260.39609991052043,851.7479437212185L262.809084366923,849.6208204057739L265.12152780430887,850.8970943950407L268.3388404128457,851.3697884651394L271.757235059416,851.0861720230802L274.0696784968018,852.1733683843074L277.7896962004225,852.315176605337L281.1075498279761,852.6460624544062L284.52594447454646,853.2132953385247L286.63730587389875,852.1733683843074L287.7432570830832,851.2279802441099L290.55840561555294,852.315176605337L294.37896433819037,852.0315601632777L297.1941128706601,852.6460624544062L299.10439223197886,853.544181187594L302.8244099355995,853.3078341525445L305.740099487086,852.693331861416L308.65578903857244,851.9842907562679L311.973642666126,851.6061355001888L315.89474240778026,851.2752496511196L319.5142190923841,850.8970943950407L322.2288266058371,850.2825921039123L323.83748291010545,849.3844733707245L324.54127004322294,848.2027381954775L324.2396469861726,847.0682724272405L323.33477781502165,845.9338066590034L322.3293676248539,844.8466102977761L321.4244984537029,843.7594139365489L320.72071132058545,842.7667563893415L320.6201703015687,841.6795600281142L320.8212523396022,840.592363666887L322.1282855868203,839.5524367126696L323.23423679600484,838.4179709444326L323.7369418910887,837.3307745832053L323.1336957769881,836.1017700009485L322.83207271993774,835.0145736397213L324.2396469861726,833.7382996504546L325.7477622714242,832.9347197312866L327.5575006137261,831.8947927770693L329.4677799750449,830.9966740438815L331.67968239341394,830.1930941247136L332.78563360259847,829.0113589494666L334.2937488878501,828.2077790302988L336.10348723015204,827.4987379251505L338.7175537245882,827.356929704121L340.52729206689014,826.4588109709332L342.43757142820886,825.9388474938245L344.7500148655947,825.6079616447554L346.7608352459302,824.8989205396072L348.36949155019863,824.0008018064195L350.5813939685676,823.6699159573503L352.19005027283606,824.3789570624986L351.18464008266824,825.3243452026961L348.2689505311818,826.127925121864L348.2689505311818,826.127925121864L347.1629993219973,826.7424274129925L345.05163792264506,826.3170027499036L342.7391944852592,826.6006191919628L340.8289151239405,827.2623908901012L338.818094743605,827.9714319952493L337.41052047737014,828.7750119144173L337.00835640130305,829.8622082756444L337.20943843933657,830.9021352298619L338.51647168655467,831.8475233700594L336.60619232523595,832.5092950681977L333.99212583079975,832.6983726962372L332.48401054554813,833.6437608364348L330.774813222263,834.5418795696226L329.0656158989778,835.7236147448695L328.6634518229107,836.7635416990868L329.56832099406165,837.8980074673239L331.07643627931327,838.7961262005116L333.3888797166991,839.4578978986499L335.50024111605137,840.3087472248278L336.7067333442527,841.395943586055L337.3099794583534,842.4358705402723L338.1143076104876,843.5703363085095L339.4213408577056,844.4684550416971L340.22566900983986,845.5083819959144L340.6278330859069,848.1081993814578L341.4321612380411,849.1481263356751L341.63324327607467,850.2353226969024L342.53811244722567,851.3225190581295L342.1359483711585,852.7878706754358L340.6278330859069,853.9223364436729L338.91863576262176,854.8677245838704L335.1986180590011,855.2458798399496L333.99212583079975,856.2385373871571L332.2829285075146,857.1839255273546L328.06020570881003,858.2238524815718L324.34018800518936,858.6492771446608L320.8212523396022,859.2637794357893L317.10123463598154,859.8782817269176L314.8893322176125,861.0127474951547L310.36498636185763,861.1072863091745L305.4384764300356,861.0127474951547L301.0146715932975,861.2018251231943L296.2892436995091,861.2018251231943L297.1941128706601,862.3362908914314L301.4168356693647,862.8089849615301L304.5336072588847,863.5652954736883L306.3433456011866,864.5579530208956L303.22657401166657,865.4560717540834L298.40060509886143,865.1724553120241L294.37896433819037,865.8814964171722L294.17788230015685,867.0159621854094L294.07734128114004,868.1031585466366L297.3951949086936,869.0485466868342L297.9984410227943,870.0884736410515L301.51737668838143,871.1284005952689L307.44929681037115,871.5538252583577L312.4763477612099,872.3101357705159L316.4979885218809,873.2082545037035L321.52503947271964,874.0591038298813L328.56291080389394,874.5317978999801L335.3997000970346,875.2881084121382L340.12512799082305,876.0916883313062L345.35326097969534,877.0370764715037L348.06786849314824,878.3606198677803L349.37490174036634,879.4005468219978L352.79329638693673,878.4078892747903L357.41818326170835,877.6043093556223L362.24415217451354,876.7061906224346L368.07553127748656,875.9971495172864L373.00204120930846,875.2408390051284L379.939371521466,875.1935695981184L386.7761608146067,875.5717248541976L392.4064578795461,876.2334965523357L394.216196221848,875.0044919700789L398.13729596350225,874.200912050911L405.1751672946765,874.1536426439011L410.7049233405991,873.5391403527726L415.93305632947147,872.9246380616443L421.76443543244443,872.5464828055652L427.9979786114845,872.0737887354665L432.32124242920577,871.3647476303182L430.31042204887024,870.3720900831108L429.103929820669,869.3794325359033L429.103929820669,868.3395055816859L423.67471479376314,868.4340443957058L417.9438767098069,868.9067384658046L412.5146616829011,868.9067384658046L411.7103335307669,867.8668115115872L412.112497606834,865.7869576031526L413.31898983503527,865.1724553120241L417.34063059570633,864.5106836138858L422.0660584894947,863.8489119157475L425.4844531360651,863.0453319965795L428.8023067636187,862.1944826704017L431.315832239038,861.1072863091745L435.1363909616755,860.6345922390757L438.9569496843129,860.2564369829967L440.8672290456317,860.0200899479473L445.190492863353,859.9255511339275L449.3126746430408,859.5473958778485L452.73106928961107,858.9801629937299L456.14946393618146,858.3183912955917L459.16569450668476,857.6566195974533L463.08679424833895,856.8057702712755L465.4997787047416,855.8603821310779L468.1138451991777,855.0568022119099L469.0187143703287,853.9223364436729L466.0024837998254,853.3078341525445L467.00789398999314,852.1260989772975L468.8176323322951,851.2752496511196L471.7333218837816,850.7080167670011L474.8500934733016,850.0462450688628L477.6652420057713,849.1953957426849L479.8771444241404,848.1081993814578L481.18417767135844,846.7846559851812L483.2955390707108,846.0283454730231L486.6133926982643,846.1701536940527L487.9204259454824,847.1155418342503L491.3388205920528,847.2100806482702L491.43936161106956,846.1701536940527L492.84693587730436,845.0829573328256L495.86316644780766,845.3665737748847L496.56695358092503,846.4065007291022L499.8848072084786,846.5483089501317L503.5042838930825,846.075614880033L507.02321955866967,845.7447290309638L510.1399911481897,845.8865372519934L511.346483376391,847.0682724272405L514.463254965911,846.1228842870429L517.2784034983807,845.6501902169441L520.3951750879007,845.2247655538551L523.5119466774208,844.8466102977761L526.4276362289072,844.1848385996378L529.5444078184272,843.7594139365489L531.9573922748299,843.1449116454205L533.666589598115,842.1995235052229L535.6774099784506,842.9085646103711L538.593099529937,842.530409354292L540.6039199102726,843.8066833435588L542.212576214541,844.7993408907662L545.4298888230777,844.2793774136576L546.6363810512789,843.1449116454205L549.4515295837488,842.3886011332625L553.1715472873694,842.577678761302L554.2774984965539,843.6176057155193L556.489400914923,842.577678761302L559.5056314854262,842.2467929122328L562.8234851129798,842.1049846912031L565.7391746644663,842.1995235052229L568.8559462539863,842.530409354292L571.8721768244895,842.6722175753217L573.1792100717076,843.6176057155193L574.9889484140095,844.4211856346872L578.1057200035297,843.9484915645884L581.3230326120664,843.8066833435588L584.5403452206033,843.8066833435588L587.6571168101232,843.7594139365489L590.472265342593,843.3812586804698L593.3879548940795,843.0503728314006L595.9014803694988,842.2940623192426L598.515546863935,841.774098842134L601.3306953964047,841.5377518070846L603.4420567957569,840.7341718879167L604.9501720810085,839.2215508636004L606.558828385277,838.2761627234029L609.4745179367635,838.7488567935018L610.580469145948,839.7415143407092L612.9934536023507,840.3560166318376L615.909143153837,840.166939003798L617.8194225151558,841.1595965510055L619.9307839145081,841.8686376561537L622.7459324469778,841.2068659580154L623.7513426371455,839.9778613757586L626.264868112565,839.5051673056598L629.1805576640513,838.5597791654623L631.8951651775043,838.1816239093832L635.2130188050579,837.6616604322745L637.424921223427,837.0471581411462L639.636823641796,836.3853864430077L641.8487260601651,835.7708841518793L644.4627925546012,836.1017700009485L646.9763180300206,835.1091124537411L648.7860563723225,834.352801941583L651.4001228667587,834.4000713485929L653.7125663041445,833.7382996504546L654.3158124182451,832.7456421032471L656.628255855631,831.989331591089L658.9406992930168,831.4693681139804L661.7558478254864,830.9966740438815L664.2693733009058,830.807596415842L666.7828987763253,830.9494046368717L669.3969652707614,831.233021078931L671.6088676891304,831.989331591089L671.9104907461808,833.218336173346L674.3234752025833,834.1164549065336L676.0326725258685,834.9200348257016L679.3505261534222,835.2509206747707L681.2608055147408,836.0072311869287L683.5732489521267,836.7635416990868L686.1873154465628,836.9053499201165L688.4997588839486,836.3853864430077L690.9127433403512,835.2509206747707L693.5268098347874,835.8181535588892L696.2414173482404,836.1490394079584L698.8554838426764,836.4799252570276L701.5700913561294,836.716272292077L704.3852398885991,836.716272292077L706.6976833259849,839.5997061196796L706.5971423069682,840.3087472248278L706.194978230901,841.5850212140945L703.5809117364649,842.2940623192426L701.3690093180959,843.33398927346L701.7711733941629,844.4211856346872L704.887944983683,844.3739162276773L704.4857809076159,845.4611125889046L703.078206641381,846.5010395431219L701.7711733941629,847.635505311359L703.8825347935152,848.5336240445467L707.099847402052,848.8172404866059L710.3171600105889,848.2972770094973L711.8252752958405,847.2100806482702L712.8306854860082,846.1701536940527L714.3388007712598,845.3193043678749L716.0479980945449,844.4684550416971L716.7517852276624,843.4757974944896L718.2599005129141,842.1049846912031L720.069638855216,841.8686376561537L723.186410444736,841.726829435124L726.0015589772057,841.395943586055L728.8167075096756,840.970518922966L730.2242817759102,839.8833225617389L731.0286099280445,838.8433956075215L732.9388892893633,837.8034686533042L735.6534968028162,837.094427548156L737.9659402402019,836.5271946640374L739.5745965444703,835.6290759308497L741.082711829722,835.1091124537411L743.1940732290742,834.6836877906521L745.9086807425272,834.9673042327114L748.4222062179465,834.6836877906521L751.2373547504163,834.352801941583L754.2535853209195,834.5418795696226L756.2644057012551,833.7382996504546L757.6719799674898,831.8947927770693L758.7779311766743,832.6511032892274L760.0849644238925,833.9746466855039L762.3974078612782,834.5418795696226L765.1120153747313,834.7309571976621L767.7260818691674,834.4000713485929L770.6417714206539,834.6364183836422L773.2558379150901,834.6836877906521L774.9650352383752,834.4000713485929L777.3780196947778,834.5891489766324L779.4893810941301,835.1563818607509L782.0029065695494,834.7782266046719L785.0191371400527,834.7782266046719L787.5326626154722,834.4000713485929L790.4483521669586,834.7782266046719L792.3586315282772,833.8801078714841L793.7662057945121,832.9347197312866L795.676485155831,832.1784092191285L799.1954208214179,830.0985553106939L801.0051591637199,830.4767105667729L803.1165205630723,831.233021078931L804.9262589053742,832.2256786261385L808.545735589978,833.9273772784941L811.2603431034311,833.9746466855039L813.7738685788504,833.9746466855039L816.7900991493535,833.6437608364348L819.8063297198569,833.2656055803558L822.1187731572427,832.5092950681977L824.0290525185613,831.6584457420199L827.1458241080816,831.5639069280002L829.2571855074336,830.9494046368717L831.4690879258028,831.5166375209902L832.8766621920375,832.367486847168L834.7869415533564,833.2656055803558L837.9037131428763,833.171066766336L839.8139925041951,833.8801078714841L843.1318461317487,834.5891489766324L846.6507817973359,834.8254960116817L849.5664713488222,834.6364183836422L851.6778327481745,833.7382996504546L853.5881121094933,832.8874503242768L856.1016375849126,832.6511032892274L858.6151630603321,833.0292585453064L861.5308526118185,833.3128749873656L864.1449191062546,832.8874503242768L866.658444581674,832.8874503242768L869.0714290380768,833.171066766336L871.6854955325127,833.4074138013855L874.1990210079321,832.9347197312866L877.2152515784355,832.5092950681977L880.030400110905,832.367486847168L883.2477127194419,832.367486847168L885.7612381948613,832.1311398121186L888.2747636702807,831.8947927770693L889.0790918224147,830.5239799737828L889.1796328414316,829.3895142055458L890.8888301647168,830.1458247177038L891.3915352598007,831.4220987069705L892.3969454499685,832.5565644752076L893.5028966591531,833.5019526154051L895.8153400965389,833.9746466855039L899.0326527050756,833.7855690574645L902.6521293896794,833.7382996504546L905.1656548650988,833.596491429425L908.8856725687195,833.596491429425L911.4997390631556,833.549222022415L915.1192157477597,833.6437608364348L918.2359873372797,833.8801078714841L920.2468077176152,834.7309571976621L919.7441026225313,835.7708841518793L921.5538409648332,836.6217334780572L924.5700715353365,837.2362357691857L927.6868431248565,837.9452768743338L931.2057787904436,838.4652403514425L935.0263375130812,838.8906650145314L937.8414860455507,839.3160896776203L941.0587986540876,839.4106284916401L942.8685369963895,838.4652403514425L945.281521452792,839.2215508636004L947.3928828521443,840.1196695967883L949.9064083275638,840.7341718879167L953.3248029741342,841.0177883299759L956.5421155826709,841.348674179045L957.849148829889,842.4358705402723L961.0664614384259,843.0976422384106L963.1778228377781,844.0902997856181L966.2945944272982,844.515724448707L969.5119070358348,844.4684550416971L972.5281376063382,844.6575326697366L975.8459912338917,844.6102632627267L979.2643858804621,844.7993408907662L982.3811574699822,845.1774961468452L985.1963060024518,845.8392678449836L988.1119955539382,846.4065007291022L990.1228159342737,847.2100806482702L989.8211928772236,848.2972770094973L988.3130775919717,849.2899345567048L987.0060443447537,850.5662085459714L986.1011751736028,851.558866093179L984.6936009073679,852.693331861416L981.074124222764,853.118756524505L979.4654679184956,854.1114140717125L975.8459912338917,854.7259163628408L974.5389579866737,855.8131127240681L972.6286786253551,856.8530396782854L970.6178582450195,857.7038890044632L969.5119070358348,858.8856241797101L968.8081199027176,859.9255511339275L968.5064968456672,861.1545557161844L968.5064968456672,862.1944826704017L970.1151531499356,863.281679031629L970.7183992640362,864.3216059858462L972.0254325112542,865.3142635330537L977.2535655001266,865.6924187891327L978.359516709311,866.9214233713897L973.3324657584724,867.3468480344785L969.0092019407512,867.961350325607L963.7810689518788,868.0558891396267L961.3680844954761,869.6630489779626L960.8653794003924,870.9393229672294L959.658887172191,871.9792499214467L958.2513129059562,873.019176875664L961.9713306095769,873.9645650158616L963.3789048758116,875.0990307840987L965.7918893322143,876.138957738316L969.1097429597678,877.0843458785135L973.030842701422,877.9824646117013L977.2535655001266,878.8333139378791L983.6881907172002,879.7314326710668L985.0957649834352,881.1022454743534L993.1390465047771,881.6694783584719L993.641751599861,881.9058253935212L995.7531129992133,882.7094053126892L1003.4947714635048,882.000364207541L1009.8288556615616,882.8984829407287L1014.6548245743669,883.560254638867L1014.6548245743669,883.5603729114343L1014.6548245743669,898.3274122871835L512,898.3274122871835L9.345175425633101,898.3274122871835Z"
    fill="#1868b7"
    />
  </g>
</svg>