<?xml version="1.0" standalone="no"?>
<!DOCTYPE svg PUBLIC "-//W3C//DTD SVG 20010904//EN"
 "http://www.w3.org/TR/2001/REC-SVG-20010904/DTD/svg10.dtd">
<svg version="1.0" xmlns="http://www.w3.org/2000/svg" viewBox="0 0 1024 1024" preserveAspectRatio="xMidYMid meet" width="1024pt" height="1024pt">
 <g transform="translate(-6741.230134781695,-5414.3585454617205)scale(8.198933801092096)" fill="#000000" stroke="none">
    <path
    d="M918.0349052992461,760.896143448231L920.7495128126991,761.8888009954385L922.2576280979507,761.5106457393595L924.4695305163198,760.9434128552409L926.0781868205881,761.1324904832804L926.2792688586217,764.4413489739719L925.3743996874706,765.4340065211794L925.0727766304204,767.6556686506437L924.0673664402526,766.8993581384857L922.1570870789338,768.8374038258908L921.5538409648332,768.6955956048611L919.8446436415481,768.6010567908413L918.1354463182629,766.2375864403473L917.7332822421959,764.3940795669621L916.1246259379274,761.9360704024484L916.2251669569441,760.6597964131817ZM912.9073133293905,685.4541698604642L913.9127235195583,687.6285625829186L915.7224618618603,686.5886356287012L916.6273310330113,687.7703708039483L917.9343642802294,688.8575671651754L917.632741223179,690.0865717474323L918.2359873372797,692.4973115049361L918.7386924323637,693.8681243082226L919.4424795654809,694.1990101572918L920.1462666985983,696.6097499147955L919.8446436415481,698.027832125092L920.7495128126991,699.9186084054871L923.8662844022191,701.3839600227934L925.7765637635378,702.70750341907L927.6868431248565,703.9365080013268L927.2846790487895,704.5982796994651L928.8933353530579,706.3472477588307L929.9992865622423,709.3724898074629L931.1052377714268,708.7579875163345L932.2111889806114,709.9869920985914L932.9149761137288,709.5615674355024L933.4176812088127,712.5395400771248L935.3279605701314,714.2412387294804L936.6349938173496,715.2811656836977L938.8468962357185,717.550097220172L939.6512243878527,719.8190287566462L939.7517654068696,721.3789191879722L939.550683368836,723.1278872473378L940.8577166160541,725.4913575978317L940.6566345780204,727.9493667623453L940.1539294829366,729.2729101586219L939.4501423498191,731.7309193231357L939.550683368836,733.3380791614716L938.9474372547353,735.3706636628964L937.7409450265341,737.87594223442L935.6295836271818,739.2467550377064L934.624173437014,741.4211477601609L933.719304265863,742.7919605634473L932.9149761137288,745.2027003209512L931.8090249045443,746.6207825312475L931.1052377714268,748.7006364396823L930.7030736953598,750.6386821270873L930.9041557333933,751.4895314532652L929.2954994291249,752.4821890004725L926.1787278396049,752.5767278144923L923.5646613451687,753.7111935827294L922.2576280979507,754.7983899439566L920.5484307746656,756.0273945262135L918.2359873372797,754.7511205369467L916.5267900139945,754.2784264668479L917.0294951090783,752.8130748495417L915.5213798238268,753.3330383266504L913.0078543484074,755.3656228280752L910.5948698920047,754.6093123159171L909.0867546067531,754.1838876528282L907.4780983024847,753.9948100247886L904.7634907890317,753.1912301056208L902.9537524467298,751.4422620462552L902.4510473516459,749.3151387308106L901.7472602185285,747.8970565205143L900.4402269713105,746.7625907522772L897.7256194578575,746.4317049032081L898.6304886290085,745.1081615069314L897.926701495891,743.0283075984968L896.619668248673,744.9663532859018L894.1061427732536,745.4863167630104L895.5137170394885,743.9264263316845L896.0164221345724,742.3192664933486L897.02183232474,740.948453690062L896.8207502867065,738.8685997816274L894.6088478683375,741.2320701321214L892.7991095260355,742.2247276793288L891.7936993358678,744.4463898087931L889.5817969174988,743.2646546335461L889.6823379365156,741.79930301624L887.8725995942136,739.7667185148151L886.4650253279788,738.7267915605978L886.9677304230627,738.0650198624595L883.3482537384588,736.4105906171137L881.43797437714,736.316051803094L878.723366863687,734.9452389998074L873.6963159128483,735.2288554418667L870.0768392282444,736.2215129890742L866.9600676387244,737.1669011292718L864.2454601252714,736.9778235012323L861.329770573785,738.3959057115286L858.9167861173825,739.0576774096669L858.3135400032817,740.5230290269732L857.308129813114,741.6574947952103L854.9956863757282,741.7047642022202L853.1859480334263,741.9411112372695L850.7729635770235,741.4684171671707L848.762143196688,741.75203360923L846.8518638353694,741.8938418302597L845.1426665120841,743.359193447566L844.3383383599501,743.2646546335461L842.9307640937152,744.0209651457042L841.623730846497,744.9190838788919L839.5123694471448,744.8245450648722L837.7026311048428,744.8245450648722L834.6864005343396,743.0283075984968L833.1782852490879,742.5083441213881L833.2788262681047,740.9011842830522L834.6864005343396,740.5230290269732L835.0885646104068,739.8612573288349L834.98802359139,738.8685997816274L835.390187667457,736.9305540942224L835.0885646104068,735.2761248488766L833.5804493251551,732.4399604282839L833.1782852490879,730.8800699969579L833.2788262681047,729.2729101586219L832.1728750589202,727.4766726922466L832.0723340399034,726.6258233660687L830.865841811702,725.5386270048416L830.463677735635,723.3169648753773L828.8550214313666,721.1425721529228L828.4528573552996,719.9135675706659L829.7598906025175,721.1425721529228L828.75448041235,718.5427547673794L830.1620546785846,719.3463346865474L830.9663828307189,720.4335310477746L830.9663828307189,719.0154488374783L829.558808564484,716.793786708014L829.2571855074336,715.9429373818361L828.6539393933331,715.0920880556582L828.9555624503835,713.4849282173224L829.558808564484,712.7758871121742L829.9609726405511,711.4050743088877L829.6593495835009,709.7506450635419L830.7653007926854,707.765329969127L830.9663828307189,709.8924532845716L832.1728750589202,707.9544075971666L834.3847774772893,707.009019456969L835.7923517435241,705.827284281722L837.9037131428763,704.7873573275047L839.2107463900943,704.5982796994651L839.9145335232118,704.9291655485342L842.126435941581,703.889238594317L843.835633264866,703.6056221522576L844.2377973409332,702.9911198611293L845.0421254930675,702.70750341907L846.550240778319,702.8020422330898L849.4659303298055,701.951192906912L850.9740456150572,700.7221883246551L851.6778327481745,699.2568367073488L853.3870300714598,697.8387544970525L853.4875710904764,696.7042887288153L853.5881121094933,695.1916677044992L855.4983914708121,692.8281973540053L856.7048836990132,695.2389371115091L857.9113759272145,694.6717042273906L856.9059657370468,693.348160831114L857.8108349081978,691.9773480278275L859.0173271363991,692.5918503189558L859.3189501934496,690.4647270035114L860.8270654787011,689.0939142002248L861.5308526118185,688.0067178389976L862.9384268780534,687.5340237688988L862.9384268780534,686.7304438497308L864.2454601252714,687.0613296988L864.2454601252714,686.3522885936519L865.4519523534728,685.9741333375728L866.8595266197075,685.5959780814937L868.8703470000432,686.8722520707605L870.4790033043114,688.5266813161063L872.1882006275966,688.5266813161063L873.9979389698985,688.8102977581656L873.3946928557981,687.2504073268395L874.7017261030161,685.0287451973752L876.0087593502342,684.3197040922271L875.5060542551503,683.6106629870789L876.7125464833516,682.003503148743L878.4217438066366,681.0108456015355L879.8293180728715,681.3417314506047L882.2423025292742,680.821767973496L882.1417615102574,679.4036857631996L880.1309411299219,678.5055670300119L881.6390564151735,678.080142366923L883.4487947574754,678.7891834720712L884.9569100427273,679.9236492403084L887.2693534801128,680.6326903454565L888.0736816322471,680.3490739033972L889.7828789555323,681.199923229575L891.4920762788175,680.3963433104071L892.4974864689852,680.6326903454565L893.2012736021027,680.1127268683479L894.407765830304,681.4835396716343L893.7039786971866,682.9961606959505L892.598027488002,684.1306264641876L891.693158316851,684.2251652782073L891.9947813739014,685.3123616394345L891.1904532217671,686.7304438497308L890.1850430315994,688.1012566530173L890.386125069633,688.9048365721853L892.598027488002,690.4174575965014L894.7093888873544,691.3155763296892L896.2175041726059,692.2609644698867L898.2283245529414,693.9153937152325L899.0326527050756,693.9153937152325L900.4402269713105,694.6244348203807L900.8423910473775,695.5225535535684L903.5569985608306,696.467941693766L905.3667369031325,695.5225535535684L905.9699830172332,694.0099325292523L906.472688112317,692.7809279469953L906.874852188384,691.2210375156694L907.6791803405182,688.9993753862051L907.2770162644512,687.6758319899285L907.4780983024847,686.8722520707605L907.1764752454345,685.2650922324246L907.5786393215016,683.1379689169801L908.0813444165854,682.5707360328615L907.6791803405182,681.625347892664L908.3829674736357,680.1599962753577L908.8856725687195,678.6473752510416L908.9862135877364,677.8437953318736L909.9916237779041,676.8038683776563L910.7959519300384,678.1746811809428L910.997033968072,679.9236492403084L911.7008211011894,680.2545350893774L911.801362120206,681.4362702646245L912.8067723103738,682.8543524749208L913.0078543484074,684.4142429062468Z"
    fill="#1868b7"
    />
  </g>
</svg>