<?xml version="1.0" standalone="no"?>
<!DOCTYPE svg PUBLIC "-//W3C//DTD SVG 20010904//EN"
 "http://www.w3.org/TR/2001/REC-SVG-20010904/DTD/svg10.dtd">
<svg version="1.0" xmlns="http://www.w3.org/2000/svg" viewBox="0 0 1024 1024" preserveAspectRatio="xMidYMid meet" width="1024pt" height="1024pt">
 <g transform="translate(-23679.773512913067,-22125.37636565976)scale(44.06926918086989)" fill="#000000" stroke="none">
    <path
    d="M559.4050904664094,512.6372178323466L559.2040084283759,513.7716836005836L557.5953521241075,513.7716836005836L558.1985982382081,514.3861858917121L557.2937290670571,516.1824233580875L556.6904829529566,516.6551174281863L554.2774984965539,516.7023868351962L552.869924230319,517.3168891263246L550.5574807929332,517.127811498285L546.5358400322622,516.4187703931368L545.9325939181616,515.4261128459293L543.2179864047087,515.8988069160282L542.8158223286415,516.4660398001467L541.2071660243731,516.0406151370579L539.6990507391216,515.993345730048L538.4925585109202,515.4733822529392L538.8947225869873,514.764341147791L538.7941815679706,514.2916470776922L539.5985097201049,514.1498388566627L541.0060839863396,514.9061493688207L541.4082480624068,514.1498388566627L543.9217735378261,514.2916470776922L545.9325939181616,513.7716836005836L547.2396271653797,513.8662224146034L548.1444963365307,514.4334552987219L548.3455783745642,513.9607612286231L547.9434142984971,512.1645237622477L548.9488244886649,511.78636850616874L549.9542346788326,510.510094516902L552.065596078185,511.4082132500897L553.5737113634365,510.27374748185264L554.5791215536042,510.0374004468032L556.7910239719733,510.888249772981L558.0980572191913,510.7464415519514L559.4050904664094,511.31367443606996L559.1034674093592,511.64456028513905Z"
    fill="#1868b7"
    />
  </g>
</svg>