<?xml version="1.0" standalone="no"?>
<!DOCTYPE svg PUBLIC "-//W3C//DTD SVG 20010904//EN"
 "http://www.w3.org/TR/2001/REC-SVG-20010904/DTD/svg10.dtd">
<svg version="1.0" xmlns="http://www.w3.org/2000/svg" viewBox="0 0 1024 1024" preserveAspectRatio="xMidYMid meet" width="1024pt" height="1024pt">
 <g transform="translate(-37627.07155281253,-31133.62324476472)scale(59.13811606207082)" fill="#000000" stroke="none">
    <path
    d="M640.8433158699972,538.8244693158194L638.9330365086786,538.4463140597405L637.5254622424436,537.1700400704738L637.1232981663766,536.0828437092465L637.6260032614605,536.0355743022367L638.5308724326114,536.7918848143947L639.7373646608128,536.7446154073848L639.7373646608128,537.2173094774837ZM647.680105163138,530.2687066470314L649.1882204483895,531.7340582643376L650.5957947146244,533.7193733587526L651.9028279618425,533.8139121727723L652.7071561139767,534.5702226849304L650.3947126765909,534.8065697199797L649.892007581507,536.9809624424342L649.4898435054399,537.9736199896416L648.3838922962553,538.5881222807701L648.4844333152721,540.0062044910665L647.7806461821548,540.1480127120961L646.0714488588696,538.6826610947899L647.0768590490374,537.2645788844935L646.1719898778863,536.4609989653255L645.1665796877186,536.650076593365L641.8487260601651,538.7299305017998L641.8487260601651,536.7918848143947L640.541692812947,536.319190744296L639.3352005847456,535.5628802321379L640.1395287368798,534.71203090596L638.6314134516282,533.7193733587526L639.2346595657289,533.0103322536044L638.1287083565444,532.5376381835056L637.6260032614605,531.8285970783575L638.229249375561,531.3559030082586L640.3406107749133,532.1594829274266L641.8487260601651,532.3485605554661L642.2508901362321,532.017674706397L640.8433158699972,530.5050536820809L641.5471030031147,530.0796290189919L642.351431155249,530.1741678330117L644.2617105165676,531.8758664853673L645.5687437637857,532.0649441134068L645.9709078398528,531.3559030082586Z"
    fill="#1868b7"
    />
  </g>
</svg>