<?xml version="1.0" standalone="no"?>
<!DOCTYPE svg PUBLIC "-//W3C//DTD SVG 20010904//EN"
 "http://www.w3.org/TR/2001/REC-SVG-20010904/DTD/svg10.dtd">
<svg version="1.0" xmlns="http://www.w3.org/2000/svg" viewBox="0 0 1024 1024" preserveAspectRatio="xMidYMid meet" width="1024pt" height="1024pt">
 <g transform="translate(-21427.943823990256,-25969.848040209643)scale(43.237773535947944)" fill="#000000" stroke="none">
    <path
    d="M504.1075300071832,620.0805799658015L502.1972506458645,619.3715388606533L500.89021739864637,619.4660776746731L499.8848072084786,620.1751187798212L498.6783149802773,619.5606164886929L498.1756098851934,618.6624977555051L496.86857663797537,618.0479954643768L496.7680356189586,616.4408356260408L497.471822752076,615.211831043784L497.3712817330592,614.2664429035864L499.6837251704451,611.9975113671122L500.0858892465121,610.0594656797072L500.7896763796296,609.3976939815689L502.1972506458645,609.7758492376479L503.303201855049,609.2086163535294L503.70536593111603,608.4523058413713L505.91726834948514,607.2233012591145L506.41997344456894,606.3251825259267L509.03403993900514,605.1907167576896L510.54215522425676,604.7652920946007L511.2459423573742,605.3325249787192L513.0556806996761,605.3325249787192L512.8545986616426,606.6560683749959L513.1562217186929,607.9323423642626L514.7648780229614,609.7758492376479L514.8654190419782,611.0993926339245L518.0827316505149,611.7611643320628L517.9821906314982,613.651940612458L517.3789445173975,614.5027899386357L516.0719112701794,614.7391369736852L515.4686651560788,615.968141555942L514.463254965911,616.2990274050112L512.0502705095084,616.2517579980013L510.7432372622903,616.0154109629519L509.83836809113933,616.4408356260408L508.63187586293805,616.2517579980013L503.8059069501329,616.393566219031L503.70536593111603,617.9534566503569Z"
    fill="#1868b7"
    />
  </g>
</svg>