<?xml version="1.0" standalone="no"?>
<!DOCTYPE svg PUBLIC "-//W3C//DTD SVG 20010904//EN"
 "http://www.w3.org/TR/2001/REC-SVG-20010904/DTD/svg10.dtd">
<svg version="1.0" xmlns="http://www.w3.org/2000/svg" viewBox="0 0 1024 1024" preserveAspectRatio="xMidYMid meet" width="1024pt" height="1024pt">
 <g transform="translate(-43190.3433039643,-32718.32998586484)scale(57.17523165930227)" fill="#000000" stroke="none">
    <path
    d="M770.7423124396707,585.4321046275602L770.7423124396707,587.464689128985L769.7369022495029,587.039264465896L769.9379842875364,589.2609265953604L769.1336561354022,587.842844385064L769.0331151163855,586.3774927677578L768.4298690022848,585.0539493714812L767.3239177931003,583.4467895331453L764.709851298664,583.3049813121156L765.0114743557144,584.4867164873626L764.1066051845635,585.9993375116787L762.9001129563621,585.4321046275602L762.4979488802951,585.9520681046688L761.6936207281609,585.6684516626096L760.5876695189763,585.4321046275602L760.1855054429093,583.1159036840761L759.1800952527416,580.9887803686315L759.6828003478254,579.3343511232858L757.9736030245402,578.5780406111278L758.5768491386408,577.5381136569104L760.3865874809428,576.498186702693L758.3757671006073,575.0328350853868L759.2806362717582,573.1420588049916L761.4925386901273,574.3710633872485L762.9001129563621,574.5128716082781L763.1011949943957,576.4509172956832L765.7152614888319,576.8290725517622L768.3293279832681,576.7818031447523L769.9379842875364,577.2544972148511L768.6309510403183,579.6179675653451L767.424458812117,579.7597757863747L766.519589640966,581.3669356247105L768.1282459452344,582.8322872420168L768.5304100213016,581.0360497756415L769.3347381734358,581.0360497756415Z"
    fill="#1868b7"
    />
  </g>
</svg>