<?xml version="1.0" standalone="no"?>
<!DOCTYPE svg PUBLIC "-//W3C//DTD SVG 20010904//EN"
 "http://www.w3.org/TR/2001/REC-SVG-20010904/DTD/svg10.dtd">
<svg version="1.0" xmlns="http://www.w3.org/2000/svg" viewBox="0 0 1024 1024" preserveAspectRatio="xMidYMid meet" width="1024pt" height="1024pt">
 <g transform="translate(-19975.967010174,-16741.68462694654)scale(34.72124238492791)" fill="#000000" stroke="none">
    <path
    d="M577.6030149084457,496.47108063496785L580.3176224218987,496.47108063496785L583.333852992402,495.4311536807506L583.9370991065025,493.8239938424147L586.2495425438884,492.925875109227L585.947919486838,491.6968705269702L587.6571168101232,491.2241764568714L590.6733473806265,490.1369800956441L593.589036932113,490.84602120079234L593.99120100818,491.5550623059405L595.4993162934317,491.2241764568714L598.2139238068846,491.8859481550097L598.515546863935,493.16222214427637L597.9123007498343,493.9185326564344L599.6214980731195,495.76203952981973L600.8279903013208,496.28200300692845L600.6269082632872,496.80196648403705L602.537187624606,497.2746605541359L603.3415157767402,498.03097106629394L602.2355645675557,498.64547335742236L599.9231211301698,498.5509345434026L599.420416035086,498.78728157845194L600.1242031682034,499.7326697186495L600.727449282304,501.4816377780151L598.4150058449181,501.6707154060546L597.5101366737672,502.28521769718304L597.3090546357337,503.7032999074794L596.2031034265491,503.4196834654201L593.6895779511298,503.56149168644976L592.9857908180123,502.89971998831146L591.8798396088278,503.37241405841024L590.87442941866,502.9942588023313L588.662527000291,502.94698939532134L585.545755410771,502.2379482901731L582.7306068783013,502.0488706621336L580.5187044599322,502.09614006914353L579.0105891746806,502.8524505813016L577.7035559274625,502.94698939532134L577.6030149084457,501.7179848130645L576.7986867563116,500.44171082379773L578.5078840795967,499.87447793967925L578.5078840795967,498.7400121714421L577.7035559274625,497.7000852172248Z"
    fill="#1868b7"
    />
  </g>
</svg>