<?xml version="1.0" standalone="no"?>
<!DOCTYPE svg PUBLIC "-//W3C//DTD SVG 20010904//EN"
 "http://www.w3.org/TR/2001/REC-SVG-20010904/DTD/svg10.dtd">
<svg version="1.0" xmlns="http://www.w3.org/2000/svg" viewBox="0 0 1024 1024" preserveAspectRatio="xMidYMid meet" width="1024pt" height="1024pt">
 <g transform="translate(-7904.185217023491,-16911.009193780592)scale(25.15710193009309)" fill="#000000" stroke="none">
    <path
    d="M324.6418110622397,710.5069555757L322.63099068190417,710.885110831779L321.52503947271964,707.009019456969L320.016924187468,703.889238594317L320.921793358619,701.1948823947539L319.41367807336735,700.0131472195069L319.01151399730026,697.9805627180821L317.7044807500822,696.0897864376869L319.41367807336735,693.0645443890546L318.2071858451661,690.7483434455706L318.9109729782835,689.802955305373L318.40826788319964,688.7630283511556L319.41367807336735,687.3449461408593L319.5142190923841,684.9814757903654L319.6147601114009,683.0434301029603L320.21800622550154,682.0980419627627L317.80502176909897,677.5601788898143L319.91638316845126,677.7965259248638L321.3239574346861,677.7492565178538L321.9272035487868,676.898407191676L324.4407290242061,675.763941423439L325.848303290441,674.7240144692216L329.56832099406165,674.2513203991228L329.2666979370114,676.3311743075575L329.56832099406165,677.4183706687847L329.36723895602813,679.3091469491799L332.38346952653137,681.8144255207035L335.50024111605137,682.2398501837923L336.60619232523595,683.3270465450196L338.51647168655467,683.8470100221282L339.6224228957392,684.6505899412962L341.4321612380411,684.6505899412962L343.04081754230947,685.4541698604642L343.1413585613263,687.0613296988L343.744604675427,687.9121790249778L343.744604675427,689.0939142002248L342.9402765232927,689.1411836072348L344.04622773247723,692.4027726909164L349.37490174036634,692.4973115049361L348.97273766429925,694.1517407502819L349.2743607213496,695.2389371115091L350.7824760066012,695.9952476236672L351.38572212070187,697.7442156830327L350.9835580446347,699.965877812497L350.17922989250053,701.1948823947539L350.48085294955087,702.7547728260798L349.5759837783999,703.3220057101985L349.4754427593831,702.4711563840206L346.96191728396377,701.0530741737242L344.3478507895276,701.0058047667144L339.4213408577056,701.8093846858823L338.1143076104876,704.2673938503959L338.0137665914708,705.7800148747122L336.90781538228623,709.1361427724136L336.5056513062191,708.5216404812851L333.2883386976823,708.4271016672653L332.18238748849785,710.6487637967297L330.5737311842294,708.6634487023148L326.9542544996255,707.9544075971666Z"
    fill="#1868b7"
    />
  </g>
</svg>