<?xml version="1.0" standalone="no"?>
<!DOCTYPE svg PUBLIC "-//W3C//DTD SVG 20010904//EN"
 "http://www.w3.org/TR/2001/REC-SVG-20010904/DTD/svg10.dtd">
<svg version="1.0" xmlns="http://www.w3.org/2000/svg" viewBox="0 0 1024 1024" preserveAspectRatio="xMidYMid meet" width="1024pt" height="1024pt">
 <g transform="translate(-2517.3997162256255,-5263.888081247965)scale(8.409548614331156)" fill="#000000" stroke="none">
    <path
    d="M351.0840990636515,731.4000334740665L354.8041167672722,727.5712115062663L357.92088835679226,724.8768553067032L359.831167718111,723.7423895384661L362.1436111554968,722.1824991071401L362.24415217451354,719.9608369776759L360.83657790827874,718.3536771393399L359.4290036420439,718.8736406164486L360.0322497561445,717.2664807781127L360.33387281319483,715.6120515327669L360.4344138322116,714.0994305084508L359.4290036420439,713.5794670313421L358.3230524328593,714.0048916944311L357.3176422426916,713.9103528804113L356.91547816662444,712.8231565191841L356.7143961285909,710.2706085406506L356.21169103350707,709.4197592144728L354.30141167218835,708.6634487023148L353.1954604630038,709.2306815864333L350.17922989250053,708.7107181093246L350.3803119305341,704.8818961415244L349.5759837783999,703.3220057101985L350.48085294955087,702.7547728260798L350.17922989250053,701.1948823947539L350.9835580446347,699.965877812497L351.38572212070187,697.7442156830327L350.7824760066012,695.9952476236672L349.2743607213496,695.2389371115091L348.97273766429925,694.1517407502819L349.37490174036634,692.4973115049361L344.04622773247723,692.4027726909164L342.9402765232927,689.1411836072348L343.744604675427,689.0939142002248L343.744604675427,687.9121790249778L343.1413585613263,687.0613296988L343.04081754230947,685.4541698604642L341.4321612380411,684.6505899412962L339.6224228957392,684.6505899412962L338.51647168655467,683.8470100221282L336.60619232523595,683.3270465450196L335.50024111605137,682.2398501837923L332.38346952653137,681.8144255207035L329.36723895602813,679.3091469491799L329.56832099406165,677.4183706687847L329.2666979370114,676.3311743075575L329.56832099406165,674.2513203991228L325.848303290441,674.7240144692216L324.4407290242061,675.763941423439L321.9272035487868,676.898407191676L321.3239574346861,677.7492565178538L319.91638316845126,677.7965259248638L317.80502176909897,677.5601788898143L316.29690648384735,678.080142366923L314.98987323662925,677.7492565178538L315.1909552746629,673.4950098869648L312.8785118372771,675.1494391323105L310.4655273808744,675.0549003182907L309.3595761716899,673.5895487009846L307.5498378293879,673.400471072945L308.0525429244718,672.218735897698L306.5444276392202,670.5170372453424L305.4384764300356,668.0117586738188L306.14226356315305,667.4917951967101L306.14226356315305,666.3100600214632L307.85146088643825,665.5064801022952L307.5498378293879,663.9938590779791L308.25362496250534,663.0484709377815L308.4547070005389,661.7249275415049L311.67201960907573,659.8341512611097L313.8839220274448,659.3141877840011L314.2860861035119,658.8887631209121L316.7996115789312,658.9833019349319L318.1066448261493,651.3256579993315L318.1066448261493,650.1439228240846L317.7044807500822,648.5367629857486L316.4979885218809,647.4968360315313L316.4979885218809,645.5115209371164L318.0061038071325,645.0388268670176L318.60934992123316,645.3224433090769L318.70989094025,644.2352469478496L317.10123463598154,643.9516305057904L317.0006936169648,642.2026624464248L322.42990864387065,642.2972012604446L323.4353188340384,641.3045437132372L324.13910596715584,642.2026624464248L324.74235208125646,643.8570916917706L325.2450571763403,643.4789364356916L326.75317246159193,644.9915574600077L328.96507487996104,644.8024798319682L329.4677799750449,643.9516305057904L331.5791413743972,643.2898588076521L332.6850925835817,642.8171647375533L333.0872566596488,641.6354295623063L334.9975360209675,640.8318496431384L334.8969950019507,640.2646167590199L332.48401054554813,640.0282697239704L332.18238748849785,638.2793016646049L332.2829285075146,636.3885253842097L330.9758952602965,635.6794842790616L331.4786003553804,635.3958678370022L333.58996175473266,635.7740230930814L335.8018641731017,636.4830641982295L336.60619232523595,635.8212925000912L338.6170127055714,635.3958678370022L341.7337842950914,634.3086714757751L342.7391944852592,633.2687445215578L342.43757142820886,632.4651646023898L343.8451456944438,632.37062578837L344.54893282756115,632.9851280794985L344.14676875149405,634.2141326617553L345.05163792264506,634.6395573248442L345.75542505576243,635.9631007211208L344.95109690362824,636.9084888613185L344.54893282756115,639.3192286188222L345.2527199606786,640.7373108291187L345.45380199871215,642.0135848183853L347.1629993219973,643.337128214662L348.57057358823215,643.4789364356916L348.87219664528243,642.911703551573L349.6765247974167,642.7698953305434L350.9835580446347,642.2972012604446L351.8884272157858,641.5408907482865L353.39654250103735,641.777237783336L354.1003296341548,641.6826989693162L355.6084449194064,641.9190460043656L355.91006797645673,641.351813120247L355.4073628813729,640.7845802361285L355.70898593842315,639.9810003169606L356.8149371476077,640.2173473520099L358.1219703948258,639.9337309099507L359.73062669909416,640.5482332010791L360.9371189272955,641.1154660851977L361.84198809844645,640.3591555730395L362.4452342125471,640.5009637940692L362.84739828861416,641.2572743062273L364.15443153583226,641.0681966781877L365.26038274501684,640.0282697239704L366.06471089715103,637.9484158155358L367.77390822043617,635.3958678370022L368.6787773915871,635.2540596159727L369.3825645247046,636.8139500472987L370.991220828973,641.6826989693162L372.3987950952078,642.155393039415L372.49933611422466,644.0934387268201L370.3879747148723,646.3623702632942L371.2928438860233,647.213219589472L376.21935381784533,647.638644252561L376.3198948368621,650.4748086731537L378.4312562362143,648.6313017997684L381.9501919018015,649.6239593469759L386.5750787765731,651.3256579993315L387.982653042808,652.9800872446773L387.4799479477241,654.4927082689934L390.7978015752777,653.6418589428156L396.22701660218354,655.1544799671317L400.34919838187136,655.0126717461021L404.47138016155907,657.3288726895861L408.090856846163,660.4486535522382L410.20221824551527,661.252233471406L412.61520270191784,661.3940416924357L413.62061289208566,662.2448910186135L414.5254820632366,665.8373659513644L415.02818715832046,667.4917951967101L413.92223594913594,672.1241970836783L412.5146616829011,673.9677039570636L408.5935619412469,677.8437953318736L406.78382359894493,681.0108456015355L404.6724621995927,683.4215853590393L403.9686750664752,683.4688547660493L403.2648879333578,685.501439267474L403.46596997139136,690.7483434455706L402.6616418192571,695.0498594834696L402.3600187622068,696.8933663568549L401.45514959105583,697.9805627180821L400.9524444959719,701.7148458718625L398.13729596350225,705.3545902116232L397.6345908684184,708.2380240392258L395.4226884500493,709.4670286214827L394.71890131693186,711.1214578668285L391.7026707464287,711.1214578668285L387.2788659096905,712.2086542280557L385.3685865483718,713.4376588103125L382.25181495885175,714.2885081364903L378.93396133129824,716.5101702659547L376.62151789391237,719.2517958725276L376.11881279882857,721.3316497809623L376.62151789391237,722.8915402122883L376.11881279882857,725.727704632881L375.5155666847279,727.0512480291577L373.50474630439237,728.6111384604836L370.3879747148723,733.5271567895111L367.9749902584697,735.7488189189754L366.06471089715103,737.0250929082422L364.75767764993293,739.7194491078052L362.94793930763103,741.2793395391312L362.1436111554968,739.7194491078052L363.45064440271483,738.3959057115286L361.84198809844645,736.5051294311335L359.6300856800774,734.9452389998074L356.7143961285909,733.149001533432L355.70898593842315,733.2435403474518L352.8938374059535,731.0691476249974Z"
    fill="#1868b7"
    />
  </g>
</svg>