<?xml version="1.0" standalone="no"?>
<!DOCTYPE svg PUBLIC "-//W3C//DTD SVG 20010904//EN"
 "http://www.w3.org/TR/2001/REC-SVG-20010904/DTD/svg10.dtd">
<svg version="1.0" xmlns="http://www.w3.org/2000/svg" viewBox="0 0 1024 1024" preserveAspectRatio="xMidYMid meet" width="1024pt" height="1024pt">
 <g transform="translate(-19580.44109692799,-24016.356828313146)scale(34.590218828758246)" fill="#000000" stroke="none">
    <path
    d="M594.1922830462137,708.7107181093246L590.2711833045594,710.7433026107494L587.75765782914,712.8231565191841L586.7522476389722,714.7139327995792L585.947919486838,715.7538597537966L584.4398042015864,715.9429373818361L583.9370991065025,717.3137501851226L583.6354760494522,718.1645995113004L581.9262787261671,718.8263712094387L579.6138352887813,718.6845629884091L578.3068020415632,717.8809830692412L577.100309813362,717.550097220172L575.692735547127,718.2118689183103L575.0894894330263,719.5354123145869L573.6819151667916,720.3862616407647L572.3748819195735,721.6152662230215L570.3640615392379,721.8988826650809L569.7608154251373,720.9534945248832L569.9618974631709,719.2517958725276L568.3532411589025,716.6047090799744L567.5489130067682,716.1792844168855L567.5489130067682,708.0016770041765L570.2635205202212,707.9071381901567L570.3640615392379,697.9805627180821L572.4754229385902,697.8860239040623L576.7986867563116,696.8933663568549L577.8040969464793,698.027832125092L579.6138352887813,696.9406357638647L580.5187044599322,696.9406357638647L582.0268197451838,696.3261334727363L582.5295248402678,696.5152111007758L583.6354760494522,698.78414263725L584.1381811445361,699.2568367073488L585.0430503156871,700.8639965456847L588.260362924224,703.9365080013268L589.4668551524252,704.2673938503959L589.4668551524252,705.2127819905936L590.2711833045594,707.009019456969L592.3825447039117,707.4344441200578Z"
    fill="#1868b7"
    />
  </g>
</svg>