<?xml version="1.0" standalone="no"?>
<!DOCTYPE svg PUBLIC "-//W3C//DTD SVG 20010904//EN"
 "http://www.w3.org/TR/2001/REC-SVG-20010904/DTD/svg10.dtd">
<svg version="1.0" xmlns="http://www.w3.org/2000/svg" viewBox="0 0 1024 1024" preserveAspectRatio="xMidYMid meet" width="1024pt" height="1024pt">
 <g transform="translate(-14052.486046478929,-15530.026500462967)scale(25.533169887523584)" fill="#000000" stroke="none">
    <path
    d="M554.6796625726209,626.2728722840957L556.9921060100069,626.0837946560562L557.4948111050908,625.3274841438981L557.9975162001746,625.4220229579179L558.701303333292,626.0365252490462L562.1196979798624,624.949328887819L563.3261902080636,623.8621325265918L564.8343054933154,622.9167443863943L564.532682436265,621.9240868391868L565.3370105883992,621.6404703971275L568.0516181018521,621.829548025167L570.6656845962882,620.5532740359002L572.6765049766238,617.4807625802582L574.0840792428586,616.346296812021L575.8938175851606,615.8736027419222L576.1954406422109,617.1026073241791L577.8040969464793,618.8043059765348L577.8040969464793,619.9860411517817L577.3013918513955,621.1205069200188L577.502473889429,621.9713562461967L578.5078840795967,622.8222055723745L580.6192454789491,624.0039407476214L582.1273607642006,625.1384065158586L582.1273607642006,626.0365252490462L584.0376401255194,627.5018768663525L585.2441323537207,628.7308814486094L585.947919486838,630.3853106939551L587.9587398671736,631.5197764621922L588.4614449622575,632.37062578837L587.5565757911064,632.7015116374391L585.7468374488045,632.6069728234194L583.6354760494522,632.3233563813602L582.6300658592845,632.5597034164095L582.1273607642006,633.2214751145478L581.2224915930497,633.3160139285676L580.2170814028818,632.7487810444491L577.100309813362,634.1195938477356L575.7932765661437,633.8359774056763L575.3911124900767,634.0723244407257L574.5867843379425,635.7267536860714L572.4754229385902,635.2067902089628L570.4646025582547,634.9231737669035L568.6548642159528,633.8832468126861L566.342420778567,632.9378586724886L564.8343054933154,633.8359774056763L563.8288953031476,635.2540596159727L563.5272722460973,637.1921053033777L561.7175339037952,637.050297082348L559.8072545424766,636.5776030122493L558.1985982382081,638.0902240365654L556.6904829529566,640.6900414221087L556.3888598959062,639.8391920959309L556.2883188768894,638.5629181066641L554.9812856296713,637.6647993734765L553.9758754395036,636.2467171631802L553.77479340147,635.2540596159727L552.467760154252,633.7887079986664L552.6688421922855,632.9378586724886L552.3672191352352,631.7561234972416L552.5683011732688,629.6290001817971L553.2720883063862,629.1090367046884Z"
    fill="#1868b7"
    />
  </g>
</svg>