<?xml version="1.0" standalone="no"?>
<!DOCTYPE svg PUBLIC "-//W3C//DTD SVG 20010904//EN"
 "http://www.w3.org/TR/2001/REC-SVG-20010904/DTD/svg10.dtd">
<svg version="1.0" xmlns="http://www.w3.org/2000/svg" viewBox="0 0 1024 1024" preserveAspectRatio="xMidYMid meet" width="1024pt" height="1024pt">
 <g transform="translate(-390.4277468157834,-1253.211102861729)scale(3.7352925793076457)" fill="#000000" stroke="none">
    <path
    d="M334.19320786883327,516.9860032772555L336.20402824916886,517.3641585333344L338.818094743605,517.3168891263246L337.41052047737014,518.4513548945617L336.4051102872024,518.6404325226013L332.8861746216152,517.4586973473542L332.18238748849785,516.5133092071567L333.18779767866556,515.6624598809788ZM339.4213408577056,509.89559222577356L338.0137665914708,509.94286163278343L334.3942899068669,509.0447428995957L331.7802234124307,507.72119950331916L332.78563360259847,507.48485246826976L336.5056513062191,508.19389357341794L339.32079983868886,509.3756287486649ZM167.09403426295313,511.5500214711193L165.68645999671833,511.9281767271984L161.06157312194665,510.65190273793166L160.25724496981246,509.65924519072416L157.74371949439308,508.6665876435167L157.24101439930922,507.9102771313586L154.42586586683956,507.39031365425L153.31991465765498,505.87769262993385L153.52099669568855,505.21592093179555L156.53722726619185,505.83042322292397L158.246424589477,506.25584788601293L160.86049108391313,506.5394643280722L161.76536025506402,507.53212187527964L163.17293452129894,508.8556652715563L165.9880830537686,509.99013103979337ZM355.2062808433393,505.4522679668449L353.39654250103735,507.9102771313586L355.2062808433393,506.96488899116105L357.1165602046581,507.53212187527964L356.11115001449025,508.5247794224871L358.6246754899097,509.28108993464514L359.831167718111,508.61931823650684L362.64631625058064,509.47016756268465L361.84198809844645,511.5027520641094L363.75226745976516,511.03005799401063L364.15443153583226,512.5426790183268L364.95875968796645,514.2443776706825L363.852808478782,516.7023868351962L362.5457752315639,516.7969256492158L360.736036889262,516.2769621721072L361.3392830033626,514.0080306356331L360.53495485122835,513.6298753795539L357.3176422426916,516.0878845440677L355.6084449194064,515.993345730048L357.6192652997419,514.6698023337713L354.904657786289,514.0080306356331L351.8884272157858,514.1498388566627L346.45921218887986,514.0553000426429L346.0570481128128,513.251720123475L347.76624543609796,512.2590625762675L346.5597532078966,511.5027520641094L348.97273766429925,509.80105341175386L351.78788619676897,505.3577291528252L353.5976245390709,503.7978387214992L356.0106089954735,502.80518117429176L357.3176422426916,502.94698939532134L356.7143961285909,503.7032999074794ZM141.35553339465878,496.09292537888894L144.07014090811174,495.8565783438395L143.2658127559775,499.0236286135014L145.67879721238006,501.29256014997554L144.57284600319554,501.29256014997554L142.86364867991045,500.0162861607089L141.85823848974258,498.7400121714421L140.45066422350777,497.8418934382544L139.94795912842392,496.6128888559976L140.04850014744062,495.71477012280985ZM290.6589466345697,473.40361001414703L289.5529954253852,474.8689616314532L288.3465031971839,474.63261459640376L287.5421750450497,473.8290346772359L287.7432570830832,473.6399570491963L288.748667273251,472.78910772301856L289.9551595014523,472.8363771300284ZM283.3194522463451,471.8909889898308L280.00159861879155,473.40361001414703L278.09131925747283,473.3563406071371L277.48807314337216,472.60003009497905L279.4988935237077,471.3237561057123L283.3194522463451,471.3237561057123ZM274.1702195158186,463.66611217011194L274.67292461090244,464.8951167523687L276.1810398961541,464.4696920892799L277.7896962004225,465.178733194428L280.8059267709258,466.12412133462556L284.02323937946255,467.0222400678133L284.22432141749607,468.34578346408995L286.33568281684836,468.1094364290405L288.3465031971839,469.05482456923806L285.8329777217645,469.90567389541593L281.50971390404317,469.2439021972776L279.9010575997748,468.0148976150208L277.1864500863219,469.480249232327L273.1648093256508,470.94560084963325L272.2599401544999,469.2911716042875L268.43938143186244,469.5747880463467L270.852365888265,468.1567058360504L271.2545299643321,465.982313113596L272.1593991354831,463.42976513506255ZM300.1098024221466,459.50640435324254L296.9930308326265,459.6482125742722L296.2892436995091,458.2773997709857L297.49573592771037,456.6702399326498L300.1098024221466,456.29208467657077L302.22116382149886,457.09566459573875L302.3217048405156,458.2773997709857L301.9195407644485,458.6555550270647ZM244.91278298193708,454.0231531400966L243.2035856586519,455.01581068730405L239.38302693601446,454.16496136112625L237.1711245176454,454.4485778031855L233.35056579500792,453.2195732209287L235.7635502514105,452.32145448774094L237.67382961272926,451.1397193124939L240.6900601832325,451.89602982465203L242.3992575065177,452.41599330176064L243.2035856586519,452.93595677886935ZM324.54127004322294,520.9566334660852L322.731531700921,519.3967430347592L322.731531700921,515.567921066959L321.4244984537029,514.764341147791L319.6147601114009,515.2370352178898L318.60934992123316,514.4807247057317L316.4979885218809,516.6078480211763L315.6936603697467,518.7822407436308L314.688250179579,520.0585147328975L313.4817579513777,520.4839393959865L312.5768887802267,520.625747617016L312.27526572317635,521.3347887221643L307.1476737533209,521.3347887221643L302.9249509546163,521.3347887221643L301.71845872641495,521.854752199273L298.7022281559117,523.8400672936879L298.40060509886143,524.0764143287372L297.49573592771037,525.1636106899645L294.8816694332743,525.1636106899645L292.1670619198213,525.1636106899645L290.96056969162004,525.6363047600632L291.36273376768713,526.156268237172L291.5638158057207,527.0071175633498L291.5638158057207,527.290734005409L287.9443391211168,528.7088162157054L285.0286495696303,529.1342408787943L281.8113369610935,530.5995924961005L281.1075498279761,530.5995924961005L280.1021396378083,530.1741678330117L279.800516580758,529.7960125769326L279.9010575997748,529.5123961348734L280.5043037138754,528.5197385876659L281.8113369610935,526.95984815634L282.61566511322775,525.3054189109941L282.11296001814384,522.8946791534903L281.50971390404317,520.3894005819667L278.59402435255674,519.0658571856901L278.895647409607,518.5458937085814L278.49348333354,518.2150078595123L277.68915518140574,518.2150078595123L277.1864500863219,517.7895831964233L276.9853680482883,517.127811498285L276.48266295320445,517.4114279403443L275.778875820087,517.3168891263246L275.8794168391038,517.0332726842653L275.2761707250031,516.749656242206L274.97454766795283,516.0406151370579L272.86318626860054,515.1424964038702L270.55074283121473,514.1971082636726L267.8361353177618,513.1099119024453L265.2220688233256,512.117254355238L262.70854334790624,512.9208342744058L261.8036741767553,512.9208342744058L258.3852795301849,512.2117931692576L256.0728360927991,512.5899484253366L253.3582285793462,511.69182969214893L250.54308004687647,511.26640502906L248.63280068555775,511.0773274010205L247.7279315144068,510.60463333092173L247.2252264193229,509.0920123066056L246.32035724817194,509.0920123066056L246.21981622915513,510.17920866783277L240.48897814519893,510.17920866783277L230.93758133860536,510.17920866783277L221.48672555102848,510.17920866783277L213.04127995361932,510.17920866783277L204.69637537522703,510.17920866783277L196.4520118158515,510.17920866783277L187.90602519942564,510.17920866783277L185.19141768597268,510.17920866783277L176.9470541265971,510.17920866783277L169.0043136242719,510.17920866783277L168.60214954820475,510.17920866783277L163.17293452129894,507.43758306125983L161.16211414096347,506.208578479003L156.13506319012464,505.0741127107659L154.62694790487308,502.5688341392423L154.92857096192336,500.8671354868867L151.40963529633626,499.6854003116397L150.90693020125235,497.4164687751655L147.48853555468207,495.3838842737407L147.48853555468207,493.96580206344436L148.99665083993358,492.59498926015783L148.99665083993358,490.84602120079234L144.17068192712844,489.09705314142684L141.35553339465878,485.882733464755L139.64633607137353,483.8974183703401L137.03226957693744,482.62114438107335L135.12199021561872,481.4866786128363L133.7144159493838,480.02132699553L130.89926741691409,480.96671513572755L128.18465990346124,482.5266055670536L125.6711344280418,480.68309869366834L123.76085506672308,479.4540941114115L121.04624755327018,478.6977835992534L118.23109902080046,478.60324478523364L118.23109902080046,462.6734546229045L118.33164003981727,452.32145448774094L123.4592320096728,452.9832261858793L127.8830368464109,454.35403898916576L130.79872639789738,454.59038602421515L133.2117108543,453.45592025597807L136.6301055008703,452.5578015227904L140.7522872805581,452.88868737185953L144.97501007926263,451.6596827896026L149.49935593501755,450.9979110914643L151.51017631535302,452.13237685970137L153.52099669568855,451.47060516156307L154.12424280978917,450.1943311722964L156.13506319012464,450.4779476143556L160.86049108391313,452.9832261858793L164.5805087875338,451.09244990548416L164.88213184458414,453.2195732209287L168.30052649115447,452.74687915082984L169.40647770033894,451.94329923166185L172.8248723469094,452.0851074526915L177.0475951456139,453.26684262793844L183.5827613817043,454.3067695821559L187.40332010434167,454.77946365225466L190.21846863681145,454.59038602421515L193.93848634043212,456.0084682345115L190.01738659877793,457.37928103779797L195.04443754961665,457.9937833289264L202.58501397587474,457.66289747985724L204.99799843227737,457.1429340027486L207.91368798376385,458.84463265510425L211.0304595732839,457.4265504448079L208.11477002179743,456.2448152695609L209.92450836409932,455.2994271293633L213.34290301066972,455.1576189083337L215.55480542903877,454.8740024662744L217.86724886642457,455.5357741644127L220.68239739889424,457.0483951887288L223.7991689884143,456.8120481536795L228.72567892023625,458.0883221429462L233.0489427379576,457.66289747985724L237.07058349862865,457.7101668868671L236.76896044157826,455.9611988275016L239.28248591699764,455.48850475740284L243.60574973471898,456.4338928976004L243.60574973471898,459.08097969015364L245.31494705800418,456.8593175606893L247.62739049539,456.9065869676992L248.83388272359127,454.11769195411637L245.81765215308803,452.41599330176064L242.60033954455122,451.28152753352356L242.8014215825848,448.2090160778814L246.11927521013837,446.1764315764567L249.83929291375904,446.60185623954555L252.65444144622876,447.8308608218025L256.4750001688662,450.9979110914643L253.96147469344686,452.3687238947508L259.1896076823191,452.93595677886935L259.08906666330233,455.7721211994621L262.9096253859398,453.59772847700765L266.2274790134934,455.3939659433831L265.3226098423424,457.4738198518177L268.03721735579535,459.3645961322129L270.95290690728183,457.3320116307881L273.06426830663406,454.9212718732843L273.1648093256508,451.84876041764215L277.1864500863219,452.0851074526915L281.3086318660096,452.46326270877057L285.0286495696303,453.8813449190669L285.2297316076639,455.25215772235345L283.1183702083116,456.71750933965967L285.1291905886471,458.23013036397583L284.72702651258,459.60094316726224L279.2978114856741,461.5389888546674L275.37671174401993,461.96441351775627L272.4610221925334,461.1135641915784L271.6566940403992,462.53164640187475L268.9420865269463,464.8951167523687L268.1377583748121,466.12412133462556L264.9204457662753,468.0148976150208L260.8988050056043,468.2039752430603L258.68690258723524,469.3857104183072L258.48582054920166,471.18194788468264L255.2685079406649,471.5128337337518L251.8501132940945,473.78176527022606L248.83388272359127,476.94881553988785L247.7279315144068,479.12320826234236L247.62739049539,482.384797346024L251.64903125606094,482.8574914161228L252.9560645032791,485.45730880166616L254.26309775049714,487.5844321171107L258.1841974921514,487.0171992329921L263.3117894620069,488.246203815249L266.1269379944766,489.28613076946635L268.1377583748121,490.6096741657429L271.6566940403992,491.4132540849108L274.5723835918857,492.547719853148L279.19727046665736,492.7367974811874L282.2135010371606,493.0204139232468L281.8113369610935,495.4311536807506L282.61566511322775,498.22004869433346L284.72702651258,501.3398295569855L288.84920829226775,503.98691634953866L290.96056969162004,503.088797616351L292.4686849768717,500.2053637887484L291.06111071063685,495.80930893682967L289.0502903303013,494.3439573195234L293.5746361860562,493.0204139232468L296.6914077755762,491.0823682358417L298.3000640798447,489.14432254843666L297.9984410227943,487.25354626804153L296.08816166147557,484.8900759175475L292.770308033922,482.81022200911286L295.9876206424588,479.8795187745004L294.7811284142575,477.32697079596693L293.8762592431065,472.978185351058L295.78653860442523,472.3164136529198L300.6125075172305,473.07272416507783L303.52819706871696,473.3563406071371L305.8406405061028,472.64729950198887L308.3541659815221,473.59268764218655L311.87310164710925,475.1998474805224L312.67742979924344,476.28704384174955L317.7044807500822,476.4761214697891L317.60393973106545,478.8395918202831L318.5088089022164,482.3375279390141L321.02233437763584,482.81022200911286L323.1336957769881,484.46465125445866L327.1553365376591,482.9047608231327L329.7694030320952,479.8322493674905L331.67968239341394,478.50870597121394L333.79104379276623,481.0139845427375L337.41052047737014,484.55919006847836L340.52729206689014,487.9153179661798L339.4213408577056,489.6642860255453L343.1413585613263,491.2241764568714L345.65488403674567,492.8313362952073L350.07868887348377,493.5403774003554L351.8884272157858,494.43849613354314L352.99437842497025,496.80196648403705L355.2062808433393,497.1801217401161L356.3122320525238,498.22004869433346L356.5133140905574,501.3870989639953L354.50249371022187,502.4270259182127L352.49167332988634,503.4196834654201L347.8667864551147,504.4123410126276L344.3478507895276,506.6812725491018L339.6224228957392,507.15396661920056L333.6905027737494,506.5394643280722L329.4677799750449,506.5394643280722L326.5520904235584,506.7285419561117L324.2396469861726,508.7611264575364L320.72071132058545,509.99013103979337L316.69907055991445,513.6771447865639L313.4817579513777,516.2296927650973L315.7942013887635,515.8042681020085L320.3185472445183,512.117254355238L326.14992634749126,509.80105341175386L330.3726491461959,509.5174369696946L332.78563360259847,510.888249772981L330.1715671081623,512.7790260533762L331.07643627931327,515.7569986949985L331.9813054504642,517.8841220104431L335.60078213506813,519.2549348137296L340.22566900983986,518.8767795576506L343.04081754230947,515.7097292879887L343.2418995803431,517.7423137894134L344.95109690362824,518.7822407436308L341.5327022570579,520.5784782100062L335.3997000970346,522.2801768623618L332.5845515645649,523.3673732235891L329.4677799750449,525.3999577250138L327.3564185756926,525.2108800969743L327.25587755667584,522.8474097464804L332.0818464694811,520.5312088029964L327.65804163274294,520.625747617016ZM193.2346992073147,442.82030367875524L191.8271249410799,444.09657766802195L197.96012710110307,443.292997748854L201.88122684275731,444.66381055214055L204.99799843227737,443.2457283418442L207.61206492671351,444.19111648204176L209.92450836409932,446.9327420886147L211.33208263033418,445.75100691336775L209.3212622499987,442.91484249277505L211.73424670640128,442.4894178296861L214.549395238871,442.91484249277505L217.666166828391,444.04930826101213L219.3753641516762,446.79093386758507L220.28023332282714,448.72897955499013L225.00566121661564,450.1470617652865L230.03271216745435,451.47060516156307L229.731089110404,452.69960974382L225.1062022356324,452.88868737185953L226.9159405779343,453.97588373308673L226.01107140678334,455.01581068730405L220.88347943692781,454.59038602421515L216.05751052412262,453.8340755120571L212.8401979155858,453.97588373308673L207.61206492671351,454.9212718732843L200.57419359553927,455.3466965363732L195.5471426447005,455.63031297843247L194.03902735944888,454.3067695821559L190.21846863681145,453.5504590699978L187.80548418040883,453.8340755120571L184.28654851482167,451.6124133825927L186.19682787614045,451.3287969405335L190.5200916938618,450.8561028704347L194.44119143551598,450.9979110914643L198.06066812011989,450.4779476143556L192.63145309321402,449.8634453232272L186.6995329712243,450.0525229512667L182.77843322957006,450.00525354425685L181.2703179443185,448.9653265900396L187.70494316139212,447.87813022881227L183.48222036268749,447.9253996358222L178.55571043086553,447.16908912366415L180.86815386825134,445.08923521522945L182.87897424858681,443.9547694469924L190.31900965582815,442.25307079463676ZM220.17969230381038,441.9694543525774L217.76670784740782,443.8129612259627L213.34290301066972,441.8749155385577L214.34831320083748,441.4494908754688L218.0683309044581,441.354952061449ZM298.80276917492847,442.8675730857651L299.10439223197886,443.62388359792317L296.08816166147557,443.52934478390347L293.0719310909723,443.4820753768936L290.05570052046903,443.8602306329726L289.25137236833484,443.718422411943L286.13460077881484,442.2058013876268L286.2351417978316,441.2131438404193L287.64271606406646,441.0240662123798L293.9768002621233,441.3076826544392ZM270.24911977416434,442.72576486473554L272.4610221925334,444.42746351709116L275.0750886869696,442.2058013876268L282.11296001814384,441.07133561938974L286.93892893094903,443.9547694469924L286.53676485488194,445.75100691336775L292.06652090080456,444.9474269941998L294.6805873952407,443.8602306329726L300.91413057428076,445.27831284326896L304.7346892969182,446.60185623954555L305.0363123539685,447.78359141479257L310.2644453428409,447.16908912366415L313.1801348943273,448.9653265900396L319.91638316845126,450.0525229512667L322.3293676248539,451.1869887195038L324.94343411929003,453.78680610504716L319.8158421494345,455.1103495013238L326.45154940454165,456.9065869676992L330.87535424127975,457.5210892588276L334.8969950019507,460.12090664437096L339.32079983868886,460.2627148654006L338.41593066753785,462.24802995981554L333.4894207357159,465.5096190434972L330.07102608914556,464.28061446124036L325.64722125240746,461.5862582616772L322.02774456780355,461.96441351775627L321.7261215107532,463.57157335609213L324.6418110622397,465.178733194428L328.46236978487707,466.45500718369476L329.56832099406165,467.2113176958528L331.3780593363636,469.9529433024258L330.47319016521266,471.9855278038507L326.9542544996255,471.2292172916925L319.91638316845126,469.00755516222824L323.83748291010545,471.41829491973203L326.75317246159193,473.07272416507783L327.25587755667584,474.06538171228533L319.6147601114009,472.93091594404825L313.6828399894112,471.3237561057123L310.2644453428409,469.9529433024258L311.2698555330086,469.1493633832579L307.0471327343041,467.73128117296153L303.02549197363305,466.360468369675L303.02549197363305,467.2113176958528L294.98221045229104,467.6367423589417L292.66976701490523,466.69135421874415L294.47950535720713,464.6115003103095L299.7076383460795,464.56423090329963L305.4384764300356,464.2333450542304L304.5336072588847,463.2406875070229L305.5390174490524,461.8226052967266L309.1584941336563,459.12824909716346L308.3541659815221,457.85197510789675L307.24821477233763,456.9065869676992L303.02549197363305,455.5357741644127L297.29465388967685,454.59038602421515L299.10439223197886,453.8813449190669L296.1887026804923,452.1796462667113L293.675177205073,451.9905686386718L291.46327478670395,451.0451804984742L290.05570052046903,451.89602982465203L284.92810855061356,452.22691567372124L274.7734656299192,451.6124133825927L268.84154550792954,450.8088334634248L264.3171996521746,450.3834088003359L262.0047562147888,449.3907512531284L264.9204457662753,448.1144772638617L260.9993460246211,448.1144772638617L260.09447685347004,445.27831284326896L262.2058382528224,442.7730342717454L265.12152780430887,441.63856850350834L272.36048117351663,440.88225799135023ZM231.74190949073954,440.7877191773305L235.05976311829306,441.354952061449L240.0868140691319,441.0240662123798L240.79060120224926,441.8276461315478L238.17653470781312,443.1511895278244L242.3992575065177,444.3801941100813L241.89655241143385,446.8854726816048L237.37220655567899,447.9726690428321L234.65759904222597,447.73632200778263L232.74731968090725,446.6491256465555L225.80998936874983,444.5220023311109L225.80998936874983,443.62388359792317L231.54082745270597,443.9547694469924L228.4240558631859,442.1585319806169ZM251.74957227507775,443.7656918189528L248.7333417045745,445.8928151343974L245.51602909603776,445.75100691336775L243.8068317727525,443.292997748854L243.90737279176926,441.9221849455676L245.31494705800418,440.74044977032054L248.1300955904739,439.98413925816254L253.96147469344686,440.07867807218224L259.2901487013359,440.74044977032054L255.06742590263133,443.2457283418442ZM175.64002087937905,447.64178319376293L168.30052649115447,449.0125959970494L166.7924112059028,447.78359141479257L160.35778598882928,446.3182397974863L161.5642782170305,445.13650462223933L163.47455757834928,443.10392012081456L165.88754203475185,441.26041324742926L163.17293452129894,439.5587145950736L172.62379030887587,439.0860205249748L176.54489005053,439.7005228161032L183.683302400721,439.8423310371329L186.39790991417397,440.6459109563009L189.41414048467726,441.8276461315478L185.8952048190901,442.536687236696L179.05841552594939,444.47473292410103L175.64002087937905,446.4600480185159ZM250.54308004687647,437.6206689076686L249.03496476162485,438.7078652688957L245.01332400095384,438.4715182338464L241.59492935438345,437.76247712869815L243.10304463963507,436.48620313943144L247.12468540030613,435.72989262727344L249.5376698567087,436.72255017448094ZM236.97004247961183,432.75191998565106L239.08140387896412,434.02819397491777L239.18194489798088,435.493545592224L237.87491165076284,437.57339950065864L233.25002477599116,437.857015942718L230.23379420548792,437.38432187261924L230.33433522450468,435.77716203428326L225.80998936874983,435.9662396623228L225.60890733071625,433.83911634687826L228.6251379012195,433.933655160898L232.74731968090725,432.94099761369057L236.76896044157826,433.1300752417301ZM209.82396734508256,434.2172716029573L210.9299185542671,435.2099291501647L213.44344402968648,434.73723508006594L216.35913358117296,434.8317738940857L216.86183867625687,436.2025866973722L215.15264135297167,437.5261300936488L205.7017855653948,437.9988241637476L198.66391423422056,439.1805593389946L194.34065041649922,439.27509815301437L194.03902735944888,438.3297100128168L199.76986544340508,437.10070543055986L187.20223806630815,437.431591279629L183.28113832465397,436.9588972095302L187.1016970472914,434.2172716029573L189.7157635417276,433.41369168378935L197.55796302503597,434.3590798239869L202.58501397587474,436.01350906933266L207.41098288867994,436.24985610438216L203.38934212800893,433.555499904819L206.00340862244508,432.56284235761154L208.91909817393162,432.8937282066807ZM247.62739049539,431.7119930314337L250.64362106589323,432.6101117646214L256.17337711181585,432.6101117646214L258.5863615682184,433.5082304978091L257.9831154541178,434.54815745202643L261.2004280626546,435.2099291501647L262.9096253859398,435.871700848303L266.7301841085772,435.9662396623228L270.75182486924825,436.2025866973722L275.17562970598635,435.5880844062438L280.90646778994255,435.35173737119436L285.4308136456974,435.5880844062438L288.44704421620065,436.6280113604611L289.0502903303013,437.76247712869815L287.3410930070161,438.5187876408563L283.1183702083116,439.1332899319847L279.59943454272445,438.75513467590565L271.55615302138244,439.22782874600443L265.82531493742624,439.27509815301437L261.3009690816714,438.8969428969353L253.86093367443004,437.9988241637476L252.9560645032791,436.48620313943144L252.553900427212,435.11539033614497L249.83929291375904,433.88638575388813L244.00791381078608,433.555499904819L240.79060120224926,432.6573811716313L241.79601139241703,431.5229154033941ZM187.5038611233585,430.1521026001077L187.1016970472914,432.32649532256215L184.9903356479391,433.2718834627597L182.37626915350302,433.41369168378935L177.14813616463067,434.6426962660462L172.72433132789257,435.0681209291351L168.90377260525509,434.4536186380067L173.62920049904358,432.373764729572L179.36003858299966,430.5302578561868L183.683302400721,430.57752726319654ZM249.9398339327758,430.5302578561868L248.63280068555775,430.6247966702065L243.4046676966854,430.43571904216697L242.70088056356798,429.632139122999L248.33117762850742,429.6794085300089L250.24145698982613,430.19937200711763ZM204.29421129915988,430.01029437907806L199.06607831028765,430.813874298246L194.9438965305999,429.91575556505825L197.2563399679857,429.0176368318706L201.2779807286567,428.73402038981135L205.1990804703109,429.20671445991013ZM205.80232658441156,427.50501580755446L202.38393193784123,428.0249792846631L197.75904506306955,428.0249792846631L197.75904506306955,427.6468240285841L200.67473461455603,426.7959747024062L202.0823088807909,426.937782923436ZM244.41007788685317,429.0176368318706L240.2878961071654,429.5848697159891L237.9754526697796,428.9703674248607L236.76896044157826,427.88317106363354L236.56787840354474,426.74870529539646L240.18735508814865,426.8432441094161L241.79601139241703,427.0323217374557L245.1138650199706,428.0249792846631ZM232.54623764287373,428.26132631971245L233.65218885205826,429.44306149495947L229.12784299630334,429.1121756458904L224.50295612153172,428.21405691270263L218.26941294249167,428.1195180986829L220.98402045594457,427.26866877250507L217.56562580937424,426.60689707436677L217.36454377134072,425.56697012014945L222.89429981726335,425.9451253762285L230.43487624352144,426.937782923436ZM269.04262754596306,424.52704316593207L272.36048117351663,425.4724313061297L268.5399224508792,426.2760112252977L263.4123304810237,428.4031345407422L258.3852795301849,428.59221216878166L252.65444144622876,428.21405691270263L249.63821087572546,427.07959114446555L249.63821087572546,426.0869335972581L251.8501132940945,425.3306230851L246.8230623432558,425.3306230851L243.70629075373574,424.4325043519123L241.89655241143385,423.1562303626456L243.90737279176926,421.9272257803887L245.81765215308803,421.07637645421096L248.63280068555775,420.88729882617145L247.4263084573564,420.22552712803315L253.96147469344686,420.0837189070035L257.48041035903395,421.59633993131956L262.2058382528224,422.16357281543816L266.830725127594,422.6835362925468ZM320.72071132058545,414.9313535429266L328.1607467278268,415.1204311709662L334.19320786883327,415.4985864270452L339.32079983868886,416.25489693920326L339.1197178006553,417.0112074513613L332.38346952653137,418.1929426266083L325.54668023339065,418.76017551072687L323.03315475797126,419.42194720886516L329.1661569179946,419.3746778018553L322.5304496628874,421.07637645421096L318.0061038071325,421.8799563733789L313.1801348943273,424.1488879098531L307.44929681037115,424.6215819799519L305.63955846806914,425.18881486407037L297.1941128706601,425.4724313061297L301.1152126123143,425.85058656220866L299.10439223197886,426.32328063230744L301.4168356693647,427.694093435594L298.80276917492847,428.6867509828014L294.47950535720713,429.44306149495947L293.1724721099891,430.57752726319654L289.25137236833484,431.38110718236453L289.653536444402,432.0428788805028L294.47950535720713,431.9010706594732L294.47950535720713,432.6101117646214L287.0394699499658,434.26454100996716L279.6999755617412,433.5082304978091L271.55615302138244,433.933655160898L267.3334302226779,433.60276931182887L262.1052972338056,433.46096109079923L261.70313315773853,432.09014828751276L266.9312661466108,431.47564599638434L265.52369188037596,429.44306149495947L267.2328892036611,429.25398386691995L274.67292461090244,430.48298844917684L270.852365888265,428.6867509828014L266.32802003251015,428.1667875056928L268.640463469896,427.07959114446555L273.566973401718,426.41781944632726L274.37130155385216,425.42516189911976L270.450201812198,424.3379655378926L269.24370958399663,422.87261392058633L276.88482702927155,423.01442214161597L279.0967294476406,423.29803858367524L283.41999326536194,422.3053810364678L277.1864500863219,421.97449518739865L267.3334302226779,422.16357281543816L262.40692029085596,421.2181846752406L260.09447685347004,420.0837189070035L256.8771642449333,419.2801389878356L256.2739181308326,418.2874814406281L260.39609991052043,417.7675179635194L263.6134125190572,417.6729791494996L269.1431685649799,417.24755448641076L273.26535034466764,416.2076275321933L276.683744991238,416.34943575322296L279.6999755617412,417.1057462653811L281.8113369610935,415.59312524106497L285.5313546647142,415.1677005779761L290.55840561555294,414.8368147289069L299.10439223197886,414.7422759148871L300.51196649821367,415.02589235694643L308.65578903857244,414.5531982868476L314.688250179579,414.7422759148871Z"
    fill="#1868b7"
    />
  </g>
</svg>