<?xml version="1.0" standalone="no"?>
<!DOCTYPE svg PUBLIC "-//W3C//DTD SVG 20010904//EN"
 "http://www.w3.org/TR/2001/REC-SVG-20010904/DTD/svg10.dtd">
<svg version="1.0" xmlns="http://www.w3.org/2000/svg" viewBox="0 0 1024 1024" preserveAspectRatio="xMidYMid meet" width="1024pt" height="1024pt">
 <g transform="translate(-2202.78209874068,-5988.627025002196)scale(8.676793055550563)" fill="#000000" stroke="none">
    <path
    d="M320.3185472445183,793.9847283551463L320.3185472445183,800.2242900804504L323.33477781502165,800.2242900804504L325.0439751383068,800.3188288944701L324.0385649481391,801.4532946627072L321.7261215107532,802.304143988885L320.3185472445183,802.2096051748653L318.70989094025,801.9732581398159L316.5985295408977,801.122408813638L313.6828399894112,800.744253557559L310.16390432382406,799.184363126233L307.3487557913544,797.6717421019168L303.52819706871696,794.5519612392649L305.8406405061028,795.1191941233834L309.76174024775696,797.0099704037785L313.38121693236087,798.002627950986L314.8893322176125,796.7263539617193L315.7942013887635,794.7883082743142L318.3077268641829,793.6538425060771ZM324.6418110622397,710.5069555757L324.94343411929003,711.1687272738383L323.93802392912227,714.0994305084508L320.921793358619,715.4702433117372L321.02233437763584,720.1026451987054L320.4190882635351,721.0007639318932L321.3239574346861,722.1352297001303L319.3131370543506,723.8369283524859L317.5033987120487,726.4840151450392L316.4979885218809,728.9892937165627L316.69907055991445,731.7309193231357L314.98987323662925,734.5670837437284L316.29690648384735,739.3885632587361L317.0006936169648,739.9085267358448L317.0006936169648,742.5083441213881L315.3920373126964,745.2027003209512L315.49257833171316,747.5661706714452L313.38121693236087,749.3624081378206L313.38121693236087,751.914956116354L314.2860861035119,754.6565817229271L312.5768887802267,755.6965086771444L311.87310164710925,758.154517841658L311.1693145139918,761.0379516692607L311.67201960907573,764.4413489739719L310.56606839989115,765.0085818580905L311.1693145139918,768.2229015347623L312.4763477612099,769.2628284889796L311.4709375710421,770.4445636642266L312.7779708182602,771.0117965483452L313.07959387531054,772.0517235025625L311.87310164710925,772.5716869796711L312.17472470415953,774.2261162250169L311.1693145139918,777.9131299717875L309.6611992287402,780.3238697292913L310.0633633048073,781.7419519395877L309.1584941336563,783.4909199989531L306.94659171528724,784.7199245812101L307.24821477233763,787.6978972228324L308.25362496250534,788.6905547700399L310.0633633048073,788.5014771420003L310.0633633048073,790.6286004574449L311.1693145139918,792.2357602957808L317.90556278811573,792.6139155518599L320.51962928255193,793.0393402149488L318.0061038071325,793.0393402149488L316.69907055991445,793.7011119130871L314.18554508449506,794.7410388673044L313.6828399894112,797.3408562528477L312.5768887802267,797.3881256598577L309.3595761716899,796.4900069266699L306.14226356315305,794.5519612392649L302.7238689165827,792.944801400929L301.81899974543177,791.1958333415635L302.62332789756596,789.5414040962177L301.2157536313311,787.6978972228324L300.813589555264,782.9236871148346L302.0200817834653,780.2293309152715L305.0363123539685,778.102207599827L300.71304853624724,777.2513582736492L303.4276560497001,774.7933491091354L304.3325252208511,770.1609472221674L307.44929681037115,771.1536047693747L308.9574120956228,765.3394677071597L307.0471327343041,764.6304266020115L306.14226356315305,768.0810933137326L304.4330662398679,767.7029380576536L305.3379354110189,763.7323078688238L306.24280458216987,758.5326730977371L307.5498378293879,756.641896817342L306.7455096772537,753.900271210769L306.5444276392202,750.7804903481169L307.6503788484047,750.6859515340972L309.3595761716899,746.1480884611487L311.37039655202534,741.7047642022202L312.4763477612099,737.5450563853508L311.87310164710925,733.3380791614716L312.67742979924344,731.0218782179875L312.3758067421931,727.6184809132762L313.98446304646154,724.1678142015551L314.4871681415454,718.7791018024288L315.3920373126964,712.9649647402138L316.29690648384735,706.7254030149097L316.09582444581383,702.1875399419613L315.49257833171316,698.2169097531315L316.900152597948,697.5078686479833L317.7044807500822,696.0897864376869L319.01151399730026,697.9805627180821L319.41367807336735,700.0131472195069L320.921793358619,701.1948823947539L320.016924187468,703.889238594317L321.52503947271964,707.009019456969L322.63099068190417,710.885110831779Z"
    fill="#1868b7"
    />
  </g>
</svg>