<?xml version="1.0" standalone="no"?>
<!DOCTYPE svg PUBLIC "-//W3C//DTD SVG 20010904//EN"
 "http://www.w3.org/TR/2001/REC-SVG-20010904/DTD/svg10.dtd">
<svg version="1.0" xmlns="http://www.w3.org/2000/svg" viewBox="0 0 1024 1024" preserveAspectRatio="xMidYMid meet" width="1024pt" height="1024pt">
 <g transform="translate(-3809.86531143541,-2430.1327878277743)scale(5.379347411749396)" fill="#000000" stroke="none">
    <path
    d="M820.1079527769073,594.8387166225261L817.6949683205046,596.1622600188027L815.3825248831188,595.3114106926249L815.3825248831188,592.9006709351211L816.6895581303369,591.6716663528642L819.8063297198569,590.8680864336962L821.4149860241253,590.9153558407062L822.0182321382258,592.0025522019333L820.8117399100247,593.2315567841902ZM876.8130875023685,528.6142774016857L875.0033491600665,526.95984815634L873.8973979508818,528.5197385876659L869.5741341331604,529.7487431699227L869.9762982092277,531.214094787229L867.563313752825,531.1195559732092L866.2562805056069,530.2214372400215L864.3460011442883,532.2067523344365L861.329770573785,533.7193733587526L859.0173271363991,535.515610825128L855.0962273947448,536.319190744296L853.0854070144094,537.5954647335626L850.0691764439063,538.3990446527306L851.5772917291579,537.075501256454L850.9740456150572,535.9883048952267L853.1859480334263,534.0975286148316L851.6778327481745,532.6794464045352L849.264848291772,533.6248345447328L846.0475356832351,535.5628802321379L844.3383383599501,537.4063871055231L841.623730846497,537.5009259195429L840.2161565802621,538.8244693158194L841.7242718655139,540.7152455962147L843.9361742838829,541.1879396663135L844.0367153028997,542.4169442485703L846.2486177212686,543.2205241677383L849.3653893107887,541.2352090733233L851.8789147862082,542.3224054345505L853.6886531285102,542.4169442485703L854.0908172045772,543.8822958658766L850.1697174629229,544.6386063780346L848.8626842157049,546.1512274023507L846.148076702252,547.5693096126471L844.7405024360171,549.5073553000522L847.7567330065203,551.0672457313782L848.8626842157049,553.8088713379511L850.5718815389899,556.3614193164847L852.381619881292,558.4885426319291L852.381619881292,560.5683965403639L850.6724225580068,561.324707052522L851.2756686721075,562.837328076838L852.9848659953927,563.6881774030159L852.4821609003088,565.95710893949L851.7783737671914,568.1787710689543L850.2702584819398,568.4151181040038L848.1588970825874,571.440360152636L845.9469946642184,575.1273738994066L843.3329281697822,578.4362323900981L839.5123694471448,581.0360497756415L835.5912697054905,583.3995201261354L832.4744981159705,583.6831365681946L830.7653007926854,584.9594105574614L829.7598906025175,584.0140224172638L828.251775317266,585.4321046275602L824.3306755756117,586.8029174308467L821.4149860241253,587.2283420939356L820.4095758339574,590.206314735558L818.9014605487059,590.3481229565875L818.0971323965717,588.3155384551628L818.8009195296892,587.2756115009455L815.0809018260684,586.3774927677578L813.7738685788504,586.8029174308467L810.9587200463807,586.0938763256985L809.5511457801458,584.9594105574614L810.0538508752297,583.3522507191255L807.4397843807935,582.8322872420168L806.1327511335753,581.7923602877995L803.7197666771729,583.2577119051058L801.0051591637199,583.5885977541749L798.7932567453508,583.5885977541749L797.2851414600993,584.2503694523132L795.8775671938645,584.6757941154021L796.2797312699315,587.8901137920739L794.77161598468,587.7955749780541L794.5705339466465,587.1338032799158L794.4699929276296,585.9993375116787L792.4591725472941,586.8029174308467L791.2526803190927,586.282953953738L789.1413189197403,585.2430269995207L789.9456470718746,582.9268260560366L788.1359087295727,582.359593171918L787.5326626154722,579.8070451933846L784.5164320449688,580.2797392634834L784.9185961210359,576.9708807727918L787.5326626154722,574.6074104222979L787.6332036344888,572.3384788858237L787.5326626154722,570.1640861633692L786.3261703872708,569.5023144652309L785.4213012161198,567.8478852198853L783.8126449118514,568.0842322549346L780.796414341348,567.6588075918456L781.701283512499,566.4770724165987L780.394250265281,564.7753737642431L778.3834298849456,565.9098395324802L776.0709864475597,565.2480678343419L772.8536738390228,566.9970358937073L770.3401483636035,569.0768898021421L768.0277049262178,569.4550450582211L766.8212126980164,568.6987345460631L765.4136384317816,568.6514651390531L763.402818051446,567.9896934409148L761.8947027661944,568.6987345460631L759.9844234048757,570.7785884544977L759.7833413668421,568.5569263250334L758.074144043557,569.1714286161618L754.8568314350202,568.8878121741026L751.6395188264834,568.2260404759643L749.4276164081143,566.9970358937073L747.2157139897452,566.4770724165987L746.3108448185942,565.1062596133122L744.7021885143259,564.7281043572332L741.8870399818562,562.8845974838479L739.6751375634872,562.0337481576701L738.4686453352858,562.6955198558084L734.6480866126484,560.7574741684034L731.8329380801786,559.0085061090379L731.1291509470611,555.9359946533957L733.1399713273968,556.2668805024648L733.2405123464134,554.8487982921685L732.0340201182123,553.4307160818721L732.3356431752625,551.161784545398L729.3194126047592,547.9001954617163L724.7950667490044,546.7657296934792L723.9907385968702,544.5913369710247L721.879377197518,543.315062981758L721.3766721024341,542.5114830625901L720.974508026367,540.9043232242542L721.0750490453838,539.8171268630269L719.3658517220986,539.2026245718985L718.4609825509476,539.4862410139579L717.7571954178302,536.8864236284145L718.5615235699644,536.271921337286L718.1593594938972,535.6101496391477L720.7734259883334,534.2866062428711L722.784246368669,533.7193733587526L725.6999359201553,534.0975286148316L726.80588712934,532.3012911484562L730.3248227949271,531.970405299387L731.3302329850949,530.8832089381598L735.754037821833,529.3705879138437L736.1562018979,528.7560856227153L735.9551198598665,527.1489257843793L737.8653992211853,526.4398846792312L735.3518737457658,521.5711357572137L740.8816297916884,520.4366699889766L742.2892040579233,519.8221676978482L744.3000244382588,514.811610554801L749.8297804841815,515.7569986949985L751.337895769433,514.4807247057317L751.5389778074666,511.69182969214893L753.8514212448524,511.4082132500897L755.9627826442047,509.5647063767044L757.0687338533892,509.3283593416551L757.7725209865066,511.26640502906L760.0849644238925,512.7790260533762L764.1066051845635,513.8189530075934L766.0168845458822,516.0406151370579L765.0114743557144,519.3494736277494L766.0168845458822,520.5312088029964L769.3347381734358,521.0039028730951L773.0547558770564,521.3820581291742L776.3726095046101,523.1310261885396L778.1823478469121,523.4619120376088L779.3888400751134,526.0144600161423L781.0980373983984,527.6688892614881L784.1142679689017,527.6216198544782L789.9456470718746,528.2361221456066L793.5651237564786,527.8579668895276L796.3802722889484,528.2833915526165L800.502454068636,529.9850902049722L803.9208487152064,529.9850902049722L805.1273409434077,530.83593953115L808.3446535519446,529.3233185068339L812.8689994076994,528.3779303666363L817.0917222064039,528.2833915526165L820.3090348149408,527.290734005409L822.3198551952762,525.7781129810929L824.3306755756117,524.8327248408954L823.8279704805278,523.9346061077076L822.9231013093768,522.8474097464804L824.4312165946286,521.051172280105L825.9393318798802,521.2875193151543L828.8550214313666,521.854752199273L831.6701699638363,520.3894005819667L835.8928927625409,519.3022042207394L837.9037131428763,517.4586973473542L839.9145335232118,516.6551174281863L843.9361742838829,516.2769621721072L846.148076702252,516.6078480211763L846.4496997593023,515.6151904739688L843.9361742838829,513.6771447865639L841.7242718655139,512.7790260533762L839.5123694471448,513.8189530075934L836.7977619336918,513.3462589374947L835.1891056294235,513.7244141935737L834.4853184963059,512.5899484253366L836.4961388766415,509.80105341175386L837.8031721238597,507.6739300963093L841.22156677043,508.7611264575364L845.1426665120841,506.96488899116105L845.0421254930675,505.7358844089042L847.6561919875036,502.80518117429176L849.1643072727552,501.907062441104L849.1643072727552,500.34717200977803L847.5556509684868,499.6854003116397L849.8680944058726,498.31458750835316L853.3870300714598,497.7946240312445L857.1070477750804,497.7000852172248L861.2292295547682,498.5509345434026L863.7427550301875,499.5908614976199L865.4519523534728,502.3797565112028L866.4573625436404,503.60876109345963L867.4627727338084,505.31045974581525L868.468182923976,508.0520853523883L873.3946928557981,508.950204085576L876.6120054643347,510.93551917999093L877.8184976925361,513.5353365655342L882.0412204912406,513.5353365655342L884.4542049476432,512.448140204307L889.0790918224147,511.64456028513905L887.5709765371632,514.1498388566627L886.4650253279788,515.1424964038702L885.5601561568278,518.2150078595123L883.649876795509,520.9566334660852L880.3320231679554,520.4366699889766L877.919038711553,521.429327536184L878.6228258446704,523.8400672936879L878.2206617686031,527.1016563773695L876.8130875023685,527.1961951913893Z"
    fill="#1868b7"
    />
  </g>
</svg>