<?xml version="1.0" standalone="no"?>
<!DOCTYPE svg PUBLIC "-//W3C//DTD SVG 20010904//EN"
 "http://www.w3.org/TR/2001/REC-SVG-20010904/DTD/svg10.dtd">
<svg version="1.0" xmlns="http://www.w3.org/2000/svg" viewBox="0 0 1024 1024" preserveAspectRatio="xMidYMid meet" width="1024pt" height="1024pt">
 <g transform="translate(-26004.447674385527,-32939.58171282171)scale(53.41576437211533)" fill="#000000" stroke="none">
    <path
    d="M504.0069889881664,633.0323974865083L502.8004967599651,633.0796668935183L500.7896763796296,632.5124340093997L498.97993803732766,632.5597034164095L495.662084409774,633.0323974865083L493.7518050484553,633.8832468126861L491.0371975350024,634.8759043598936L490.4339514209018,634.8286349528837L490.6350334589353,632.5124340093997L490.93665651598565,632.1815481603305L490.8361154969689,631.0470823920934L489.6296232687676,629.9126166238564L488.82529511663336,629.7235389958169L488.02096696449917,628.9199590766489L488.62421307859984,627.690954494392L488.32259002154944,626.3674110981154L488.42313104056626,625.5165617719375L488.9258361356502,625.5165617719375L489.02637715466693,624.3348265966906L488.82529511663336,623.7675937125721L489.1269181736837,623.389438456493L490.1323283638514,623.0585526074238L489.42854123073397,620.8368904779595L488.82529511663336,619.6551553027126L489.02637715466693,618.709767162515L489.52908224975084,618.5206895344755L489.9312463258179,618.2370730924163L490.7355744779521,618.6624977555051L492.84693587730436,618.709767162515L493.3496409723883,617.8589178363371L493.85234606747207,617.9061872433471L494.6566742196063,617.6225708012878L495.05883829567347,618.8043059765348L495.7626254287909,618.4734201274656L496.86857663797537,618.0479954643768L498.1756098851934,618.6624977555051L498.6783149802773,619.5606164886929L499.8848072084786,620.1751187798212L500.89021739864637,619.4660776746731L502.1972506458645,619.3715388606533L504.1075300071832,620.0805799658015L504.8113171403006,624.0512101546313L503.70536593111603,626.4146805051253L502.9010377789819,629.5344613677773L504.1075300071832,631.9452011252812Z"
    fill="#1868b7"
    />
  </g>
</svg>