<?xml version="1.0" standalone="no"?>
<!DOCTYPE svg PUBLIC "-//W3C//DTD SVG 20010904//EN"
 "http://www.w3.org/TR/2001/REC-SVG-20010904/DTD/svg10.dtd">
<svg version="1.0" xmlns="http://www.w3.org/2000/svg" viewBox="0 0 1024 1024" preserveAspectRatio="xMidYMid meet" width="1024pt" height="1024pt">
 <g transform="translate(-15696.24054902449,-18083.43398048695)scale(29.675424651175188)" fill="#000000" stroke="none">
    <path
    d="M548.5466604125978,640.6900414221087L548.1444963365307,640.5009637940692L546.5358400322622,640.8791190501482L544.826642708977,640.5009637940692L543.519609461759,640.6900414221087L538.9952636060041,640.6427720150989L539.3974276820712,638.4211098856346L538.2914764728866,636.5776030122493L536.9844432256687,636.1049089421505L536.381197111568,634.8286349528837L535.6774099784506,634.4504796968047L535.7779509974673,633.6941691846466L536.4817381305847,631.7088540902317L537.7887713778028,629.0144978906686L538.593099529937,628.9672284836588L540.3022968532222,627.3600686453228L541.3077070433899,627.312799238313L542.9163633476584,628.4472650065501L544.826642708977,627.5018768663525L545.0277247470107,626.3201416911055L545.731511880128,625.2329453298784L546.1336759561951,623.8148631195819L547.6417912414468,622.633127944335L548.1444963365307,620.6950822569299L548.7477424506313,620.0805799658015L549.1499065266984,618.6152283484953L549.8536936598158,616.8662602891297L552.2666781162185,614.6918675666753L552.3672191352352,613.7464794264778L552.6688421922855,613.2737853563789L551.562890983101,612.1393195881418L551.6634320021178,611.2412008549541L552.467760154252,611.0993926339245L553.5737113634365,612.8956301002999L553.77479340147,614.7391369736852L553.6742523824532,616.5826438470705L555.1823676677049,619.1351918256039L553.6742523824532,619.0879224185941L552.869924230319,619.2770000466336L551.562890983101,618.9933836045743L550.9596448690004,620.3169270008509L552.5683011732688,621.9713562461967L553.8753344204869,622.4440503162955L554.1769574775371,623.5785160845326L555.0818266486881,625.5165617719375L554.6796625726209,626.2728722840957L553.2720883063862,629.1090367046884L552.5683011732688,629.6290001817971L552.3672191352352,631.7561234972416L552.6688421922855,632.9378586724886L552.467760154252,633.7887079986664L553.77479340147,635.2540596159727L553.9758754395036,636.2467171631802L554.9812856296713,637.6647993734765L556.2883188768894,638.5629181066641L556.3888598959062,639.8391920959309L556.6904829529566,640.6900414221087L556.489400914923,642.155393039415L554.2774984965539,641.4936213412767L552.065596078185,640.7845802361285Z"
    fill="#1868b7"
    />
  </g>
</svg>