<?xml version="1.0" standalone="no"?>
<!DOCTYPE svg PUBLIC "-//W3C//DTD SVG 20010904//EN"
 "http://www.w3.org/TR/2001/REC-SVG-20010904/DTD/svg10.dtd">
<svg version="1.0" xmlns="http://www.w3.org/2000/svg" viewBox="0 0 1024 1024" preserveAspectRatio="xMidYMid meet" width="1024pt" height="1024pt">
 <g transform="translate(-9446.262031662114,-10936.090820667563)scale(17.393563547667867)" fill="#000000" stroke="none">
    <path
    d="M598.1133827878679,637.1921053033777L597.9123007498343,640.4536943870594L599.0182519590188,640.8318496431384L598.1133827878679,641.8245071903458L597.1079725977002,642.5808177025039L596.0020213885156,644.0461693198101L595.3987752744149,645.3224433090769L595.2982342553981,647.5913748455511L594.5944471222807,648.6313017997684L594.5944471222807,650.758425115213L593.7901189701465,651.514735627371L593.6895779511298,653.1691648727168L593.2874138750627,653.4055119077663L593.0863318370291,654.9181329320824L593.7901189701465,656.194406921349L593.8906599891633,659.5505348190504L594.3933650842472,662.1503522045938L594.1922830462137,663.5684344148901L594.6949881412975,665.2228636602359L596.3036444455659,666.782754091562L597.8117597308176,670.280690210293L596.7058085216331,669.9970737682337L592.9857908180123,670.4697678383325L592.2820036848949,670.8006536874017L591.4776755327607,672.596891153777L592.0809216468613,673.8258957360339L591.5782165517775,677.1347542267255L591.2765934947271,679.9236492403084L591.9803806278446,680.443612717417L593.8906599891633,681.5308090786442L594.6949881412975,681.0108456015355L594.896070179331,684.0360876501678L592.7847087799787,683.9888182431579L591.6787575707942,682.4761972188418L590.6733473806265,681.2944620435948L588.4614449622575,680.8690373805059L587.8581988481568,679.4036857631996L586.1490015248717,680.3018044963874L583.9370991065025,679.9236492403084L582.9316889163348,678.6473752510416L581.2224915930497,678.3637588089823L579.9154583458316,678.4582976230021L579.7143763077979,677.5601788898143L578.809507136647,677.5129094828045L577.502473889429,677.3711012617748L575.7932765661437,677.7492565178538L574.5867843379425,677.701987110844L573.8829972048251,677.9383341458934L573.9835382238418,674.6294756552019L573.0786690526909,673.5895487009846L572.8775870146574,671.8878500486288L573.2797510907244,670.1861513962732L572.7770459956406,669.0989550350461L572.6765049766238,667.3499869756805L569.2581103300535,667.3972563826903L569.5597333871037,666.357329428473L568.1521591208689,666.404598835483L567.9510770828354,666.8772929055817L566.2418797595501,666.9718317196015L565.5380926264328,668.6262609649473L565.1359285503656,669.2880326630856L563.5272722460973,668.9098774070065L562.6224030749462,669.2880326630856L560.8126647326443,669.5243796981349L559.7067135234598,668.0590280808287L559.1034674093592,667.160909347641L558.299139257225,665.5064801022952L557.5953521241075,663.4266261938606L549.3509885647319,663.3793567868506L548.3455783745642,663.7102426359198L547.54125022243,663.6629732289099L546.4352990132454,664.0411284849889L546.0331349371784,663.1902791588111L546.7369220702958,662.859393309742L546.8374630893126,661.677658134495L547.2396271653797,660.921347622337L548.2450373555474,660.3541147382184L549.0493655076816,660.6377311802777L549.9542346788326,659.5505348190504L551.4623499640843,659.5978042260604L551.6634320021178,660.4013841452282L552.7693832113023,660.874078215327L554.3780395155707,659.1251101559616L555.9866958198392,657.754297352675L556.6904829529566,656.8561786194873L556.5899419339398,654.5872470830132L557.796434162141,651.8456214764402L559.1034674093592,650.4275392661439L560.913205751661,649.0567264628573L561.2148288087114,648.2058771366795L561.3153698277282,647.1659501824622L561.818074922812,646.1732926352547L561.6169928847785,644.6134022039287L562.0191569608456,642.155393039415L562.5218620559294,640.4064249800495L563.3261902080636,638.8938039557333L563.5272722460973,637.1921053033777L563.8288953031476,635.2540596159727L564.8343054933154,633.8359774056763L566.342420778567,632.9378586724886L568.6548642159528,633.8832468126861L570.4646025582547,634.9231737669035L572.4754229385902,635.2067902089628L574.5867843379425,635.7267536860714L575.3911124900767,634.0723244407257L575.7932765661437,633.8359774056763L577.100309813362,634.1195938477356L580.2170814028818,632.7487810444491L581.2224915930497,633.3160139285676L582.1273607642006,633.2214751145478L582.6300658592845,632.5597034164095L583.6354760494522,632.3233563813602L585.7468374488045,632.6069728234194L587.5565757911064,632.7015116374391L588.4614449622575,632.37062578837L590.1706422855426,634.6868267318541L591.377134513744,635.0177125809232L592.1814626658781,634.5450185108244L593.3879548940795,634.734096138864L594.9966111983479,634.1668632547454L595.5998573124484,635.3485984299924Z"
    fill="#1868b7"
    />
  </g>
</svg>