<?xml version="1.0" standalone="no"?>
<!DOCTYPE svg PUBLIC "-//W3C//DTD SVG 20010904//EN"
 "http://www.w3.org/TR/2001/REC-SVG-20010904/DTD/svg10.dtd">
<svg version="1.0" xmlns="http://www.w3.org/2000/svg" viewBox="0 0 1024 1024" preserveAspectRatio="xMidYMid meet" width="1024pt" height="1024pt">
 <g transform="translate(-20312.343240278664,-23908.639623899413)scale(37.638521227455705)" fill="#000000" stroke="none">
    <path
    d="M548.2450373555474,660.3541147382184L547.2396271653797,659.4087265980208L546.4352990132454,659.8814206681196L545.2288067850442,661.0631558433666L543.0169043666751,658.1324526087541L545.1282657660274,656.572562177428L544.022314556843,654.7290553040427L545.0277247470107,654.0200141988946L546.9380041083293,653.6891283498254L547.1390861463628,652.4601237675686L548.6472014316146,653.7836671638453L551.0601858880171,653.878205977865L551.9650550591681,652.6019319885983L552.2666781162185,650.7111557082031L551.9650550591681,648.5367629857486L550.65802181195,646.8823337404028L551.8645140401513,643.6680140637311L551.1607269070339,643.1007811796126L549.0493655076816,643.337128214662L548.3455783745642,641.8717765973557L548.5466604125978,640.6900414221087L552.065596078185,640.7845802361285L554.2774984965539,641.4936213412767L556.489400914923,642.155393039415L556.6904829529566,640.6900414221087L558.1985982382081,638.0902240365654L559.8072545424766,636.5776030122493L561.7175339037952,637.050297082348L563.5272722460973,637.1921053033777L563.3261902080636,638.8938039557333L562.5218620559294,640.4064249800495L562.0191569608456,642.155393039415L561.6169928847785,644.6134022039287L561.818074922812,646.1732926352547L561.3153698277282,647.1659501824622L561.2148288087114,648.2058771366795L560.913205751661,649.0567264628573L559.1034674093592,650.4275392661439L557.796434162141,651.8456214764402L556.5899419339398,654.5872470830132L556.6904829529566,656.8561786194873L555.9866958198392,657.754297352675L554.3780395155707,659.1251101559616L552.7693832113023,660.874078215327L551.6634320021178,660.4013841452282L551.4623499640843,659.5978042260604L549.9542346788326,659.5505348190504L549.0493655076816,660.6377311802777Z"
    fill="#1868b7"
    />
  </g>
</svg>