<?xml version="1.0" standalone="no"?>
<!DOCTYPE svg PUBLIC "-//W3C//DTD SVG 20010904//EN"
 "http://www.w3.org/TR/2001/REC-SVG-20010904/DTD/svg10.dtd">
<svg version="1.0" xmlns="http://www.w3.org/2000/svg" viewBox="0 0 1024 1024" preserveAspectRatio="xMidYMid meet" width="1024pt" height="1024pt">
 <g transform="translate(-5572.92441065652,-12031.284337226665)scale(19.733556675933333)" fill="#000000" stroke="none">
    <path
    d="M301.51737668838143,647.4022972175115L300.3108844601801,646.7405255193733L298.9033101939453,645.8424067861855L298.19952306082786,646.2678314492745L295.78653860442523,645.8896761931954L295.0827514713078,644.7079410179484L294.58004637622395,644.7552104249584L291.7648978437542,643.1480505866224L291.46327478670395,642.2972012604446L292.4686849768717,642.0608542253952L292.3681439578549,640.6900414221087L292.9713900719555,639.6501144678914L294.37896433819037,639.4610368398519L295.5854565663917,637.7120687804863L296.5908667565594,636.2467171631802L295.5854565663917,635.5849454650418L296.08816166147557,633.9777856267059L295.48491554737495,631.4252376481725L296.08816166147557,630.6689271360144L295.6859975854085,628.3054567855204L294.47950535720713,626.8401051682142L294.8816694332743,625.4692923649277L295.78653860442523,625.6583699929672L296.2892436995091,624.8547900737992L295.6859975854085,623.2003608284535L295.9876206424588,622.7749361653646L297.3951949086936,622.8694749793843L299.50655630804596,620.9314292919794L300.71304853624724,620.64781284992L300.71304853624724,619.7024247097224L301.2157536313311,617.3389543592285L302.8244099355995,616.0626803699618L304.5336072588847,616.0154109629519L304.835230315935,615.4009086718235L306.94659171528724,615.6372557068728L309.1584941336563,614.2191734965766L310.2644453428409,613.6046712054481L311.67201960907573,612.2811278091715L312.5768887802267,612.4229360302011L313.38121693236087,613.1792465423591L312.7779708182602,614.1246346825567L310.96823247595825,614.5973287526556L310.2644453428409,615.968141555942L309.25903515267305,616.77172147511L308.4547070005389,617.8116484293273L308.0525429244718,619.7969635237422L307.24821477233763,621.451392769088L308.75633005758925,621.6404703971275L309.05795311463953,622.9167443863943L309.6611992287402,623.5312466775226L309.96282228579054,624.6657124457597L309.56065820972344,625.7056393999771L309.6611992287402,626.2728722840957L310.36498636185763,626.509219319145L311.06877349497506,627.4546074593426L314.688250179579,627.2182604242932L316.29690648384735,627.5491462733623L318.2071858451661,629.9598860308662L319.3131370543506,629.6762695888069L321.3239574346861,629.8180778098366L322.9326137389545,629.4871919607674L323.93802392912227,629.9598860308662L323.4353188340384,631.4725070551823L322.83207271993774,632.41789519538L322.63099068190417,634.4032102897949L323.1336957769881,636.29398657019L323.93802392912227,637.097566489358L324.0385649481391,637.7120687804863L322.63099068190417,639.1301509907828L323.63640087207193,639.7446532819112L324.4407290242061,640.7373108291187L325.2450571763403,643.4789364356916L324.74235208125646,643.8570916917706L324.13910596715584,642.2026624464248L323.4353188340384,641.3045437132372L322.42990864387065,642.2972012604446L317.0006936169648,642.2026624464248L317.10123463598154,643.9516305057904L318.70989094025,644.2352469478496L318.60934992123316,645.3224433090769L318.0061038071325,645.0388268670176L316.4979885218809,645.5115209371164L316.4979885218809,647.4968360315313L317.7044807500822,648.5367629857486L318.1066448261493,650.1439228240846L318.1066448261493,651.3256579993315L316.7996115789312,658.9833019349319L315.3920373126964,657.5179503176256L314.5877091605622,657.4706809106158L316.3974475028641,654.5872470830132L314.2860861035119,653.3109730937465L312.5768887802267,653.5473201287958L311.5714785900589,653.074626058697L310.0633633048073,653.7836671638453L307.95200190545506,653.4527813147761L306.3433456011866,650.5220780801636L305.0363123539685,649.8130369750154L304.1314431828176,648.4894935787388L302.22116382149886,647.1659501824622Z"
    fill="#1868b7"
    />
  </g>
</svg>