<?xml version="1.0" standalone="no"?>
<!DOCTYPE svg PUBLIC "-//W3C//DTD SVG 20010904//EN"
 "http://www.w3.org/TR/2001/REC-SVG-20010904/DTD/svg10.dtd">
<svg version="1.0" xmlns="http://www.w3.org/2000/svg" viewBox="0 0 1024 1024" preserveAspectRatio="xMidYMid meet" width="1024pt" height="1024pt">
 <g transform="translate(-26189.65148090456,-59298.123940968035)scale(96.48850515390488)" fill="#000000" stroke="none">
    <path
    d="M280.3032216758419,624.0512101546313L278.79510639059026,623.389438456493L278.1918602764896,622.8222055723745L278.59402435255674,622.3495115022757L278.49348333354,621.7350092111473L277.68915518140574,621.073237513009L276.5832039722212,620.5060046288904L275.5777937820535,620.1278493728114L275.4772527630367,619.3242694536434L274.67292461090244,618.8515753835446L274.87400664893596,619.6551553027126L274.37130155385216,620.3169270008509L273.66751442073473,619.5133470816829L272.7626452495838,619.2770000466336L272.36048117351663,618.709767162515L272.4610221925334,617.8589178363371L272.7626452495838,616.9607991031495L271.95831709744954,616.5826438470705L272.662104230567,616.0154109629519L273.06426830663406,615.6845251138827L274.87400664893596,616.393566219031L275.5777937820535,616.0626803699618L276.48266295320445,616.2990274050112L276.88482702927155,616.8662602891297L277.68915518140574,617.0553379171693L278.3929423145231,616.4408356260408L279.0967294476406,617.9534566503569L280.2026806568251,619.0879224185941L281.50971390404317,620.269657593841L280.40376269485864,620.5532740359002L280.40376269485864,621.6404703971275L281.0070088089593,622.0658950602165L280.60484473289216,622.3967809092856L280.705385751909,622.9167443863943L280.5043037138754,623.4839772705128Z"
    fill="#1868b7"
    />
  </g>
</svg>