<?xml version="1.0" standalone="no"?>
<!DOCTYPE svg PUBLIC "-//W3C//DTD SVG 20010904//EN"
 "http://www.w3.org/TR/2001/REC-SVG-20010904/DTD/svg10.dtd">
<svg version="1.0" xmlns="http://www.w3.org/2000/svg" viewBox="0 0 1024 1024" preserveAspectRatio="xMidYMid meet" width="1024pt" height="1024pt">
 <g transform="translate(-8341.346968953096,-17420.47177337051)scale(30.554693298736492)" fill="#000000" stroke="none">
    <path
    d="M282.31404205617736,582.2650543578983L284.6264854935632,582.4541319859378L286.8383879119323,582.4541319859378L289.45245440636836,583.4467895331453L290.55840561555294,584.4394470803527L293.1724721099891,584.1558306382934L294.17788230015685,584.7703329294219L296.5908667565594,586.5193009887874L298.3000640798447,587.7955749780541L299.2049332509956,587.7483055710443L300.91413057428076,588.3155384551628L300.71304853624724,589.1191183743307L302.7238689165827,589.2136571883505L304.835230315935,590.3481229565875L304.5336072588847,591.0098946547259L302.62332789756596,591.340780503795L300.813589555264,591.4825887248247L298.9033101939453,591.2935110967852L294.8816694332743,591.5298581318345L296.6914077755762,590.0172371075184L295.5854565663917,589.2609265953604L293.77571822408976,589.0718489673209L292.87084905293875,588.2682690481529L292.1670619198213,586.708378616827L290.55840561555294,586.8029174308467L287.9443391211168,586.0466069186887L287.14001096898255,585.47937403457L283.5205342843787,585.0066799644712L282.51512409421093,584.4867164873626L283.62107530339546,583.7776753822144L280.8059267709258,583.6358671611848L278.79510639059026,585.1012187784911L277.68915518140574,585.1484881855009L277.28699110533864,585.8102598836392L275.8794168391038,586.1411457327084L274.67292461090244,585.857529290649L276.1810398961541,585.0066799644712L276.7842860102548,583.9667530102539L278.09131925747283,583.3522507191255L279.4988935237077,582.8322872420168L281.61025492306,582.5486707999576Z"
    fill="#1868b7"
    />
  </g>
</svg>