<?xml version="1.0" standalone="no"?>
<!DOCTYPE svg PUBLIC "-//W3C//DTD SVG 20010904//EN"
 "http://www.w3.org/TR/2001/REC-SVG-20010904/DTD/svg10.dtd">
<svg version="1.0" xmlns="http://www.w3.org/2000/svg" viewBox="0 0 1024 1024" preserveAspectRatio="xMidYMid meet" width="1024pt" height="1024pt">
 <g transform="translate(-27155.77875372776,-24787.254816860543)scale(49.81743472620064)" fill="#000000" stroke="none">
    <path
    d="M559.4050904664094,511.31367443606996L558.0980572191913,510.7464415519514L556.7910239719733,510.888249772981L554.5791215536042,510.0374004468032L553.5737113634365,510.27374748185264L552.065596078185,511.4082132500897L549.9542346788326,510.510094516902L548.3455783745642,509.3283593416551L546.9380041083293,508.61931823650684L546.6363810512789,507.43758306125983L546.1336759561951,506.6340031420919L548.2450373555474,506.0195008509635L549.2504475457151,505.31045974581525L551.2612679260507,504.79049626870665L551.9650550591681,504.270532791598L552.6688421922855,504.5541492336572L553.9758754395036,504.270532791598L555.2829086867216,505.1686515247857L557.394270086074,505.40499855983506L557.1931880480404,506.208578479003L558.701303333292,506.77581136312153L559.1034674093592,506.0667702579734L561.0137467706779,506.35038670003263L561.3153698277282,507.2485054332203L563.3261902080636,507.39031365425L564.6332234552818,508.7611264575364L563.8288953031476,508.7611264575364L563.4267312270804,509.28108993464514L562.722944093963,509.4228981556748L562.5218620559294,510.0374004468032L562.0191569608456,510.17920866783277L561.9186159418289,510.4155557028822L561.0137467706779,510.7464415519514L559.8072545424766,510.6991721449415Z"
    fill="#1868b7"
    />
  </g>
</svg>