<?xml version="1.0" standalone="no"?>
<!DOCTYPE svg PUBLIC "-//W3C//DTD SVG 20010904//EN"
 "http://www.w3.org/TR/2001/REC-SVG-20010904/DTD/svg10.dtd">
<svg version="1.0" xmlns="http://www.w3.org/2000/svg" viewBox="0 0 1024 1024" preserveAspectRatio="xMidYMid meet" width="1024pt" height="1024pt">
 <g transform="translate(-19258.15175572079,-17900.28230825159)scale(36.519553743509704)" fill="#000000" stroke="none">
    <path
    d="M539.6990507391216,493.44583858633564L539.7995917581384,494.53303494756284L542.614740290608,495.1948066457012L542.5141992715912,496.18746419290864L545.4298888230777,495.6675007158L546.9380041083293,494.9111902036419L550.1553167168661,495.99838656486907L551.4623499640843,496.8965052980568L552.065596078185,498.31458750835316L551.2612679260507,499.0708980205113L552.3672191352352,500.0635555677187L552.9704652493359,501.52890718502493L552.7693832113023,502.5215647322324L553.9758754395036,504.270532791598L552.6688421922855,504.5541492336572L551.9650550591681,504.270532791598L551.2612679260507,504.79049626870665L549.2504475457151,505.31045974581525L548.2450373555474,506.0195008509635L546.1336759561951,506.6340031420919L546.6363810512789,507.43758306125983L546.9380041083293,508.61931823650684L548.3455783745642,509.3283593416551L549.9542346788326,510.510094516902L548.9488244886649,511.78636850616874L547.9434142984971,512.1645237622477L548.3455783745642,513.9607612286231L548.1444963365307,514.4334552987219L547.2396271653797,513.8662224146034L545.9325939181616,513.7716836005836L543.9217735378261,514.2916470776922L541.4082480624068,514.1498388566627L541.0060839863396,514.9061493688207L539.5985097201049,514.1498388566627L538.7941815679706,514.2916470776922L535.7779509974673,513.4407977515144L535.2752459023834,514.0553000426429L532.8622614459808,514.0080306356331L533.1638845030311,512.0227155412181L534.571458769266,510.13193926082295L530.549818008595,509.6119757837143L529.2427847613769,508.8556652715563L529.4438667994104,507.62666068929934L528.8406206853099,507.012158398171L529.2427847613769,505.12138211777574L528.740079666293,502.1906788831633L530.4492769895783,502.1906788831633L531.1530641226957,501.15075192894597L531.7563102367964,498.5982039504124L531.2536051417125,497.65281581021486L531.8568512558131,497.0383135190865L534.1692946931989,496.8965052980568L534.6719997882827,497.5110075891853L536.5822791496015,496.1401947858988L535.979033035501,495.10026783168144L535.7779509974673,493.4931079933456L537.8893123968196,493.87126324942454Z"
    fill="#1868b7"
    />
  </g>
</svg>