<?xml version="1.0" standalone="no"?>
<!DOCTYPE svg PUBLIC "-//W3C//DTD SVG 20010904//EN"
 "http://www.w3.org/TR/2001/REC-SVG-20010904/DTD/svg10.dtd">
<svg version="1.0" xmlns="http://www.w3.org/2000/svg" viewBox="0 0 1024 1024" preserveAspectRatio="xMidYMid meet" width="1024pt" height="1024pt">
 <g transform="translate(-7723.816505540764,-8552.071995400296)scale(15.941579112384305)" fill="#000000" stroke="none">
    <path
    d="M545.5304298420945,581.4614744387303L535.979033035501,586.7556480238368L527.8352104951421,592.2861686439927L523.9141107534879,593.5151732262495L520.7973391639679,593.7987896683088L520.7973391639679,592.0025522019333L519.4903059167498,591.5298581318345L517.7811085934645,590.7735476196765L517.0773214603471,589.4500042233999L507.62646567277034,583.3522507191255L498.27615090421017,577.2544972148511L487.7193439074489,570.4949720124384L487.81988492646565,569.9750085353297L487.81988492646565,569.7859309072902L487.81988492646565,566.4770724165987L492.24368976320375,564.397218508164L495.05883829567347,563.9717938450751L497.3712817330592,563.2154833329171L498.4772329422438,561.8446705296305L501.69454555078056,560.7102047613935L501.7950865697973,558.6303508529588L503.40374287406576,558.3940038179094L504.71077612128386,557.3540768636921L508.33025280588777,556.9286522006032L508.83295790097156,555.841455839376L508.12917076785413,555.2269535482475L507.1237605776864,552.296250313635L507.02321955866967,550.5945516612794L505.91726834948514,548.7983141949039L508.63187586293805,547.2856931705878L511.6481064334413,546.7657296934792L513.3573037567264,545.631263925242L516.0719112701794,544.7804145990642L520.7973391639679,544.2604511219556L525.4222260387395,544.0713734939161L526.8298003049744,544.4495287499951L529.4438667994104,543.3623323887679L532.4600973699138,543.3623323887679L533.5660485790983,543.9768346798963L535.476327940417,543.8350264588667L534.9736228453331,545.253108669163L535.3757869214003,547.9001954617163L534.7725408072996,550.2163964052004L532.9628024649976,551.7762868365263L533.2644255220479,553.9034101519709L535.5768689594338,555.5578393973167L535.5768689594338,556.219611095455L537.2860662827189,557.3540768636921L538.4925585109202,562.3646340067393L539.3974276820712,564.8226431712529L539.497968701088,566.1461865675295L538.9952636060041,568.4151181040038L539.1963456440377,569.6913920932705L538.8947225869873,571.2040131175866L539.095804625021,572.9529811769521L537.9898534158364,574.1347163521991L539.6990507391216,576.1673008536239L539.7995917581384,577.3490360288708L540.8050019483061,578.9089264601969L542.1120351955241,578.3889629830883L544.3239376138932,579.7125063793649Z"
    fill="#1868b7"
    />
  </g>
</svg>