<?xml version="1.0" standalone="no"?>
<!DOCTYPE svg PUBLIC "-//W3C//DTD SVG 20010904//EN"
 "http://www.w3.org/TR/2001/REC-SVG-20010904/DTD/svg10.dtd">
<svg version="1.0" xmlns="http://www.w3.org/2000/svg" viewBox="0 0 1024 1024" preserveAspectRatio="xMidYMid meet" width="1024pt" height="1024pt">
 <g transform="translate(-14810.495303295189,-33476.33830262002)scale(52.13035827759904)" fill="#000000" stroke="none">
    <path
    d="M287.7432570830832,656.5252927704182L289.25137236833484,654.3981694549736L288.64812625423417,653.2164342797266L287.5421750450497,654.4927082689934L285.93351874078127,653.2637036867366L286.4362238358651,652.5073931745785L286.0340597597981,649.9548451960451L286.93892893094903,649.5294205329561L287.44163402603294,647.7804524735906L288.5475852352174,645.9842150072152L288.3465031971839,644.8497492389781L289.8546184824355,644.2352469478496L291.7648978437542,643.1480505866224L294.58004637622395,644.7552104249584L295.0827514713078,644.7079410179484L295.78653860442523,645.8896761931954L298.19952306082786,646.2678314492745L298.9033101939453,645.8424067861855L300.3108844601801,646.7405255193733L301.51737668838143,647.4022972175115L301.9195407644485,649.5294205329561L301.0146715932975,651.3729274063413L297.9984410227943,654.3036306409539L294.6805873952407,655.3908270021811L292.9713900719555,657.801566759685L292.3681439578549,659.6923430400801L290.8600286726033,660.8268088083172L289.653536444402,659.4559960050307L288.5475852352174,659.1251101559616L287.3410930070161,659.3614571910109L287.24055198799937,658.3215302367936L288.04488014013356,657.6597585386553Z"
    fill="#1868b7"
    />
  </g>
</svg>