<?xml version="1.0" standalone="no"?>
<!DOCTYPE svg PUBLIC "-//W3C//DTD SVG 20010904//EN"
 "http://www.w3.org/TR/2001/REC-SVG-20010904/DTD/svg10.dtd">
<svg version="1.0" xmlns="http://www.w3.org/2000/svg" viewBox="0 0 1024 1024" preserveAspectRatio="xMidYMid meet" width="1024pt" height="1024pt">
 <g transform="translate(-15752.59611479506,-15051.763007763457)scale(27.200023708074085)" fill="#000000" stroke="none">
    <path
    d="M609.4745179367635,564.6335655432134L608.770730803646,565.7207619044407L608.1674846895453,567.8478852198853L607.3631565374111,569.3132368371914L606.7599104233105,569.7859309072902L605.7545002331428,568.8878121741026L604.5480080049415,567.6588075918456L602.537187624606,563.640907996006L602.2355645675557,563.8772550310554L603.4420567957569,566.8552276726778L605.1512541190422,569.6441226862606L607.2626155183943,573.9929081311695L608.2680257085622,575.5055291554856L609.1728948797131,577.1126889938215L611.6864203551324,580.1852004494637L611.0831742410319,580.6578945195624L611.1837152600486,582.5014013929477L614.5015688876022,585.0066799644712L614.9037329636693,585.5739128485899L603.8442208718241,585.5739128485899L593.0863318370291,585.5739128485899L581.8257377071503,585.5739128485899L581.8257377071503,575.2691821204362L581.8257377071503,565.3426066483617L581.0214095550161,563.1209445188973L581.7251966881336,561.3719764595318L581.2224915930497,560.1902412842849L582.2279017832174,558.8194284809983L585.947919486838,558.8194284809983L588.662527000291,559.5284695861465L591.4776755327607,560.3793189123244L592.7847087799787,560.8047435754132L594.896070179331,559.9066248422255L596.0020213885156,559.1030449230576L598.515546863935,558.8666978880082L600.5263672442704,559.2448531440873L601.2301543773879,560.6156659473737L601.9339415105053,559.717547214186L604.1458439288743,560.3793189123244L606.3577463472434,560.521127133354L607.6647795944615,559.8120860282058Z"
    fill="#1868b7"
    />
  </g>
</svg>