<?xml version="1.0" standalone="no"?>
<!DOCTYPE svg PUBLIC "-//W3C//DTD SVG 20010904//EN"
 "http://www.w3.org/TR/2001/REC-SVG-20010904/DTD/svg10.dtd">
<svg version="1.0" xmlns="http://www.w3.org/2000/svg" viewBox="0 0 1024 1024" preserveAspectRatio="xMidYMid meet" width="1024pt" height="1024pt">
 <g transform="translate(-12856.406059959214,-13721.925743911765)scale(26.569298520640448)" fill="#000000" stroke="none">
    <path
    d="M486.8144747362978,530.032359611982L486.9150157553147,528.0470445175671L485.80906454613006,526.8653093423201L489.73016428778436,524.8327248408954L493.1485589343547,525.352688318004L496.86857663797537,525.3054189109941L499.8848072084786,525.7781129810929L502.1972506458645,525.6363047600632L506.72159650161933,525.730843574083L507.82754771080386,526.8180399353103L512.9551396806594,528.094313924577L513.9605498708271,527.4798116334485L517.0773214603471,528.7560856227153L520.294634068884,528.3779303666363L520.4957161069175,530.032359611982L517.8816496124813,531.8758664853673L514.2621729278775,532.4430993694858L514.0610908898439,533.3884875096834L512.251352547542,534.9483779410094L511.2459423573742,537.2173094774837L512.3518935665587,538.8244693158194L510.7432372622903,540.0534738980764L510.1399911481897,541.8969807714616L508.0286297488374,542.4169442485703L506.0178093685019,544.5913369710247L502.49887370291475,544.6386063780346L499.78426618946185,544.5913369710247L498.07506886617665,545.5839945182322L496.9691176569921,546.6239214724495L495.662084409774,546.3875744374002L494.55613320058956,545.4421862972026L493.7518050484553,543.8350264588667L491.13773855401917,543.4096017957778L490.93665651598565,542.4642136555801L491.94206670615335,541.4242867013628L492.3442307822205,540.6679761892048L491.43936161106956,539.8643962700369L492.1431487441869,538.0208893966516L491.0371975350024,536.319190744296L492.24368976320375,536.0828437092465L492.3442307822205,534.8065697199797L492.84693587730436,534.3811450568909L492.84693587730436,532.2067523344365L494.15396912452246,531.4504418222784L493.3496409723883,530.032359611982L491.74098466811984,529.9378207979622L491.2382795730359,530.3159760540412L489.6296232687676,530.3159760540412L488.9258361356502,528.9451632507548L487.81988492646565,529.3233185068339Z"
    fill="#1868b7"
    />
  </g>
</svg>