<?xml version="1.0" standalone="no"?>
<!DOCTYPE svg PUBLIC "-//W3C//DTD SVG 20010904//EN"
 "http://www.w3.org/TR/2001/REC-SVG-20010904/DTD/svg10.dtd">
<svg version="1.0" xmlns="http://www.w3.org/2000/svg" viewBox="0 0 1024 1024" preserveAspectRatio="xMidYMid meet" width="1024pt" height="1024pt">
 <g transform="translate(-13387.940025936745,-13311.771323214682)scale(22.248563081604303)" fill="#000000" stroke="none">
    <path
    d="M630.2865088732359,611.9975113671122L629.2810986830682,613.2265159493691L628.3762295119171,614.5027899386357L628.5773115499507,615.3063698578037L628.5773115499507,616.1572191839815L630.1859678542191,616.2044885909914L630.7892139683198,615.968141555942L631.4930011014371,616.4881050330507L630.8897549873366,617.4807625802582L631.8951651775043,618.9933836045743L632.900575367672,620.3641964078608L634.0065265768566,621.3568539550682L643.0552182883663,624.6657124457597L645.4682027447689,624.6657124457597L637.5254622424436,633.0323974865083L633.9059855578398,633.1742057075379L631.3924600824204,635.112251394943L629.6832627591352,635.1595208019529L628.878934607001,636.0576395351405L626.9686552456823,636.0576395351405L625.8627040364978,635.112251394943L623.2486375420616,636.29398657019L622.4443093899274,637.4284523384271L620.6345710476254,637.2393747103876L620.0313249335248,636.9084888613185L619.3275378004074,636.9557582683283L618.4226686292565,636.9557582683283L614.9037329636693,634.5922879178344L612.9934536023507,634.5922879178344L611.9880434121828,633.6468997776368L611.9880434121828,632.0870093463108L610.580469145948,631.614315276212L608.8712718226627,628.5890732275798L607.6647795944615,627.9273015294414L607.1620744993776,626.8401051682142L605.7545002331428,625.4692923649277L604.0453029098576,625.2802147368882L604.9501720810085,623.6730548985523L606.4582873662602,623.5785160845326L606.8604514423273,622.7276667583548L606.8604514423273,620.2223881868312L607.6647795944615,617.2916849522186L608.9718128416796,616.5353744400605L609.27343589873,615.4009086718235L610.4799281269312,613.2737853563789L612.1891254502164,611.8557031460825L613.2950766594009,609.1140775395096L613.6972407354681,606.7033377820057L617.0150943630215,607.3178400731341L617.8194225151558,605.2379861646995L619.5286198384409,606.5142601539662L621.1372761427094,605.8524884558279L621.8410632758269,606.4197213399465L623.7513426371455,606.4669907469563L626.1643270935481,607.5541871081836L626.9686552456823,608.546844655391L628.1751474738836,609.4449633885787L629.2810986830682,611.0521232269147Z"
    fill="#1868b7"
    />
  </g>
</svg>