<?xml version="1.0" standalone="no"?>
<!DOCTYPE svg PUBLIC "-//W3C//DTD SVG 20010904//EN"
 "http://www.w3.org/TR/2001/REC-SVG-20010904/DTD/svg10.dtd">
<svg version="1.0" xmlns="http://www.w3.org/2000/svg" viewBox="0 0 1024 1024" preserveAspectRatio="xMidYMid meet" width="1024pt" height="1024pt">
 <g transform="translate(-17239.324803595824,-13615.873511839896)scale(30.352344336493292)" fill="#000000" stroke="none">
    <path
    d="M591.8798396088278,454.11769195411637L591.4776755327607,456.10300704853125L595.7003983314652,457.94651392191656L593.0863318370291,460.07363723736114L596.4041854645827,463.2406875070229L594.493906103264,465.6514272645268L597.0074315786833,467.6840117659516L595.9014803694988,469.5275186393369L600.0236621491865,471.41829491973203L598.917710940002,472.8836465370383L596.4041854645827,474.4908063753742L590.3717243235761,478.0360119011151L585.3446733727375,478.2723589361645L580.4181634409155,479.265016483372L575.8938175851606,479.8795187745004L574.2851612808921,478.3668977501842L571.5705537674392,477.42150960998663L572.1737998815399,474.6798840034137L570.766225615305,472.1746054318901L572.1737998815399,470.5201761865444L574.6873253569593,468.7712081271788L581.0214095550161,465.7459660785466L582.9316889163348,465.178733194428L582.6300658592845,463.996998019181L578.7089661176302,462.6734546229045L577.8040969464793,461.5862582616772L577.7035559274625,457.28474222377827L573.3802921097412,455.3939659433831L569.6602744061205,454.0231531400966L571.3694717294056,453.26684262793844L574.385702299909,454.77946365225466L578.1057200035297,454.637655431225L581.1219505740329,455.2994271293633L583.736017068469,454.07042254710643L585.143591334704,451.9905686386718L589.4668551524252,451.0451804984742L592.9857908180123,452.1796462667113Z"
    fill="#1868b7"
    />
  </g>
</svg>