<?xml version="1.0" standalone="no"?>
<!DOCTYPE svg PUBLIC "-//W3C//DTD SVG 20010904//EN"
 "http://www.w3.org/TR/2001/REC-SVG-20010904/DTD/svg10.dtd">
<svg version="1.0" xmlns="http://www.w3.org/2000/svg" viewBox="0 0 1024 1024" preserveAspectRatio="xMidYMid meet" width="1024pt" height="1024pt">
 <g transform="translate(-11591.794632788626,-11565.575617529874)scale(23.324193357814142)" fill="#000000" stroke="none">
    <path
    d="M538.6936405489538,529.2760490998239L537.7887713778028,531.4504418222784L536.4817381305847,530.8832089381598L535.8784920164841,528.9924326577647L536.381197111568,527.9525057035473L538.1909354538699,526.91257874933ZM527.8352104951421,508.6665876435167L528.4384566092427,508.950204085576L529.2427847613769,508.8556652715563L530.549818008595,509.6119757837143L534.571458769266,510.13193926082295L533.1638845030311,512.0227155412181L532.8622614459808,514.0080306356331L532.0579332938466,514.4807247057317L530.8514410656453,514.2443776706825L530.9519820846622,514.9534187758306L528.8406206853099,516.5133092071567L528.8406206853099,517.7895831964233L530.1476539325279,517.3641585333344L531.1530641226957,518.5458937085814L530.9519820846622,519.3494736277494L531.8568512558131,520.3894005819667L530.8514410656453,521.2402499081445L531.5552281987628,523.4146426305989L533.0633434840144,523.7927978866779L532.7617204269641,524.974533061925L530.2481949515446,526.5816929002608L524.7184389056221,525.8253823881028L520.696798144951,526.7235011212905L520.294634068884,528.3779303666363L517.0773214603471,528.7560856227153L513.9605498708271,527.4798116334485L512.9551396806594,528.094313924577L507.82754771080386,526.8180399353103L506.72159650161933,525.730843574083L508.12917076785413,524.0764143287372L508.63187586293805,518.4986243015715L505.8167273304684,515.567921066959L503.70536593111603,514.1498388566627L499.48264313241157,513.0626424954355L499.1810200753612,511.03005799401063L502.8004967599651,510.46282510989215L507.5259246537536,511.17186621504027L506.62105548260257,508.0048159453784L509.2351219770387,509.1865511206254L515.7702882131291,507.012158398171L516.5746163652633,504.74322686169677L518.9876008216659,504.1759939775782L519.389764897733,505.1686515247857L520.696798144951,505.21592093179555L522.0038313921691,506.30311729302275L524.0146517725046,507.62666068929934L525.4222260387395,507.43758306125983Z"
    fill="#1868b7"
    />
  </g>
</svg>