<?xml version="1.0" standalone="no"?>
<!DOCTYPE svg PUBLIC "-//W3C//DTD SVG 20010904//EN"
 "http://www.w3.org/TR/2001/REC-SVG-20010904/DTD/svg10.dtd">
<svg version="1.0" xmlns="http://www.w3.org/2000/svg" viewBox="0 0 1024 1024" preserveAspectRatio="xMidYMid meet" width="1024pt" height="1024pt">
 <g transform="translate(-27945.131713698538,-33427.860925415356)scale(52.270117951265696)" fill="#000000" stroke="none">
    <path
    d="M543.0169043666751,658.1324526087541L540.1012148151887,655.2962881881614L538.2914764728866,652.9800872446773L536.5822791496015,650.0966534170747L536.6828201686183,649.1985346838869L537.2860662827189,648.3004159506993L537.9898534158364,646.2678314492745L538.4925585109202,644.1879775408398L539.497968701088,643.9988999128003L543.519609461759,644.0461693198101L543.519609461759,640.6900414221087L544.826642708977,640.5009637940692L546.5358400322622,640.8791190501482L548.1444963365307,640.5009637940692L548.5466604125978,640.6900414221087L548.3455783745642,641.8717765973557L549.0493655076816,643.337128214662L551.1607269070339,643.1007811796126L551.8645140401513,643.6680140637311L550.65802181195,646.8823337404028L551.9650550591681,648.5367629857486L552.2666781162185,650.7111557082031L551.9650550591681,652.6019319885983L551.0601858880171,653.878205977865L548.6472014316146,653.7836671638453L547.1390861463628,652.4601237675686L546.9380041083293,653.6891283498254L545.0277247470107,654.0200141988946L544.022314556843,654.7290553040427L545.1282657660274,656.572562177428Z"
    fill="#1868b7"
    />
  </g>
</svg>