<?xml version="1.0" standalone="no"?>
<!DOCTYPE svg PUBLIC "-//W3C//DTD SVG 20010904//EN"
 "http://www.w3.org/TR/2001/REC-SVG-20010904/DTD/svg10.dtd">
<svg version="1.0" xmlns="http://www.w3.org/2000/svg" viewBox="0 0 1024 1024" preserveAspectRatio="xMidYMid meet" width="1024pt" height="1024pt">
 <g transform="translate(-17455.430703058122,-17156.835777184)scale(35.66695715805825)" fill="#000000" stroke="none">
    <path
    d="M494.6566742196063,496.5656194489877L492.545312820254,495.99838656486907L490.8361154969689,496.045655971879L491.43936161106956,494.53303494756284L490.8361154969689,493.0204139232468L493.1485589343547,492.925875109227L496.16478950485794,494.6748431685925ZM503.6048249120993,483.28291607921165L500.58859434159604,486.26088872083403L503.5042838930825,485.882733464755L506.5205144635858,485.93000287176494L505.8167273304684,488.1989344082391L503.303201855049,490.7042129797627L506.2188914065354,490.8932906078022L506.41997344456894,491.1769070498615L508.9334989199884,494.43849613354314L510.8437782813071,494.9111902036419L512.5529756045922,498.0782404733038L513.3573037567264,499.2127062415409L516.67515738428,499.7326697186495L516.3735343272298,501.52890718502493L514.9659600609949,502.332487104193L516.0719112701794,503.7505693144893L513.5583857947599,505.21592093179555L509.83836809113933,505.21592093179555L505.01239917833414,505.97223144395355L503.70536593111603,505.40499855983506L501.8956275888141,506.7285419561117L499.28156109437793,506.3976561070425L497.3712817330592,507.48485246826976L495.86316644780766,506.9176195841511L499.98534822749536,503.98691634953866L502.49887370291475,503.37241405841024L502.398332683898,503.37241405841024L498.07506886617665,502.94698939532134L497.27074071404246,501.81252362708426L500.1864302655289,500.96167430090645L498.6783149802773,499.4490532765903L499.1810200753612,497.60554640320504L503.40374287406576,497.8891628452643L503.8059069501329,496.2347335999185L501.8956275888141,494.53303494756284L501.8956275888141,494.485765540553L498.4772329422438,494.01307147045424L497.7734458091264,493.2567609582961L498.7788559992941,491.9804869690294L497.87398682814313,491.2241764568714L496.36587154289145,492.547719853148L496.2653305238747,489.8533636535849L494.85775625763983,488.43528144328855L495.86316644780766,485.5518476156858L497.9745278471599,483.28291607921165L500.28697128454576,483.47199370725116Z"
    fill="#1868b7"
    />
  </g>
</svg>