<?xml version="1.0" standalone="no"?>
<!DOCTYPE svg PUBLIC "-//W3C//DTD SVG 20010904//EN"
 "http://www.w3.org/TR/2001/REC-SVG-20010904/DTD/svg10.dtd">
<svg version="1.0" xmlns="http://www.w3.org/2000/svg" viewBox="0 0 1024 1024" preserveAspectRatio="xMidYMid meet" width="1024pt" height="1024pt">
 <g transform="translate(-21158.987638846993,-27449.14458298469)scale(45.15471916069447)" fill="#000000" stroke="none">
    <path
    d="M488.42313104056626,625.5165617719375L487.618802888432,625.4692923649277L487.1160977933482,626.6037581331648L486.31176964121397,626.556488726155L485.7085235271133,625.9892558420364L485.9096055651469,624.8547900737992L484.80365435596235,623.1530914214436L483.9993262038281,623.4839772705128L483.39608008972755,623.5312466775226L482.6922929566101,623.6730548985523L482.6922929566101,622.6803973513448L482.29012888054297,621.9240868391868L482.29012888054297,621.1205069200188L481.68688276644235,619.9387717447719L480.9830956333249,618.9461141975644L478.67065219593906,618.9461141975644L478.06740608183844,619.4660776746731L477.26307792970425,619.5133470816829L476.8609138536371,620.1278493728114L476.45874977757,620.9314292919794L475.05117551133515,622.1604338742361L473.7441422641171,620.5060046288904L472.7387320739494,619.3715388606533L471.93440392181515,619.0406530115841L471.3311578077145,618.4734201274656L470.92899373164744,617.2444155452088L470.5268296555803,616.6299132540803L469.7225015034461,616.1572191839815L471.0295347506642,614.7864063806951L471.8338629027984,614.8809451947149L472.5376500359158,614.408251124616L473.14089615001643,614.408251124616L473.64360124510034,614.0300958685369L473.34197818804995,613.0847077283394L473.64360124510034,612.8010912862801L473.7441422641171,611.8557031460825L475.05117551133515,611.9029725530925L477.06199589167073,612.5647442512308L477.6652420057713,612.5174748442208L477.9668650628217,612.1865889951517L479.47498034807325,612.4229360302011L479.8771444241404,612.2338584021616L479.97768544315716,613.2737853563789L480.480390538241,613.2737853563789L481.18417767135844,612.8956301002999L481.68688276644235,612.9901689143196L482.3906698995598,613.6992100194678L483.59716212776107,613.9355570545172L484.40149027989526,613.3210547633888L485.30635945104626,612.9428995073098L485.9096055651469,612.5647442512308L486.51285167924755,612.6120136582406L487.1160977933482,613.2265159493691L487.4177208503985,614.0300958685369L488.62421307859984,615.1645616367741L488.02096696449917,615.9208721489322L487.9204259454824,616.8189908821198L488.523672059583,616.5353744400605L488.82529511663336,616.8662602891297L488.7247540976166,617.6698402082977L489.52908224975084,618.5206895344755L489.02637715466693,618.709767162515L488.82529511663336,619.6551553027126L489.42854123073397,620.8368904779595L490.1323283638514,623.0585526074238L489.1269181736837,623.389438456493L488.82529511663336,623.7675937125721L489.02637715466693,624.3348265966906L488.9258361356502,625.5165617719375Z"
    fill="#1868b7"
    />
  </g>
</svg>