<?xml version="1.0" standalone="no"?>
<!DOCTYPE svg PUBLIC "-//W3C//DTD SVG 20010904//EN"
 "http://www.w3.org/TR/2001/REC-SVG-20010904/DTD/svg10.dtd">
<svg version="1.0" xmlns="http://www.w3.org/2000/svg" viewBox="0 0 1024 1024" preserveAspectRatio="xMidYMid meet" width="1024pt" height="1024pt">
 <g transform="translate(-27005.171409817216,-25221.844804840937)scale(47.669325173159244)" fill="#000000" stroke="none">
    <path
    d="M578.2062610225464,547.2856931705878L579.7143763077979,548.2310813107854L581.9262787261671,548.0892730897558L583.9370991065025,548.2783507177953L583.9370991065025,548.7510447878941L585.4452143917542,548.4201589388249L585.0430503156871,549.2710082650028L581.0214095550161,549.5073553000522L581.1219505740329,549.0346612299534L577.7035559274625,548.4674283458348ZM584.7414272586368,533.0103322536044L583.0322299353516,532.9157934395846L581.6246556691168,532.6321769975253L578.2062610225464,533.3884875096834L580.1165403838652,534.9483779410094L578.7089661176302,535.4210720111082L577.2008508323787,535.4210720111082L575.692735547127,533.955720393802L575.1900304520431,534.5702226849304L575.7932765661437,536.271921337286L577.2008508323787,537.5481953265528L576.1954406422109,538.1626976176813L577.7035559274625,539.4389716069479L579.1111301936974,540.2898209331257L579.1111301936974,541.8497113644518L576.597604718278,541.0934008522937L577.4019328704122,542.5114830625901L575.5921945281102,542.8423689116593L576.6981457372948,545.3003780761729L574.787866375976,545.3476474831828L572.4754229385902,544.1186429009259L571.4700127484224,541.8969807714616L570.9673076533386,540.0062044910665L569.861356444154,538.7299305017998L568.4537821779193,537.1227706634638L568.2527001398857,536.3664601513058L569.5597333871037,534.9956473480194L569.7608154251373,534.0975286148316L570.6656845962882,533.6721039517427L570.6656845962882,532.9630628465945L572.4754229385902,532.6794464045352L573.5813741477748,532.0649441134068L575.0894894330263,532.1594829274266L575.5921945281102,531.639519450318L576.0948996231941,531.5449806362981L578.2062610225464,531.639519450318L580.4181634409155,530.8832089381598L582.3284428022341,531.8285970783575L584.9425092966703,531.592250043308L584.9425092966703,530.1741678330117L586.2495425438884,530.9304783451697L585.4452143917542,532.6794464045352Z"
    fill="#1868b7"
    />
  </g>
</svg>