<?xml version="1.0" standalone="no"?>
<!DOCTYPE svg PUBLIC "-//W3C//DTD SVG 20010904//EN"
 "http://www.w3.org/TR/2001/REC-SVG-20010904/DTD/svg10.dtd">
<svg version="1.0" xmlns="http://www.w3.org/2000/svg" viewBox="0 0 1024 1024" preserveAspectRatio="xMidYMid meet" width="1024pt" height="1024pt">
 <g transform="translate(-1609.934487432744,-1900.6090891499784)scale(5.404721691993493)" fill="#000000" stroke="none">
    <path
    d="M381.4474868067176,416.25489693920326L390.7978015752777,414.60046769385747L400.5502804199049,414.69500650787734L404.1697571045088,413.70234896066984L414.0227769681527,413.4187325186105L436.3428831898768,413.74961836767966L453.83702049879565,415.971280497144L448.60888750992336,417.0584768583712L437.9515394941452,417.2002850794008L422.8703866416289,417.4366321144503L424.27796090786376,417.95659559155894L434.23152179052454,417.6257097424898L442.5764263689168,418.61836728969723L448.0056413958227,417.7675179635194L450.31808483320856,418.76017551072687L447.3018542627052,420.3673353490627L454.44026661289627,419.3274083948454L468.0133041801609,418.2402120336182L476.35820875855325,418.8074449177367L477.86632404380487,419.9891800929837L466.50518889490934,421.97449518739865L464.8965325906409,422.63626688553694L456.0489229171647,423.1089609556357L462.4835481342383,423.25076917666536L459.2662355257015,425.2833536780902L456.95379208831565,427.07959114446555L457.0543331073324,430.19937200711763L460.37218673488604,431.995609473493L456.0489229171647,432.13741769452264L451.424036042393,433.0355364277103L456.6521690312654,434.50088804501655L457.255415145366,436.8643583955105L454.23918457486275,437.1479748375698L457.85866125946666,439.51144518806376L451.72565909944336,439.74779222311315L454.9429717079802,440.88225799135023L454.03810253682923,441.8276461315478L450.1170027951749,442.3003402016466L446.19590305352074,442.3003402016466L449.7148387191079,444.19111648204176L449.7148387191079,445.4201210642986L444.18508267318526,444.28565529606146L442.77750840695035,444.9946964012097L446.497526110571,445.7037375063579L450.2175438141918,447.4054361587135L451.2229540043595,449.6743676951877L446.2964440725375,450.1943311722964L444.0845416541685,449.154404218079L440.6661470075981,447.5472443797431L441.6715571977659,449.43802066013836L438.35370357021225,450.9033722774446L445.6931979584368,450.9979110914643L449.61429770009113,451.1397193124939L442.0737212738329,453.59772847700765L434.5331448475748,455.7721211994621L426.38932230721605,456.76477874666955L423.272550717696,456.76477874666955L420.35686116620957,457.85197510789675L416.53630244357214,460.78267834250926L410.50384130256555,462.76799343692414L408.5935619412469,462.8625322509439L404.8735442376262,463.57157335609213L400.85190347695516,464.1860756472205L398.4389190205526,465.9350437065861L398.4389190205526,467.87308939399117L396.93080373530097,469.71659626737636L392.4064578795461,471.93825839684075L393.5124090887306,474.159920526305L392.30591686052935,476.42885206277924L390.89834259429443,479.17047766935224L386.97724285264025,479.3595552973917L382.8550610729524,477.0433543539077L377.22476400801304,477.0433543539077L374.51015649456014,475.53073332959156L372.7004181522582,472.78910772301856L367.77390822043617,469.3384410112974L366.3663339542013,467.4949341379121L366.06471089715103,464.9896555663885L362.1436111554968,462.43710758785505L363.14902134566455,460.3572536794204L361.3392830033626,459.3645961322129L364.0538905168155,456.10300704853125L368.2766133155201,455.06308009431393L369.3825645247046,453.8813449190669L369.9858106388053,451.7069521966125L366.76849803026846,452.69960974382L365.26038274501684,453.12503440690887L362.7468572695974,453.50318966298795L359.3284626230271,452.60507092980015L359.1273805849935,450.714294649405L360.23333179417807,449.24894303209885L362.7468572695974,449.2016736250889L368.4776953535536,449.91071473023715L363.6517264407484,448.1617466708716L361.23874198434584,447.216358530674L358.4235934518761,447.59451378675305L356.11115001449025,446.8854726816048L359.2279216040103,444.28565529606146L357.51872428072517,443.2457283418442L355.30682186235606,441.3076826544392L351.8884272157858,438.37697941982657L348.36949155019863,437.28978305859937L348.36949155019863,436.1080478833524L340.92945614295724,434.50088804501655L334.9975360209675,434.26454100996716L327.5575006137261,434.4063492309968L320.72071132058545,434.5954268590363L317.5033987120487,433.6973081258486L312.5768887802267,431.9483400664831L319.91638316845126,431.0502213332953L325.54668023339065,430.90841311226575L313.58229897039445,430.19937200711763L307.3487557913544,429.0649062388805L307.6503788484047,427.97770987765324L318.3077268641829,426.6541664813766L328.46236978487707,425.2833536780902L329.56832099406165,424.2906961308827L322.02774456780355,423.25076917666536L324.4407290242061,422.16357281543816L334.19320786883327,420.22552712803315L338.21484862950433,419.89464127896395L337.00835640130305,418.6656366967071L343.64406365641014,417.90932618454906L352.2905912918528,417.48390152146015L360.83657790827874,417.4366321144503L363.852808478782,418.3347508476379L371.2928438860233,416.774860416312L377.92855114113047,417.8147873705292L381.84965088278466,418.05113440557864L387.6810299857577,418.9492531387664L381.04532273065047,417.4366321144503Z"
    fill="#1868b7"
    />
  </g>
</svg>