<?xml version="1.0" standalone="no"?>
<!DOCTYPE svg PUBLIC "-//W3C//DTD SVG 20010904//EN"
 "http://www.w3.org/TR/2001/REC-SVG-20010904/DTD/svg10.dtd">
<svg version="1.0" xmlns="http://www.w3.org/2000/svg" viewBox="0 0 1024 1024" preserveAspectRatio="xMidYMid meet" width="1024pt" height="1024pt">
 <g transform="translate(-20525.418751564437,-48265.91919161802)scale(80.8993941735358)" fill="#000000" stroke="none">
    <path
    d="M260.39609991052043,608.6413834694108L258.9885256442856,608.168689399312L257.2793283210004,608.1214199923021L255.97229507378233,607.5541871081836L254.4641797885307,606.4197213399465L254.56472080754747,605.5688720137687L254.8663438645978,604.9543697226402L254.4641797885307,604.3871368385217L255.77121303574876,602.1182053020475L259.39068972035267,602.1182053020475L259.4912307393694,601.1728171618499L258.9885256442856,600.9837395338104L258.68690258723524,600.4165066496919L257.6814923970675,599.7547349515535L256.575541187883,598.8093468113559L257.882574435101,598.8093468113559L257.882574435101,597.24945638003L260.4966409295372,597.24945638003L263.11070742397334,597.24945638003L263.0101664049566,599.4711185094943L262.809084366923,602.6381687791561L263.6134125190572,602.6381687791561L264.618822709225,603.1581322562648L264.81990474725853,602.732707593176L265.6242328993927,603.0635934422451L264.3171996521746,604.1507898034722L263.0101664049566,604.9071003156304L262.809084366923,605.4743331997489L263.0101664049566,605.9942966768576L262.5074613098727,606.7033377820057L261.8036741767553,606.8924154100453L262.0047562147888,607.2233012591145L261.40151010068814,607.5069177011737L260.4966409295372,608.2159588063219Z"
    fill="#1868b7"
    />
  </g>
</svg>