<?xml version="1.0" standalone="no"?>
<!DOCTYPE svg PUBLIC "-//W3C//DTD SVG 20010904//EN"
 "http://www.w3.org/TR/2001/REC-SVG-20010904/DTD/svg10.dtd">
<svg version="1.0" xmlns="http://www.w3.org/2000/svg" viewBox="0 0 1024 1024" preserveAspectRatio="xMidYMid meet" width="1024pt" height="1024pt">
 <g transform="translate(-15610.599832152666,-28898.034583761706)scale(46.42084284719544)" fill="#000000" stroke="none">
    <path
    d="M345.1521789416618,623.6257854915424L346.96191728396377,624.6657124457597L348.6711146072489,626.4619499121352L348.77165562626567,627.9273015294414L349.77706581643343,627.9745709364513L351.2851811016851,629.3453837397377L352.3911323108696,630.3380412869452L351.98896823480254,632.8433198584688L350.2797709115173,633.552360963617L350.3803119305341,634.2141326617553L349.8776068354502,635.6794842790616L351.18464008266824,637.6647993734765L352.0895092538193,637.7120687804863L352.3911323108696,639.2719592118124L354.1003296341548,641.6826989693162L353.39654250103735,641.777237783336L351.8884272157858,641.5408907482865L350.9835580446347,642.2972012604446L349.6765247974167,642.7698953305434L348.87219664528243,642.911703551573L348.57057358823215,643.4789364356916L347.1629993219973,643.337128214662L345.45380199871215,642.0135848183853L345.2527199606786,640.7373108291187L344.54893282756115,639.3192286188222L344.95109690362824,636.9084888613185L345.75542505576243,635.9631007211208L345.05163792264506,634.6395573248442L344.14676875149405,634.2141326617553L344.54893282756115,632.9851280794985L343.8451456944438,632.37062578837L342.43757142820886,632.4651646023898L340.52729206689014,630.3380412869452L341.23107920000757,629.5817307747872L341.23107920000757,628.3054567855204L342.9402765232927,627.8327627154216L343.64406365641014,627.312799238313L342.63865346624243,626.2728722840957L342.9402765232927,625.2802147368882Z"
    fill="#1868b7"
    />
  </g>
</svg>