<?xml version="1.0" standalone="no"?>
<!DOCTYPE svg PUBLIC "-//W3C//DTD SVG 20010904//EN"
 "http://www.w3.org/TR/2001/REC-SVG-20010904/DTD/svg10.dtd">
<svg version="1.0" xmlns="http://www.w3.org/2000/svg" viewBox="0 0 1024 1024" preserveAspectRatio="xMidYMid meet" width="1024pt" height="1024pt">
 <g transform="translate(-13938.628434220547,-31811.00674473468)scale(53.29306970709864)" fill="#000000" stroke="none">
    <path
    d="M268.1377583748121,610.7212373778455L267.6350532797282,609.8703880516676L266.830725127594,609.6340410166182L267.0318071656276,608.4995752483811L266.62964308956043,608.2159588063219L266.0263969754598,608.0268811782823L264.81990474725853,608.3577670273515L264.7193637282418,607.9796117712724L263.9150355761076,607.5069177011737L263.3117894620069,606.9396848170552L262.5074613098727,606.7033377820057L263.0101664049566,605.9942966768576L262.809084366923,605.4743331997489L263.0101664049566,604.9071003156304L264.3171996521746,604.1507898034722L265.6242328993927,603.0635934422451L265.925855956443,603.2054016632746L266.5291020705437,602.685438186166L267.3334302226779,602.6381687791561L267.6350532797282,602.8745158142056L268.03721735579535,602.732707593176L269.3442506030134,603.0163240352351L270.6512838502315,602.9217852212154L271.55615302138244,602.6381687791561L271.8577760784328,602.307282930087L272.7626452495838,602.4490911511166L273.3658913636844,602.6381687791561L274.1702195158186,602.5908993721463L274.67292461090244,602.3545523370968L275.97995785812054,602.732707593176L276.3821219341877,602.7799770001858L277.28699110533864,603.2999404772945L278.09131925747283,603.9144427684229L279.0967294476406,604.3398674315118L279.800516580758,605.1434473506797L278.895647409607,605.04890853666L278.49348333354,605.427063792739L277.48807314337216,605.805219048818L276.7842860102548,605.805219048818L276.1810398961541,606.183374304897L275.5777937820535,606.0415660838675L275.17562970598635,605.6161414207785L274.87400664893596,605.7106802347982L274.4718425728689,606.3724519329365L274.1702195158186,606.3251825259267L274.1702195158186,606.8924154100453L273.1648093256508,607.6959953292132L272.662104230567,608.0268811782823L272.36048117351663,608.3577670273515L271.55615302138244,607.790534143233L270.95290690728183,608.546844655391L270.34966079318116,608.4995752483811L269.74641467908054,608.5941140624009L269.74641467908054,609.9649268656874L269.3442506030134,609.9649268656874L269.04262754596306,610.6266985638257Z"
    fill="#1868b7"
    />
  </g>
</svg>