<?xml version="1.0" standalone="no"?>
<!DOCTYPE svg PUBLIC "-//W3C//DTD SVG 20010904//EN"
 "http://www.w3.org/TR/2001/REC-SVG-20010904/DTD/svg10.dtd">
<svg version="1.0" xmlns="http://www.w3.org/2000/svg" viewBox="0 0 1024 1024" preserveAspectRatio="xMidYMid meet" width="1024pt" height="1024pt">
 <g transform="translate(-31665.45465840204,-29624.893664859086)scale(57.65036471459715)" fill="#000000" stroke="none">
    <path
    d="M564.532682436265,518.7822407436308L565.2364695693824,519.869437104858L566.1413387405333,520.673017024026L565.0353875313489,521.7129439782433L563.8288953031476,521.0984416871149L561.9186159418289,521.1457110941247L559.5056314854262,520.673017024026L558.1985982382081,520.7675558380457L557.5953521241075,521.3347887221643L556.5899419339398,520.673017024026L555.9866958198392,521.854752199273L557.394270086074,523.1310261885396L557.9975162001746,524.0291449217274L559.2040084283759,525.0690718759447L560.3099596375605,525.6835741670731L561.3153698277282,526.8180399353103L563.8288953031476,527.9052362965375L563.5272722460973,528.3779303666363L560.913205751661,527.3380034124189L559.3045494473927,526.3453458652114L556.6904829529566,525.4944965390337L554.3780395155707,523.4619120376088L554.9812856296713,523.2255650025595L553.6742523824532,522.0438298273125L553.5737113634365,521.1457110941247L551.8645140401513,520.673017024026L550.9596448690004,521.9020216062828L550.1553167168661,520.9566334660852L550.1553167168661,519.9639759188778L550.255857735883,519.9167065118679L552.2666781162185,520.0112453258877L552.7693832113023,519.5858206627988L553.6742523824532,520.0112453258877L554.7802035916378,520.0585147328975L554.7802035916378,519.3022042207394L555.7856137818055,519.0185877786802L555.9866958198392,517.8841220104431L558.299139257225,517.127811498285L559.1034674093592,517.4586973473542L561.2148288087114,518.687701929611L563.5272722460973,519.2076654067197Z"
    fill="#1868b7"
    />
  </g>
</svg>