<?xml version="1.0" standalone="no"?>
<!DOCTYPE svg PUBLIC "-//W3C//DTD SVG 20010904//EN"
 "http://www.w3.org/TR/2001/REC-SVG-20010904/DTD/svg10.dtd">
<svg version="1.0" xmlns="http://www.w3.org/2000/svg" viewBox="0 0 1024 1024" preserveAspectRatio="xMidYMid meet" width="1024pt" height="1024pt">
 <g transform="translate(-28328.698281588455,-25724.979060193513)scale(50.92448883122746)" fill="#000000" stroke="none">
    <path
    d="M557.2937290670571,516.1824233580875L558.1985982382081,514.3861858917121L557.5953521241075,513.7716836005836L559.2040084283759,513.7716836005836L559.4050904664094,512.6372178323466L560.8126647326443,513.3462589374947L561.818074922812,513.6298753795539L564.2310593792147,513.2989895304848L564.4321414172482,512.7317566463663L565.5380926264328,512.6372178323466L566.9456668926675,512.2117931692576L567.2472899497179,512.4008707972971L568.554323196936,512.0227155412181L569.1575693110367,511.4082132500897L570.0624384821876,511.21913562205015L573.0786690526909,512.069984948228L573.6819151667916,511.78636850616874L575.1900304520431,512.5426790183268L575.3911124900767,513.2989895304848L573.6819151667916,513.8662224146034L572.3748819195735,515.7569986949985L570.6656845962882,517.6477749753938L568.4537821779193,518.1677384525024L566.744584854634,518.0731996384826L564.532682436265,518.7822407436308L563.5272722460973,519.2076654067197L561.2148288087114,518.687701929611L559.1034674093592,517.4586973473542L558.299139257225,517.127811498285L557.6958931431243,516.1824233580875Z"
    fill="#1868b7"
    />
  </g>
</svg>