<?xml version="1.0" standalone="no"?>
<!DOCTYPE svg PUBLIC "-//W3C//DTD SVG 20010904//EN"
 "http://www.w3.org/TR/2001/REC-SVG-20010904/DTD/svg10.dtd">
<svg version="1.0" xmlns="http://www.w3.org/2000/svg" viewBox="0 0 1024 1024" preserveAspectRatio="xMidYMid meet" width="1024pt" height="1024pt">
 <g transform="translate(-5560.299048533387,-4203.406074621907)scale(7.21196537342326)" fill="#000000" stroke="none">
    <path
    d="M849.0637662537384,675.5748637953994L847.9578150445539,675.6694026094192L844.2377973409332,673.6840875150043L846.8518638353694,673.1641240378956L848.2594381016042,674.0149733640734L849.264848291772,674.8185532832414ZM861.0281475167346,671.840580641619L861.2292295547682,672.3605441187276L861.329770573785,673.2113934449055L859.5200322314831,675.3385167603501L857.1070477750804,675.9530190514785L856.80542471803,675.5748637953994L857.0065067560637,674.6294756552019L858.212998984265,672.9277770028463ZM841.22156677043,669.6189185121547L842.2269769605977,670.3752290243127L843.9361742838829,670.1388819892634L844.6399614170004,671.3206171645103L841.4226488084635,671.8878500486288L839.5123694471448,672.2660053047078L838.0042541618932,672.218735897698L839.0096643520608,670.6115760593622L840.5177796373125,670.6115760593622ZM855.1967684137617,669.6189185121547L854.7946043376946,671.1315395364708L850.5718815389899,671.9351194556388L846.8518638353694,671.6042336065696L846.8518638353694,670.5643066523522L849.0637662537384,669.9970737682337L850.8735045960403,670.8479230944115L852.6832429383423,670.6115760593622ZM815.3825248831188,665.9319047653842L820.7111988910078,666.2155212074434L821.3144450051084,665.0337860321964L826.442036974964,666.404598835483L827.4474471651317,668.2008363018583L831.6701699638363,668.720799778967L835.0885646104068,670.3752290243127L831.9717930208866,671.46242538554L828.8550214313666,670.3279596173029L826.3414959559473,670.3752290243127L823.4258064044607,670.1861513962732L820.8117399100247,669.6661879191646L817.5944273014878,668.6262609649473L815.4830659021354,668.3426445228879L814.377114692951,668.6735303719571L809.2495227230955,667.53906460372L808.7468176280116,666.357329428473L806.2332921525922,666.1209823934237L808.1435715139111,663.4738956008704L811.5619661604815,663.6157038219001L813.7738685788504,664.7029001831272L814.9803608070516,664.9392472181767ZM888.1742226512638,664.3720143340581L886.7666483850292,666.2627906144533L886.4650253279788,664.1356672990087L886.9677304230627,663.1430097518013L887.5709765371632,662.1976216116037L888.2747636702807,663.0012015307716ZM867.3622317147915,656.6671009914479L866.2562805056069,657.5652197246355L864.3460011442883,657.0925256545368L863.8432960492044,655.8635210722799L866.658444581674,655.7217128512502ZM876.3103824072845,655.6271740372305L877.3157925974522,657.754297352675L875.0033491600665,656.619831584438L872.6909057226806,656.3834845493885L871.0822494184122,656.572562177428L869.1719700570934,656.4780233634083L869.7752161711942,654.9181329320824L873.2941518367812,654.8235941180626ZM905.7689009791995,654.2563612339441L905.7689009791995,663.3793567868506L905.8694419982163,672.4550829327475L903.3559165227969,670.1861513962732L900.5407679903273,669.6189185121547L899.8369808572098,670.4224984313227L896.3180451916226,670.4697678383325L897.5245374198239,668.2008363018583L899.2337347431093,667.4445257897003L898.5299476099917,664.419283741068L897.1223733437569,662.055813390574L891.7936993358678,659.6923430400801L889.481255898482,659.4559960050307L885.2585330997774,656.9034480264972L884.4542049476432,658.2269914227738L883.3482537384588,658.4633384578233L882.745007624358,657.4706809106158L882.745007624358,656.241676328359L880.6336462250058,654.8708635250724L883.5493357764923,653.878205977865L885.5601561568278,653.9254753848749L885.3590741187943,653.1691648727168L881.2368923391064,653.1691648727168L880.1309411299219,651.514735627371L877.6174156545026,650.9947721502624L876.511464445318,649.6239593469759L880.2314821489387,648.9621876488376L881.6390564151735,648.01679950864L886.1634022709284,649.1985346838869L886.5655663469954,650.2384616381042L887.3698944991297,654.7290553040427L890.2855840506162,656.3834845493885L892.598027488002,653.4527813147761L895.8153400965389,651.7510826624205L898.3288655719582,651.7510826624205L900.641309009344,652.7437402096278L902.7526704086963,653.7363977568353ZM861.7319346498521,643.0535117726026L859.5200322314831,645.7951373791757L857.4086708321307,646.3623702632942L854.6940633186778,645.7951373791757L850.0691764439063,645.9369456002053L847.6561919875036,646.3151008562843L847.2540279114364,648.4422241717289L849.667012367839,650.9475027432525L851.1751276530908,649.6712287539857L856.403260641963,648.7258406137881L856.2021786039294,650.0021146030549L854.9956863757282,649.576689939966L853.7891941475268,651.2311191853117L851.2756686721075,652.318315546539L853.9902761855603,655.9107904792897L853.4875710904764,656.8561786194873L856.0010965658959,660.0704982961591L855.9005555468791,661.9140051695445L854.4929812806442,662.7175850887123L853.3870300714598,661.7721969485148L854.6940633186778,659.4559960050307L851.9794558052249,660.5431923662579L851.2756686721075,659.7868818540999L851.5772917291579,658.6996854928726L849.5664713488222,657.0452562475268L849.8680944058726,654.3509000479638L847.9578150445539,655.2017493741416L848.1588970825874,658.4633384578233L848.2594381016042,662.433968646653L846.550240778319,662.859393309742L845.3437485501177,662.0085439835642L846.148076702252,659.4559960050307L845.7459126261849,656.7616398054676L844.5394203979836,656.7143703984577L843.6345512268326,654.8235941180626L844.841043455034,652.9800872446773L845.243207531101,650.758425115213L846.6507817973359,646.5514478913337L847.1534868924196,645.4169821230967L849.5664713488222,643.337128214662L851.7783737671914,644.1879775408398L855.2973094327783,644.5661327969189L858.5146220413152,644.4243245758892L861.2292295547682,642.3917400744645ZM871.3838724754623,643.8570916917706L871.1827904374288,646.2678314492745L869.7752161711942,645.9842150072152L869.3730520951269,647.6859136595708L870.4790033043114,649.1985346838869L869.6746751521773,649.5294205329561L868.5687239429928,647.7331830665808L867.7643957908585,644.1879775408398L868.3676419049592,641.9663154113755L869.2725110761103,640.9263884571582L869.4735931141438,642.4390094814743L871.0822494184122,642.6753565165236ZM818.1976734155885,641.399082527257L818.7003785106724,643.2425894006421L820.6106578719912,644.8497492389781L822.4203962142931,644.2825163548596L824.230134556595,644.4715939828991L825.8387908608635,643.0535117726026L827.1458241080816,642.8171647375533L829.7598906025175,643.6207446567212L832.0723340399034,643.0062423655928L833.4799083061382,639.1301509907828L834.5858595153228,638.1374934435753L835.5912697054905,634.9704431739134L838.8085823140273,634.9704431739134L841.22156677043,635.4431372440122L839.6129104661616,637.9484158155358L841.623730846497,640.595502608089L841.1210257514132,641.9190460043656L844.3383383599501,644.4715939828991L841.0204847323964,644.8024798319682L840.0150745422286,646.6932561123634L840.2161565802621,649.2458040908969L837.5015490668093,651.136580371292L837.4010080477924,653.9254753848749L836.3955978576248,658.2269914227738L835.8928927625409,657.2343338755664L832.7761211730209,658.4633384578233L831.6701699638363,656.7616398054676L829.6593495835009,656.619831584438L828.251775317266,655.7217128512502L824.9339216897123,656.7143703984577L823.9285114995446,655.3435575951712L822.1187731572427,655.5326352232107L819.8063297198569,655.2017493741416L819.4041656437898,651.4674662203612L817.996591377555,650.6638863011932L816.6895581303369,648.3004159506993L816.2873940542698,645.8424067861855L816.58901711132,643.2425894006421ZM807.5403253998103,663.3320873798408L804.4235538102903,663.3793567868506L802.0105693538877,661.0631558433666L798.4916336883005,658.7942243068924L797.2851414600993,657.0925256545368L795.173780060747,654.8235941180626L793.7662057945121,652.7437402096278L791.6548443951598,648.8203794278079L789.2418599387572,646.5041784843238L788.3369907676063,644.0934387268201L787.3315805774384,641.9190460043656L784.8180551020192,640.1700779450001L783.4104808357843,637.7593381874963L781.299119436432,636.1994477561702L778.3834298849456,633.1269363005281L778.0818068278952,631.7088540902317L779.8915451701971,631.8033929042515L784.2148089879184,632.37062578837L786.7283344633379,635.0649819879332L788.8396958626902,636.9557582683283L790.4483521669586,638.1374934435753L793.0624186613946,641.1154660851977L795.8775671938645,641.1627354922075L798.1900106312503,643.1007811796126L799.7986669355186,645.4169821230967L802.0105693538877,646.6932561123634L800.8040771256864,649.0094570558474L802.4127334299549,649.9548451960451L803.4181436201225,650.0493840100648L803.9208487152064,651.9874296974698L804.9262589053742,653.5473201287958L806.9370792857096,653.7836671638453L808.3446535519446,655.5326352232107L807.640866418827,659.0305713419418Z"
    fill="#1868b7"
    />
  </g>
</svg>