<?xml version="1.0" standalone="no"?>
<!DOCTYPE svg PUBLIC "-//W3C//DTD SVG 20010904//EN"
 "http://www.w3.org/TR/2001/REC-SVG-20010904/DTD/svg10.dtd">
<svg version="1.0" xmlns="http://www.w3.org/2000/svg" viewBox="0 0 1024 1024" preserveAspectRatio="xMidYMid meet" width="1024pt" height="1024pt">
 <g transform="translate(-7877.679914637851,-6106.894142820449)scale(11.288679790173601)" fill="#000000" stroke="none">
    <path
    d="M729.3194126047592,547.9001954617163L732.3356431752625,551.161784545398L732.0340201182123,553.4307160818721L733.2405123464134,554.8487982921685L733.1399713273968,556.2668805024648L731.1291509470611,555.9359946533957L731.8329380801786,559.0085061090379L734.6480866126484,560.7574741684034L738.4686453352858,562.6955198558084L736.7594480120007,563.9717938450751L735.6534968028162,566.5716112306185L738.3681043162692,567.6588075918456L740.9821708107053,569.0296203951322L744.6016474953092,570.5895108264582L748.4222062179465,570.9676660825372L750.030862522215,572.3857482928336L752.242764940584,572.622095327883L755.5606185681377,573.2838670260213L757.8730620055234,573.2365976190114L758.2752260815905,572.1494012577841L757.8730620055234,570.3531637914087L758.074144043557,569.1714286161618L759.7833413668421,568.5569263250334L759.9844234048757,570.7785884544977L760.0849644238925,571.3458213386162L762.598489899312,572.3857482928336L764.4082282416139,571.9603236297447L766.7206716789996,572.1494012577841L769.0331151163855,572.0548624437645L769.234197154419,570.3531637914087L768.0277049262178,569.4550450582211L770.3401483636035,569.0768898021421L772.8536738390228,566.9970358937073L776.0709864475597,565.2480678343419L778.3834298849456,565.9098395324802L780.394250265281,564.7753737642431L781.701283512499,566.4770724165987L780.796414341348,567.6588075918456L783.8126449118514,568.0842322549346L784.0137269498849,569.1241592091519L783.0083167597172,569.6441226862606L783.2093987977507,571.3458213386162L781.299119436432,570.8731272685175L777.6796427518282,572.8111729559225L777.6796427518282,574.3710633872485L776.1715274665765,576.7345337377425L776.0709864475597,578.1053465410289L774.7639532003416,580.3742780775032L772.6525918009893,579.7597757863747L772.5520507819726,582.6432096139773L771.8482636488552,583.5885977541749L772.1498867059054,584.7703329294219L770.7423124396707,585.4321046275602L769.3347381734358,581.0360497756415L768.5304100213016,581.0360497756415L768.1282459452344,582.8322872420168L766.519589640966,581.3669356247105L767.424458812117,579.7597757863747L768.6309510403183,579.6179675653451L769.9379842875364,577.2544972148511L768.3293279832681,576.7818031447523L765.7152614888319,576.8290725517622L763.1011949943957,576.4509172956832L762.9001129563621,574.5128716082781L761.4925386901273,574.3710633872485L759.2806362717582,573.1420588049916L758.3757671006073,575.0328350853868L760.3865874809428,576.498186702693L758.5768491386408,577.5381136569104L757.9736030245402,578.5780406111278L759.6828003478254,579.3343511232858L759.1800952527416,580.9887803686315L760.1855054429093,583.1159036840761L760.5876695189763,585.4321046275602L760.1855054429093,586.4247621747676L758.2752260815905,586.3774927677578L754.8568314350202,586.9919950588862L755.0579134730538,589.0718489673209L753.5497981878021,590.7262782126667L749.5281574271311,592.6170544930618L746.4113858376111,595.8786435767435L744.3000244382588,597.6748810431188L741.4848759057891,599.4711185094943L741.4848759057891,600.747392498761L740.1778426585711,601.4564336039092L737.5637761641349,602.4490911511166L736.3572839359335,602.5908993721463L735.4524147647826,604.7180226875909L736.0556608788833,608.3577670273515L736.1562018979,610.6739679708355L735.0502506887154,613.3210547633888L735.0502506887154,618.0952648713866L733.5421354034639,618.1898036854063L732.3356431752625,620.3641964078608L733.1399713273968,621.2623151410485L730.6264458519775,622.0658950602165L729.6210356618096,623.9566713406116L728.5150844526252,624.7602512597796L725.9010179581891,622.1604338742361L724.5939847109709,618.2370730924163L723.4880335017863,615.4009086718235L722.5831643306353,614.0773652755469L721.0750490453838,611.4302784829937L720.3712619122664,607.9323423642626L719.8685568171825,606.183374304897L717.3550313417632,602.3545523370968L716.1485391135618,596.9185705309608L715.3442109614275,593.3733650052199L715.3442109614275,589.9699677005086L714.8415058663437,587.3701503149653L710.7193240866559,589.024579560311L708.8090447253371,588.6936937112418L705.1895680407333,585.3375658135404L706.4966012879513,584.2976388593231L705.6922731358172,583.2104424980959L702.3744195082636,580.846972147602L704.2846988695824,578.9561958672068L710.4177010296056,579.0034652742166L709.8144549155049,576.5927255167128L708.3063396302533,575.1746433064164L707.9041755541862,573.000250583962L706.0944372118843,571.7712460017051L709.2112088014043,568.8405427670926L712.4285214099411,569.0296203951322L715.3442109614275,566.1461865675295L717.1539493037295,563.3100221469368L719.8685568171825,560.4738577263441L719.7680157981656,558.4885426319291L722.1810002545683,556.8813827935933L719.8685568171825,555.5105699903067L718.9636876460315,553.6197937099116L717.9582774558637,551.161784545398L719.3658517220986,549.9800493701509L723.5885745208031,550.6418210682892L726.7053461103231,550.2163964052004Z"
    fill="#1868b7"
    />
  </g>
</svg>