<?xml version="1.0" standalone="no"?>
<!DOCTYPE svg PUBLIC "-//W3C//DTD SVG 20010904//EN"
 "http://www.w3.org/TR/2001/REC-SVG-20010904/DTD/svg10.dtd">
<svg version="1.0" xmlns="http://www.w3.org/2000/svg" viewBox="0 0 1024 1024" preserveAspectRatio="xMidYMid meet" width="1024pt" height="1024pt">
 <g transform="translate(-10873.043322112446,-9059.017404286611)scale(17.197763582778542)" fill="#000000" stroke="none">
    <path
    d="M662.5601759776207,543.1259853537185L665.07370145304,542.5587524696L666.9839808143588,540.998862038274L668.8942601756775,541.0461314452839L670.1007524038788,540.5261679681752L672.1115727842143,540.8097844102344L675.2283443737343,542.2278666205308L677.4402467921034,542.5114830625901L680.5570183816234,545.0167616341137L682.6683797809757,545.1113004481334L682.970002838026,547.4275013916175L681.7635106098247,550.9254375103485L681.0597234767073,552.9580220117733L682.2662157049085,553.3834466748622L681.0597234767073,554.8960676991784L681.9645926478582,557.1177298286427L682.1656746858919,558.9139672950181L684.2770360852442,559.3866613651169L684.4781181232777,561.1828988314923L681.9645926478582,563.6881774030159L683.3721669140932,565.1535290203221L684.4781181232777,566.8552276726778L687.1927256367305,568.0842322549346L687.2932666557474,570.5422414194483L688.6002999029654,571.014935489547L688.801381940999,572.2912094788138L684.779741180328,573.7092916891102L683.7743309901603,576.9708807727918L678.4456569822711,576.120031446614L675.429426411768,575.5055291554856L672.3126548222479,575.1273738994066L671.1061625940465,571.6767071876855L669.7991293468284,571.2040131175866L667.5872269284595,571.7239765946953L664.7720783959898,573.0475199909719L661.3536837494194,572.1021318507743L658.5385352169496,569.9750085353297L655.8239277034968,569.1714286161618L654.0141893611948,566.5243418236086L651.9028279618425,562.7900586698281L650.3947126765909,563.2627527399269L648.6855153533057,562.3173645997293L647.5795641441212,563.4518303679664L646.0714488588696,561.9392093436503L646.0714488588696,560.4738577263441L645.1665796877186,560.4738577263441L645.6692847828024,558.4412732249193L644.1611694975509,556.3141499094747L640.7427748509805,554.8015288851586L638.8324954896618,552.1544420926053L639.4357416037624,549.9800493701509L640.8433158699972,548.9873918229434L640.6422338319637,547.3802319846076L638.8324954896618,546.5293826584298L637.0227571473598,543.2205241677383L635.5146418621082,540.951592631264L636.0173469571921,540.1007433050862L635.2130188050579,536.8864236284145L637.1232981663766,536.0828437092465L637.5254622424436,537.1700400704738L638.9330365086786,538.4463140597405L640.8433158699972,538.8244693158194L641.8487260601651,538.7299305017998L645.1665796877186,536.650076593365L646.1719898778863,536.4609989653255L647.0768590490374,537.2645788844935L646.0714488588696,538.6826610947899L647.7806461821548,540.1480127120961L648.4844333152721,540.0062044910665L649.389302486423,542.0387889924913L652.0033689808592,542.6532912836196L654.0141893611948,544.0241040869062L657.935289102849,544.496798157005L662.3590939395872,543.7877570518568Z"
    fill="#1868b7"
    />
  </g>
</svg>