<?xml version="1.0" standalone="no"?>
<!DOCTYPE svg PUBLIC "-//W3C//DTD SVG 20010904//EN"
 "http://www.w3.org/TR/2001/REC-SVG-20010904/DTD/svg10.dtd">
<svg version="1.0" xmlns="http://www.w3.org/2000/svg" viewBox="0 0 1024 1024" preserveAspectRatio="xMidYMid meet" width="1024pt" height="1024pt">
 <g transform="translate(-20931.179670427806,-18232.235213951164)scale(33.824383725538624)" fill="#000000" stroke="none">
    <path
    d="M647.5795641441212,563.4518303679664L645.9709078398528,563.3100221469368L644.0606284785341,563.0736751118875L642.0498080981986,565.7207619044407L636.8216751093262,565.5316842764012L628.9794756260178,559.9066248422255L624.85729384633,557.9685791548205L621.4388991997597,557.2122686426625L620.3329479905751,553.8088713379511L626.4659501505985,550.8781681033386L627.5719013597829,547.5220402056373L627.2702783027327,545.4894557042124L628.878934607001,544.7804145990642L630.2865088732359,543.0314465396987L631.4930011014371,542.6060218766098L634.710313709974,542.9841771326888L635.7157239001417,543.6932182378371L637.0227571473598,543.2205241677383L638.8324954896618,546.5293826584298L640.6422338319637,547.3802319846076L640.8433158699972,548.9873918229434L639.4357416037624,549.9800493701509L638.8324954896618,552.1544420926053L640.7427748509805,554.8015288851586L644.1611694975509,556.3141499094747L645.6692847828024,558.4412732249193L645.1665796877186,560.4738577263441L646.0714488588696,560.4738577263441L646.0714488588696,561.9392093436503Z"
    fill="#1868b7"
    />
  </g>
</svg>