<?xml version="1.0" standalone="no"?>
<!DOCTYPE svg PUBLIC "-//W3C//DTD SVG 20010904//EN"
 "http://www.w3.org/TR/2001/REC-SVG-20010904/DTD/svg10.dtd">
<svg version="1.0" xmlns="http://www.w3.org/2000/svg" viewBox="0 0 1024 1024" preserveAspectRatio="xMidYMid meet" width="1024pt" height="1024pt">
 <g transform="translate(-14875.18310026358,-14392.68143121165)scale(28.117815919082673)" fill="#000000" stroke="none">
    <path
    d="M555.3834497057385,540.2425515261159L554.3780395155707,542.4169442485703L554.7802035916378,543.315062981758L554.1769574775371,544.7331451920544L552.065596078185,543.6932182378371L550.65802181195,543.3623323887679L546.7369220702958,541.9442501784715L547.1390861463628,540.5261679681752L550.3563987548997,540.8097844102344L553.1715472873694,540.4788985611652ZM537.688230358786,531.9231358923771L539.3974276820712,533.9084509867921L538.9952636060041,537.5954647335626L537.688230358786,537.4063871055231L536.5822791496015,538.3517752457208L535.5768689594338,537.5954647335626L535.3757869214003,534.2393368358612L534.7725408072996,532.6321769975253L536.2806560925512,532.773985218555ZM550.5574807929332,517.127811498285L550.255857735883,518.4986243015715L550.9596448690004,519.6803594768185L548.7477424506313,519.3022042207394L546.4352990132454,520.247592360937L546.5358400322622,521.6656745712335L546.2342169752119,522.4692544904013L547.1390861463628,523.8873367006977L549.753152640799,525.2581495039842L551.1607269070339,527.5743504474683L554.2774984965539,529.8432819839425L556.489400914923,529.8432819839425L557.1931880480404,530.4577842750709L556.3888598959062,530.9777477521795L558.9023853713255,532.017674706397L560.913205751661,532.8685240325748L563.3261902080636,534.2866062428711L563.627813265114,534.8065697199797L563.1251081700301,535.846496674197L561.5164518657617,534.5229532779206L559.1034674093592,534.0502592078217L557.8969751811578,535.893766081207L559.9077955614933,536.8864236284145L559.6061725044431,538.3517752457208L558.5002212952585,538.5408528737602L556.9921060100069,540.9043232242542L555.7856137818055,541.1406702593035L555.7856137818055,540.2898209331257L556.3888598959062,538.7771999088096L556.9921060100069,538.2099670246911L555.8861548008224,536.5555377793453L555.0818266486881,535.1847249760588L553.8753344204869,534.8065697199797L553.0710062683527,533.6248345447328L551.2612679260507,533.1048710676241L550.0547756978493,531.970405299387L547.9434142984971,531.7813276713475L545.8320528991449,530.5523230890907L543.2179864047087,528.7088162157054L541.3077070433899,527.1016563773695L540.5033788912558,524.3600307707966L539.095804625021,524.0291449217274L536.783361187635,523.0837567815297L535.5768689594338,523.4619120376088L533.9682126551653,524.7854554338854L532.7617204269641,524.974533061925L533.0633434840144,523.7927978866779L531.5552281987628,523.4146426305989L530.8514410656453,521.2402499081445L531.8568512558131,520.3894005819667L530.9519820846622,519.3494736277494L531.1530641226957,518.5458937085814L532.3595563508969,519.1603959997099L533.666589598115,519.0185877786802L535.1747048833666,518.0731996384826L535.6774099784506,518.5458937085814L537.0849842446854,518.4513548945617L537.688230358786,517.3168891263246L539.6990507391216,517.6477749753938L540.9055429673228,517.175080905295L541.2071660243731,516.0406151370579L542.8158223286415,516.4660398001467L543.2179864047087,515.8988069160282L545.9325939181616,515.4261128459293L546.5358400322622,516.4187703931368Z"
    fill="#1868b7"
    />
  </g>
</svg>