<?xml version="1.0" standalone="no"?>
<!DOCTYPE svg PUBLIC "-//W3C//DTD SVG 20010904//EN"
 "http://www.w3.org/TR/2001/REC-SVG-20010904/DTD/svg10.dtd">
<svg version="1.0" xmlns="http://www.w3.org/2000/svg" viewBox="0 0 1024 1024" preserveAspectRatio="xMidYMid meet" width="1024pt" height="1024pt">
 <g transform="translate(-17819.09484528116,-10537.889459736383)scale(20.460732119689716)" fill="#000000" stroke="none">
    <path
    d="M887.9731406132303,551.6344786154967L888.3753046892975,552.5798667556943L886.7666483850292,554.2815654080499L885.6606971758445,553.3834466748622L884.152581890593,554.0452183730006L883.4487947574754,555.6523782113364L881.6390564151735,554.8960676991784L881.6390564151735,553.5725243029017L883.1471717004252,551.8708256505461L884.7558280046935,552.2017114996153L885.9623202328949,551.0199763243683ZM905.6683599601827,543.2677935747481L904.6629497700151,545.4894557042124L905.0651138460821,546.9075379145088L903.6575395798473,548.8928530089237L900.1386039142602,550.1691269981904L895.2120939824381,550.35820462623L891.1904532217671,553.5252548958919L889.2801738604485,552.4853279416745L889.1796328414316,550.4054740332399L884.3536639286265,551.0199763243683L881.0358103010728,552.296250313635L877.8184976925361,552.3907891276548L880.6336462250058,554.4233736290796L878.723366863687,559.1975837370774L876.9136285213851,560.3320495053144L875.6065952741671,559.2448531440873L876.3103824072845,556.7395745725636L874.5006440649826,555.9359946533957L873.3946928557981,553.9979489659906L876.0087593502342,553.1470996398128L877.5168746354857,551.3981315804473L880.3320231679554,549.9800493701509L882.342843548291,548.0420036827459L887.8725995942136,547.238423763578L890.8888301647168,547.8056566476965L893.8045197162033,542.8423689116593L895.714799077522,544.1659123079359L899.736439838193,541.377017294353L901.3450961424614,540.2898209331257L903.1548344847633,536.8864236284145L902.6521293896794,533.7193733587526L903.7580805988641,531.970405299387L906.7743111693673,531.4504418222784L908.282426454619,535.3265331970885L908.1818854356022,537.5954647335626L905.6683599601827,540.3843597471455ZM913.9127235195583,523.6509896656484L915.823002880877,524.2182225497669L917.8338232612125,523.03648737452L918.4370693753132,526.2035376441818L914.3148875956255,526.95984815634L911.801362120206,529.7487431699227L907.4780983024847,527.8106974825176L905.9699830172332,530.8832089381598L902.8532114277132,530.9304783451697L902.4510473516459,528.1415833315868L903.8586216178808,525.9671906091324L906.7743111693673,525.8253823881028L907.5786393215016,521.9492910132926L908.4835084926525,519.7748982908383L911.7008211011894,522.7056015254508Z"
    fill="#1868b7"
    />
  </g>
</svg>