<?xml version="1.0" standalone="no"?>
<!DOCTYPE svg PUBLIC "-//W3C//DTD SVG 20010904//EN"
 "http://www.w3.org/TR/2001/REC-SVG-20010904/DTD/svg10.dtd">
<svg version="1.0" xmlns="http://www.w3.org/2000/svg" viewBox="0 0 1024 1024" preserveAspectRatio="xMidYMid meet" width="1024pt" height="1024pt">
 <g transform="translate(-5127.079657293952,-3626.5783345078535)scale(8.069021117624082)" fill="#000000" stroke="none">
    <path
    d="M710.1160779725552,528.9924326577647L708.6079626873036,529.4651267278634L704.887944983683,531.4504418222784L703.6814527554817,533.4357569166933L702.5755015462971,533.4357569166933L701.8717144131797,532.1122135204166L698.2522377285758,532.017674706397L697.749532633492,529.7487431699227L696.3419583672571,529.7487431699227L696.5430404052906,526.91257874933L693.2251867777371,524.8799942479052L688.3992178649319,525.1163412829546L685.1819052563951,525.4944965390337L682.4672977429422,522.9892179675101L680.2553953245731,521.9492910132926L675.9321315068518,519.9167065118679L675.3288853927511,519.6803594768185L668.1904730425601,521.3347887221643L668.2910140615769,531.639519450318L666.8834397953419,531.7813276713475L664.8726194150065,529.6069349488931L663.0628810727046,528.8033550297251L659.8455684641677,529.3705879138437L658.6390762359665,530.3159760540412L658.437994197933,529.654204355903L659.1417813310503,528.4724691806559L658.6390762359665,527.4798116334485L655.4217636274296,526.534423493251L654.1147303802115,524.0291449217274L652.6066150949599,523.3201038165791L652.5060740759432,522.4219850833915L655.2206815893961,522.7056015254508L655.3212226084129,520.625747617016L657.6336660457987,520.2003229539272L660.1471915212181,520.625747617016L660.6498966163019,517.8841220104431L660.1471915212181,516.1824233580875L657.3320429887483,516.2769621721072L654.9190585323458,515.6151904739688L651.701745923809,516.8441950562258L649.0876794293728,517.4114279403443L647.680105163138,516.9860032772555L647.9817282201883,515.5206516599492L646.1719898778863,513.6771447865639L644.1611694975509,513.7716836005836L641.7481850411482,511.8809073201885L643.3568413454167,509.7537840047439L642.5525131932825,509.1865511206254L644.7644156116514,506.1140396649832L647.680105163138,507.72119950331916L647.9817282201883,505.68861500189433L653.8131073231611,502.66337295326207L658.1363711408826,502.5688341392423L664.2693733009058,504.5068798266473L667.5872269284595,505.64134559488446L670.6034574989626,504.4596104196375L675.0272623357007,504.4123410126276L678.5461980012878,505.83042322292397L679.3505261534222,505.026843303756L683.2716258950763,505.12138211777574L683.9754130281938,503.7978387214992L679.4510671724388,501.907062441104L682.1656746858919,500.53624963781755L681.662969590808,499.77993912565944L684.2770360852442,499.0708980205113L682.2662157049085,497.1328523331062L683.5732489521267,496.18746419290864L694.0295149298712,495.1948066457012L695.3365481770893,494.53303494756284L702.3744195082636,493.4931079933456L704.887944983683,492.3586422251085L709.9149959345217,492.925875109227L710.8198651056728,495.80930893682967L713.7355546571592,495.14753723869137L717.2544903227463,496.09292537888894L717.0534082847128,497.60554640320504L719.7680157981656,497.46373818217535L726.7053461103231,494.81665138962217L725.6999359201553,495.71477012280985L729.2188715857426,497.8891628452643L735.4524147647826,504.9795738967461L736.9605300500343,503.5142222794399L740.8816297916884,505.12138211777574L744.8027295333427,504.3650716056177L746.4113858376111,504.8850350827264L747.7184190848291,506.49219492106226L749.7292394651646,507.05942780518086L750.8351906743492,508.24116298042776L754.4546673589532,507.8630077243488L755.9627826442047,509.5647063767044L753.8514212448524,511.4082132500897L751.5389778074666,511.69182969214893L751.337895769433,514.4807247057317L749.8297804841815,515.7569986949985L744.3000244382588,514.811610554801L742.2892040579233,519.8221676978482L740.8816297916884,520.4366699889766L735.3518737457658,521.5711357572137L737.8653992211853,526.4398846792312L735.9551198598665,527.1489257843793L736.1562018979,528.7560856227153L734.4470045746149,528.3306609596264L733.0394303083799,527.3380034124189L728.8167075096756,527.0543869703596L724.1918206349037,526.95984815634L723.186410444736,527.2434645983992L719.2653107030818,526.108998830162L717.6566543988134,526.6762317142806L717.2544903227463,528.3306609596264L712.6296034479747,527.3380034124189L710.8198651056728,527.7634280755078Z"
    fill="#1868b7"
    />
  </g>
</svg>