<?xml version="1.0" standalone="no"?>
<!DOCTYPE svg PUBLIC "-//W3C//DTD SVG 20010904//EN"
 "http://www.w3.org/TR/2001/REC-SVG-20010904/DTD/svg10.dtd">
<svg version="1.0" xmlns="http://www.w3.org/2000/svg" viewBox="0 0 1024 1024" preserveAspectRatio="xMidYMid meet" width="1024pt" height="1024pt">
 <g transform="translate(-19495.463758906542,-20404.66200196002)scale(32.386634544554994)" fill="#000000" stroke="none">
    <path
    d="M628.1751474738836,651.7038132554105L626.1643270935481,652.8382790236476L625.4605399604307,653.9727447918848L624.4551297702629,654.1618224199242L624.0529656941958,656.1471375143392L623.1480965230448,657.2816032825763L622.645391427961,659.1251101559616L621.4388991997597,660.0704982961591L617.4172584390888,657.2816032825763L617.3167174200719,655.6271740372305L607.1620744993776,649.9548451960451L606.6593694042938,649.6712287539857L606.6593694042938,646.6932561123634L607.463697556428,645.5587903441262L608.8712718226627,643.7152834707409L609.8766820128305,641.6826989693162L608.5696487656124,638.4683792926444L608.2680257085622,637.050297082348L606.9609924613441,635.112251394943L608.6701897846292,633.4578221495973L610.580469145948,631.614315276212L611.9880434121828,632.0870093463108L611.9880434121828,633.6468997776368L612.9934536023507,634.5922879178344L614.9037329636693,634.5922879178344L618.4226686292565,636.9557582683283L619.3275378004074,636.9557582683283L620.0313249335248,636.9084888613185L620.6345710476254,637.2393747103876L622.4443093899274,637.4284523384271L623.2486375420616,636.29398657019L625.8627040364978,635.112251394943L626.9686552456823,636.0576395351405L628.878934607001,636.0576395351405L626.4659501505985,639.2246898048024L626.4659501505985,649.3876123119264Z"
    fill="#1868b7"
    />
  </g>
</svg>