<?xml version="1.0" standalone="no"?>
<!DOCTYPE svg PUBLIC "-//W3C//DTD SVG 20010904//EN"
 "http://www.w3.org/TR/2001/REC-SVG-20010904/DTD/svg10.dtd">
<svg version="1.0" xmlns="http://www.w3.org/2000/svg" viewBox="0 0 1024 1024" preserveAspectRatio="xMidYMid meet" width="1024pt" height="1024pt">
 <g transform="translate(-21520.22696895312,-15734.248915642547)scale(30.554693298736552)" fill="#000000" stroke="none">
    <path
    d="M710.1160779725552,528.9924326577647L710.8198651056728,527.7634280755078L712.6296034479747,527.3380034124189L717.2544903227463,528.3306609596264L717.6566543988134,526.6762317142806L719.2653107030818,526.108998830162L723.186410444736,527.2434645983992L724.1918206349037,526.95984815634L728.8167075096756,527.0543869703596L733.0394303083799,527.3380034124189L734.4470045746149,528.3306609596264L736.1562018979,528.7560856227153L735.754037821833,529.3705879138437L731.3302329850949,530.8832089381598L730.3248227949271,531.970405299387L726.80588712934,532.3012911484562L725.6999359201553,534.0975286148316L722.784246368669,533.7193733587526L720.7734259883334,534.2866062428711L718.1593594938972,535.6101496391477L718.5615235699644,536.271921337286L717.7571954178302,536.8864236284145L712.4285214099411,537.3118482915033L709.0101267633707,536.4137295583157L705.9938961928675,536.6028071863552L706.2955192499178,534.9956473480194L709.311749820421,535.4683414181181L710.3171600105889,534.6174920919402L712.4285214099411,534.9011085339995L716.0479980945449,532.8685240325748L712.7301444669914,531.4031724152685L710.7193240866559,532.1122135204166L708.6079626873036,531.0722865661994L711.0209471437063,529.228779692814Z"
    fill="#1868b7"
    />
  </g>
</svg>