<?xml version="1.0" standalone="no"?>
<!DOCTYPE svg PUBLIC "-//W3C//DTD SVG 20010904//EN"
 "http://www.w3.org/TR/2001/REC-SVG-20010904/DTD/svg10.dtd">
<svg version="1.0" xmlns="http://www.w3.org/2000/svg" viewBox="0 0 1024 1024" preserveAspectRatio="xMidYMid meet" width="1024pt" height="1024pt">
 <g transform="translate(-30327.492427977973,-22416.22746583811)scale(38.45513608643411)" fill="#000000" stroke="none">
    <path
    d="M805.8311280765251,607.1287624450947L806.7359972476761,605.8997578628378L806.8365382666929,603.5362875123438L804.6246358483238,601.0782783478302L804.4235538102903,598.3366527412571L802.312192410938,596.067721204783L800.2008310115857,595.8786435767435L799.597584897485,596.824031716941L797.9889285932165,596.9185705309608L797.1846004410825,596.445876460862L794.1683698705792,598.1003057062078L794.1683698705792,595.5950271346842L794.8721570036967,592.6643239000716L792.961877642378,592.522515679042L792.7607956043444,590.8208170266864L791.554303376143,589.9699677005086L792.1575494902437,588.9773101533011L794.5705339466465,587.1338032799158L794.77161598468,587.7955749780541L796.2797312699315,587.8901137920739L795.8775671938645,584.6757941154021L797.2851414600993,584.2503694523132L798.9943387833844,586.4720315817775L800.2008310115857,589.024579560311L803.6192256581562,589.024579560311L804.7251768673407,591.4825887248247L802.9154385250388,592.191629829973L802.1111103729045,593.1842873771803L805.5295050194748,594.885986029536L807.8419484568606,598.1948445202275L809.5511457801458,600.6528536847412L811.6625071794981,602.5908993721463L812.3662943126155,604.5289450595513L811.8635892175316,607.3178400731341L809.3500637421122,606.3251825259267L808.1435715139111,608.2159588063219Z"
    fill="#1868b7"
    />
  </g>
</svg>