<?xml version="1.0" standalone="no"?>
<!DOCTYPE svg PUBLIC "-//W3C//DTD SVG 20010904//EN"
 "http://www.w3.org/TR/2001/REC-SVG-20010904/DTD/svg10.dtd">
<svg version="1.0" xmlns="http://www.w3.org/2000/svg" viewBox="0 0 1024 1024" preserveAspectRatio="xMidYMid meet" width="1024pt" height="1024pt">
 <g transform="translate(-11156.605660649853,-11433.538740234833)scale(20.832745430956745)" fill="#000000" stroke="none">
    <path
    d="M553.4731703444197,583.163173091086L551.4623499640843,584.2031000453034L549.9542346788326,582.6432096139773L545.5304298420945,581.4614744387303L544.3239376138932,579.7125063793649L542.1120351955241,578.3889629830883L540.8050019483061,578.9089264601969L539.7995917581384,577.3490360288708L539.6990507391216,576.1673008536239L537.9898534158364,574.1347163521991L539.095804625021,572.9529811769521L538.8947225869873,571.2040131175866L539.1963456440377,569.6913920932705L538.9952636060041,568.4151181040038L539.497968701088,566.1461865675295L539.3974276820712,564.8226431712529L538.4925585109202,562.3646340067393L539.7995917581384,561.702862308601L540.1012148151887,560.521127133354L539.7995917581384,559.3866613651169L541.709871119457,558.2994650038896L542.5141992715912,557.4013462707019L543.9217735378261,556.597766351534L544.1228555758597,554.4706430360894L547.3401681843965,555.4160311762871L548.5466604125978,555.1796841412377L550.8591038499835,555.6523782113364L554.5791215536042,556.8813827935933L555.8861548008224,559.3866613651169L558.3996802762417,559.9066248422255L562.3207800178959,561.0883600174725L565.3370105883992,562.459172820759L566.6440438356173,561.7501317156108L567.9510770828354,560.4738577263441L567.3478309687347,558.3467344108996L568.2527001398857,556.975921607613L570.2635205202212,555.6523782113364L572.1737998815399,555.2742229552574L575.8938175851606,555.841455839376L576.8992277753283,557.1177298286427L577.904637965496,557.1177298286427L578.809507136647,557.5904238987415L581.6246556691168,557.9213097478106L582.2279017832174,558.8194284809983L581.2224915930497,560.1902412842849L581.7251966881336,561.3719764595318L581.0214095550161,563.1209445188973L581.8257377071503,565.3426066483617L581.8257377071503,575.2691821204362L581.8257377071503,585.5739128485899L581.8257377071503,591.1517028757555L578.6084250986135,591.1517028757555L578.6084250986135,592.3334380510025L567.4483719877514,586.9919950588862L556.2883188768894,581.6505520667699Z"
    fill="#1868b7"
    />
  </g>
</svg>