<?xml version="1.0" standalone="no"?>
<!DOCTYPE svg PUBLIC "-//W3C//DTD SVG 20010904//EN"
 "http://www.w3.org/TR/2001/REC-SVG-20010904/DTD/svg10.dtd">
<svg version="1.0" xmlns="http://www.w3.org/2000/svg" viewBox="0 0 1024 1024" preserveAspectRatio="xMidYMid meet" width="1024pt" height="1024pt">
 <g transform="translate(-9603.55031901573,-11276.758905335075)scale(20.785505645399027)" fill="#000000" stroke="none">
    <path
    d="M505.91726834948514,548.7983141949039L507.02321955866967,550.5945516612794L507.1237605776864,552.296250313635L508.12917076785413,555.2269535482475L508.83295790097156,555.841455839376L508.33025280588777,556.9286522006032L504.71077612128386,557.3540768636921L503.40374287406576,558.3940038179094L501.7950865697973,558.6303508529588L501.69454555078056,560.7102047613935L498.4772329422438,561.8446705296305L497.3712817330592,563.2154833329171L495.05883829567347,563.9717938450751L492.24368976320375,564.397218508164L487.81988492646565,566.4770724165987L487.81988492646565,569.7859309072902L487.4177208503985,569.7859309072902L487.4177208503985,571.2512825245965L485.7085235271133,571.3458213386162L484.80365435596235,572.0075930367545L483.4966211087443,572.0075930367545L482.49121091857654,571.6294377806755L480.1787674811907,571.9130542227348L479.2738983100397,574.0874469451892L478.3690291388888,574.3237939802386L477.06199589167073,577.8217300989697L473.2414371690332,580.846972147602L472.33656799788224,584.6757941154021L471.13007576968096,585.9520681046688L470.8284527126307,586.9447256518763L464.4943685145738,587.1810726869257L464.5949095335906,585.904798697659L465.7008607427751,585.1012187784911L466.6057299139261,583.6831365681946L466.4046478758926,582.7377484279971L467.4100580660603,580.7524333335822L468.91817335131185,578.9561958672068L469.82304252246286,578.5307712041179L470.62737067459705,576.8763419587722L470.62737067459705,575.4109903414658L471.6327808647648,573.6620222821003L473.5430602260836,572.6693647348928L475.35279856838554,569.8332003143001L475.35279856838554,569.7859309072902L476.76037283462034,568.6987345460631L479.3744393290565,568.4151181040038L481.5863417474256,566.4770724165987L482.9939160136604,565.7207619044407L485.30635945104626,563.4045609609566L484.60257231792883,559.9538942492354L485.60798250809654,557.5431544917316L486.0101465841637,556.0778028744253L487.81988492646565,554.1870265940302L490.6350334589353,552.9107526047634L492.7463948582876,551.7290174295165L494.55613320058956,548.8455836019139L495.4610023717405,547.1438849495582L497.471822752076,547.1438849495582L499.1810200753612,548.3256201248051L501.7950865697973,548.1365424967657L504.71077612128386,548.7510447878941Z"
    fill="#1868b7"
    />
  </g>
</svg>