<?xml version="1.0" standalone="no"?>
<!DOCTYPE svg PUBLIC "-//W3C//DTD SVG 20010904//EN"
 "http://www.w3.org/TR/2001/REC-SVG-20010904/DTD/svg10.dtd">
<svg version="1.0" xmlns="http://www.w3.org/2000/svg" viewBox="0 0 1024 1024" preserveAspectRatio="xMidYMid meet" width="1024pt" height="1024pt">
 <g transform="translate(-15135.401934668458,-16515.751467140974)scale(24.340516848716724)" fill="#000000" stroke="none">
    <path
    d="M650.3947126765909,681.8144255207035L651.0984998097083,682.9961606959505L651.8022869428257,684.8396675693357L652.2044510188929,688.1957954670371L652.9082381520102,689.5193388633138L652.7071561139767,690.8428822595904L652.2044510188929,691.6937315857682L651.1990408287252,690.0393023404224L650.6963357336413,690.8901516666002L651.1990408287252,692.922736168025L650.9979587906915,694.104471343272L650.1936306385574,694.7662430414103L650.0930896195405,697.1297133919043L648.987138410356,700.3913024755859L647.5795641441212,704.2201244433861L645.870366820836,709.5142980284926L644.7644156116514,713.3903894033026L643.5579233834502,716.6519784869843L641.2454799460643,717.3137501851226L638.8324954896618,718.4954853603696L637.2238391853933,717.7864442552213L635.0119367670243,716.793786708014L634.2076086148901,715.3284350907077L634.0065265768566,712.8231565191841L633.0011163866888,710.6014943897197L632.8000343486552,708.6161792953048L633.3027394437391,706.58359479388L634.6097726909572,706.1109007237812L634.6097726909572,705.1655125835837L635.9168059381752,703.0383892681391L636.1178879762089,701.2894212087737L635.5146418621082,699.965877812497L635.0119367670243,698.1696403461216L634.8108547289908,695.6170923675882L635.7157239001417,694.0572019362621L636.1178879762089,692.2609644698867L637.5254622424436,692.166425655867L639.0335775276953,691.5991927717484L640.1395287368798,691.1264987016497L641.3460209650812,691.0792292946397L642.9546772693495,689.4720694563039L645.2671207067353,687.7703708039483L646.0714488588696,686.3522885936519L645.6692847828024,685.1705534184049L646.8757770110038,685.501439267474L648.3838922962553,683.563393580069L648.4844333152721,681.8616949277133L649.389302486423,680.6326903454565Z"
    fill="#1868b7"
    />
  </g>
</svg>