<?xml version="1.0" standalone="no"?>
<!DOCTYPE svg PUBLIC "-//W3C//DTD SVG 20010904//EN"
 "http://www.w3.org/TR/2001/REC-SVG-20010904/DTD/svg10.dtd">
<svg version="1.0" xmlns="http://www.w3.org/2000/svg" viewBox="0 0 1024 1024" preserveAspectRatio="xMidYMid meet" width="1024pt" height="1024pt">
 <g transform="translate(-1961.597257346713,-5813.1743985584335)scale(10.886470296461948)" fill="#000000" stroke="none">
    <path
    d="M240.6900601832325,574.7492186433276L239.6846499930648,577.2072278078413L239.18194489798088,579.2398123092661L238.98086285994736,582.9740954630465L238.67923980289697,584.3449082663329L239.18194489798088,585.857529290649L240.0868140691319,587.2283420939356L240.58951916421574,589.3554654093801L242.49979852553446,591.4353193178148L243.10304463963507,593.0424791561506L244.20899584881965,594.4132919594372L247.12468540030613,595.1696024715952L248.33117762850742,596.3513376468422L250.74416208491,595.5477577276744L252.85552348426228,595.264141285615L254.96688488361457,594.7441778085064L256.7766232259165,594.2714837384076L258.48582054920166,593.1370179701705L259.1896076823191,591.5298581318345L259.39068972035267,589.1663877813406L259.8933948154366,588.3628078621728L261.8036741767553,587.6064973500146L264.7193637282418,586.9919950588862L267.2328892036611,587.086533872906L268.9420865269463,586.8501868378565L269.54533264104697,587.4174197219751L269.44479162203015,588.7882325252616L267.93667633677853,590.4426617706074L267.3334302226779,592.144360422963L267.8361353177618,592.6170544930618L267.43397124169473,593.8460590753186L266.7301841085772,596.0204517977731L266.0263969754598,595.3114106926249L265.42315086135915,595.3586800996347L264.9204457662753,595.3586800996347L263.9150355761076,597.0603787519905L263.4123304810237,596.7294929029213L263.0101664049566,596.8713011239508L263.11070742397334,597.24945638003L260.4966409295372,597.24945638003L257.882574435101,597.24945638003L257.882574435101,598.8093468113559L256.575541187883,598.8093468113559L257.6814923970675,599.7547349515535L258.68690258723524,600.4165066496919L258.9885256442856,600.9837395338104L259.4912307393694,601.1728171618499L259.39068972035267,602.1182053020475L255.77121303574876,602.1182053020475L254.4641797885307,604.3871368385217L254.8663438645978,604.9543697226402L254.56472080754747,605.5688720137687L254.4641797885307,606.4197213399465L251.2468671799939,603.3944792913142L249.83929291375904,602.4963605581265L247.52684947637323,601.7400500459685L246.0187341911216,601.9763970810178L243.8068317727525,603.0163240352351L242.3992575065177,603.2999404772945L240.38843712618217,602.5436299651363L238.27707572682993,602.0236664880277L235.66300923239373,600.747392498761L233.5516478330415,600.369237242682L230.43487624352144,599.0456938464054L228.12243280613563,597.7221504501288L227.4186456730182,596.9658399379707L225.80998936874983,596.824031716941L222.9948408362801,595.9259129837533L221.78834860807882,594.6496389944866L218.77211803757552,593.0424791561506L217.36454377134072,591.2935110967852L216.76129765724005,589.9226982934987L217.666166828391,589.6863512584492L217.36454377134072,588.8827713392814L218.0683309044581,588.1264608271233L218.0683309044581,587.1810726869257L217.06292071429039,585.904798697659L216.86183867625687,584.8176023364317L215.95696950510586,583.3995201261354L213.44344402968648,580.6106251125525L210.62829549721675,578.4362323900981L209.3212622499987,576.6872643307325L206.90827779359608,575.5527985624955L206.40557269851217,574.8910268643572L206.80773677457933,573.1420588049916L205.40016250834447,572.5275565138633L203.69096518505927,571.1567437105767L202.9871780519419,569.2186980231717L201.57960378570698,568.9823509881223L199.87040646242184,567.516999370816L198.5633732152038,566.1461865675295L198.46283219618692,565.2480678343419L196.95471691093536,563.1682139259073L195.9493067207676,561.0410906104627L196.04984773978435,559.9538942492354L194.03902735944888,558.8666978880082L193.03361716928111,558.9612367020279L191.5255018840295,558.2049261898699L191.02279678894564,559.339391958107L191.5255018840295,560.6629353543835L191.72658392206307,562.7900586698281L192.73199411223084,563.9245244380652L194.84335551158307,565.8625701254703L195.24551958765016,566.5243418236086L195.64768366371726,566.7134194516481L196.04984773978435,567.6588075918456L196.55255283486827,567.6115381848358L197.15579894896888,569.4077756512112L197.96012710110307,570.1168167563594L198.5633732152038,571.1094743035668L200.27257053848894,572.5275565138633L201.2779807286567,575.1273738994066L202.0823088807909,576.3563784816635L202.88663703292508,577.67992187794L202.9871780519419,579.1452734952463L204.29421129915988,579.2398123092661L205.50070352736122,580.5160862985327L206.50611371752893,581.7450908807896L206.40557269851217,582.2650543578983L205.1990804703109,583.2577119051058L204.69637537522703,583.2577119051058L203.9925882421096,581.5560132527501L202.18284989980765,579.9961228214241L200.17202951947218,578.6253100181376L198.76445525323732,577.9162689129894L198.86499627225407,575.8836844115647L198.36229117717016,574.3710633872485L197.05525792995212,573.4729446540608L195.1449785686334,572.243940071804L194.7428144925663,572.622095327883L194.03902735944888,571.865784815725L192.32983003616374,571.2040131175866L190.7211737318953,569.5968532792507L190.92225576992882,569.3605062442014L192.0282069791134,569.5495838722409L193.13415818829787,568.5096569180236L193.2346992073147,567.2333829287568L191.02279678894564,565.2480678343419L189.41414048467726,564.4444879151739L188.4087302945095,562.7427892628183L187.30277908532491,560.899282389433L186.09628685712363,558.6776202599688L184.88979462892235,556.1250722814352L188.10710723745916,555.9359946533957L191.62604290304625,555.6051088043265L191.42496086501274,556.172341688445L195.5471426447005,557.5431544917316L201.98176786177407,559.4812001791366L207.51152390769676,559.4812001791366L209.7234263260658,559.4812001791366L209.7234263260658,558.3467344108996L214.549395238871,558.3467344108996L215.55480542903877,559.2921225510971L217.06292071429039,560.1902412842849L218.67157701855876,561.4192458665417L219.57644618970977,562.8845974838479L220.28023332282714,564.397218508164L221.78834860807882,565.2480678343419L224.10079204546463,566.0989171605197L225.80998936874983,563.8772550310554L228.12243280613563,563.8299856240454L230.03271216745435,564.9644513922825L231.4402864336892,566.8552276726778L232.44569662385692,568.5096569180236L234.05435292812535,570.1168167563594L234.65759904222597,572.0548624437645L235.46192719436021,573.3784058400411L237.67382961272926,574.2292551662189L239.6846499930648,574.8437574573472Z"
    fill="#1868b7"
    />
  </g>
</svg>