<?xml version="1.0" standalone="no"?>
<!DOCTYPE svg PUBLIC "-//W3C//DTD SVG 20010904//EN"
 "http://www.w3.org/TR/2001/REC-SVG-20010904/DTD/svg10.dtd">
<svg version="1.0" xmlns="http://www.w3.org/2000/svg" viewBox="0 0 1024 1024" preserveAspectRatio="xMidYMid meet" width="1024pt" height="1024pt">
 <g transform="translate(-9535.756872398106,-11483.145480995632)scale(20.057785535275634)" fill="#000000" stroke="none">
    <path
    d="M477.9668650628217,606.183374304897L478.97227525298945,605.6634108277884L479.3744393290565,604.0089815824426L480.2793085002075,603.9617121754328L482.29012888054297,604.7180226875909L483.7982441657946,604.1980592104821L484.9041953749791,604.3871368385217L485.30635945104626,603.7726345473933L496.56695358092503,603.7253651403834L497.1701996950257,601.7400500459685L496.66749459994185,601.4091641968993L495.36046135272375,589.3554654093801L493.95288708648883,577.301766621861L498.27615090421017,577.2544972148511L507.62646567277034,583.3522507191255L517.0773214603471,589.4500042233999L517.7811085934645,590.7735476196765L519.4903059167498,591.5298581318345L520.7973391639679,592.0025522019333L520.7973391639679,593.7987896683088L523.9141107534879,593.5151732262495L523.9141107534879,599.9438125795931L522.4059954682363,601.7873194529783L522.2049134302026,603.5362875123438L519.6913879547833,603.9617121754328L515.8708292321459,604.1980592104821L514.8654190419782,605.1907167576896L513.0556806996761,605.3325249787192L511.2459423573742,605.3325249787192L510.54215522425676,604.7652920946007L509.03403993900514,605.1907167576896L506.41997344456894,606.3251825259267L505.91726834948514,607.2233012591145L503.70536593111603,608.4523058413713L503.303201855049,609.2086163535294L502.1972506458645,609.7758492376479L500.7896763796296,609.3976939815689L500.0858892465121,610.0594656797072L499.6837251704451,611.9975113671122L497.3712817330592,614.2664429035864L497.471822752076,615.211831043784L496.7680356189586,616.4408356260408L496.86857663797537,618.0479954643768L495.7626254287909,618.4734201274656L495.05883829567347,618.8043059765348L494.6566742196063,617.6225708012878L493.85234606747207,617.9061872433471L493.3496409723883,617.8589178363371L492.84693587730436,618.709767162515L490.7355744779521,618.6624977555051L489.9312463258179,618.2370730924163L489.52908224975084,618.5206895344755L488.7247540976166,617.6698402082977L488.82529511663336,616.8662602891297L488.523672059583,616.5353744400605L487.9204259454824,616.8189908821198L488.02096696449917,615.9208721489322L488.62421307859984,615.1645616367741L487.4177208503985,614.0300958685369L487.1160977933482,613.2265159493691L486.51285167924755,612.6120136582406L485.9096055651469,612.5647442512308L485.30635945104626,612.9428995073098L484.40149027989526,613.3210547633888L483.59716212776107,613.9355570545172L482.3906698995598,613.6992100194678L481.68688276644235,612.9901689143196L481.18417767135844,612.8956301002999L480.480390538241,613.2737853563789L479.97768544315716,613.2737853563789L479.8771444241404,612.2338584021616L479.97768544315716,611.3830090759838L479.77660340512364,610.2958127147565L478.67065219593906,609.5395022025984L478.1679471008552,607.9323423642626Z"
    fill="#1868b7"
    />
  </g>
</svg>