<?xml version="1.0" standalone="no"?>
<!DOCTYPE svg PUBLIC "-//W3C//DTD SVG 20010904//EN"
 "http://www.w3.org/TR/2001/REC-SVG-20010904/DTD/svg10.dtd">
<svg version="1.0" xmlns="http://www.w3.org/2000/svg" viewBox="0 0 1024 1024" preserveAspectRatio="xMidYMid meet" width="1024pt" height="1024pt">
 <g transform="translate(-13504.046533709341,-10124.526585643325)scale(17.91981065792474)" fill="#000000" stroke="none">
    <path
    d="M787.2310395584218,619.2770000466336L786.9294165013714,617.1971461381988L787.8342856725224,615.0700228227543L786.8288754823548,613.4155935774086L787.1304985394049,610.3430821217664L785.9240063112038,608.9249999114701L785.0191371400527,605.5688720137687L784.5164320449688,602.0236664880277L783.3099398167675,599.7074655445437L781.5002014744655,601.12554775484L778.2828888659287,603.110862849255L776.7747735806771,602.8745158142056L775.065576257392,602.2127441160673L775.9704454285429,598.7620774043461L775.3671993144422,596.1149906117929L773.2558379150901,592.9006709351211L773.5574609721402,591.9080133879136L771.9488046678719,591.5771275388445L769.9379842875364,589.2609265953604L769.7369022495029,587.039264465896L770.7423124396707,587.464689128985L770.7423124396707,585.4321046275602L772.1498867059054,584.7703329294219L771.8482636488552,583.5885977541749L772.5520507819726,582.6432096139773L772.6525918009893,579.7597757863747L774.7639532003416,580.3742780775032L776.0709864475597,578.1053465410289L776.1715274665765,576.7345337377425L777.6796427518282,574.3710633872485L777.6796427518282,572.8111729559225L781.299119436432,570.8731272685175L783.2093987977507,571.3458213386162L783.0083167597172,569.6441226862606L784.0137269498849,569.1241592091519L783.8126449118514,568.0842322549346L785.4213012161198,567.8478852198853L786.3261703872708,569.5023144652309L787.5326626154722,570.1640861633692L787.6332036344888,572.3384788858237L787.5326626154722,574.6074104222979L784.9185961210359,576.9708807727918L784.5164320449688,580.2797392634834L787.5326626154722,579.8070451933846L788.1359087295727,582.359593171918L789.9456470718746,582.9268260560366L789.1413189197403,585.2430269995207L791.2526803190927,586.282953953738L792.4591725472941,586.8029174308467L794.4699929276296,585.9993375116787L794.5705339466465,587.1338032799158L792.1575494902437,588.9773101533011L791.554303376143,589.9699677005086L789.9456470718746,590.6317393986469L788.3369907676063,591.8607439809037L786.3261703872708,591.9552827949235L785.1196781590695,594.9805248435557L783.9131859308682,595.5004883206644L785.320760197103,597.9584974851781L787.0299575203883,599.9910819866029L788.2364497485894,601.8345888599882L787.1304985394049,604.2453286174921L786.225629368254,604.7652920946007L786.8288754823548,606.183374304897L788.7391548436733,608.4050364343614L789.0407779007237,609.9649268656874L789.0407779007237,611.2412008549541L790.1467291099082,613.7937488334876L788.5380728056398,616.393566219031Z"
    fill="#1868b7"
    />
  </g>
</svg>