<?xml version="1.0" standalone="no"?>
<!DOCTYPE svg PUBLIC "-//W3C//DTD SVG 20010904//EN"
 "http://www.w3.org/TR/2001/REC-SVG-20010904/DTD/svg10.dtd">
<svg version="1.0" xmlns="http://www.w3.org/2000/svg" viewBox="0 0 1024 1024" preserveAspectRatio="xMidYMid meet" width="1024pt" height="1024pt">
 <g transform="translate(-7754.875242616334,-4811.0468229208045)scale(10.310920123308152)" fill="#000000" stroke="none">
    <path
    d="M757.0687338533892,509.3283593416551L759.9844234048757,508.8556652715563L765.3130974127648,506.44492551405233L769.5358202114694,505.12138211777574L771.9488046678719,505.97223144395355L774.8644942193583,506.0195008509635L776.7747735806771,507.3430442472401L779.5899221131469,507.43758306125983L783.6115628738179,508.14662416640806L786.3261703872708,506.208578479003L785.2202191780863,504.5541492336572L788.0353677105559,501.6707154060546L791.152139300076,502.80518117429176L793.7662057945121,503.13606702336085L796.983518403049,503.845108128509L797.5867645171495,505.9249620369437L801.5078642588039,507.1066972121907L804.1219307532399,506.58673373508196L807.7414074378438,506.25584788601293L810.4560149512968,506.58673373508196L813.2711634837665,507.95754653836855L814.8798197880349,509.3756287486649L817.493886282471,509.3283593416551L821.0128219480582,509.80105341175386L823.6268884424942,509.0920123066056L827.2463651270982,508.6665876435167L831.3685469067859,506.6812725491018L833.0777442300712,506.96488899116105L834.4853184963059,507.9102771313586L837.8031721238597,507.6739300963093L836.4961388766415,509.80105341175386L834.4853184963059,512.5899484253366L835.1891056294235,513.7244141935737L836.7977619336918,513.3462589374947L839.5123694471448,513.8189530075934L841.7242718655139,512.7790260533762L843.9361742838829,513.6771447865639L846.4496997593023,515.6151904739688L846.148076702252,516.6078480211763L843.9361742838829,516.2769621721072L839.9145335232118,516.6551174281863L837.9037131428763,517.4586973473542L835.8928927625409,519.3022042207394L831.6701699638363,520.3894005819667L828.8550214313666,521.854752199273L825.9393318798802,521.2875193151543L824.4312165946286,521.051172280105L822.9231013093768,522.8474097464804L823.8279704805278,523.9346061077076L824.3306755756117,524.8327248408954L822.3198551952762,525.7781129810929L820.3090348149408,527.290734005409L817.0917222064039,528.2833915526165L812.8689994076994,528.3779303666363L808.3446535519446,529.3233185068339L805.1273409434077,530.83593953115L803.9208487152064,529.9850902049722L800.502454068636,529.9850902049722L796.3802722889484,528.2833915526165L793.5651237564786,527.8579668895276L789.9456470718746,528.2361221456066L784.1142679689017,527.6216198544782L781.0980373983984,527.6688892614881L779.3888400751134,526.0144600161423L778.1823478469121,523.4619120376088L776.3726095046101,523.1310261885396L773.0547558770564,521.3820581291742L769.3347381734358,521.0039028730951L766.0168845458822,520.5312088029964L765.0114743557144,519.3494736277494L766.0168845458822,516.0406151370579L764.1066051845635,513.8189530075934L760.0849644238925,512.7790260533762L757.7725209865066,511.26640502906Z"
    fill="#1868b7"
    />
  </g>
</svg>