<?xml version="1.0" standalone="no"?>
<!DOCTYPE svg PUBLIC "-//W3C//DTD SVG 20010904//EN"
 "http://www.w3.org/TR/2001/REC-SVG-20010904/DTD/svg10.dtd">
<svg version="1.0" xmlns="http://www.w3.org/2000/svg" viewBox="0 0 1024 1024" preserveAspectRatio="xMidYMid meet" width="1024pt" height="1024pt">
 <g transform="translate(-11770.616823879905,-13532.43394348448)scale(20.099746387445492)" fill="#000000" stroke="none">
    <path
    d="M608.4691077465957,679.1673387281503L610.580469145948,678.9309916931009L613.9988637925184,679.7345716122688L614.7026509256358,679.3564163561897L616.6129302869545,679.3091469491799L617.6183404771223,678.4582976230021L619.3275378004074,678.5055670300119L622.3437683709107,677.4183706687847L624.5556707892797,675.8112108304489L625.0583758843636,677.0402154127057L624.9578348653467,679.8291104262886L625.2594579223971,682.2871195908023L625.3599989414139,686.6359050357111L625.8627040364978,688.0067178389976L625.0583758843636,690.0393023404224L623.952424675179,691.9773480278275L622.1426863328771,693.6790466801831L619.6291608574577,694.7662430414103L616.5123892679377,696.0897864376869L613.2950766594009,699.1150284863191L612.2896664692331,699.6349919634279L610.2788460888977,701.6203070578428L609.1728948797131,702.2348093489712L608.8712718226627,704.2201244433861L610.2788460888977,706.3472477588307L610.7815511839815,708.0016770041765L610.7815511839815,708.8052569233444L611.2842562790654,708.6634487023148L611.1837152600486,711.4050743088877L610.7815511839815,712.7286177051643L611.3847972980822,713.2013117752631L610.982633222015,714.3830469505101L609.8766820128305,715.3757044977176L607.5642385754447,716.3210926379152L604.1458439288743,717.8337136622313L602.939351700673,718.8263712094387L603.2409747577234,720.0081063846857L603.9447618908408,720.1971840127252L603.6431388337904,721.6625356300315L601.5317774344383,721.6625356300315L601.3306953964047,720.4335310477746L600.9285313203375,719.1572570585079L600.6269082632872,718.1645995113004L601.1296133583711,715.0448186486484L600.4258262252537,713.0595035542335L599.1187929780356,709.1361427724136L602.034482529522,705.9690925027517L602.7382696626395,703.9365080013268L603.2409747577234,703.7001609662774L603.5425978147737,702.0457317209317L603.0398927196899,701.2421518017637L603.1404337387066,699.1622978933291L603.7436798528072,697.224252205924L603.7436798528072,693.6790466801831L602.2355645675557,692.7809279469953L600.9285313203375,692.5918503189558L600.3252852062369,691.8828092138077L599.0182519590188,691.3155763296892L596.7058085216331,691.362845736699L596.5047264835994,690.3229187824817L596.3036444455659,688.3376036880668L604.749090042975,686.0214027445827L606.3577463472434,687.3449461408593L607.1620744993776,687.1085991058098L608.2680257085622,687.8176402109581L608.3685667275789,688.9048365721853L607.7653206134783,690.2283799684619L607.9664026515118,692.2136950628768L609.8766820128305,693.9153937152325L610.6810101649647,691.9773480278275L611.8875023931661,691.4101151437089L611.6864203551324,687.8176402109581L610.4799281269312,685.7850557095333L609.4745179367635,684.8869369763456L608.4691077465957,684.9342063833554L607.7653206134783,681.2944620435948Z"
    fill="#1868b7"
    />
  </g>
</svg>