<?xml version="1.0" standalone="no"?>
<!DOCTYPE svg PUBLIC "-//W3C//DTD SVG 20010904//EN"
 "http://www.w3.org/TR/2001/REC-SVG-20010904/DTD/svg10.dtd">
<svg version="1.0" xmlns="http://www.w3.org/2000/svg" viewBox="0 0 1024 1024" preserveAspectRatio="xMidYMid meet" width="1024pt" height="1024pt">
 <g transform="translate(-11917.761422532234,-14680.985596264834)scale(25.82351522625449)" fill="#000000" stroke="none">
    <path
    d="M477.9668650628217,606.183374304897L476.1571267205197,604.2453286174921L474.4479293972346,602.2127441160673L472.6381910549326,601.4564336039092L471.3311578077145,600.6528536847412L469.7225015034461,600.7001230917512L468.41546825622805,601.2673559758697L467.00789398999314,601.0310089408202L466.0024837998254,601.929127674008L465.8014017617919,600.4165066496919L466.6057299139261,599.0456938464054L466.9073529709764,596.445876460862L466.6057299139261,593.6569814472791L466.3041068568758,592.2861686439927L466.50518889490934,590.8680864336962L465.8014017617919,589.5445430374197L464.393827495557,588.3628078621728L464.99707360965766,587.4174197219751L475.85550366346934,587.464689128985L475.35279856838554,583.3995201261354L476.0565857015029,581.981437915839L478.67065219593906,581.7450908807896L478.5701111769223,574.5601410152881L487.7193439074489,574.7492186433276L487.7193439074489,570.4949720124384L498.27615090421017,577.2544972148511L493.95288708648883,577.301766621861L495.36046135272375,589.3554654093801L496.66749459994185,601.4091641968993L497.1701996950257,601.7400500459685L496.56695358092503,603.7253651403834L485.30635945104626,603.7726345473933L484.9041953749791,604.3871368385217L483.7982441657946,604.1980592104821L482.29012888054297,604.7180226875909L480.2793085002075,603.9617121754328L479.3744393290565,604.0089815824426L478.97227525298945,605.6634108277884Z"
    fill="#1868b7"
    />
  </g>
</svg>