<?xml version="1.0" standalone="no"?>
<!DOCTYPE svg PUBLIC "-//W3C//DTD SVG 20010904//EN"
 "http://www.w3.org/TR/2001/REC-SVG-20010904/DTD/svg10.dtd">
<svg version="1.0" xmlns="http://www.w3.org/2000/svg" viewBox="0 0 1024 1024" preserveAspectRatio="xMidYMid meet" width="1024pt" height="1024pt">
 <g transform="translate(-13611.301112402849,-10471.233505790335)scale(17.262538586856756)" fill="#000000" stroke="none">
    <path
    d="M797.1846004410825,629.6290001817971L797.8883875741999,629.8653472168464L799.4970438784683,631.567045869202L800.7035361066695,633.4578221495973L800.9046181447032,635.3013290229825L800.6029950876529,636.5776030122493L800.8040771256864,637.5702605594568L801.0051591637199,639.2246898048024L802.0105693538877,639.9810003169606L803.1165205630723,642.4390094814743L803.0159795440554,643.3843976216718L801.1057001827368,643.5734752497114L798.3910926692838,641.4936213412767L795.173780060747,639.2719592118124L794.77161598468,637.853877001516L793.1629596804115,636.0103701281307L792.7607956043444,633.6941691846466L791.7553854141767,632.1815481603305L792.1575494902437,630.1489636589057L791.4537623571263,628.9672284836588L791.9564674522102,628.4472650065501L794.2689108895961,629.6762695888069L794.4699929276296,631.0943517991033L796.2797312699315,630.7634659500342ZM841.22156677043,635.4431372440122L838.8085823140273,634.9704431739134L835.5912697054905,634.9704431739134L834.5858595153228,638.1374934435753L833.4799083061382,639.1301509907828L832.0723340399034,643.0062423655928L829.7598906025175,643.6207446567212L827.1458241080816,642.8171647375533L825.8387908608635,643.0535117726026L824.230134556595,644.4715939828991L822.4203962142931,644.2825163548596L820.6106578719912,644.8497492389781L818.7003785106724,643.2425894006421L818.1976734155885,641.399082527257L820.3090348149408,642.3444706674545L822.4203962142931,641.8245071903458L823.0236423283936,639.4610368398519L824.230134556595,638.9410733627432L827.5479881841486,638.3265710716148L829.558808564484,636.1049089421505L830.9663828307189,634.3559408827849L832.1728750589202,635.8212925000912L832.7761211730209,634.8759043598936L834.0831544202389,634.9231737669035L834.2842364582724,633.1742057075379L834.3847774772893,631.8033929042515L836.5966798956583,629.8653472168464L838.0042541618932,627.6436850873821L839.1102053710777,627.6436850873821L840.5177796373125,629.0617672976786L840.6183206563293,630.2907718799354L842.528600017648,631.0470823920934L844.841043455034,631.8979317182713L844.6399614170004,632.9851280794985L842.7296820556816,633.1269363005281L843.2323871507656,634.4977491038146Z"
    fill="#1868b7"
    />
  </g>
</svg>