<?xml version="1.0" standalone="no"?>
<!DOCTYPE svg PUBLIC "-//W3C//DTD SVG 20010904//EN"
 "http://www.w3.org/TR/2001/REC-SVG-20010904/DTD/svg10.dtd">
<svg version="1.0" xmlns="http://www.w3.org/2000/svg" viewBox="0 0 1024 1024" preserveAspectRatio="xMidYMid meet" width="1024pt" height="1024pt">
 <g transform="translate(-13407.510756565847,-17059.642450098436)scale(24.707299163398805)" fill="#000000" stroke="none">
    <path
    d="M557.5953521241075,726.8149009941083L555.584531743772,724.6877776786637L554.4785805345874,722.655193177239L553.8753344204869,719.9135675706659L553.1715472873694,717.928252476251L552.2666781162185,713.626736438352L552.1661370972017,710.2706085406506L551.8645140401513,708.7579875163345L550.7585628309668,707.5762523410875L549.2504475457151,705.3073208046133L547.8428732794804,701.951192906912L547.2396271653797,700.2022248475464L544.9271837279939,697.4605992409735L544.7261016899603,695.3334759255289L546.1336759561951,694.7662430414103L547.7423322604636,694.2935489713116L549.5520706027655,694.3880877853312L551.2612679260507,695.664361774598L551.6634320021178,695.4752841465585L563.0245671510133,695.3334759255289L564.9348465123321,696.6570193218055L571.671094786456,697.0824439848943L576.7986867563116,695.9479782166572L579.1111301936974,695.286206518519L580.9208685359994,695.4752841465585L582.0268197451838,696.0897864376869L582.0268197451838,696.3261334727363L580.5187044599322,696.9406357638647L579.6138352887813,696.9406357638647L577.8040969464793,698.027832125092L576.7986867563116,696.8933663568549L572.4754229385902,697.8860239040623L570.3640615392379,697.9805627180821L570.2635205202212,707.9071381901567L567.5489130067682,708.0016770041765L567.5489130067682,716.1792844168855L567.5489130067682,726.4840151450392L565.0353875313489,727.9020973553355L563.5272722460973,728.091174983375L561.818074922812,727.5712115062663L560.511041675594,727.3821338782268L560.108877599527,726.2003987029799L559.0029263903423,725.3968187838119Z"
    fill="#1868b7"
    />
  </g>
</svg>