<?xml version="1.0" standalone="no"?>
<!DOCTYPE svg PUBLIC "-//W3C//DTD SVG 20010904//EN"
 "http://www.w3.org/TR/2001/REC-SVG-20010904/DTD/svg10.dtd">
<svg version="1.0" xmlns="http://www.w3.org/2000/svg" viewBox="0 0 1024 1024" preserveAspectRatio="xMidYMid meet" width="1024pt" height="1024pt">
 <g transform="translate(-10805.69258818923,-12146.502422193735)scale(21.169533463327873)" fill="#000000" stroke="none">
    <path
    d="M517.9821906314982,613.651940612458L518.0827316505149,611.7611643320628L514.8654190419782,611.0993926339245L514.7648780229614,609.7758492376479L513.1562217186929,607.9323423642626L512.8545986616426,606.6560683749959L513.0556806996761,605.3325249787192L514.8654190419782,605.1907167576896L515.8708292321459,604.1980592104821L519.6913879547833,603.9617121754328L522.2049134302026,603.5362875123438L522.4059954682363,601.7873194529783L523.9141107534879,599.9438125795931L523.9141107534879,593.5151732262495L527.8352104951421,592.2861686439927L535.979033035501,586.7556480238368L545.5304298420945,581.4614744387303L549.9542346788326,582.6432096139773L551.4623499640843,584.2031000453034L553.4731703444197,583.163173091086L554.1769574775371,587.5119585359948L555.1823676677049,588.2209996411431L555.2829086867216,589.1191183743307L556.3888598959062,590.0645065145284L555.7856137818055,591.2462416897753L554.6796625726209,596.9185705309608L554.5791215536042,600.5583148707215L551.0601858880171,603.2054016632746L549.8536936598158,606.8924154100453L550.9596448690004,607.9323423642626L550.9596448690004,609.728579830638L552.7693832113023,609.7758492376479L552.467760154252,611.0993926339245L551.6634320021178,611.2412008549541L551.562890983101,612.1393195881418L551.0601858880171,612.1865889951517L549.1499065266984,609.1613469465194L548.5466604125978,609.0195387254898L546.3347579942287,610.5794291568158L544.2233965948765,609.7758492376479L542.7152813096247,609.6340410166182L541.9109531574906,610.0121962726972L540.2017558342054,609.9176574586776L538.593099529937,611.0993926339245L537.1855252637022,611.1939314479442L533.7671306171318,609.728579830638L532.4600973699138,610.4376209357862L531.0525231036789,610.3903515287764L530.0471129135111,609.3031551675491L527.2319643810415,608.2632282133318L524.2157338105382,608.5941140624009L523.5119466774208,609.2086163535294L523.1097826013537,610.8157761918652L522.3054544492195,611.9502419601023L522.1043724111859,614.4555205316259L519.9930110118337,612.84836069329L518.9876008216659,612.84836069329Z"
    fill="#1868b7"
    />
  </g>
</svg>