<?xml version="1.0" standalone="no"?>
<!DOCTYPE svg PUBLIC "-//W3C//DTD SVG 20010904//EN"
 "http://www.w3.org/TR/2001/REC-SVG-20010904/DTD/svg10.dtd">
<svg version="1.0" xmlns="http://www.w3.org/2000/svg" viewBox="0 0 1024 1024" preserveAspectRatio="xMidYMid meet" width="1024pt" height="1024pt">
 <g transform="translate(-14378.679062684656,-16757.273062197233)scale(27.776993907942327)" fill="#000000" stroke="none">
    <path
    d="M535.7779509974673,633.6941691846466L532.8622614459808,634.6868267318541L531.7563102367964,634.5450185108244L530.7509000466285,635.1595208019529L528.4384566092427,635.112251394943L526.9303413239911,633.3632833355775L526.02547215284,631.3306988341527L524.1151927915214,629.4871919607674L522.0038313921691,629.5344613677773L519.4903059167498,629.5344613677773L519.6913879547833,625.0438677018387L519.5908469357665,623.2476302354634L520.0935520308504,621.4986621760979L520.9984212020014,620.64781284992L522.3054544492195,618.8988447905544L522.0038313921691,618.1425342783965L522.6070775062698,617.0080685101593L522.0038313921691,615.3536392648136L522.1043724111859,614.4555205316259L522.3054544492195,611.9502419601023L523.1097826013537,610.8157761918652L523.5119466774208,609.2086163535294L524.2157338105382,608.5941140624009L527.2319643810415,608.2632282133318L530.0471129135111,609.3031551675491L531.0525231036789,610.3903515287764L532.4600973699138,610.4376209357862L533.7671306171318,609.728579830638L537.1855252637022,611.1939314479442L538.593099529937,611.0993926339245L540.2017558342054,609.9176574586776L541.9109531574906,610.0121962726972L542.7152813096247,609.6340410166182L544.2233965948765,609.7758492376479L546.3347579942287,610.5794291568158L548.5466604125978,609.0195387254898L549.1499065266984,609.1613469465194L551.0601858880171,612.1865889951517L551.562890983101,612.1393195881418L552.6688421922855,613.2737853563789L552.3672191352352,613.7464794264778L552.2666781162185,614.6918675666753L549.8536936598158,616.8662602891297L549.1499065266984,618.6152283484953L548.7477424506313,620.0805799658015L548.1444963365307,620.6950822569299L547.6417912414468,622.633127944335L546.1336759561951,623.8148631195819L545.731511880128,625.2329453298784L545.0277247470107,626.3201416911055L544.826642708977,627.5018768663525L542.9163633476584,628.4472650065501L541.3077070433899,627.312799238313L540.3022968532222,627.3600686453228L538.593099529937,628.9672284836588L537.7887713778028,629.0144978906686L536.4817381305847,631.7088540902317Z"
    fill="#1868b7"
    />
  </g>
</svg>