<?xml version="1.0" standalone="no"?>
<!DOCTYPE svg PUBLIC "-//W3C//DTD SVG 20010904//EN"
 "http://www.w3.org/TR/2001/REC-SVG-20010904/DTD/svg10.dtd">
<svg version="1.0" xmlns="http://www.w3.org/2000/svg" viewBox="0 0 1024 1024" preserveAspectRatio="xMidYMid meet" width="1024pt" height="1024pt">
 <g transform="translate(-19545.32552548739,-44297.22451537618)scale(73.33126391696744)" fill="#000000" stroke="none">
    <path
    d="M272.662104230567,616.0154109629519L271.6566940403992,615.1645616367741L270.34966079318116,614.0300958685369L269.74641467908054,613.0847077283394L268.5399224508792,612.1865889951517L267.2328892036611,610.9575844128949L267.5345122607115,610.5321597498059L267.93667633677853,610.9575844128949L268.1377583748121,610.7212373778455L269.04262754596306,610.6266985638257L269.3442506030134,609.9649268656874L269.74641467908054,609.9649268656874L269.74641467908054,608.5941140624009L270.34966079318116,608.4995752483811L270.95290690728183,608.546844655391L271.55615302138244,607.790534143233L272.36048117351663,608.3577670273515L272.662104230567,608.0268811782823L273.1648093256508,607.6959953292132L274.1702195158186,606.8924154100453L274.1702195158186,606.3251825259267L274.4718425728689,606.3724519329365L274.87400664893596,605.7106802347982L275.17562970598635,605.6161414207785L275.5777937820535,606.0415660838675L276.1810398961541,606.183374304897L276.7842860102548,605.805219048818L277.48807314337216,605.805219048818L278.49348333354,605.427063792739L278.895647409607,605.04890853666L279.800516580758,605.1434473506797L279.59943454272445,605.3797943857292L279.39835250469093,605.9942966768576L279.6999755617412,607.034223631075L279.0967294476406,607.9796117712724L278.79510639059026,609.1140775395096L278.6945653715735,610.3430821217664L278.79510639059026,611.0521232269147L278.895647409607,612.3283972161813L278.49348333354,612.6120136582406L278.1918602764896,613.7937488334876L278.3929423145231,614.5027899386357L277.7896962004225,615.2591004507939L277.9907782384561,616.0154109629519L278.3929423145231,616.4408356260408L277.68915518140574,617.0553379171693L276.88482702927155,616.8662602891297L276.48266295320445,616.2990274050112L275.5777937820535,616.0626803699618L274.87400664893596,616.393566219031L273.06426830663406,615.6845251138827Z"
    fill="#1868b7"
    />
  </g>
</svg>