<?xml version="1.0" standalone="no"?>
<!DOCTYPE svg PUBLIC "-//W3C//DTD SVG 20010904//EN"
 "http://www.w3.org/TR/2001/REC-SVG-20010904/DTD/svg10.dtd">
<svg version="1.0" xmlns="http://www.w3.org/2000/svg" viewBox="0 0 1024 1024" preserveAspectRatio="xMidYMid meet" width="1024pt" height="1024pt">
 <g transform="translate(-6543.659768380199,-5172.056707291432)scale(12.539545813434952)" fill="#000000" stroke="none">
    <path
    d="M598.8171699209853,452.74687915082984L594.0917420271969,453.8813449190669L591.8798396088278,454.11769195411637L592.9857908180123,452.1796462667113L589.4668551524252,451.0451804984742L585.143591334704,451.9905686386718L583.736017068469,454.07042254710643L581.1219505740329,455.2994271293633L578.1057200035297,454.637655431225L574.385702299909,454.77946365225466L571.3694717294056,453.26684262793844L569.6602744061205,454.0231531400966L567.9510770828354,454.11769195411637L567.5489130067682,455.9611988275016L562.2202389988792,455.5357741644127L561.5164518657617,457.09566459573875L558.8018443523088,457.0483951887288L556.9921060100069,459.03371028314376L554.1769574775371,462.1534911457958L549.8536936598158,466.07685192761573L550.8591038499835,467.0222400678133L549.8536936598158,468.1567058360504L547.1390861463628,468.1094364290405L545.329347804061,470.70925381458386L545.5304298420945,474.44353696836424L547.2396271653797,475.81434977165077L546.3347579942287,479.12320826234236L544.022314556843,481.0139845427375L542.8158223286415,482.62114438107335L540.9055429673228,480.91944572871773L535.3757869214003,484.1810348123994L531.6557692177796,484.7955371035278L527.8352104951421,483.37745489323146L526.8298003049744,480.3994822516091L525.9249311338233,473.92357349125564L528.5389976282595,472.12733602488026L535.8784920164841,469.8111350813962L541.4082480624068,466.9277012537936L546.5358400322622,463.0516098789834L553.1715472873694,457.6156280728474L557.8969751811578,455.5357741644127L565.5380926264328,452.0378380456817L571.671094786456,450.8088334634248L576.2959816612276,450.9506416844544L580.5187044599322,448.6344407409704L585.6462964297878,448.77624896200007L590.6733473806265,448.2090160778814L599.420416035086,450.24160057930624L595.8009393504819,450.9979110914643ZM581.0214095550161,429.5848697159891L574.787866375976,430.71933548422624L569.861356444154,430.10483319309776L571.7716358054728,429.34852268093977L570.1629795012044,428.450403947752L575.8938175851606,427.9304404706434L576.9997687943451,428.9703674248607ZM562.9240261319966,424.4325043519123L572.1737998815399,426.51235826034696L565.1359285503656,427.59955462157427L563.627813265114,429.6794085300089L561.1142877896947,430.19937200711763L559.8072545424766,432.5155729506016L556.3888598959062,432.6101117646214L550.4569397739165,430.90841311226575L552.9704652493359,429.91575556505825L548.7477424506313,429.1121756458904L543.3185274237255,426.74870529539646L541.2071660243731,424.57431257294195L548.7477424506313,423.5816550257345L550.3563987548997,424.52704316593207L554.2774984965539,424.52704316593207L555.3834497057385,423.5343856187246L559.4050904664094,423.43984680470487ZM583.0322299353516,422.4471892574974L588.5619859812742,423.43984680470487L584.4398042015864,424.952467829021L576.2959816612276,425.2833536780902L568.0516181018521,424.8106596079914L567.5489130067682,424.0543490958333L563.5272722460973,424.0070796888234L560.511041675594,422.73080569955664L569.1575693110367,421.9272257803887L573.1792100717076,422.58899747852706L575.9943586041774,421.7854175593591Z"
    fill="#1868b7"
    />
  </g>
</svg>