<?xml version="1.0" standalone="no"?>
<!DOCTYPE svg PUBLIC "-//W3C//DTD SVG 20010904//EN"
 "http://www.w3.org/TR/2001/REC-SVG-20010904/DTD/svg10.dtd">
<svg version="1.0" xmlns="http://www.w3.org/2000/svg" viewBox="0 0 1024 1024" preserveAspectRatio="xMidYMid meet" width="1024pt" height="1024pt">
 <g transform="translate(-26397.373631159044,-20074.253507194335)scale(27.07882499419735)" fill="#000000" stroke="none">
    <path
    d="M995.1498668851125,761.27429870431L995.7531129992133,762.4087644725472L997.7639333795487,761.27429870431L998.5682615316829,762.456033879557L998.5682615316829,763.637769054804L997.5628513415152,764.9140430440707L995.7531129992133,766.9938969525055L994.3455387329784,768.1283627207425L995.350948923146,769.4519061170191L993.1390465047771,769.4991755240289L990.8266030673913,770.5391024782464L990.0222749152571,772.3826093516316L988.4136186109886,775.2187737722244L986.3022572116363,776.4477783544812L984.8946829454015,777.2513582736492L982.2806164509653,777.2040888666393L980.4708781086634,776.2587007264417L977.4546475381601,776.0696230984022L976.9519424430764,775.0296961441849L978.4600577283279,772.99711164276L981.978993393915,770.2082166291772L983.788731736217,769.6882531520686L985.7995521165526,768.6483261978511L988.2125365729551,767.182974580545L989.8211928772236,765.7176229632387L991.1282261244417,763.637769054804L992.1336363146095,762.9287279496558L992.6363414096932,761.3688375183298L994.5466207710119,760.0925635290631ZM999.5736717218507,747.9443259275242L1001.5844921021862,750.9222985691465L1001.6850331212029,748.9842528817416L1002.9920663684211,749.7405633938996L1003.3942304444881,751.8676867093442L1005.6061328628572,752.7658054425318L1007.516412224176,753.0021524775813L1009.1250685284443,751.9622255233639L1010.5326427946791,752.2458419654231L1009.8288556615616,754.7511205369467L1009.0245275094276,756.3582803752827L1006.8126250910585,756.3110109682727L1006.1088379579411,757.1618602944505L1006.4104610149915,758.3435954696976L1006.0082969389243,758.8635589468063L1004.9023457297397,760.3761799711224L1003.4947714635048,762.3142256585273L1001.3834100641527,763.4014220197546L1000.8807049690688,762.6923809146065L999.6742127408675,762.2669562515175L1001.2828690451358,759.9980247150434L1000.3779998739849,758.4381342837173L997.3617693034817,757.3509379224901L997.4623103224984,756.3110109682727L999.4731307028339,755.3656228280752L999.9758357979177,753.1912301056208L999.875294778901,751.3949926392454L998.6688025506998,749.5042163588502L998.7693435697164,749.0315222887514L997.4623103224984,747.8497871135045L995.2504079041294,745.3917779489907L994.043915675928,743.4064628545758L995.1498668851125,743.2173852265363L996.6579821703642,744.7772756578623L998.7693435697164,745.4863167630104Z"
    fill="#1868b7"
    />
  </g>
</svg>