<?xml version="1.0" standalone="no"?>
<!DOCTYPE svg PUBLIC "-//W3C//DTD SVG 20010904//EN"
 "http://www.w3.org/TR/2001/REC-SVG-20010904/DTD/svg10.dtd">
<svg version="1.0" xmlns="http://www.w3.org/2000/svg" viewBox="0 0 1024 1024" preserveAspectRatio="xMidYMid meet" width="1024pt" height="1024pt">
 <g transform="translate(-22103.5645199751,-19353.61688399292)scale(33.84853124274669)" fill="#000000" stroke="none">
    <path
    d="M660.3482735592517,600.5110454637116L659.4434043881007,598.5729997763066L657.2315019697315,593.9405978893384L665.5764065481239,591.1517028757555L667.4866859094427,585.5739128485899L666.1796526622245,583.5885977541749L666.2801936812414,582.4541319859378L667.0845218333756,581.3196662177007L667.0845218333756,580.1852004494637L668.2910140615769,579.6179675653451L667.788308966493,579.2398123092661L668.0899320235433,577.3963054358808L669.4975062897781,577.3963054358808L670.7039985179795,579.2870817162759L672.3126548222479,580.3270086704932L674.3234752025833,580.7051639265724L676.0326725258685,581.177857996671L677.2391647540699,582.785017835007L678.043492906204,583.7304059752046L679.0489030963718,584.0612918242737L679.0489030963718,584.6757941154021L678.043492906204,586.3774927677578L677.5407878111201,587.1338032799158L676.3342955829189,588.0319220131036L675.3288853927511,589.9699677005086L674.0218521455331,589.8281594794789L673.5191470504492,590.4899311776172L673.0164419553653,591.9080133879136L673.4186060314323,593.7515202612989L673.116982974382,594.0824061103681L671.8099497271639,594.0824061103681L670.1007524038788,595.1223330645854L669.7991293468284,596.4931458678718L669.1958832327279,597.0603787519905L667.3861448904258,597.0603787519905L666.3807347002581,597.7694198571386L666.3807347002581,598.9038856253758L664.9731604340233,599.6601961375337L663.4650451487717,599.4238491024844L661.5547657874529,600.321967835672ZM669.0953422137111,575.1746433064164L668.5926371186272,574.2292551662189L669.3969652707614,573.2838670260213L669.6985883278116,573.5202140610706L669.4975062897781,574.7019492363177Z"
    fill="#1868b7"
    />
  </g>
</svg>