<?xml version="1.0" standalone="no"?>
<!DOCTYPE svg PUBLIC "-//W3C//DTD SVG 20010904//EN"
 "http://www.w3.org/TR/2001/REC-SVG-20010904/DTD/svg10.dtd">
<svg version="1.0" xmlns="http://www.w3.org/2000/svg" viewBox="0 0 1024 1024" preserveAspectRatio="xMidYMid meet" width="1024pt" height="1024pt">
 <g transform="translate(-13220.91399296378,-10426.989236134117)scale(19.461588088367247)" fill="#000000" stroke="none">
    <path
    d="M721.879377197518,543.315062981758L723.9907385968702,544.5913369710247L724.7950667490044,546.7657296934792L729.3194126047592,547.9001954617163L726.7053461103231,550.2163964052004L723.5885745208031,550.6418210682892L719.3658517220986,549.9800493701509L717.9582774558637,551.161784545398L718.9636876460315,553.6197937099116L719.8685568171825,555.5105699903067L722.1810002545683,556.8813827935933L719.7680157981656,558.4885426319291L719.8685568171825,560.4738577263441L717.1539493037295,563.3100221469368L715.3442109614275,566.1461865675295L712.4285214099411,569.0296203951322L709.2112088014043,568.8405427670926L706.0944372118843,571.7712460017051L707.9041755541862,573.000250583962L708.3063396302533,575.1746433064164L709.8144549155049,576.5927255167128L710.4177010296056,579.0034652742166L704.2846988695824,578.9561958672068L702.3744195082636,580.846972147602L700.3635991279282,580.1379310424537L699.4587299567771,578.1053465410289L697.3473685574248,575.9782232255844L692.2197765875693,576.545456109703L687.6954307318144,576.5927255167128L683.7743309901603,576.9708807727918L684.779741180328,573.7092916891102L688.801381940999,572.2912094788138L688.6002999029654,571.014935489547L687.2932666557474,570.5422414194483L687.1927256367305,568.0842322549346L684.4781181232777,566.8552276726778L683.3721669140932,565.1535290203221L681.9645926478582,563.6881774030159L686.6900205416466,565.1062596133122L689.5051690741163,564.7281043572332L691.1138253783847,565.0589902063024L691.7170714924855,564.4444879151739L693.6273508538042,564.6808349502234L697.2468275384081,563.5463691819862L697.3473685574248,561.1828988314923L698.9560248616932,559.5757389931564L700.9668452420287,559.5757389931564L701.2684682990791,558.8194284809983L703.4803707174481,558.4412732249193L704.4857809076159,558.6776202599688L705.5917321168004,557.9213097478106L705.3906500787668,556.219611095455L706.5971423069682,554.5651818501092L708.4068806492701,553.8561407449611L707.3009294400856,552.0126338715758L709.9149959345217,552.1071726855955L710.7193240866559,551.0672457313782L710.6187830676391,550.0273187771609L712.0263573338741,548.8455836019139L711.6241932578068,547.4275013916175L711.0209471437063,546.2457662163705L712.6296034479747,545.0640310411235L715.6458340184779,544.4495287499951L718.8631466270147,544.1186429009259L720.2707208932495,543.5986794238172Z"
    fill="#1868b7"
    />
  </g>
</svg>