<?xml version="1.0" standalone="no"?>
<!DOCTYPE svg PUBLIC "-//W3C//DTD SVG 20010904//EN"
 "http://www.w3.org/TR/2001/REC-SVG-20010904/DTD/svg10.dtd">
<svg version="1.0" xmlns="http://www.w3.org/2000/svg" viewBox="0 0 1024 1024" preserveAspectRatio="xMidYMid meet" width="1024pt" height="1024pt">
 <g transform="translate(-16108.382960288916,-35433.44123262977)scale(57.65036471459736)" fill="#000000" stroke="none">
    <path
    d="M294.47950535720713,626.8401051682142L293.5746361860562,626.0365252490462L292.9713900719555,624.5239042247301L293.675177205073,623.7675937125721L292.9713900719555,623.5785160845326L292.4686849768717,622.633127944335L291.06111071063685,621.876817432177L289.8546184824355,622.0658950602165L289.25137236833484,623.011283200414L288.1454211591503,623.7203243055621L287.5421750450497,623.8148631195819L287.24055198799937,624.4293654107104L288.5475852352174,625.9419864350265L287.84379810210004,626.2728722840957L287.44163402603294,626.6982969471845L286.13460077881484,626.8401051682142L285.631895683731,625.1856759228684L285.2297316076639,625.6583699929672L284.32486243651294,625.4692923649277L283.82215734142903,624.3348265966906L282.61566511322775,624.193018375661L281.91187798011026,623.8621325265918L280.705385751909,623.8621325265918L280.60484473289216,624.4766348177202L280.3032216758419,624.0512101546313L280.5043037138754,623.4839772705128L280.705385751909,622.9167443863943L280.60484473289216,622.3967809092856L281.0070088089593,622.0658950602165L280.40376269485864,621.6404703971275L280.40376269485864,620.5532740359002L281.50971390404317,620.269657593841L282.51512409421093,621.3095845480584L282.4145830751941,621.876817432177L283.5205342843787,622.0186256532065L283.82215734142903,621.7822786181571L284.6264854935632,622.4440503162955L285.93351874078127,622.254972688256L287.14001096898255,621.5459315831077L288.84920829226775,620.9786986989892L289.75407746341875,620.1751187798212L291.36273376768713,620.3169270008509L291.2621927486704,620.6005434429102L292.770308033922,620.6950822569299L293.9768002621233,621.1677763270287L294.98221045229104,622.0186256532065L295.9876206424588,622.7749361653646L295.6859975854085,623.2003608284535L296.2892436995091,624.8547900737992L295.78653860442523,625.6583699929672L294.8816694332743,625.4692923649277Z"
    fill="#1868b7"
    />
  </g>
</svg>