<?xml version="1.0" standalone="no"?>
<!DOCTYPE svg PUBLIC "-//W3C//DTD SVG 20010904//EN"
 "http://www.w3.org/TR/2001/REC-SVG-20010904/DTD/svg10.dtd">
<svg version="1.0" xmlns="http://www.w3.org/2000/svg" viewBox="0 0 1024 1024" preserveAspectRatio="xMidYMid meet" width="1024pt" height="1024pt">
 <g transform="translate(-4947.492713321608,-11631.795671462905)scale(18.05254999613159)" fill="#000000" stroke="none">
    <path
    d="M317.7044807500822,696.0897864376869L316.900152597948,697.5078686479833L315.49257833171316,698.2169097531315L312.67742979924344,696.6570193218055L312.4763477612099,695.4752841465585L306.94659171528724,692.6863891329756L301.9195407644485,689.6138776773334L299.7076383460795,687.9121790249778L298.60168713689495,685.5959780814937L299.0038512129621,684.7923981623259L296.6914077755762,681.1526538225652L293.8762592431065,676.0002884584884L291.2621927486704,670.4224984313227L290.1562415394859,669.1462244420559L289.25137236833484,667.1136399406312L287.14001096898255,665.2701330672459L285.1291905886471,664.1356672990087L286.0340597597981,662.9066627167518L284.6264854935632,660.2123065171887L285.5313546647142,658.2742608297838L287.7432570830832,656.5252927704182L288.04488014013356,657.6597585386553L287.24055198799937,658.3215302367936L287.3410930070161,659.3614571910109L288.5475852352174,659.1251101559616L289.653536444402,659.4559960050307L290.8600286726033,660.8268088083172L292.3681439578549,659.6923430400801L292.9713900719555,657.801566759685L294.6805873952407,655.3908270021811L297.9984410227943,654.3036306409539L301.0146715932975,651.3729274063413L301.9195407644485,649.5294205329561L301.51737668838143,647.4022972175115L302.22116382149886,647.1659501824622L304.1314431828176,648.4894935787388L305.0363123539685,649.8130369750154L306.3433456011866,650.5220780801636L307.95200190545506,653.4527813147761L310.0633633048073,653.7836671638453L311.5714785900589,653.074626058697L312.5768887802267,653.5473201287958L314.2860861035119,653.3109730937465L316.3974475028641,654.5872470830132L314.5877091605622,657.4706809106158L315.3920373126964,657.5179503176256L316.7996115789312,658.9833019349319L314.2860861035119,658.8887631209121L313.8839220274448,659.3141877840011L311.67201960907573,659.8341512611097L308.4547070005389,661.7249275415049L308.25362496250534,663.0484709377815L307.5498378293879,663.9938590779791L307.85146088643825,665.5064801022952L306.14226356315305,666.3100600214632L306.14226356315305,667.4917951967101L305.4384764300356,668.0117586738188L306.5444276392202,670.5170372453424L308.0525429244718,672.218735897698L307.5498378293879,673.400471072945L309.3595761716899,673.5895487009846L310.4655273808744,675.0549003182907L312.8785118372771,675.1494391323105L315.1909552746629,673.4950098869648L314.98987323662925,677.7492565178538L316.29690648384735,678.080142366923L317.80502176909897,677.5601788898143L320.21800622550154,682.0980419627627L319.6147601114009,683.0434301029603L319.5142190923841,684.9814757903654L319.41367807336735,687.3449461408593L318.40826788319964,688.7630283511556L318.9109729782835,689.802955305373L318.2071858451661,690.7483434455706L319.41367807336735,693.0645443890546Z"
    fill="#1868b7"
    />
  </g>
</svg>