<?xml version="1.0" standalone="no"?>
<!DOCTYPE svg PUBLIC "-//W3C//DTD SVG 20010904//EN"
 "http://www.w3.org/TR/2001/REC-SVG-20010904/DTD/svg10.dtd">
<svg version="1.0" xmlns="http://www.w3.org/2000/svg" viewBox="0 0 1024 1024" preserveAspectRatio="xMidYMid meet" width="1024pt" height="1024pt">
 <g transform="translate(-21237.626347999532,-15140.737336622948)scale(25.519311512856167)" fill="#000000" stroke="none">
    <path
    d="M864.9492472583888,623.4839772705128L865.1503292964225,625.3747535509079L865.351411334456,626.934643982234L864.4465421633049,629.4871919607674L863.3405909541204,626.6510275401747L862.0335577069025,628.0691097504711L862.9384268780534,630.1016942518959L862.1340987259191,631.4252376481725L858.9167861173825,629.7708084028267L858.1124579652482,627.7854933084118L858.9167861173825,626.4619499121352L857.2075887940972,625.1384065158586L856.3027196229461,626.2728722840957L854.9956863757282,626.1783334700759L852.8843249763759,627.7382239014019L852.4821609003088,626.934643982234L853.5881121094933,624.57117363174L855.2973094327783,623.7675937125721L856.80542471803,622.7276667583548L857.8108349081978,624.0039407476214L859.9221963075502,623.2003608284535L860.4249014026341,621.9713562461967L862.3351807639526,621.9240868391868L862.234639744936,619.7496941167324L864.4465421633049,621.073237513009L864.7481652203553,622.4913197233053ZM858.212998984265,618.2843424994261L857.2075887940972,619.2297306396237L856.3027196229461,620.9786986989892L855.4983914708121,621.7822786181571L853.7891941475268,619.891502337762L854.2918992426107,619.1351918256039L854.9956863757282,618.3316119064359L855.2973094327783,616.6299132540803L856.9059657370468,616.4408356260408L856.403260641963,618.3316119064359L858.5146220413152,615.6372557068728ZM842.9307640937152,620.9786986989892L839.2107463900943,623.6257854915424L840.6183206563293,621.6877398041373L842.6291410366647,619.9387717447719L844.2377973409332,618.0007260573668L845.7459126261849,615.2591004507939L846.2486177212686,617.528031987268L844.4388793789667,619.0879224185941ZM852.381619881292,613.7937488334876L853.9902761855603,614.6445981596654L855.8000145278623,614.6445981596654L855.8000145278623,615.8263333349124L854.4929812806442,617.0080685101593L852.6832429383423,617.8589178363371L852.5827019193255,616.5353744400605L852.7837839573592,615.1172922297642ZM862.4357217829695,613.0374383213295L863.2400499351036,616.1572191839815L861.1286885357515,615.4009086718235L861.1286885357515,616.346296812021L861.8324756688689,618.0952648713866L860.5254424216507,618.709767162515L860.4249014026341,616.7244520681L859.5200322314831,616.5826438470705L859.117868155416,614.8809451947149L860.7265244596845,615.1172922297642L860.7265244596845,614.0773652755469L859.0173271363991,611.9502419601023L861.7319346498521,611.9975113671122ZM851.3762096911244,610.4848903427961L850.6724225580068,612.8956301002999L849.4659303298055,611.5248172970134L847.9578150445539,609.3976939815689L850.3707995009564,609.4922327955886ZM850.7729635770235,595.3114106926249L852.4821609003088,596.1149906117929L853.3870300714598,595.4059495066447L853.5881121094933,596.1149906117929L853.1859480334263,597.24945638003L854.0908172045772,599.2820408814547L853.3870300714598,601.5982418249388L851.7783737671914,602.4963605581265L851.2756686721075,604.7652920946007L851.9794558052249,606.986954224065L853.3870300714598,607.3178400731341L854.6940633186778,606.986954224065L858.1124579652482,608.4995752483811L857.9113759272145,610.0121962726972L858.8162450983656,610.7212373778455L858.5146220413152,611.9975113671122L856.3027196229461,610.6266985638257L855.2973094327783,609.1613469465194L854.5935222996611,610.2012739007367L852.7837839573592,608.4995752483811L850.2702584819398,608.9249999114701L848.8626842157049,608.3104976203416L848.9632252347216,607.1287624450947L849.8680944058726,606.4197213399465L849.0637662537384,605.805219048818L848.6616021776713,606.7978765960255L847.2540279114364,605.1907167576896L846.8518638353694,603.9617121754328L846.7513228163525,601.3146253828795L847.8572740255371,602.2127441160673L848.1588970825874,597.8639586711583L849.0637662537384,595.3114106926249Z"
    fill="#1868b7"
    />
  </g>
</svg>