<?xml version="1.0" standalone="no"?>
<!DOCTYPE svg PUBLIC "-//W3C//DTD SVG 20010904//EN"
 "http://www.w3.org/TR/2001/REC-SVG-20010904/DTD/svg10.dtd">
<svg version="1.0" xmlns="http://www.w3.org/2000/svg" viewBox="0 0 1024 1024" preserveAspectRatio="xMidYMid meet" width="1024pt" height="1024pt">
 <g transform="translate(-19859.225157520228,-14113.908979242122)scale(21.981793740098237)" fill="#000000" stroke="none">
    <path
    d="M947.2923418331276,666.0264435794039L946.4880136809934,666.3100600214632L945.281521452792,665.2701330672459L944.0750292245909,663.4738956008704L943.4717831104902,661.3467722854258L943.8739471865574,661.0631558433666L944.1755702436076,661.9140051695445L944.9798983957419,662.5285074606728L946.3874726619765,664.3247449270483L947.6945059091947,665.2701330672459ZM936.4339117793158,662.2921604256235L934.9257964940643,662.5285074606728L934.5236324179972,663.3320873798408L933.0155171327456,663.9938590779791L931.507401847494,664.6556307761174L930.099827581259,664.6556307761174L927.7873841438734,663.8047814499396L926.1787278396049,663.0484709377815L926.3798098776384,662.1976216116037L928.8933353530579,662.5757768676827L930.4014506383095,662.3866992396432L930.9041557333933,661.0158864363567L931.3063198094603,660.9686170293469L931.507401847494,662.433968646653L933.1160581517623,662.2448910186135L933.9203863038965,661.299502878416L935.5290426081649,660.3068453312085L935.1268785320979,658.6524160858628L936.8360758553831,658.6051466788529L937.4393219694837,659.0305713419418L937.3387809504669,660.5904617732677ZM905.8694419982163,672.4550829327475L905.7689009791995,663.3793567868506L905.7689009791995,654.2563612339441L910.5948698920047,656.194406921349L915.7224618618603,657.801566759685L917.632741223179,659.2196489699813L919.2413975274474,660.6377311802777L919.6435616035146,662.2448910186135L924.2684484782861,663.9938590779791L924.9722356114036,665.4592106952854L922.4587101359842,665.7900965443545L923.0619562500848,667.6336034177398L925.5754817255042,669.4771102911251L927.3852200678061,672.4078135257375L928.8933353530579,672.3132747117178L928.792794334041,673.5895487009846L931.00469675241,674.0622427710833L930.099827581259,674.5822062481919L933.1160581517623,675.763941423439L932.814435094712,676.5675213426069L931.00469675241,676.7565989706465L930.3009096192926,676.0002884584884L927.88792516289,675.7166720164291L925.0727766304204,675.2912473533402L922.8608742120513,673.4950098869648L921.2522179077828,671.9823888626487L919.8446436415481,669.5243796981349L916.2251669569441,668.2953751158781L913.8121825005414,669.0989550350461L912.1029851772564,670.0443431752436L912.5051492533235,672.0769276766684L910.2932468349544,673.022315816866L908.684590530686,672.596891153777ZM939.6512243878527,659.5505348190504L938.7463552167018,660.3068453312085L938.2436501216177,658.6524160858628L937.6404040075172,657.5652197246355L936.3333707602992,656.6671009914479L934.7247144560307,655.4853658162009L932.7138940756953,654.634516490023L933.5182222278294,653.9727447918848L935.0263375130812,654.7763247110527L935.9312066842322,655.3908270021811L937.1376989124333,656.0525987003194L938.2436501216177,657.2343338755664L939.3496013308024,658.1324526087541Z"
    fill="#1868b7"
    />
  </g>
</svg>