<?xml version="1.0" standalone="no"?>
<!DOCTYPE svg PUBLIC "-//W3C//DTD SVG 20010904//EN"
 "http://www.w3.org/TR/2001/REC-SVG-20010904/DTD/svg10.dtd">
<svg version="1.0" xmlns="http://www.w3.org/2000/svg" viewBox="0 0 1024 1024" preserveAspectRatio="xMidYMid meet" width="1024pt" height="1024pt">
 <g transform="translate(-18190.986608974486,-16098.535010387735)scale(33.0917255942995)" fill="#000000" stroke="none">
    <path
    d="M553.9758754395036,504.270532791598L552.7693832113023,502.5215647322324L552.9704652493359,501.52890718502493L552.3672191352352,500.0635555677187L551.2612679260507,499.0708980205113L552.065596078185,498.31458750835316L551.4623499640843,496.8965052980568L553.372629325403,496.045655971879L557.6958931431243,494.7693819826123L561.2148288087114,493.8239938424147L564.0299773411812,494.2966879125135L564.2310593792147,494.9584596106518L566.9456668926675,495.0057290176616L570.3640615392379,495.33661486673077L575.4916535090935,495.28934545972095L576.8992277753283,495.5729619017802L577.6030149084457,496.47108063496785L577.7035559274625,497.7000852172248L578.5078840795967,498.7400121714421L578.5078840795967,499.87447793967925L576.7986867563116,500.44171082379773L577.6030149084457,501.7179848130645L577.7035559274625,502.94698939532134L579.1111301936974,505.40499855983506L578.809507136647,506.208578479003L577.4019328704122,506.49219492106226L574.8884073949928,508.8556652715563L575.5921945281102,510.08466985381307L574.9889484140095,509.94286163278343L572.3748819195735,508.8556652715563L570.3640615392379,509.2338205276352L569.0570282920199,508.950204085576L567.3478309687347,509.5647063767044L565.9402567024998,508.5720488294969L564.8343054933154,508.950204085576L564.6332234552818,508.7611264575364L563.3261902080636,507.39031365425L561.3153698277282,507.2485054332203L561.0137467706779,506.35038670003263L559.1034674093592,506.0667702579734L558.701303333292,506.77581136312153L557.1931880480404,506.208578479003L557.394270086074,505.40499855983506L555.2829086867216,505.1686515247857Z"
    fill="#1868b7"
    />
  </g>
</svg>