<?xml version="1.0" standalone="no"?>
<!DOCTYPE svg PUBLIC "-//W3C//DTD SVG 20010904//EN"
 "http://www.w3.org/TR/2001/REC-SVG-20010904/DTD/svg10.dtd">
<svg version="1.0" xmlns="http://www.w3.org/2000/svg" viewBox="0 0 1024 1024" preserveAspectRatio="xMidYMid meet" width="1024pt" height="1024pt">
 <g transform="translate(-43452.13309771201,-26550.738108023455)scale(50.643138064203825)" fill="#000000" stroke="none">
    <path
    d="M876.8130875023685,528.6142774016857L877.2152515784355,529.0869714717844L876.109300369251,528.9451632507548L874.9028081410496,529.8905513909524L874.0984799889154,530.83593953115L874.1990210079321,532.8212546255648L872.7914467416972,533.4357569166933L872.2887416466135,533.955720393802L871.1827904374288,534.7593003129699L869.3730520951269,535.2319943830687L868.1665598669257,535.9883048952267L868.0660188479089,537.1700400704738L867.7643957908585,537.5009259195429L868.8703470000432,537.9263505826318L870.3784622852947,539.1553551648886L869.9762982092277,539.8643962700369L868.8703470000432,540.0534738980764L866.8595266197075,540.1480127120961L865.753575410523,541.4242867013628L864.5470831823218,541.329747887343L864.3460011442883,541.5660949223925L863.03896789707,541.0461314452839L862.636803821003,541.5660949223925L861.8324756688689,541.8024419574418L861.7319346498521,541.2824784803332L861.0281475167346,541.0461314452839L860.2238193646004,540.573437375185L861.0281475167346,539.3444327929282L861.7319346498521,539.0135469438591L861.4303115928017,538.4935834667504L862.1340987259191,537.0282318494441L861.9330166878856,536.5555377793453L860.3243603836172,536.2246519302762L859.0173271363991,535.515610825128L861.329770573785,533.7193733587526L864.3460011442883,532.2067523344365L866.2562805056069,530.2214372400215L867.563313752825,531.1195559732092L869.9762982092277,531.214094787229L869.5741341331604,529.7487431699227L873.8973979508818,528.5197385876659L875.0033491600665,526.95984815634Z"
    fill="#1868b7"
    />
  </g>
</svg>