<?xml version="1.0" standalone="no"?>
<!DOCTYPE svg PUBLIC "-//W3C//DTD SVG 20010904//EN"
 "http://www.w3.org/TR/2001/REC-SVG-20010904/DTD/svg10.dtd">
<svg version="1.0" xmlns="http://www.w3.org/2000/svg" viewBox="0 0 1024 1024" preserveAspectRatio="xMidYMid meet" width="1024pt" height="1024pt">
 <g transform="translate(-29236.064327755925,-32075.634034828596)scale(60.73755138885421)" fill="#000000" stroke="none">
    <path
    d="M486.8144747362978,530.032359611982L487.81988492646565,529.3233185068339L488.9258361356502,528.9451632507548L489.6296232687676,530.3159760540412L491.2382795730359,530.3159760540412L491.74098466811984,529.9378207979622L493.3496409723883,530.032359611982L494.15396912452246,531.4504418222784L492.84693587730436,532.2067523344365L492.84693587730436,534.3811450568909L492.3442307822205,534.8065697199797L492.24368976320375,536.0828437092465L491.0371975350024,536.319190744296L492.1431487441869,538.0208893966516L491.43936161106956,539.8643962700369L492.3442307822205,540.6679761892048L491.94206670615335,541.4242867013628L490.93665651598565,542.4642136555801L491.13773855401917,543.4096017957778L490.03178734483464,544.1186429009259L488.62421307859984,543.7404876448469L487.1160977933482,544.0241040869062L487.618802888432,541.8497113644518L487.31717983138174,540.1480127120961L486.11068760318045,539.8643962700369L485.406900470063,538.8244693158194L485.60798250809654,536.9809624424342L486.71393371728107,535.9883048952267L486.9150157553147,534.8538391269897L487.51826186941526,533.152140474634L487.4177208503985,531.970405299387L486.9150157553147,530.9777477521795Z"
    fill="#1868b7"
    />
  </g>
</svg>