<?xml version="1.0" standalone="no"?>
<!DOCTYPE svg PUBLIC "-//W3C//DTD SVG 20010904//EN"
 "http://www.w3.org/TR/2001/REC-SVG-20010904/DTD/svg10.dtd">
<svg version="1.0" xmlns="http://www.w3.org/2000/svg" viewBox="0 0 1024 1024" preserveAspectRatio="xMidYMid meet" width="1024pt" height="1024pt">
 <g transform="translate(-13146.383293529629,-27397.30853452429)scale(39.172683716328905)" fill="#000000" stroke="none">
    <path
    d="M336.90781538228623,709.1361427724136L338.0137665914708,705.7800148747122L338.1143076104876,704.2673938503959L339.4213408577056,701.8093846858823L344.3478507895276,701.0058047667144L346.96191728396377,701.0530741737242L349.4754427593831,702.4711563840206L349.5759837783999,703.3220057101985L350.3803119305341,704.8818961415244L350.17922989250053,708.7107181093246L353.1954604630038,709.2306815864333L354.30141167218835,708.6634487023148L356.21169103350707,709.4197592144728L356.7143961285909,710.2706085406506L356.91547816662444,712.8231565191841L357.3176422426916,713.9103528804113L358.3230524328593,714.0048916944311L359.4290036420439,713.5794670313421L360.4344138322116,714.0994305084508L360.33387281319483,715.6120515327669L360.0322497561445,717.2664807781127L359.4290036420439,718.8736406164486L359.02683956597673,721.3316497809623L356.5133140905574,723.4587730964068L354.30141167218835,723.9314671665056L351.0840990636515,723.5060425034168L348.2689505311818,722.7497319912586L351.0840990636515,718.4954853603696L350.68193498758444,717.2664807781127L347.76624543609796,716.1792844168855L344.3478507895276,714.0994305084508L342.03540735214176,713.6740058453619Z"
    fill="#1868b7"
    />
  </g>
</svg>