<?xml version="1.0" standalone="no"?>
<!DOCTYPE svg PUBLIC "-//W3C//DTD SVG 20010904//EN"
 "http://www.w3.org/TR/2001/REC-SVG-20010904/DTD/svg10.dtd">
<svg version="1.0" xmlns="http://www.w3.org/2000/svg" viewBox="0 0 1024 1024" preserveAspectRatio="xMidYMid meet" width="1024pt" height="1024pt">
 <g transform="translate(-19913.088470061113,-17704.48695435149)scale(35.120337124984644)" fill="#000000" stroke="none">
    <path
    d="M575.3911124900767,513.2989895304848L576.597604718278,512.6844872393564L578.3068020415632,513.0153730884256L580.1165403838652,513.0153730884256L581.4235736310832,513.6771447865639L582.428983821251,513.251720123475L584.4398042015864,513.0153730884256L585.143591334704,512.3536013902873L586.3500835629052,512.3536013902873L587.1544117150394,512.6372178323466L588.0592808861903,513.4407977515144L588.9641500573414,514.6225329267614L590.5728063616098,516.2769621721072L590.6733473806265,517.5059667543642L590.3717243235761,518.687701929611L590.87442941866,519.9639759188778L592.0809216468613,520.4839393959865L593.3879548940795,520.0585147328975L594.6949881412975,520.5312088029964L594.6949881412975,521.2402499081445L593.3879548940795,521.854752199273L592.4830857229284,521.5711357572137L591.779298589811,524.9272636549151L590.0701012665259,524.6436472128559L588.0592808861903,523.6509896656484L584.7414272586368,524.2654919567767L583.4343940114187,525.0218024689349L579.3122122317309,524.8327248408954L577.2008508323787,524.4073001778064L576.0948996231941,524.6436472128559L575.2905714710599,523.4619120376088L574.787866375976,522.9892179675101L575.3911124900767,522.5165238974113L574.6873253569593,522.1856380483421L573.8829972048251,522.8001403394705L572.1737998815399,521.9965604203026L571.9727178435064,520.8148252450555L570.2635205202212,520.1530535469172L569.9618974631709,519.3022042207394L568.4537821779193,518.1677384525024L570.6656845962882,517.6477749753938L572.3748819195735,515.7569986949985L573.6819151667916,513.8662224146034Z"
    fill="#1868b7"
    />
  </g>
</svg>