<?xml version="1.0" standalone="no"?>
<!DOCTYPE svg PUBLIC "-//W3C//DTD SVG 20010904//EN"
 "http://www.w3.org/TR/2001/REC-SVG-20010904/DTD/svg10.dtd">
<svg version="1.0" xmlns="http://www.w3.org/2000/svg" viewBox="0 0 1024 1024" preserveAspectRatio="xMidYMid meet" width="1024pt" height="1024pt">
 <g transform="translate(42.632974228829596,75.56720111925159)scale(0.9167324722093172)" fill="#000000" stroke="none">
    <path
    d="M913.108395367424,505.26319033880543L915.9235438998938,510.2264780748427L911.801362120206,509.3283593416551L910.0921647969209,513.3462589374947L912.8067723103738,516.2296927650973L912.706231291357,518.1677384525024L910.5948698920047,516.4660398001467L908.7851315497028,518.6404325226013L908.282426454619,516.2769621721072L908.5840495116693,513.5826059725441L908.282426454619,510.55736392391185L908.8856725687195,508.43024060846733L909.0867546067531,504.6959574546869L907.377557283468,501.9543318481139L907.6791803405182,498.1727792873236L910.1927058159376,496.84923589104693L909.0867546067531,495.5729619017802L910.3937878539712,495.1948066457012L911.0975749870886,497.0383135190865L912.1029851772564,499.7326697186495L912.0024441582395,502.47429532522256ZM575.4916535090935,495.28934545972095L570.3640615392379,495.33661486673077L566.9456668926675,495.0057290176616L567.5489130067682,493.77672443540484L571.3694717294056,492.8786057022171L574.2851612808921,493.35129977231594L575.5921945281102,493.8239938424147L575.2905714710599,494.5803043545727ZM9.345175425633101,454.40130839617564L16.18196471877377,456.52843171162016L23.52145910699835,459.31732672520303L23.21983604994807,461.0662947845685L25.130115411266786,461.77533588971676L24.526869297166115,459.74275138829194L32.067445723424214,460.12090664437096L37.597201769346896,462.76799343692414L34.78205323687723,463.996998019181L30.1571663621055,464.28061446124036L30.1571663621055,466.9749706608034L29.051215152920975,467.58947295193184L26.43714865848483,467.4949341379121L24.225246240115837,466.50227659070464L20.605769555511984,465.6986966715367L19.901982422394497,464.4696920892799L17.086833889924833,464.0442674261909L13.97006230040472,464.3751532752601L12.361405996136341,463.42976513506255L12.964652110237012,462.3898381808451L9.64679848268338,463.0516098789834L10.95383172990148,464.3751532752601L9.345175425633101,465.5568884505071ZM1014.6548245743669,448.23990461879913L1014.6543219195423,449.2016736250889L1011.6385940038635,449.34348184611855L1011.1358889087799,448.44536311293086L1014.6548245743669,447.3110543611727L1014.6548245743669,448.23990461879913ZM9.345175425633101,447.3110543611727L9.345678080457674,447.3108973446938L9.345175425633101,447.3108973446938L9.345175425633101,448.23990461879913L9.345175425633101,447.3110543611727ZM9.345175425633101,447.3108973446938L9.74733950170014,447.16908912366415L12.059782939086062,447.16908912366415L16.081423699757067,447.9726690428321L15.880341661723492,448.35082429891105L12.964652110237012,449.0125959970494L9.345175425633101,449.2016736250889ZM913.0078543484074,442.536687236696L908.7851315497028,442.5839566437059L903.0542934657467,442.25307079463676L902.5515883706628,442.1112625736071L905.2661958841156,441.0240662123798L908.684590530686,440.74044977032054L912.706231291357,441.8276461315478ZM932.9149761137288,437.3370524656093L929.6976635051919,438.4242488268365L925.273858668454,438.1879017917871L920.0457256795817,437.10070543055986L920.7495128126991,436.1553172903623L925.8771047825546,436.5807419534512ZM917.1300361280952,435.9662396623228L914.918133709726,438.04609357075753L904.6629497700151,437.9988241637476L900.0380628952435,438.6605958618859L894.5083068493207,436.8170889885006L896.0164221345724,434.92631270810546L899.736439838193,434.4063492309968L907.0759342264176,434.50088804501655ZM672.714818898315,449.53255947415806L671.0056215750299,449.76890650920745L661.8563888445033,449.3907512531284L661.1526017113858,448.1617466708716L656.1255507605471,447.4054361587135L655.72338668448,445.8928151343974L658.5385352169496,445.27831284326896L658.437994197933,443.7656918189528L663.9677502438556,441.4022214684589L661.4542247684361,441.07133561938974L668.0899320235433,438.613326454876L667.3861448904258,437.3370524656093L673.619688069466,435.871700848303L682.7689207999924,434.07546338192765L692.1192355685525,433.555499904819L696.9452044813578,432.5155729506016L702.3744195082636,432.13741769452264L704.2846988695824,433.22461405574984L702.3744195082636,434.1227327889376L692.5213996446196,435.493545592224L683.9754130281938,436.8170889885006L675.3288853927511,439.51144518806376L671.1061625940465,442.2058013876268L666.7828987763253,444.90015758718994L667.2856038714092,447.216358530674ZM1014.6548245743669,465.5570541809834L1011.035347889763,466.78589303276385L1007.4158712051592,466.59681540472445L1009.9293966805785,468.0621670220307L1011.6385940038635,470.3783679655147L1012.9456272510818,471.13467847767276L1013.247250308132,472.26914424590984L1012.5434631750147,473.0254547580679L1007.3153301861424,472.41095246693953L999.4731307028339,474.4908063753742L996.9596052274145,474.8216922244433L992.73688242871,476.80700731885827L988.7152416680391,478.50870597121394L987.6092904588545,479.78497996048065L983.6881907172002,477.84693427307565L976.3486963289756,480.02132699553L975.1422041007744,478.9814000413127L972.4275965873215,480.21040462356956L968.7075788837008,479.8322493674905L967.8027097125498,481.6284868338659L964.4848560849963,484.3701124404389L964.5853971040129,485.504578208676L967.7021686935329,486.11908049980445L967.3000046174659,490.184249502654L964.7864791420465,490.27878831667374L963.5799869138452,492.59498926015783L964.6859381230297,493.8239938424147L959.8599692102246,495.24207605271107L958.8545590200567,498.409126322373L954.732377240369,499.11816742752114L953.8275080692181,501.9543318481139L949.8058673085469,504.5541492336572L948.8004571183792,502.6161035462522L947.5939648901779,498.5509345434026L946.0858496049264,492.3586422251085L947.3928828521443,488.48255085029837L949.7053262895303,486.8281216049526L949.9064083275638,485.504578208676L954.2296721452851,484.8900759175475L959.2567230961239,481.34487039180664L963.9821509899123,478.50870597121394L969.0092019407512,476.2397744347397L971.3216453781369,472.3164136529198L967.9032507315667,472.5527606879691L966.1940534082813,474.8689616314532L959.1561820771071,477.94147308709535L956.8437386397212,474.4908063753742L949.6047852705134,475.43619451557174L942.6674549583561,480.1158658095498L944.9798983957419,481.8175644619054L938.7463552167018,482.57387497406353L934.4230913989804,482.8574914161228L934.624173437014,480.824906914698L930.3009096192926,480.3994822516091L926.7819739537056,481.77029505489554L918.2359873372797,481.29760098479676L909.0867546067531,482.14845031097457L900.0380628952435,487.5844321171107L889.3807148794651,494.15487969148387L893.7039786971866,494.53303494756284L895.1115529634214,496.28200300692845L897.8261604768744,496.8965052980568L899.6358988191763,495.47842308776046L902.6521293896794,495.6675007158L906.6737701503505,498.7400121714421L906.7743111693673,501.10348252193603L904.6629497700151,503.8923775355189L904.3613267129647,507.2485054332203L903.1548344847633,511.69182969214893L898.9321116860589,515.7569986949985L898.0272425149079,517.6950443824036L894.2066837922705,520.9566334660852L890.386125069633,524.1709531427571L888.576386727331,525.8253823881028L884.8563690237104,527.4325422264387L883.1471717004252,527.4798116334485L881.43797437714,526.108998830162L877.6174156545026,528.1888527385968L877.2152515784355,529.0869714717844L876.8130875023685,528.6142774016857L876.8130875023685,527.1961951913893L878.2206617686031,527.1016563773695L878.6228258446704,523.8400672936879L877.919038711553,521.429327536184L880.3320231679554,520.4366699889766L883.649876795509,520.9566334660852L885.5601561568278,518.2150078595123L886.4650253279788,515.1424964038702L887.5709765371632,514.1498388566627L889.0790918224147,511.64456028513905L884.4542049476432,512.448140204307L882.0412204912406,513.5353365655342L877.8184976925361,513.5353365655342L876.6120054643347,510.93551917999093L873.3946928557981,508.950204085576L868.468182923976,508.0520853523883L867.4627727338084,505.31045974581525L866.4573625436404,503.60876109345963L865.4519523534728,502.3797565112028L863.7427550301875,499.5908614976199L861.2292295547682,498.5509345434026L857.1070477750804,497.7000852172248L853.3870300714598,497.7946240312445L849.8680944058726,498.31458750835316L847.5556509684868,499.6854003116397L849.1643072727552,500.34717200977803L849.1643072727552,501.907062441104L847.6561919875036,502.80518117429176L845.0421254930675,505.7358844089042L845.1426665120841,506.96488899116105L841.22156677043,508.7611264575364L837.8031721238597,507.6739300963093L834.4853184963059,507.9102771313586L833.0777442300712,506.96488899116105L831.3685469067859,506.6812725491018L827.2463651270982,508.6665876435167L823.6268884424942,509.0920123066056L821.0128219480582,509.80105341175386L817.493886282471,509.3283593416551L814.8798197880349,509.3756287486649L813.2711634837665,507.95754653836855L810.4560149512968,506.58673373508196L807.7414074378438,506.25584788601293L804.1219307532399,506.58673373508196L801.5078642588039,507.1066972121907L797.5867645171495,505.9249620369437L796.983518403049,503.845108128509L793.7662057945121,503.13606702336085L791.152139300076,502.80518117429176L788.0353677105559,501.6707154060546L785.2202191780863,504.5541492336572L786.3261703872708,506.208578479003L783.6115628738179,508.14662416640806L779.5899221131469,507.43758306125983L776.7747735806771,507.3430442472401L774.8644942193583,506.0195008509635L771.9488046678719,505.97223144395355L769.5358202114694,505.12138211777574L765.3130974127648,506.44492551405233L759.9844234048757,508.8556652715563L757.0687338533892,509.3283593416551L755.9627826442047,509.5647063767044L754.4546673589532,507.8630077243488L750.8351906743492,508.24116298042776L749.7292394651646,507.05942780518086L747.7184190848291,506.49219492106226L746.4113858376111,504.8850350827264L744.8027295333427,504.3650716056177L740.8816297916884,505.12138211777574L736.9605300500343,503.5142222794399L735.4524147647826,504.9795738967461L729.2188715857426,497.8891628452643L725.6999359201553,495.71477012280985L726.7053461103231,494.81665138962217L719.7680157981656,497.46373818217535L717.0534082847128,497.60554640320504L717.2544903227463,496.09292537888894L713.7355546571592,495.14753723869137L710.8198651056728,495.80930893682967L709.9149959345217,492.925875109227L704.887944983683,492.3586422251085L702.3744195082636,493.4931079933456L695.3365481770893,494.53303494756284L694.0295149298712,495.1948066457012L683.5732489521267,496.18746419290864L682.2662157049085,497.1328523331062L684.2770360852442,499.0708980205113L681.662969590808,499.77993912565944L682.1656746858919,500.53624963781755L679.4510671724388,501.907062441104L683.9754130281938,503.7978387214992L683.2716258950763,505.12138211777574L679.3505261534222,505.026843303756L678.5461980012878,505.83042322292397L675.0272623357007,504.4123410126276L670.6034574989626,504.4596104196375L667.5872269284595,505.64134559488446L664.2693733009058,504.5068798266473L658.1363711408826,502.5688341392423L653.8131073231611,502.66337295326207L647.9817282201883,505.68861500189433L647.680105163138,507.72119950331916L644.7644156116514,506.1140396649832L642.5525131932825,509.1865511206254L643.3568413454167,509.7537840047439L641.7481850411482,511.8809073201885L644.1611694975509,513.7716836005836L646.1719898778863,513.6771447865639L647.9817282201883,515.5206516599492L647.680105163138,516.9860032772555L649.0876794293728,517.4114279403443L647.8811872011715,519.0658571856901L645.1665796877186,519.5385512557889L642.351431155249,522.4219850833915L644.8649566306683,525.0690718759447L644.6638745926347,526.95984815634L647.680105163138,530.2687066470314L645.9709078398528,531.3559030082586L645.5687437637857,532.0649441134068L644.2617105165676,531.8758664853673L642.351431155249,530.1741678330117L641.5471030031147,530.0796290189919L639.8379056798295,529.4651267278634L638.9330365086786,528.3306609596264L636.4195110332591,527.7161586684979L634.710313709974,528.1415833315868L634.2076086148901,527.6216198544782L630.3870498922527,526.2980764582016L626.264868112565,525.8726517951127L623.952424675179,525.3999577250138L623.550260599112,525.6835741670731L620.0313249335248,523.3673732235891L616.814012324988,522.2801768623618L614.4010278685854,520.673017024026L616.4118482489209,520.2003229539272L618.7242916863067,517.8841220104431L617.216176401055,516.749656242206L621.338358180743,515.6151904739688L621.2378171617261,515.0006881828405L618.7242916863067,515.4733822529392L618.8248327053235,514.2443776706825L620.2324069715584,513.4407977515144L622.9470144850113,513.251720123475L623.4497195800951,512.3063319832773L622.7459324469778,510.7464415519514L623.952424675179,509.3283593416551L623.8518836561623,508.4775100154772L619.7297018764745,507.57939128228946L618.1210455722061,507.62666068929934L616.4118482489209,506.30311729302275L614.3004868495686,506.7285419561117L610.7815511839815,505.78315381591403L610.7815511839815,505.21592093179555L609.7761409938138,503.98691634953866L607.5642385754447,503.845108128509L607.3631565374111,502.9942588023313L608.0669436705285,502.4270259182127L606.2572053282266,500.8671354868867L603.3415157767402,501.10348252193603L602.537187624606,500.96167430090645L601.8334004914885,501.62344599904475L600.727449282304,501.4816377780151L600.1242031682034,499.7326697186495L599.420416035086,498.78728157845194L599.9231211301698,498.5509345434026L602.2355645675557,498.64547335742236L603.3415157767402,498.03097106629394L602.537187624606,497.2746605541359L600.6269082632872,496.80196648403705L600.8279903013208,496.28200300692845L599.6214980731195,495.76203952981973L597.9123007498343,493.9185326564344L598.515546863935,493.16222214427637L598.2139238068846,491.8859481550097L595.4993162934317,491.2241764568714L593.99120100818,491.5550623059405L593.589036932113,490.84602120079234L590.6733473806265,490.1369800956441L589.7684782094756,488.48255085029837L589.567396171442,487.1590074540218L588.1598219052071,486.4972357558835L589.3663141334084,485.59911702269574L588.5619859812742,482.9992996371524L590.5728063616098,481.3921397988165L590.1706422855426,480.91944572871773L593.2874138750627,479.3595552973917L590.3717243235761,478.0360119011151L596.4041854645827,474.4908063753742L598.917710940002,472.8836465370383L600.0236621491865,471.41829491973203L595.9014803694988,469.5275186393369L597.0074315786833,467.6840117659516L594.493906103264,465.6514272645268L596.4041854645827,463.2406875070229L593.0863318370291,460.07363723736114L595.7003983314652,457.94651392191656L591.4776755327607,456.10300704853125L591.8798396088278,454.11769195411637L594.0917420271969,453.8813449190669L598.8171699209853,452.74687915082984L601.7328594724718,451.8014910106323L606.3577463472434,453.45592025597807L613.9988637925184,454.11769195411637L624.5556707892797,457.28474222377827L626.667032188632,458.60828562005486L626.8681142266655,460.49906190045L623.7513426371455,461.96441351775627L619.2269967813907,462.6734546229045L606.7599104233105,460.59360071446974L604.6485490239581,460.9244865635389L609.1728948797131,462.95707106496377L609.3739769177466,464.28061446124036L609.5750589557803,467.11677888183306L613.1945356403842,467.96762820801086L615.4064380587531,468.6766693131591L615.7080611158035,467.35312591688245L613.9988637925184,466.12412133462556L615.8086021348203,465.0841943804083L622.5448504089442,466.8331624397738L624.9578348653467,466.12412133462556L623.0475555040281,464.09153683320085L629.5827217401185,461.3499112266278L632.0962472155378,461.5389888546674L634.710313709974,462.484376994865L636.3189700142424,460.59360071446974L634.0065265768566,458.93917146912395L635.4141008430914,457.23747281676833L633.3027394437391,455.5357741644127L641.1449389270476,456.3866234905905L642.753595231316,457.9937833289264L639.2346595657289,458.32466917799553L639.2346595657289,459.8845596093216L641.4465619840979,460.8299477495192L645.7698258018193,460.2154454583907L646.4736129349367,458.41920799201534L652.3049920379096,457.09566459573875L662.0574708825368,454.7321942452447L664.0682912628723,454.8740024662744L661.3536837494194,456.52843171162016L664.8726194150065,456.8593175606893L666.7828987763253,455.8666600134818L672.0110317651976,455.819390606472L676.233754563902,454.637655431225L679.3505261534222,456.3393540835806L682.5678387619589,454.4958472101954L679.6521492104723,452.8414179648496L681.0597234767073,451.94329923166185L689.3040870360828,452.7941485578397L693.2251867777371,453.6449978840176L703.2792886794145,456.8593175606893L705.1895680407333,455.3939659433831L702.3744195082636,453.92861432607685L702.2738784892468,453.3141120349484L698.8554838426764,453.03049559288917L699.8608940328443,451.7069521966125L698.3527787475925,449.53255947415806L698.2522377285758,448.6344407409704L703.3798296984314,446.1291621694468L705.1895680407333,443.57661419091335L707.3009294400856,443.0566507138047L714.740964847327,443.7656918189528L715.2436699424107,445.32558225027884L712.6296034479747,447.59451378675305L714.3388007712598,448.4926325199408L715.2436699424107,450.4306782073458L714.6404238283102,454.25950017514594L717.7571954178302,455.9611988275016L716.5507031896288,457.85197510789675L711.0209471437063,461.8226052967266L714.238259752243,462.2007605528056L715.3442109614275,461.2081030055982L718.4609825509476,460.49906190045L719.164769684065,459.12824909716346L721.5777541404676,457.75743629387705L719.9690978361992,456.197545862551L721.2761310834173,454.35403898916576L718.1593594938972,454.11769195411637L717.5561133797967,452.5578015227904L719.7680157981656,449.76890650920745L716.1485391135618,447.4999749727333L721.1755900644006,445.6091986923381L720.471802931283,443.62388359792317L721.879377197518,443.52934478390347L723.3874924827695,445.08923521522945L722.281541273585,447.78359141479257L725.1972308250715,448.3035548919013L723.9907385968702,446.2709703904764L728.6156254716419,445.1837740292492L734.4470045746149,445.0419658082196L739.5745965444703,446.6491256465555L737.061071069051,444.3329247030714L736.8599890310174,441.354952061449L741.6859579438227,440.7877191773305L748.4222062179465,440.88225799135023L754.4546673589532,440.551372142281L752.1422239215673,439.0860205249748L755.4600775491208,437.2425136515895L758.5768491386408,437.1479748375698L764.0060641655466,435.77716203428326L771.4460995727882,435.39900677820424L772.3509687439391,434.6426962660462L779.6904631321636,434.3590798239869L782.0029065695494,435.0208515221252L788.2364497485894,433.5082304978091L793.364041718445,433.555499904819L794.1683698705792,432.373764729572L796.7824363650154,431.1920295543251L803.4181436201225,430.01029437907806L808.2441125329277,430.90841311226575L804.4235538102903,431.617454217414L810.7576380083472,432.0428788805028L811.4614251414646,433.41369168378935L813.9749506168839,432.75191998565106L822.2193141762593,432.79918939266094L828.4528573552996,434.1700021959474L830.7653007926854,435.2099291501647L830.0615136595679,436.6280113604611L826.9447420700479,437.47886068663894L819.6052476818234,439.0387511179649L817.493886282471,439.8423310371329L821.0128219480582,440.22048629321193L825.135003727746,440.9295273983601L827.6485292031654,440.40956392125145L829.0561034694001,442.2058013876268L830.2625956976015,441.4967602824786L834.6864005343396,441.0240662123798L843.7350922458494,441.4967602824786L844.3383383599501,442.82030367875524L856.0010965658959,443.2457283418442L856.2021786039294,441.07133561938974L862.1340987259191,441.59129909649846L866.5579035626573,441.5440296894885L871.0822494184122,443.0566507138047L872.3892826656302,444.8056187731702L870.6800853423451,445.98735394841714L874.1990210079321,448.2090160778814L878.6228258446704,449.34348184611855L881.3374333581232,446.41277861150604L885.7612381948613,447.64178319376293L890.5872071076665,446.8854726816048L895.9158811155555,447.73632200778263L898.0272425149079,446.98001149562464L902.5515883706628,447.3581667517036L900.5407679903273,444.75834936616025L904.2607856939478,443.57661419091335L929.4965814671584,445.3728516572887L931.909565923561,447.02728090263446L939.1485192927688,449.154404218079L950.4091134226478,448.6344407409704L956.0394104875871,449.10713481106916L958.351853924973,450.24160057930624L957.9496898489057,452.32145448774094L961.4686255144929,453.07776499989893L965.1886432181136,452.5105321157805L970.1151531499356,452.46326270877057L975.3432861388079,452.9832261858793L980.671960146697,452.69960974382L985.5984700785189,455.1576189083337L989.0168647250892,454.25950017514594L986.7044212877036,452.5105321157805L988.0114545349215,451.23425812651374L996.8590642083979,452.0378380456817L1002.6904433113707,451.84876041764215L1010.7337248327126,453.2195732209287L1014.6548245743669,454.4011518783475L1014.6548245743669,465.5570541809834ZM9.345175425633101,454.4011518783475L9.345678080457674,454.40130839617564L9.345175425633101,465.5568884505071L9.345175425633101,465.5568884505071L9.345175425633101,465.5570541809834L9.345175425633101,454.4011518783475ZM805.4289640004581,428.3085957267224L789.6440240148243,429.39579208794964L794.77161598468,425.75604774818896L797.0840594220656,425.42516189911976L799.1954208214179,425.6142395271593L806.2332921525922,427.1741299584853ZM654.818517513329,422.06903400141834L651.0984998097083,422.4471892574974L648.584974334289,422.63626688553694L648.1828102582218,423.1089609556357L644.8649566306683,423.5816550257345L641.8487260601651,422.9198833275962L643.4573823644334,422.0217645944085L637.2238391853933,421.9272257803887L642.6530542122991,421.4545317102899L646.9763180300206,421.40726230328005L647.4790231251044,422.16357281543816L649.0876794293728,421.50180111729986L651.701745923809,421.0291070472011L655.9244687225136,421.6436093383295ZM791.0515982810591,426.7014358883865L785.0191371400527,427.07959114446555L777.1769376567443,426.2760112252977L772.5520507819726,425.18881486407037L770.4406893826203,423.2034997696554L766.6201306599829,422.63626688553694L773.8590840291906,420.7454906051418L779.8915451701971,420.0837189070035L785.320760197103,421.50180111729986L791.7553854141767,424.1961573168629Z"
    fill="#1868b7"
    />
  </g>
</svg>