<?xml version="1.0" standalone="no"?>
<!DOCTYPE svg PUBLIC "-//W3C//DTD SVG 20010904//EN"
 "http://www.w3.org/TR/2001/REC-SVG-20010904/DTD/svg10.dtd">
<svg version="1.0" xmlns="http://www.w3.org/2000/svg" viewBox="0 0 1024 1024" preserveAspectRatio="xMidYMid meet" width="1024pt" height="1024pt">
 <g transform="translate(-9486.097932796449,-8564.891853210724)scale(15.669073486531532)" fill="#000000" stroke="none">
    <path
    d="M631.4930011014371,601.3618947898894L631.0908370253701,600.1328902076325L630.2865088732359,599.3293102884646L630.0854268352023,598.1948445202275L628.5773115499507,597.20218697302L627.0691962646991,594.8387166225261L626.3654091315817,592.5697850860519L624.3545887512461,590.6790088056567L623.1480965230448,590.206314735558L621.338358180743,587.5592279430048L620.9361941046758,585.6211822555997L621.1372761427094,583.9667530102539L619.5286198384409,580.846972147602L618.221586591223,579.7597757863747L616.7134713059712,579.1925429022562L615.7080611158035,577.5853830639203L615.909143153837,576.9708807727918L615.1048150017028,575.5055291554856L614.3004868495686,574.8910268643572L613.1945356403842,572.8111729559225L611.4853383170989,570.5422414194483L610.0777640508641,568.6514651390531L608.6701897846292,568.6514651390531L609.1728948797131,567.0915747077271L609.27343589873,566.1461865675295L609.5750589557803,565.0117207992924L612.6918305453003,565.4844148693912L613.8983227735016,564.5862961362036L614.602109906619,563.5936385889961L616.7134713059712,563.2154833329171L617.216176401055,562.2700951927195L618.1210455722061,561.7974011226206L615.3058970397364,559.0085061090379L620.9361941046758,557.5904238987415L621.4388991997597,557.2122686426625L624.85729384633,557.9685791548205L628.9794756260178,559.9066248422255L636.8216751093262,565.5316842764012L642.0498080981986,565.7207619044407L644.5633335736179,566.0043783465L645.2671207067353,567.3279217427765L647.1774000680541,567.2806523357667L648.2833512772386,569.6913920932705L649.6909255434734,570.3058943843989L650.1936306385574,571.2985519316064L652.0033689808592,572.4802871068533L652.2044510188929,573.6147528750904L651.9028279618425,574.5601410152881L652.3049920379096,575.5055291554856L653.1093201900438,576.2618396676437L653.5114842661109,577.2072278078413L653.913648342178,577.8689995059796L654.7179764943122,578.4362323900981L655.5223046464464,578.2471547620586L656.0250097415303,579.2870817162759L656.1255507605471,579.9488534144142L657.2315019697315,582.785017835007L665.5764065481239,584.1558306382934L666.1796526622245,583.5885977541749L667.4866859094427,585.5739128485899L665.5764065481239,591.1517028757555L657.2315019697315,593.9405978893384L649.1882204483895,595.0277942505656L646.5741539539534,596.2567988328225L644.5633335736179,599.1875020674349L643.2563003263999,599.6601961375337L642.5525131932825,598.7148079973362L641.4465619840979,598.8566162183658L638.7319544706451,598.5729997763066L638.229249375561,598.3366527412571L635.0119367670243,598.3839221482671L634.3081496339069,598.6202691833164L633.1016574057055,597.9112280781683L632.3978702725881,599.2820408814547L632.6994933296385,600.4637760567017Z"
    fill="#1868b7"
    />
  </g>
</svg>