<?xml version="1.0" standalone="no"?>
<!DOCTYPE svg PUBLIC "-//W3C//DTD SVG 20010904//EN"
 "http://www.w3.org/TR/2001/REC-SVG-20010904/DTD/svg10.dtd">
<svg version="1.0" xmlns="http://www.w3.org/2000/svg" viewBox="0 0 1024 1024" preserveAspectRatio="xMidYMid meet" width="1024pt" height="1024pt">
 <g transform="translate(-11447.522299093935,-11607.82321210179)scale(20.05778553527561)" fill="#000000" stroke="none">
    <path
    d="M606.8604514423273,620.5532740359002L606.4582873662602,620.5060046288904L606.4582873662602,619.1351918256039L606.1566643092099,618.1898036854063L604.749090042975,617.0553379171693L604.3469259669079,615.0700228227543L604.749090042975,612.9901689143196L603.4420567957569,612.8010912862801L603.2409747577234,613.4155935774086L601.5317774344383,613.5574017984381L602.2355645675557,614.3609817176061L602.4366466055892,616.0626803699618L600.9285313203375,617.575301394278L599.5209570541027,619.6078858957027L598.1133827878679,619.891502337762L595.8009393504819,618.2843424994261L594.6949881412975,618.8515753835446L594.3933650842472,619.6551553027126L592.9857908180123,620.1751187798212L592.8852497989956,620.7423516639398L590.0701012665259,620.7423516639398L589.7684782094756,620.1751187798212L587.75765782914,620.0805799658015L586.7522476389722,620.5532740359002L585.947919486838,620.3169270008509L584.5403452206033,618.709767162515L584.0376401255194,617.9061872433471L582.0268197451838,618.3316119064359L581.2224915930497,619.6078858957027L580.5187044599322,622.1131644672263L579.5132942697644,622.633127944335L578.7089661176302,622.9167443863943L578.5078840795967,622.8222055723745L577.502473889429,621.9713562461967L577.3013918513955,621.1205069200188L577.8040969464793,619.9860411517817L577.8040969464793,618.8043059765348L576.1954406422109,617.1026073241791L575.8938175851606,615.8736027419222L575.8938175851606,615.211831043784L574.8884073949928,614.408251124616L574.787866375976,612.7538218792703L574.2851612808921,611.666625518043L573.2797510907244,611.8557031460825L573.5813741477748,610.8157761918652L574.2851612808921,609.6340410166182L573.9835382238418,608.4995752483811L574.8884073949928,607.6487259222033L574.2851612808921,606.986954224065L574.9889484140095,605.2852555717094L576.2959816612276,603.2054016632746L578.7089661176302,603.3944792913142L578.6084250986135,592.3334380510025L578.6084250986135,591.1517028757555L581.8257377071503,591.1517028757555L581.8257377071503,585.5739128485899L593.0863318370291,585.5739128485899L603.8442208718241,585.5739128485899L614.9037329636693,585.5739128485899L615.8086021348203,588.3155384551628L615.2053560207196,588.7882325252616L615.6075200967867,591.6716663528642L616.7134713059712,595.0277942505656L617.718881496139,595.689565948704L619.2269967813907,596.7294929029213L617.8194225151558,598.3366527412571L615.8086021348203,598.8093468113559L614.9037329636693,599.6601961375337L614.602109906619,601.503703010919L613.3956176784177,605.6161414207785L613.6972407354681,606.7033377820057L613.2950766594009,609.1140775395096L612.1891254502164,611.8557031460825L610.4799281269312,613.2737853563789L609.27343589873,615.4009086718235L608.9718128416796,616.5353744400605L607.6647795944615,617.2916849522186L606.8604514423273,620.2223881868312Z"
    fill="#1868b7"
    />
  </g>
</svg>