<?xml version="1.0" standalone="no"?>
<!DOCTYPE svg PUBLIC "-//W3C//DTD SVG 20010904//EN"
 "http://www.w3.org/TR/2001/REC-SVG-20010904/DTD/svg10.dtd">
<svg version="1.0" xmlns="http://www.w3.org/2000/svg" viewBox="0 0 1024 1024" preserveAspectRatio="xMidYMid meet" width="1024pt" height="1024pt">
 <g transform="translate(-24756.271875356404,-32005.097903125952)scale(53.60472508550285)" fill="#000000" stroke="none">
    <path
    d="M465.29869666670794,609.0195387254898L464.1927454575235,606.8451460030353L462.78517119128867,605.8524884558279L463.9916634194899,605.3325249787192L465.3992376857248,603.3944792913142L466.0024837998254,601.929127674008L467.00789398999314,601.0310089408202L468.41546825622805,601.2673559758697L469.7225015034461,600.7001230917512L471.3311578077145,600.6528536847412L472.6381910549326,601.4564336039092L474.4479293972346,602.2127441160673L476.1571267205197,604.2453286174921L477.9668650628217,606.183374304897L478.1679471008552,607.9323423642626L478.67065219593906,609.5395022025984L479.77660340512364,610.2958127147565L479.97768544315716,611.3830090759838L479.8771444241404,612.2338584021616L479.47498034807325,612.4229360302011L477.9668650628217,612.1865889951517L477.6652420057713,612.5174748442208L477.06199589167073,612.5647442512308L475.05117551133515,611.9029725530925L473.7441422641171,611.8557031460825L468.6165502942616,611.713894925053L467.8122221421274,612.044780774122L466.9073529709764,611.9502419601023L465.3992376857248,612.4229360302011L464.99707360965766,610.2958127147565L467.51059908507705,610.3430821217664L468.2143862181945,609.9649268656874L468.71709131327833,609.9176574586776L469.7225015034461,609.2558857605392L470.92899373164744,609.8703880516676L472.13548595984867,609.9176574586776L473.34197818804995,609.3031551675491L472.7387320739494,608.4995752483811L471.8338629027984,608.9722693184799L471.0295347506642,608.9249999114701L469.9235835414797,608.2632282133318L469.0187143703287,608.3104976203416L468.41546825622805,608.9722693184799Z"
    fill="#1868b7"
    />
  </g>
</svg>