<?xml version="1.0" standalone="no"?>
<!DOCTYPE svg PUBLIC "-//W3C//DTD SVG 20010904//EN"
 "http://www.w3.org/TR/2001/REC-SVG-20010904/DTD/svg10.dtd">
<svg version="1.0" xmlns="http://www.w3.org/2000/svg" viewBox="0 0 1024 1024" preserveAspectRatio="xMidYMid meet" width="1024pt" height="1024pt">
 <g transform="translate(-14908.301274513275,-14713.754228617214)scale(24.0700666615088)" fill="#000000" stroke="none">
    <path
    d="M628.1751474738836,651.7038132554105L626.4659501505985,649.3876123119264L626.4659501505985,639.2246898048024L628.878934607001,636.0576395351405L629.6832627591352,635.1595208019529L631.3924600824204,635.112251394943L633.9059855578398,633.1742057075379L637.5254622424436,633.0323974865083L645.4682027447689,624.6657124457597L647.3784821060876,622.3022420952658L648.6855153533057,620.6005434429102L648.6855153533057,619.1351918256039L648.6855153533057,616.346296812021L648.6855153533057,615.1645616367741L648.6855153533057,615.1172922297642L649.5903845244567,615.0700228227543L650.8974177716748,614.6445981596654L652.3049920379096,614.3609817176061L653.7125663041445,613.4155935774086L654.7179764943122,613.4155935774086L654.818517513329,614.1719040895666L654.5168944562786,615.8263333349124L654.5168944562786,617.2916849522186L653.913648342178,618.2843424994261L653.2098612090606,621.3095845480584L651.8022869428257,624.4293654107104L650.0930896195405,627.9745709364513L647.680105163138,632.0870093463108L645.3676617257521,635.2067902089628L642.0498080981986,639.035612176763L639.2346595657289,641.3045437132372L635.0119367670243,644.0461693198101L632.498411291605,646.1732926352547L629.3816397020848,649.576689939966L628.7783935879842,651.0420415572722Z"
    fill="#1868b7"
    />
  </g>
</svg>