<?xml version="1.0" standalone="no"?>
<!DOCTYPE svg PUBLIC "-//W3C//DTD SVG 20010904//EN"
 "http://www.w3.org/TR/2001/REC-SVG-20010904/DTD/svg10.dtd">
<svg version="1.0" xmlns="http://www.w3.org/2000/svg" viewBox="0 0 1024 1024" preserveAspectRatio="xMidYMid meet" width="1024pt" height="1024pt">
 <g transform="translate(-44558.60078177523,-40859.82788020653)scale(79.02075853121511)" fill="#000000" stroke="none">
    <path
    d="M575.2905714710599,523.4619120376088L574.5867843379425,524.1236837357471L574.787866375976,525.1163412829546L576.1954406422109,526.3453458652114L575.0894894330263,527.1961951913893L574.6873253569593,528.094313924577L574.9889484140095,528.4251997736461L574.4862433189257,528.8033550297251L573.1792100717076,528.8506244367351L572.2743409005567,529.0397020647746L572.1737998815399,528.8033550297251L572.4754229385902,528.4724691806559L572.7770459956406,527.8106974825176L572.3748819195735,527.8106974825176L571.8721768244895,527.290734005409L571.3694717294056,527.1961951913893L571.0678486723554,526.7235011212905L570.5651435772714,526.534423493251L570.1629795012044,526.156268237172L569.6602744061205,526.2980764582016L569.2581103300535,527.2434645983992L568.554323196936,527.4325422264387L568.7554052349695,527.1961951913893L567.7499950448018,526.6289623072707L566.8451258736508,526.3453458652114L566.4429617975837,525.9199212021225L565.6386336454495,525.4472271320237L566.342420778567,525.352688318004L566.744584854634,524.0291449217274L565.3370105883992,522.9419485605001L566.0407977215166,521.7129439782433L565.0353875313489,521.7129439782433L566.1413387405333,520.673017024026L565.2364695693824,519.869437104858L564.532682436265,518.7822407436308L566.744584854634,518.0731996384826L568.4537821779193,518.1677384525024L569.9618974631709,519.3022042207394L570.2635205202212,520.1530535469172L571.9727178435064,520.8148252450555L572.1737998815399,521.9965604203026L573.8829972048251,522.8001403394705L574.6873253569593,522.1856380483421L575.3911124900767,522.5165238974113L574.787866375976,522.9892179675101Z"
    fill="#1868b7"
    />
  </g>
</svg>