<?xml version="1.0" standalone="no"?>
<!DOCTYPE svg PUBLIC "-//W3C//DTD SVG 20010904//EN"
 "http://www.w3.org/TR/2001/REC-SVG-20010904/DTD/svg10.dtd">
<svg version="1.0" xmlns="http://www.w3.org/2000/svg" viewBox="0 0 1024 1024" preserveAspectRatio="xMidYMid meet" width="1024pt" height="1024pt">
 <g transform="translate(-16682.814166201642,-17560.472593361614)scale(28.916113531927266)" fill="#000000" stroke="none">
    <path
    d="M606.8604514423273,620.5532740359002L606.8604514423273,622.7276667583548L606.4582873662602,623.5785160845326L604.9501720810085,623.6730548985523L604.0453029098576,625.2802147368882L605.7545002331428,625.4692923649277L607.1620744993776,626.8401051682142L607.6647795944615,627.9273015294414L608.8712718226627,628.5890732275798L610.580469145948,631.614315276212L608.6701897846292,633.4578221495973L606.9609924613441,635.112251394943L605.2517951380589,636.4357947912197L603.2409747577234,636.3885253842097L601.0290723393543,637.050297082348L599.2193339970523,636.4357947912197L598.1133827878679,637.1921053033777L595.5998573124484,635.3485984299924L594.9966111983479,634.1668632547454L593.3879548940795,634.734096138864L592.1814626658781,634.5450185108244L591.377134513744,635.0177125809232L590.1706422855426,634.6868267318541L588.4614449622575,632.37062578837L587.9587398671736,631.5197764621922L585.947919486838,630.3853106939551L585.2441323537207,628.7308814486094L584.0376401255194,627.5018768663525L582.1273607642006,626.0365252490462L582.1273607642006,625.1384065158586L580.6192454789491,624.0039407476214L578.7089661176302,622.9167443863943L579.5132942697644,622.633127944335L580.5187044599322,622.1131644672263L581.2224915930497,619.6078858957027L582.0268197451838,618.3316119064359L584.0376401255194,617.9061872433471L584.5403452206033,618.709767162515L585.947919486838,620.3169270008509L586.7522476389722,620.5532740359002L587.75765782914,620.0805799658015L589.7684782094756,620.1751187798212L590.0701012665259,620.7423516639398L592.8852497989956,620.7423516639398L592.9857908180123,620.1751187798212L594.3933650842472,619.6551553027126L594.6949881412975,618.8515753835446L595.8009393504819,618.2843424994261L598.1133827878679,619.891502337762L599.5209570541027,619.6078858957027L600.9285313203375,617.575301394278L602.4366466055892,616.0626803699618L602.2355645675557,614.3609817176061L601.5317774344383,613.5574017984381L603.2409747577234,613.4155935774086L603.4420567957569,612.8010912862801L604.749090042975,612.9901689143196L604.3469259669079,615.0700228227543L604.749090042975,617.0553379171693L606.1566643092099,618.1898036854063L606.4582873662602,619.1351918256039L606.4582873662602,620.5060046288904Z"
    fill="#1868b7"
    />
  </g>
</svg>