<?xml version="1.0" standalone="no"?>
<!DOCTYPE svg PUBLIC "-//W3C//DTD SVG 20010904//EN"
 "http://www.w3.org/TR/2001/REC-SVG-20010904/DTD/svg10.dtd">
<svg version="1.0" xmlns="http://www.w3.org/2000/svg" viewBox="0 0 1024 1024" preserveAspectRatio="xMidYMid meet" width="1024pt" height="1024pt">
 <g transform="translate(-32385.322092949093,-29139.6452059361)scale(58.01524044063927)" fill="#000000" stroke="none">
    <path
    d="M564.6332234552818,508.7611264575364L564.8343054933154,508.950204085576L565.9402567024998,508.5720488294969L567.3478309687347,509.5647063767044L569.0570282920199,508.950204085576L570.3640615392379,509.2338205276352L572.3748819195735,508.8556652715563L574.9889484140095,509.94286163278343L574.1846202618754,510.65190273793166L573.6819151667916,511.78636850616874L573.0786690526909,512.069984948228L570.0624384821876,511.21913562205015L569.1575693110367,511.4082132500897L568.554323196936,512.0227155412181L567.2472899497179,512.4008707972971L566.9456668926675,512.2117931692576L565.5380926264328,512.6372178323466L564.4321414172482,512.7317566463663L564.2310593792147,513.2989895304848L561.818074922812,513.6298753795539L560.8126647326443,513.3462589374947L559.4050904664094,512.6372178323466L559.1034674093592,511.64456028513905L559.4050904664094,511.31367443606996L559.8072545424766,510.6991721449415L561.0137467706779,510.7464415519514L561.9186159418289,510.4155557028822L562.0191569608456,510.17920866783277L562.5218620559294,510.0374004468032L562.722944093963,509.4228981556748L563.4267312270804,509.28108993464514L563.8288953031476,508.7611264575364Z"
    fill="#1868b7"
    />
  </g>
</svg>