<?xml version="1.0" standalone="no"?>
<!DOCTYPE svg PUBLIC "-//W3C//DTD SVG 20010904//EN"
 "http://www.w3.org/TR/2001/REC-SVG-20010904/DTD/svg10.dtd">
<svg version="1.0" xmlns="http://www.w3.org/2000/svg" viewBox="0 0 1024 1024" preserveAspectRatio="xMidYMid meet" width="1024pt" height="1024pt">
 <g transform="translate(-12952.342919059985,-10850.250400467907)scale(24.010780783032178)" fill="#000000" stroke="none">
    <path
    d="M542.8158223286415,482.62114438107335L544.022314556843,481.0139845427375L546.3347579942287,479.12320826234236L547.2396271653797,475.81434977165077L545.5304298420945,474.44353696836424L545.329347804061,470.70925381458386L547.1390861463628,468.1094364290405L549.8536936598158,468.1567058360504L550.8591038499835,467.0222400678133L549.8536936598158,466.07685192761573L554.1769574775371,462.1534911457958L556.9921060100069,459.03371028314376L558.8018443523088,457.0483951887288L561.5164518657617,457.09566459573875L562.2202389988792,455.5357741644127L567.5489130067682,455.9611988275016L567.9510770828354,454.11769195411637L569.6602744061205,454.0231531400966L573.3802921097412,455.3939659433831L577.7035559274625,457.28474222377827L577.8040969464793,461.5862582616772L578.7089661176302,462.6734546229045L573.9835382238418,463.4770345420724L571.2689307103889,465.41508022947744L571.671094786456,467.11677888183306L567.2472899497179,469.3857104183072L561.818074922812,471.7491807688012L559.8072545424766,475.71981095763107L561.818074922812,477.6578566450361L564.4321414172482,479.21774707636206L561.9186159418289,482.384797346024L559.0029263903423,483.0465690441623L557.8969751811578,487.7262403381403L556.3888598959062,490.3260577236837L552.9704652493359,490.0424412816244L551.3618089450674,492.2641034110887L548.1444963365307,492.4059116321183L547.2396271653797,489.75882483956514L544.9271837279939,486.59177456990324Z"
    fill="#1868b7"
    />
  </g>
</svg>