<?xml version="1.0" standalone="no"?>
<!DOCTYPE svg PUBLIC "-//W3C//DTD SVG 20010904//EN"
 "http://www.w3.org/TR/2001/REC-SVG-20010904/DTD/svg10.dtd">
<svg version="1.0" xmlns="http://www.w3.org/2000/svg" viewBox="0 0 1024 1024" preserveAspectRatio="xMidYMid meet" width="1024pt" height="1024pt">
 <g transform="translate(-11142.294781012479,-11961.827251249935)scale(20.653341097269195)" fill="#000000" stroke="none">
    <path
    d="M552.467760154252,611.0993926339245L552.7693832113023,609.7758492376479L550.9596448690004,609.728579830638L550.9596448690004,607.9323423642626L549.8536936598158,606.8924154100453L551.0601858880171,603.2054016632746L554.5791215536042,600.5583148707215L554.6796625726209,596.9185705309608L555.7856137818055,591.2462416897753L556.3888598959062,590.0645065145284L555.2829086867216,589.1191183743307L555.1823676677049,588.2209996411431L554.1769574775371,587.5119585359948L553.4731703444197,583.163173091086L556.2883188768894,581.6505520667699L567.4483719877514,586.9919950588862L578.6084250986135,592.3334380510025L578.7089661176302,603.3944792913142L576.2959816612276,603.2054016632746L574.9889484140095,605.2852555717094L574.2851612808921,606.986954224065L574.8884073949928,607.6487259222033L573.9835382238418,608.4995752483811L574.2851612808921,609.6340410166182L573.5813741477748,610.8157761918652L573.2797510907244,611.8557031460825L574.2851612808921,611.666625518043L574.787866375976,612.7538218792703L574.8884073949928,614.408251124616L575.8938175851606,615.211831043784L575.8938175851606,615.8736027419222L574.0840792428586,616.346296812021L572.6765049766238,617.4807625802582L570.6656845962882,620.5532740359002L568.0516181018521,621.829548025167L565.3370105883992,621.6404703971275L564.532682436265,621.9240868391868L564.8343054933154,622.9167443863943L563.3261902080636,623.8621325265918L562.1196979798624,624.949328887819L558.701303333292,626.0365252490462L557.9975162001746,625.4220229579179L557.4948111050908,625.3274841438981L556.9921060100069,626.0837946560562L554.6796625726209,626.2728722840957L555.0818266486881,625.5165617719375L554.1769574775371,623.5785160845326L553.8753344204869,622.4440503162955L552.5683011732688,621.9713562461967L550.9596448690004,620.3169270008509L551.562890983101,618.9933836045743L552.869924230319,619.2770000466336L553.6742523824532,619.0879224185941L555.1823676677049,619.1351918256039L553.6742523824532,616.5826438470705L553.77479340147,614.7391369736852L553.5737113634365,612.8956301002999Z"
    fill="#1868b7"
    />
  </g>
</svg>