<?xml version="1.0" standalone="no"?>
<!DOCTYPE svg PUBLIC "-//W3C//DTD SVG 20010904//EN"
 "http://www.w3.org/TR/2001/REC-SVG-20010904/DTD/svg10.dtd">
<svg version="1.0" xmlns="http://www.w3.org/2000/svg" viewBox="0 0 1024 1024" preserveAspectRatio="xMidYMid meet" width="1024pt" height="1024pt">
 <g transform="translate(-17312.40002390907,-13170.06359216087)scale(22.41006206416339)" fill="#000000" stroke="none">
    <path
    d="M798.4916336883005,612.9901689143196L795.9781082128811,611.666625518043L793.5651237564786,611.7611643320628L793.9672878325457,609.5395022025984L791.554303376143,609.5395022025984L791.3532213381095,612.6120136582406L789.8451060528578,616.7244520681L788.8396958626902,619.1824612326138L789.0407779007237,621.2150457340385L790.8505162430256,621.3095845480584L792.0570084712269,623.8148631195819L792.5597135663107,626.2728722840957L794.0678288515626,627.8327627154216L795.7770261748476,628.1636485644908L797.1846004410825,629.6290001817971L796.2797312699315,630.7634659500342L794.4699929276296,631.0943517991033L794.2689108895961,629.6762695888069L791.9564674522102,628.4472650065501L791.4537623571263,628.9672284836588L790.3478111479417,627.8800321224315L789.9456470718746,626.509219319145L788.4375317866231,624.9020594808092L787.0299575203883,623.5785160845326L786.6277934443212,625.2329453298784L786.1250883492373,623.6730548985523L786.4267114062875,621.9240868391868L787.2310395584218,619.2770000466336L788.5380728056398,616.393566219031L790.1467291099082,613.7937488334876L789.0407779007237,611.2412008549541L789.0407779007237,609.9649268656874L788.7391548436733,608.4050364343614L786.8288754823548,606.183374304897L786.225629368254,604.7652920946007L787.1304985394049,604.2453286174921L788.2364497485894,601.8345888599882L787.0299575203883,599.9910819866029L785.320760197103,597.9584974851781L783.9131859308682,595.5004883206644L785.1196781590695,594.9805248435557L786.3261703872708,591.9552827949235L788.3369907676063,591.8607439809037L789.9456470718746,590.6317393986469L791.554303376143,589.9699677005086L792.7607956043444,590.8208170266864L792.961877642378,592.522515679042L794.8721570036967,592.6643239000716L794.1683698705792,595.5950271346842L794.1683698705792,598.1003057062078L797.1846004410825,596.445876460862L797.9889285932165,596.9185705309608L799.597584897485,596.824031716941L800.2008310115857,595.8786435767435L802.312192410938,596.067721204783L804.4235538102903,598.3366527412571L804.6246358483238,601.0782783478302L806.8365382666929,603.5362875123438L806.7359972476761,605.8997578628378L805.8311280765251,607.1287624450947L803.217061582089,606.7506071890156L799.597584897485,607.2705706661243L797.787846555183,609.5867716096084Z"
    fill="#1868b7"
    />
  </g>
</svg>