<?xml version="1.0" standalone="no"?>
<!DOCTYPE svg PUBLIC "-//W3C//DTD SVG 20010904//EN"
 "http://www.w3.org/TR/2001/REC-SVG-20010904/DTD/svg10.dtd">
<svg version="1.0" xmlns="http://www.w3.org/2000/svg" viewBox="0 0 1024 1024" preserveAspectRatio="xMidYMid meet" width="1024pt" height="1024pt">
 <g transform="translate(-30665.63488366486,-23106.509718585166)scale(43.85841143359327)" fill="#000000" stroke="none">
    <path
    d="M710.3171600105889,534.6174920919402L709.311749820421,535.4683414181181L706.2955192499178,534.9956473480194L705.9938961928675,536.6028071863552L709.0101267633707,536.4137295583157L712.4285214099411,537.3118482915033L717.7571954178302,536.8864236284145L718.4609825509476,539.4862410139579L719.3658517220986,539.2026245718985L721.0750490453838,539.8171268630269L720.974508026367,540.9043232242542L721.3766721024341,542.5114830625901L718.4609825509476,542.5114830625901L716.5507031896288,542.2751360275407L714.8415058663437,543.5514100168074L713.6350136381424,543.8350264588667L712.6296034479747,544.4022593429852L711.5236522387902,543.5041406097976L711.8252752958405,541.1406702593035L710.9204061246894,540.998862038274L711.2220291817398,540.1480127120961L709.7139138964882,539.5335104209677L708.507421668287,540.4788985611652L708.2057986112366,541.6133643294024L707.8036345351695,542.0387889924913L706.0944372118843,541.9915195854815L705.1895680407333,543.2677935747481L704.2846988695824,542.7005606906296L702.2738784892468,543.5986794238172L701.3690093180959,543.2677935747481L702.9776656223642,540.4316291541554L702.3744195082636,538.3517752457208L700.3635991279282,537.6900035475824L701.0673862610455,536.4609989653255L703.3798296984314,536.6028071863552L704.6868629456494,535.0429167550292L705.5917321168004,533.2466792886538L709.311749820421,532.6321769975253L708.7085037063205,533.9084509867921L709.1106677823875,534.71203090596Z"
    fill="#1868b7"
    />
  </g>
</svg>