<?xml version="1.0" standalone="no"?>
<!DOCTYPE svg PUBLIC "-//W3C//DTD SVG 20010904//EN"
 "http://www.w3.org/TR/2001/REC-SVG-20010904/DTD/svg10.dtd">
<svg version="1.0" xmlns="http://www.w3.org/2000/svg" viewBox="0 0 1024 1024" preserveAspectRatio="xMidYMid meet" width="1024pt" height="1024pt">
 <g transform="translate(-15429.196129963952,-12134.54428158597)scale(23.503610229797367)" fill="#000000" stroke="none">
    <path
    d="M682.970002838026,547.4275013916175L682.6683797809757,545.1113004481334L680.5570183816234,545.0167616341137L677.4402467921034,542.5114830625901L675.2283443737343,542.2278666205308L672.1115727842143,540.8097844102344L670.1007524038788,540.5261679681752L668.8942601756775,541.0461314452839L666.9839808143588,540.998862038274L665.07370145304,542.5587524696L662.5601759776207,543.1259853537185L662.0574708825368,541.1406702593035L662.4596349586038,538.2099670246911L660.2477325402349,537.2645788844935L661.0520606923691,535.3738026040983L659.1417813310503,535.1847249760588L659.745027445151,532.8685240325748L662.3590939395872,533.5302957307131L664.8726194150065,532.6321769975253L662.8617990346711,530.9777477521795L662.0574708825368,529.3705879138437L659.745027445151,530.0796290189919L659.4434043881007,532.1122135204166L658.6390762359665,530.3159760540412L659.8455684641677,529.3705879138437L663.0628810727046,528.8033550297251L664.8726194150065,529.6069349488931L666.8834397953419,531.7813276713475L668.2910140615769,531.639519450318L671.4077856510969,531.592250043308L671.0056215750299,530.2214372400215L673.4186060314323,529.228779692814L675.7310494688182,527.6216198544782L679.4510671724388,529.0869714717844L679.7526902294892,531.3086336012487L680.8586414386738,531.8758664853673L683.874872009177,531.7813276713475L684.779741180328,532.2540217414463L686.1873154465628,535.1374555690489L689.4046280550996,537.075501256454L691.2143663974016,538.3990446527306L694.1300559488881,539.769857456017L697.8500736525087,540.951592631264L697.749532633492,542.6532912836196L696.9452044813578,542.5587524696L695.6381712341397,541.8497113644518L695.1354661390558,542.8423689116593L692.82302270167,543.3623323887679L692.2197765875693,545.5839945182322L690.7116613023177,546.43484384441L688.4997588839486,546.8602685074989L687.896512769848,548.1365424967657L685.7851513704957,548.5146977528447Z"
    fill="#1868b7"
    />
  </g>
</svg>