<?xml version="1.0" standalone="no"?>
<!DOCTYPE svg PUBLIC "-//W3C//DTD SVG 20010904//EN"
 "http://www.w3.org/TR/2001/REC-SVG-20010904/DTD/svg10.dtd">
<svg version="1.0" xmlns="http://www.w3.org/2000/svg" viewBox="0 0 1024 1024" preserveAspectRatio="xMidYMid meet" width="1024pt" height="1024pt">
 <g transform="translate(-24727.992917368676,-25383.654147067107)scale(46.86719710534154)" fill="#000000" stroke="none">
    <path
    d="M538.4925585109202,562.3646340067393L537.2860662827189,557.3540768636921L535.5768689594338,556.219611095455L535.5768689594338,555.5578393973167L533.2644255220479,553.9034101519709L532.9628024649976,551.7762868365263L534.7725408072996,550.2163964052004L535.3757869214003,547.9001954617163L534.9736228453331,545.253108669163L535.476327940417,543.8350264588667L538.593099529937,542.7005606906296L540.5033788912558,543.0314465396987L540.4028378722389,544.4495287499951L542.8158223286415,543.4096017957778L543.0169043666751,543.9768346798963L541.6093301004403,545.3476474831828L541.6093301004403,546.6239214724495L542.5141992715912,547.3329625775978L542.212576214541,549.7437023351015L540.3022968532222,551.114515138388L540.9055429673228,552.674405569714L542.3131172335577,552.721674976724L543.0169043666751,554.0452183730006L544.1228555758597,554.4706430360894L543.9217735378261,556.597766351534L542.5141992715912,557.4013462707019L541.709871119457,558.2994650038896L539.7995917581384,559.3866613651169L540.1012148151887,560.521127133354L539.7995917581384,561.702862308601Z"
    fill="#1868b7"
    />
  </g>
</svg>