<?xml version="1.0" standalone="no"?>
<!DOCTYPE svg PUBLIC "-//W3C//DTD SVG 20010904//EN"
 "http://www.w3.org/TR/2001/REC-SVG-20010904/DTD/svg10.dtd">
<svg version="1.0" xmlns="http://www.w3.org/2000/svg" viewBox="0 0 1024 1024" preserveAspectRatio="xMidYMid meet" width="1024pt" height="1024pt">
 <g transform="translate(-10236.66658480986,-8955.950491024274)scale(17.593873300616064)" fill="#000000" stroke="none">
    <path
    d="M628.0746064548669,531.0250171591895L630.9902960063533,530.8832089381598L633.7049035198063,532.2540217414463L634.2076086148901,533.2466792886538L633.9059855578398,534.5702226849304L636.0173469571921,535.2792637900785L637.1232981663766,536.0828437092465L635.2130188050579,536.8864236284145L636.0173469571921,540.1007433050862L635.5146418621082,540.951592631264L637.0227571473598,543.2205241677383L635.7157239001417,543.6932182378371L634.710313709974,542.9841771326888L631.4930011014371,542.6060218766098L630.2865088732359,543.0314465396987L627.0691962646991,543.4568712027876L625.5610809794475,543.4096017957778L622.3437683709107,544.4495287499951L620.0313249335248,544.496798157005L618.62375066729,543.9295652728864L615.50697907777,544.7331451920544L614.602109906619,544.1659123079359L614.4010278685854,545.7258027392618L613.6972407354681,546.3403050303903L612.9934536023507,546.9548073215187L611.8875023931661,545.678533332252L612.9934536023507,544.6386063780346L611.2842562790654,544.874953413084L608.9718128416796,544.2604511219556L607.0615334803608,545.8676109602915L602.7382696626395,546.1512274023507L600.5263672442704,544.6858757850445L597.5101366737672,544.5913369710247L596.9068905596665,545.7258027392618L594.896070179331,546.056688588331L592.2820036848949,544.5913369710247L589.1652320953749,544.6386063780346L587.5565757911064,541.8497113644518L585.4452143917542,540.2898209331257L586.852788657989,538.1154282106713L585.0430503156871,536.7918848143947L588.1598219052071,534.1447980218414L592.4830857229284,534.0029898008119L593.6895779511298,531.8758664853673L599.0182519590188,532.2540217414463L602.3361055865724,530.4577842750709L605.5534181951092,529.654204355903L610.1783050698809,529.6069349488931L615.1048150017028,531.592250043308L619.1264557623739,532.6321769975253L622.3437683709107,532.2067523344365L624.7567528273132,532.4903687764958ZM584.7414272586368,533.0103322536044L585.4452143917542,532.6794464045352L586.2495425438884,530.9304783451697L584.9425092966703,530.1741678330117L587.75765782914,529.3233185068339L590.1706422855426,529.7014737629129L590.472265342593,530.78867012414L592.9857908180123,531.6867888573278L592.4830857229284,532.3485605554661L589.1652320953749,532.4903687764958L587.9587398671736,533.3884875096834L585.6462964297878,534.8538391269897L584.7414272586368,533.5775651377229Z"
    fill="#1868b7"
    />
  </g>
</svg>