<?xml version="1.0" standalone="no"?>
<!DOCTYPE svg PUBLIC "-//W3C//DTD SVG 20010904//EN"
 "http://www.w3.org/TR/2001/REC-SVG-20010904/DTD/svg10.dtd">
<svg version="1.0" xmlns="http://www.w3.org/2000/svg" viewBox="0 0 1024 1024" preserveAspectRatio="xMidYMid meet" width="1024pt" height="1024pt">
 <g transform="translate(-17797.46914978993,-19464.845819550286)scale(30.053796687281817)" fill="#000000" stroke="none">
    <path
    d="M606.6593694042938,649.6712287539857L607.1620744993776,649.9548451960451L617.3167174200719,655.6271740372305L617.4172584390888,657.2816032825763L621.4388991997597,660.0704982961591L620.2324069715584,663.5211650078803L620.3329479905751,665.0810554392062L622.1426863328771,666.1209823934237L622.2432273518939,666.8300234985718L621.4388991997597,668.5317221509274L621.6399812377932,669.3825714771053L621.4388991997597,670.7061148733819L622.4443093899274,672.4550829327475L623.550260599112,675.1967085393204L624.5556707892797,675.8112108304489L622.3437683709107,677.4183706687847L619.3275378004074,678.5055670300119L617.6183404771223,678.4582976230021L616.6129302869545,679.3091469491799L614.7026509256358,679.3564163561897L613.9988637925184,679.7345716122688L610.580469145948,678.9309916931009L608.4691077465957,679.1673387281503L607.7653206134783,675.3857861673599L606.7599104233105,674.0622427710833L606.2572053282266,673.3059322589253L603.4420567957569,672.7859687818166L601.9339415105053,671.9351194556388L600.1242031682034,671.46242538554L599.0182519590188,670.9897313154412L597.8117597308176,670.280690210293L596.3036444455659,666.782754091562L594.6949881412975,665.2228636602359L594.1922830462137,663.5684344148901L594.3933650842472,662.1503522045938L593.8906599891633,659.5505348190504L595.0971522173646,659.4559960050307L596.1025624075323,658.4160690508133L597.2085136167169,656.9507174335071L597.9123007498343,656.3834845493885L597.8117597308176,655.4853658162009L597.2085136167169,654.8235941180626L597.1079725977002,653.7363977568353L597.9123007498343,653.4055119077663L598.0128417688511,651.7510826624205L596.9068905596665,650.1911922310944L597.9123007498343,649.8130369750154L601.0290723393543,649.8603063820252Z"
    fill="#1868b7"
    />
  </g>
</svg>