<?xml version="1.0" standalone="no"?>
<!DOCTYPE svg PUBLIC "-//W3C//DTD SVG 20010904//EN"
 "http://www.w3.org/TR/2001/REC-SVG-20010904/DTD/svg10.dtd">
<svg version="1.0" xmlns="http://www.w3.org/2000/svg" viewBox="0 0 1024 1024" preserveAspectRatio="xMidYMid meet" width="1024pt" height="1024pt">
 <g transform="translate(-10466.004981371876,-8874.384930538816)scale(18.332815979241943)" fill="#000000" stroke="none">
    <path
    d="M600.727449282304,501.4816377780151L601.8334004914885,501.62344599904475L602.537187624606,500.96167430090645L603.3415157767402,501.10348252193603L606.2572053282266,500.8671354868867L608.0669436705285,502.4270259182127L607.3631565374111,502.9942588023313L607.5642385754447,503.845108128509L609.7761409938138,503.98691634953866L610.7815511839815,505.21592093179555L610.7815511839815,505.78315381591403L614.3004868495686,506.7285419561117L616.4118482489209,506.30311729302275L618.1210455722061,507.62666068929934L619.7297018764745,507.57939128228946L623.8518836561623,508.4775100154772L623.952424675179,509.3283593416551L622.7459324469778,510.7464415519514L623.4497195800951,512.3063319832773L622.9470144850113,513.251720123475L620.2324069715584,513.4407977515144L618.8248327053235,514.2443776706825L618.7242916863067,515.4733822529392L616.5123892679377,515.7097292879887L614.7026509256358,516.6078480211763L612.0885844311996,516.749656242206L609.675599974797,517.7895831964233L609.7761409938138,519.5385512557889L611.1837152600486,520.2003229539272L613.9988637925184,520.0112453258877L613.4961586974345,521.0039028730951L610.3793871079145,521.5238663502038L606.6593694042938,523.1310261885396L605.0507131000254,522.5637933044211L605.653959214126,521.2402499081445L602.6377286436227,520.4366699889766L603.1404337387066,519.869437104858L605.7545002331428,518.9713183716703L604.9501720810085,518.309546673532L600.6269082632872,517.6005055683838L600.4258262252537,516.5605786141664L597.9123007498343,516.9387338702455L596.8063495406498,518.4513548945617L594.6949881412975,520.5312088029964L593.3879548940795,520.0585147328975L592.0809216468613,520.4839393959865L590.87442941866,519.9639759188778L591.5782165517775,519.6803594768185L592.0809216468613,518.7349713366209L592.7847087799787,517.8368526034333L592.5836267419452,517.3168891263246L593.186872856046,517.0805420912752L593.4884959130962,517.5059667543642L595.0971522173646,517.5532361613739L595.8009393504819,517.3641585333344L595.2982342553981,517.0805420912752L595.4993162934317,516.6551174281863L594.5944471222807,515.946076323038L594.1922830462137,514.764341147791L593.0863318370291,514.3389164847022L593.2874138750627,513.3935283445046L592.0809216468613,512.6372178323466L590.87442941866,512.5426790183268L588.8636090383245,511.64456028513905L586.9533296770059,511.9281767271984L586.3500835629052,512.3536013902873L585.143591334704,512.3536013902873L584.4398042015864,513.0153730884256L582.428983821251,513.251720123475L581.4235736310832,513.6771447865639L580.1165403838652,513.0153730884256L578.3068020415632,513.0153730884256L576.597604718278,512.6844872393564L575.3911124900767,513.2989895304848L575.1900304520431,512.5426790183268L573.6819151667916,511.78636850616874L574.1846202618754,510.65190273793166L574.9889484140095,509.94286163278343L575.5921945281102,510.08466985381307L574.8884073949928,508.8556652715563L577.4019328704122,506.49219492106226L578.809507136647,506.208578479003L579.1111301936974,505.40499855983506L577.7035559274625,502.94698939532134L579.0105891746806,502.8524505813016L580.5187044599322,502.09614006914353L582.7306068783013,502.0488706621336L585.545755410771,502.2379482901731L588.662527000291,502.94698939532134L590.87442941866,502.9942588023313L591.8798396088278,503.37241405841024L592.9857908180123,502.89971998831146L593.6895779511298,503.56149168644976L596.2031034265491,503.4196834654201L597.3090546357337,503.7032999074794L597.5101366737672,502.28521769718304L598.4150058449181,501.6707154060546Z"
    fill="#1868b7"
    />
  </g>
</svg>