<?xml version="1.0" standalone="no"?>
<!DOCTYPE svg PUBLIC "-//W3C//DTD SVG 20010904//EN"
 "http://www.w3.org/TR/2001/REC-SVG-20010904/DTD/svg10.dtd">
<svg version="1.0" xmlns="http://www.w3.org/2000/svg" viewBox="0 0 1024 1024" preserveAspectRatio="xMidYMid meet" width="1024pt" height="1024pt">
 <g transform="translate(-50.375031142147236,-1127.8698651269099)scale(3.147804941490715)" fill="#000000" stroke="none">
    <path
    d="M77.61252733802337,593.7042508542891L77.21036326195627,594.1769449243877L76.50657612883879,593.7987896683088L76.6071171478556,592.9952097491408L76.20495307178851,592.0025522019333L76.30549409080527,591.6716663528642L76.80819918588912,591.1989722827655L76.6071171478556,590.6790088056567L76.7076581668723,590.3953923635975L77.00928122392276,590.4426617706074L78.01469141409046,590.9153558407062L78.51739650917426,591.1517028757555L79.02010160425823,591.5298581318345L79.7238887373756,592.522515679042L79.6233477183589,592.6643239000716L78.51739650917426,593.2788261912001ZM76.10441205277175,589.3554654093801L75.1995428816208,589.5445430374197L74.69683778653689,588.9773101533011L74.39521472948661,588.7409631182517L74.39521472948661,588.5518854902122L74.69683778653689,588.3155384551628L75.60170695768784,588.5991548972221L76.40603510982208,589.024579560311ZM74.2946737104698,587.842844385064L74.19413269145309,588.1737302341331L72.68601740620136,588.0791914201134L72.88709944423493,587.7483055710443ZM71.78114823505041,587.464689128985L71.58006619701683,587.6064973500146L71.37898415898326,587.5592279430048L70.47411498783231,587.464689128985L70.07195091176527,586.8501868378565L69.97140989274845,586.7556480238368L70.67519702586594,586.3774927677578L70.97682008291616,586.5193009887874ZM67.05572034126203,585.6211822555997L66.65355626519488,585.904798697659L65.74868709404387,585.3848352205503L65.84922811306069,585.1957575925109L66.35193320814454,584.9121411504515L66.95517932224521,584.9594105574614ZM324.54127004322294,520.9566334660852L325.0439751383068,521.854752199273L322.02774456780355,523.2255650025595L319.1120550163171,524.1709531427571L316.1963654648306,525.0218024689349L314.688250179579,526.6762317142806L314.2860861035119,527.290734005409L314.18554508449506,528.7560856227153L315.1909552746629,530.2687066470314L316.29690648384735,530.3159760540412L315.9952834267971,529.3233185068339L316.7996115789312,529.9378207979622L316.5985295408977,530.7414007171302L314.688250179579,531.166825380219L313.38121693236087,531.1195559732092L311.37039655202534,531.592250043308L310.16390432382406,531.7340582643376L308.4547070005389,531.8758664853673L306.14226356315305,532.6794464045352L310.2644453428409,532.1594829274266L311.06877349497506,532.6794464045352L307.1476737533209,533.5302957307131L305.4384764300356,533.5302957307131L305.4384764300356,533.1994098816439L304.63414827790143,533.955720393802L305.4384764300356,534.0975286148316L304.835230315935,536.1301131162564L302.8244099355995,538.2572364317009L302.62332789756596,537.5481953265528L302.0200817834653,537.4063871055231L301.1152126123143,536.697346000375L301.6179177073982,538.2099670246911L302.3217048405156,538.6826610947899L302.4222458595324,539.769857456017L301.51737668838143,540.8570538172443L299.90872038411305,543.0787159467086L299.7076383460795,542.9369077256789L300.51196649821367,541.0461314452839L299.10439223197886,540.0062044910665L298.80276917492847,537.6900035475824L298.3000640798447,538.8717387228294L298.80276917492847,540.6679761892048L296.9930308326265,540.195282119106L298.9033101939453,541.0934008522937L299.0038512129621,543.7877570518568L299.80817936509624,543.9768346798963L300.1098024221466,544.9222228200939L300.51196649821367,547.7111178336768L298.80276917492847,549.7909717421114L295.887079623442,550.6418210682892L294.07734128114004,552.2489809066251L292.66976701490523,552.4380585346646L291.2621927486704,553.4779854888819L290.8600286726033,554.4233736290796L287.7432570830832,556.219611095455L286.13460077881484,557.5431544917316L284.82756753159674,559.1975837370774L284.4254034555297,561.1828988314923L284.92810855061356,563.1209445188973L285.8329777217645,565.5316842764012L287.14001096898255,567.4697299638062L287.14001096898255,568.6987345460631L288.44704421620065,571.9603236297447L288.3465031971839,573.8038305031299L288.2459621781671,574.8910268643572L287.5421750450497,576.5927255167128L286.7378468929155,576.9708807727918L285.33027262668065,576.6399949237227L284.92810855061356,575.4109903414658L283.82215734142903,574.7492186433276L282.31404205617736,572.3384788858237L281.0070088089593,570.2113555703792L280.60484473289216,569.1241592091519L281.20809084699283,567.2806523357667L280.40376269485864,565.7207619044407L278.1918602764896,563.4045609609566L277.1864500863219,562.9791362978676L274.37130155385216,564.2554102871344L273.86859645876825,564.1136020661048L272.4610221925334,562.7900586698281L270.75182486924825,562.1282869716898L267.5345122607115,562.459172820759L265.12152780430887,562.1282869716898L263.0101664049566,562.3646340067393L261.8036741767553,562.7900586698281L262.30637927183915,563.4990997749763L262.30637927183915,564.6335655432134L262.809084366923,565.200798427332L262.30637927183915,565.578953683411L261.3009690816714,565.1535290203221L260.1950178724869,565.6734924974307L258.1841974921514,565.578953683411L256.17337711181585,564.1136020661048L253.65985163639652,564.4917573221837L251.64903125606094,563.8299856240454L249.9398339327758,564.019063252085L247.52684947637323,564.6808349502234L245.01332400095384,566.760688858658L242.29871648750094,567.942424033905L240.6900601832325,569.2659674301816L240.0868140691319,570.5422414194483L240.0868140691319,572.4802871068533L240.18735508814865,573.8038305031299L240.6900601832325,574.7492186433276L239.6846499930648,574.8437574573472L237.67382961272926,574.2292551662189L235.46192719436021,573.3784058400411L234.65759904222597,572.0548624437645L234.05435292812535,570.1168167563594L232.44569662385692,568.5096569180236L231.4402864336892,566.8552276726778L230.03271216745435,564.9644513922825L228.12243280613563,563.8299856240454L225.80998936874983,563.8772550310554L224.10079204546463,566.0989171605197L221.78834860807882,565.2480678343419L220.28023332282714,564.397218508164L219.57644618970977,562.8845974838479L218.67157701855876,561.4192458665417L217.06292071429039,560.1902412842849L215.55480542903877,559.2921225510971L214.549395238871,558.3467344108996L209.7234263260658,558.3467344108996L209.7234263260658,559.4812001791366L207.51152390769676,559.4812001791366L201.98176786177407,559.4812001791366L195.5471426447005,557.5431544917316L191.42496086501274,556.172341688445L191.62604290304625,555.6051088043265L188.10710723745916,555.9359946533957L184.88979462892235,556.1250722814352L184.4876305528552,554.7069900711389L182.6778922105533,553.099830232803L181.3708589633352,552.7689443837338L181.06923590628486,551.9653644645658L179.46057960201648,551.8235562435362L178.45516941184871,551.0672457313782L175.84110291741257,550.7836292893189L175.1373157842952,550.35820462623L174.83569272724486,548.8455836019139L172.1210852137919,546.0094191813212L169.8086417764061,542.133327806511L169.9091827954229,541.4715561083727L168.60214954820475,540.573437375185L166.49078814885252,538.2099670246911L166.08862407278542,535.9410354882169L164.5805087875338,534.4284144639007L165.18375490163447,532.1122135204166L165.08321388261766,529.7014737629129L164.27888573048347,527.5743504474683L165.28429592065118,524.9272636549151L165.68645999671833,522.4219850833915L165.9880830537686,519.869437104858L165.4853779586848,516.1351539510777L164.5805087875338,513.7244141935737L163.7761806353996,512.448140204307L164.17834471146665,511.8809073201885L168.19998547213766,512.8262954603861L169.70810075738927,515.4733822529392L170.4118878905067,514.764341147791L169.9091827954229,512.448140204307L169.0043136242719,510.17920866783277L176.9470541265971,510.17920866783277L185.19141768597268,510.17920866783277L187.90602519942564,510.17920866783277L196.4520118158515,510.17920866783277L204.69637537522703,510.17920866783277L213.04127995361932,510.17920866783277L221.48672555102848,510.17920866783277L230.93758133860536,510.17920866783277L240.48897814519893,510.17920866783277L246.21981622915513,510.17920866783277L246.32035724817194,509.0920123066056L247.2252264193229,509.0920123066056L247.7279315144068,510.60463333092173L248.63280068555775,511.0773274010205L250.54308004687647,511.26640502906L253.3582285793462,511.69182969214893L256.0728360927991,512.5899484253366L258.3852795301849,512.2117931692576L261.8036741767553,512.9208342744058L262.70854334790624,512.9208342744058L265.2220688233256,512.117254355238L267.8361353177618,513.1099119024453L270.55074283121473,514.1971082636726L272.86318626860054,515.1424964038702L274.97454766795283,516.0406151370579L275.2761707250031,516.749656242206L275.8794168391038,517.0332726842653L275.778875820087,517.3168891263246L276.48266295320445,517.4114279403443L276.9853680482883,517.127811498285L277.1864500863219,517.7895831964233L277.68915518140574,518.2150078595123L278.49348333354,518.2150078595123L278.895647409607,518.5458937085814L278.59402435255674,519.0658571856901L281.50971390404317,520.3894005819667L282.11296001814384,522.8946791534903L282.61566511322775,525.3054189109941L281.8113369610935,526.95984815634L280.5043037138754,528.5197385876659L279.9010575997748,529.5123961348734L279.800516580758,529.7960125769326L280.1021396378083,530.1741678330117L281.1075498279761,530.5995924961005L281.8113369610935,530.5995924961005L285.0286495696303,529.1342408787943L287.9443391211168,528.7088162157054L291.5638158057207,527.290734005409L291.5638158057207,527.0071175633498L291.36273376768713,526.156268237172L290.96056969162004,525.6363047600632L292.1670619198213,525.1636106899645L294.8816694332743,525.1636106899645L297.49573592771037,525.1636106899645L298.40060509886143,524.0764143287372L298.7022281559117,523.8400672936879L301.71845872641495,521.854752199273L302.9249509546163,521.3347887221643L307.1476737533209,521.3347887221643L312.27526572317635,521.3347887221643L312.5768887802267,520.625747617016L313.4817579513777,520.4839393959865L314.688250179579,520.0585147328975L315.6936603697467,518.7822407436308L316.4979885218809,516.6078480211763L318.60934992123316,514.4807247057317L319.6147601114009,515.2370352178898L321.4244984537029,514.764341147791L322.731531700921,515.567921066959L322.731531700921,519.3967430347592ZM84.75093968821437,487.489893303091L81.93579115574471,488.5770896643181L80.5282168895099,487.8680485591699L80.1260528134427,486.5445051628933L82.63957828886208,485.5518476156858L84.14769357411376,485.12642295259695L85.95743191641571,485.31550058063647L87.163924144617,486.16634990681433ZM49.66212405135991,479.69044114646084L47.852385709057955,480.1158658095498L46.042647366756,479.59590233244114L44.333450043470805,478.8395918202831L47.14859857594047,478.3668977501842L49.36050099430952,478.6505141922436ZM32.46960979949131,468.8657469411986L34.17880712277656,469.43297982531715L35.88800444606176,469.1493633832579L38.20044788344751,469.8584044884061L40.91505539690047,470.2365597444851L40.713973358866895,470.5674455935542L38.60261195951466,471.13467847767276L36.49125056016237,470.5201761865444L35.38529935097779,470.0002127094357L32.97231489457522,470.1892903374752L32.26852776145779,469.9529433024258ZM118.33164003981727,452.32145448774094L118.23109902080046,462.6734546229045L118.23109902080046,478.60324478523364L121.04624755327018,478.6977835992534L123.76085506672308,479.4540941114115L125.6711344280418,480.68309869366834L128.18465990346124,482.5266055670536L130.89926741691409,480.96671513572755L133.7144159493838,480.02132699553L135.12199021561872,481.4866786128363L137.03226957693744,482.62114438107335L139.64633607137353,483.8974183703401L141.35553339465878,485.882733464755L144.17068192712844,489.09705314142684L148.99665083993358,490.84602120079234L148.99665083993358,492.59498926015783L147.48853555468207,493.96580206344436L145.9804202694304,492.925875109227L143.46689479401107,492.0277563760393L142.66256664187682,489.5697472115256L139.04308995727285,487.34808508206123L137.5349746720213,484.7009982895081L134.9209081775852,484.5119206614686L130.497103340847,484.4173818474487L127.17924971329353,483.6138019282808L121.44841162933727,480.7303681006782L118.73380411588431,480.21040462356956L113.80729418406236,479.21774707636206L109.98673546142493,479.4540941114115L104.45697941550225,478.1778201221448L101.13912578794873,476.9960849468978L98.12289521744543,477.5633178310163L98.6256003125294,479.50136351842133L97.11748502727767,479.69044114646084L93.90017241874096,480.25767403057944L91.38664694332152,481.203062170777L88.37041637281823,481.8175644619054L87.96825229675119,480.1631352165596L89.17474452495247,477.42150960998663L92.19097509545577,476.5706602838088L91.38664694332152,475.8616191786607L87.86771127773437,477.42150960998663L85.95743191641571,479.265016483372L81.93579115574471,481.2503315777869L83.94661153608024,482.62114438107335L81.3325450416441,484.60645947548824L78.31631447114074,485.78819465073525L75.50116593867108,486.6390439769131L74.79737880555365,487.8680485591699L70.47411498783231,489.3334001764762L69.5692458166813,490.65694357275277L66.35193320814454,491.8386787479998L64.34111282780907,491.60233171295033L61.827587352389685,492.4059116321183L58.911897800903205,493.35129977231594L56.599454363517395,494.2966879125135L51.87402646972896,495.0529984246715L51.371321374645106,494.62757376158265L54.488092964165105,493.30403036530606L57.202700477618066,492.4531810391282L60.118390029104546,490.8932906078022L63.63732569469164,490.6096741657429L65.04489996092639,489.427938990496L68.86545868356399,487.7735097451502L69.4687047976646,487.2062768610316L71.58006619701683,486.21361931382415L72.08277129210069,484.13376540538945L73.4903455583356,482.4793361600437L70.27303294979879,483.3301854862216L69.36816377864778,482.81022200911286L67.86004849339622,483.85014896333024L66.05031015109432,482.4320667530339L65.24598199896008,483.4247243002413L64.24057180879237,482.0539114969548L61.42542327632253,483.141107858182L59.716225953037394,483.141107858182L59.41460289598706,481.4866786128363L59.91730799107097,480.4940210656288L58.208110667785775,479.4540941114115L54.488092964165105,480.02132699553L52.175649526779296,478.6977835992534L50.26537016546058,478.0360119011151L50.26537016546058,476.42885206277924L48.053467747091474,475.2471168875323L49.15941895627611,473.6399570491963L51.47186239366181,472.08006661787033L52.477272583829574,470.661984407574L54.689175002198624,470.47290677953447L56.599454363517395,470.8983314426234L58.911897800903205,469.5747880463467L60.922718181238736,469.8111350813962L63.03407958059097,468.91301634820843L62.53137448550706,467.6367423589417L60.922718181238736,467.16404828884293L63.03407958059097,466.07685192761573L61.32488225730583,466.12412133462556L58.30865168680259,466.73862362575403L57.5043235346684,467.35312591688245L55.29242111629924,466.73862362575403L51.371321374645106,467.0222400678133L47.249139594957285,466.360468369675L46.042647366756,465.2260026014379L42.52371170116885,463.61884276310207L46.44481144282304,462.43710758785505L52.67835462186315,461.0662947845685L54.99079805924896,461.0662947845685L54.58863398318192,462.484376994865L60.520554105171584,462.3898381808451L58.208110667785775,460.6408701214796L54.78971602121544,459.5536737602524L52.778895640879966,458.1828609569659L50.16482914644382,457.00112578171894L46.34427042380628,456.10300704853125L47.852385709057955,454.637655431225L52.778895640879966,454.5431166172052L56.29783130646706,453.26684262793844L57.00161843958443,451.89602982465203L59.8167669720541,450.57248642837544L62.631915504523874,450.2888699863161L67.86004849339622,449.0125959970494L70.47411498783231,449.2016736250889L74.69683778653689,447.73632200778263L78.91956058524141,448.3035548919013L81.0309219845937,449.57982888116794L82.23741421279504,449.0598654040593L86.96284210658348,449.2016736250889L86.7617600685499,449.8634453232272L91.08502388627119,450.336139393326L93.90017241874096,450.0525229512667L99.83209254073063,450.9033722774446L105.16076654861973,451.1869887195038L107.27212794797202,451.56514397558294L110.9921456515927,451.09244990548416L115.21486845029722,451.94329923166185Z"
    fill="#1868b7"
    />
  </g>
</svg>