<?xml version="1.0" standalone="no"?>
<!DOCTYPE svg PUBLIC "-//W3C//DTD SVG 20010904//EN"
 "http://www.w3.org/TR/2001/REC-SVG-20010904/DTD/svg10.dtd">
<svg version="1.0" xmlns="http://www.w3.org/2000/svg" viewBox="0 0 1024 1024" preserveAspectRatio="xMidYMid meet" width="1024pt" height="1024pt">
 <g transform="translate(-12816.25061068477,-9722.6811372739)scale(19.2571596420609)" fill="#000000" stroke="none">
    <path
    d="M697.749532633492,542.6532912836196L697.8500736525087,540.951592631264L694.1300559488881,539.769857456017L691.2143663974016,538.3990446527306L689.4046280550996,537.075501256454L686.1873154465628,535.1374555690489L684.779741180328,532.2540217414463L683.874872009177,531.7813276713475L680.8586414386738,531.8758664853673L679.7526902294892,531.3086336012487L679.4510671724388,529.0869714717844L675.7310494688182,527.6216198544782L673.4186060314323,529.228779692814L671.0056215750299,530.2214372400215L671.4077856510969,531.592250043308L668.2910140615769,531.639519450318L668.1904730425601,521.3347887221643L675.3288853927511,519.6803594768185L675.9321315068518,519.9167065118679L680.2553953245731,521.9492910132926L682.4672977429422,522.9892179675101L685.1819052563951,525.4944965390337L688.3992178649319,525.1163412829546L693.2251867777371,524.8799942479052L696.5430404052906,526.91257874933L696.3419583672571,529.7487431699227L697.749532633492,529.7487431699227L698.2522377285758,532.017674706397L701.8717144131797,532.1122135204166L702.5755015462971,533.4357569166933L703.6814527554817,533.4357569166933L704.887944983683,531.4504418222784L708.6079626873036,529.4651267278634L710.1160779725552,528.9924326577647L711.0209471437063,529.228779692814L708.6079626873036,531.0722865661994L710.7193240866559,532.1122135204166L712.7301444669914,531.4031724152685L716.0479980945449,532.8685240325748L712.4285214099411,534.9011085339995L710.3171600105889,534.6174920919402L709.1106677823875,534.71203090596L708.7085037063205,533.9084509867921L709.311749820421,532.6321769975253L705.5917321168004,533.2466792886538L704.6868629456494,535.0429167550292L703.3798296984314,536.6028071863552L701.0673862610455,536.4609989653255L700.3635991279282,537.6900035475824L702.3744195082636,538.3517752457208L702.9776656223642,540.4316291541554L701.3690093180959,543.2677935747481L699.3581889377604,542.7005606906296Z"
    fill="#1868b7"
    />
  </g>
</svg>