<?xml version="1.0" standalone="no"?>
<!DOCTYPE svg PUBLIC "-//W3C//DTD SVG 20010904//EN"
 "http://www.w3.org/TR/2001/REC-SVG-20010904/DTD/svg10.dtd">
<svg version="1.0" xmlns="http://www.w3.org/2000/svg" viewBox="0 0 1024 1024" preserveAspectRatio="xMidYMid meet" width="1024pt" height="1024pt">
 <g transform="translate(-7419.257534975952,-14781.90853860065)scale(24.31407954806622)" fill="#000000" stroke="none">
    <path
    d="M312.7779708182602,614.1246346825567L312.67742979924344,614.7864063806951L311.06877349497506,615.1172922297642L311.973642666126,616.346296812021L311.973642666126,617.8116484293273L310.7671504379247,619.4660776746731L311.7725606280925,621.6877398041373L312.9790528562938,621.4986621760979L313.58229897039445,619.4660776746731L312.7779708182602,618.4734201274656L312.5768887802267,616.346296812021L316.09582444581383,615.211831043784L315.6936603697467,613.9355570545172L316.69907055991445,613.0374383213295L317.7044807500822,614.9754840087346L319.6147601114009,615.0227534157444L321.4244984537029,616.5826438470705L321.52503947271964,617.528031987268L324.0385649481391,617.528031987268L327.05479551864227,617.2444155452088L328.6634518229107,618.5206895344755L330.774813222263,618.8515753835446L332.38346952653137,618.0007260573668L332.38346952653137,617.2916849522186L335.8018641731017,617.1026073241791L339.2202588196721,617.0553379171693L336.80727436326947,617.9061872433471L337.8126845534372,619.2297306396237L340.02458697180623,619.4188082676632L342.1359483711585,620.7896210709497L342.53811244722567,623.0585526074238L344.04622773247723,622.9640137934041L345.1521789416618,623.6257854915424L342.9402765232927,625.2802147368882L342.63865346624243,626.2728722840957L343.64406365641014,627.312799238313L342.9402765232927,627.8327627154216L341.23107920000757,628.3054567855204L341.23107920000757,629.5817307747872L340.52729206689014,630.3380412869452L342.43757142820886,632.4651646023898L342.7391944852592,633.2687445215578L341.7337842950914,634.3086714757751L338.6170127055714,635.3958678370022L336.60619232523595,635.8212925000912L335.8018641731017,636.4830641982295L333.58996175473266,635.7740230930814L331.4786003553804,635.3958678370022L330.9758952602965,635.6794842790616L332.2829285075146,636.3885253842097L332.18238748849785,638.2793016646049L332.48401054554813,640.0282697239704L334.8969950019507,640.2646167590199L334.9975360209675,640.8318496431384L333.0872566596488,641.6354295623063L332.6850925835817,642.8171647375533L331.5791413743972,643.2898588076521L329.4677799750449,643.9516305057904L328.96507487996104,644.8024798319682L326.75317246159193,644.9915574600077L325.2450571763403,643.4789364356916L324.4407290242061,640.7373108291187L323.63640087207193,639.7446532819112L322.63099068190417,639.1301509907828L324.0385649481391,637.7120687804863L323.93802392912227,637.097566489358L323.1336957769881,636.29398657019L322.63099068190417,634.4032102897949L322.83207271993774,632.41789519538L323.4353188340384,631.4725070551823L323.93802392912227,629.9598860308662L322.9326137389545,629.4871919607674L321.3239574346861,629.8180778098366L319.3131370543506,629.6762695888069L318.2071858451661,629.9598860308662L316.29690648384735,627.5491462733623L314.688250179579,627.2182604242932L311.06877349497506,627.4546074593426L310.36498636185763,626.509219319145L309.6611992287402,626.2728722840957L309.56065820972344,625.7056393999771L309.96282228579054,624.6657124457597L309.6611992287402,623.5312466775226L309.05795311463953,622.9167443863943L308.75633005758925,621.6404703971275L307.24821477233763,621.451392769088L308.0525429244718,619.7969635237422L308.4547070005389,617.8116484293273L309.25903515267305,616.77172147511L310.2644453428409,615.968141555942L310.96823247595825,614.5973287526556Z"
    fill="#1868b7"
    />
  </g>
</svg>