<?xml version="1.0" standalone="no"?>
<!DOCTYPE svg PUBLIC "-//W3C//DTD SVG 20010904//EN"
 "http://www.w3.org/TR/2001/REC-SVG-20010904/DTD/svg10.dtd">
<svg version="1.0" xmlns="http://www.w3.org/2000/svg" viewBox="0 0 1024 1024" preserveAspectRatio="xMidYMid meet" width="1024pt" height="1024pt">
 <g transform="translate(-17558.625151826178,-12971.833898025188)scale(22.384332945834814)" fill="#000000" stroke="none">
    <path
    d="M813.7738685788504,586.8029174308467L810.0538508752297,589.2136571883505L807.640866418827,591.8607439809037L807.0376203047264,593.7987896683088L809.2495227230955,596.7294929029213L811.763048198515,600.369237242682L814.377114692951,602.1182053020475L816.0863120162362,604.3398674315118L817.2928042444374,609.4922327955886L816.9911811873873,614.408251124616L814.5781967309845,616.2517579980013L811.4614251414646,618.0479954643768L809.1489817040787,620.3641964078608L805.6300460384916,622.9640137934041L804.6246358483238,621.2150457340385L805.4289640004581,619.3242694536434L803.3176026011058,617.7171096153075L805.7305870575083,616.5826438470705L808.7468176280116,616.393566219031L807.4397843807935,614.6918675666753L812.165212274582,612.5647442512308L812.4668353316324,609.2086163535294L811.8635892175316,607.3178400731341L812.3662943126155,604.5289450595513L811.6625071794981,602.5908993721463L809.5511457801458,600.6528536847412L807.8419484568606,598.1948445202275L805.5295050194748,594.885986029536L802.1111103729045,593.1842873771803L802.9154385250388,592.191629829973L804.7251768673407,591.4825887248247L803.6192256581562,589.024579560311L800.2008310115857,589.024579560311L798.9943387833844,586.4720315817775L797.2851414600993,584.2503694523132L798.7932567453508,583.5885977541749L801.0051591637199,583.5885977541749L803.7197666771729,583.2577119051058L806.1327511335753,581.7923602877995L807.4397843807935,582.8322872420168L810.0538508752297,583.3522507191255L809.5511457801458,584.9594105574614L810.9587200463807,586.0938763256985Z"
    fill="#1868b7"
    />
  </g>
</svg>