<?xml version="1.0" standalone="no"?>
<!DOCTYPE svg PUBLIC "-//W3C//DTD SVG 20010904//EN"
 "http://www.w3.org/TR/2001/REC-SVG-20010904/DTD/svg10.dtd">
<svg version="1.0" xmlns="http://www.w3.org/2000/svg" viewBox="0 0 1024 1024" preserveAspectRatio="xMidYMid meet" width="1024pt" height="1024pt">
 <g transform="translate(-19756.726337965523,-18414.063095319325)scale(31.39180818363343)" fill="#000000" stroke="none">
    <path
    d="M660.3482735592517,600.5110454637116L658.2369121598992,601.2673559758697L657.7342070648155,602.4963605581265L657.6336660457987,603.4417486983241L654.9190585323458,604.6234838735711L650.3947126765909,605.9470272698477L647.9817282201883,607.8850729572526L646.6746949729702,608.0268811782823L645.870366820836,607.8850729572526L644.2617105165676,609.0668081324997L642.4519721742656,609.5867716096084L640.1395287368798,609.728579830638L639.4357416037624,609.8703880516676L638.8324954896618,610.6266985638257L638.0281673375275,610.8157761918652L637.6260032614605,611.5248172970134L636.2184289952256,611.4775478900035L635.3135598240747,611.8557031460825L633.4032804627559,611.713894925053L632.6994933296385,610.0594656797072L632.8000343486552,608.546844655391L632.2973292535713,607.7432647362231L631.7946241584875,605.6634108277884L630.9902960063533,604.5289450595513L631.4930011014371,604.3871368385217L631.2919190634036,603.110862849255L631.593542120454,602.5436299651363L631.4930011014371,601.3618947898894L632.6994933296385,600.4637760567017L632.3978702725881,599.2820408814547L633.1016574057055,597.9112280781683L634.3081496339069,598.6202691833164L635.0119367670243,598.3839221482671L638.229249375561,598.3366527412571L638.7319544706451,598.5729997763066L641.4465619840979,598.8566162183658L642.5525131932825,598.7148079973362L643.2563003263999,599.6601961375337L644.5633335736179,599.1875020674349L646.5741539539534,596.2567988328225L649.1882204483895,595.0277942505656L657.2315019697315,593.9405978893384L659.4434043881007,598.5729997763066Z"
    fill="#1868b7"
    />
  </g>
</svg>