<?xml version="1.0" standalone="no"?>
<!DOCTYPE svg PUBLIC "-//W3C//DTD SVG 20010904//EN"
 "http://www.w3.org/TR/2001/REC-SVG-20010904/DTD/svg10.dtd">
<svg version="1.0" xmlns="http://www.w3.org/2000/svg" viewBox="0 0 1024 1024" preserveAspectRatio="xMidYMid meet" width="1024pt" height="1024pt">
 <g transform="translate(-11108.508494947473,-14027.371693061954)scale(20.013991243713928)" fill="#000000" stroke="none">
    <path
    d="M557.5953521241075,726.8149009941083L559.0029263903423,725.3968187838119L560.108877599527,726.2003987029799L560.511041675594,727.3821338782268L561.818074922812,727.5712115062663L563.5272722460973,728.091174983375L565.0353875313489,727.9020973553355L567.5489130067682,726.4840151450392L567.5489130067682,716.1792844168855L568.3532411589025,716.6047090799744L569.9618974631709,719.2517958725276L569.7608154251373,720.9534945248832L570.3640615392379,721.8988826650809L572.3748819195735,721.6152662230215L573.6819151667916,720.3862616407647L575.0894894330263,719.5354123145869L575.692735547127,718.2118689183103L577.100309813362,717.550097220172L578.3068020415632,717.8809830692412L579.6138352887813,718.6845629884091L581.9262787261671,718.8263712094387L583.6354760494522,718.1645995113004L583.9370991065025,717.3137501851226L584.4398042015864,715.9429373818361L585.947919486838,715.7538597537966L586.7522476389722,714.7139327995792L587.75765782914,712.8231565191841L590.2711833045594,710.7433026107494L594.1922830462137,708.7107181093246L595.2982342553981,708.7107181093246L596.7058085216331,709.1834121794234L597.6106776927841,708.8525263303543L599.1187929780356,709.1361427724136L600.4258262252537,713.0595035542335L601.1296133583711,715.0448186486484L600.6269082632872,718.1645995113004L600.9285313203375,719.1572570585079L599.5209570541027,718.6372935813993L598.7166289019685,718.8736406164486L598.4150058449181,719.6772205356166L597.7112187118008,720.7171474898339L597.7112187118008,721.6625356300315L599.3198750160691,723.1751566543476L601.0290723393543,722.8915402122883L601.5317774344383,721.6625356300315L603.6431388337904,721.6625356300315L602.939351700673,723.6951201314563L602.6377286436227,726.0113210749403L601.9339415105053,727.287595064207L600.0236621491865,728.7056772745034L599.5209570541027,729.0838325305824L598.3144648259014,730.5019147408789L597.5101366737672,731.967266358185L595.9014803694988,733.9525814526L592.7847087799787,736.8360152802027L590.7738883996433,738.5377139325583L588.662527000291,739.7667185148151L585.7468374488045,740.8539148760424L584.3392631825697,740.995723097072L584.0376401255194,741.79930301624L582.3284428022341,741.373878353151L580.9208685359994,741.8938418302597L577.904637965496,741.373878353151L576.1954406422109,741.7047642022202L574.9889484140095,741.5629559811905L572.1737998815399,742.6501523424178L569.7608154251373,743.1228464125165L568.0516181018521,744.1627733667339L566.744584854634,744.2100427737437L565.6386336454495,743.2173852265363L564.6332234552818,743.1701158195264L563.4267312270804,741.9411112372695L563.3261902080636,742.3192664933486L562.9240261319966,741.5629559811905L562.9240261319966,739.9557961428546L562.0191569608456,738.0650198624595L562.9240261319966,737.5450563853508L562.9240261319966,735.4179330699062L561.0137467706779,732.818115684363L559.6061725044431,730.4546453338689L559.6061725044431,730.4073759268591ZM592.8852497989956,727.8548279483256L591.6787575707942,727.0039786221478L590.3717243235761,727.5712115062663L588.8636090383245,728.6584078674936L587.3554937530729,730.4073759268591L589.4668551524252,732.5817686493135L590.472265342593,732.2981522072542L590.9749704376768,731.4000334740665L592.5836267419452,730.9746088109777L592.9857908180123,730.0764900777899L593.8906599891633,728.7056772745034Z"
    fill="#1868b7"
    />
  </g>
</svg>