<?xml version="1.0" standalone="no"?>
<!DOCTYPE svg PUBLIC "-//W3C//DTD SVG 20010904//EN"
 "http://www.w3.org/TR/2001/REC-SVG-20010904/DTD/svg10.dtd">
<svg version="1.0" xmlns="http://www.w3.org/2000/svg" viewBox="0 0 1024 1024" preserveAspectRatio="xMidYMid meet" width="1024pt" height="1024pt">
 <g transform="translate(-16212.18356249516,-18887.497206377113)scale(28.37897210408969)" fill="#000000" stroke="none">
    <path
    d="M603.4420567957569,672.7859687818166L604.8496310619919,674.0149733640734L605.5534181951092,676.3784437145674L605.0507131000254,677.1347542267255L604.4474669859246,679.4036857631996L605.0507131000254,681.7198867066837L604.1458439288743,682.7125442538911L603.2409747577234,685.3123616394345L604.749090042975,686.0214027445827L596.3036444455659,688.3376036880668L596.5047264835994,690.3229187824817L594.3933650842472,690.7010740385607L592.8852497989956,691.788270399788L592.4830857229284,692.7809279469953L591.4776755327607,692.970005575035L589.0646910763581,695.286206518519L587.5565757911064,697.0824439848943L586.5511656009387,697.1769827989141L585.6462964297878,696.846096949845L582.5295248402678,696.5152111007758L582.0268197451838,696.3261334727363L582.0268197451838,696.0897864376869L580.9208685359994,695.4752841465585L579.1111301936974,695.286206518519L576.7986867563116,695.9479782166572L574.9889484140095,694.1990101572918L573.0786690526909,691.8828092138077L573.2797510907244,682.9961606959505L579.1111301936974,683.0434301029603L578.809507136647,682.0980419627627L579.2116712127141,681.0581150085454L578.7089661176302,679.7345716122688L579.1111301936974,678.3637588089823L578.809507136647,677.5129094828045L579.7143763077979,677.5601788898143L579.9154583458316,678.4582976230021L581.2224915930497,678.3637588089823L582.9316889163348,678.6473752510416L583.9370991065025,679.9236492403084L586.1490015248717,680.3018044963874L587.8581988481568,679.4036857631996L588.4614449622575,680.8690373805059L590.6733473806265,681.2944620435948L591.6787575707942,682.4761972188418L592.7847087799787,683.9888182431579L594.896070179331,684.0360876501678L594.6949881412975,681.0108456015355L593.8906599891633,681.5308090786442L591.9803806278446,680.443612717417L591.2765934947271,679.9236492403084L591.5782165517775,677.1347542267255L592.0809216468613,673.8258957360339L591.4776755327607,672.596891153777L592.2820036848949,670.8006536874017L592.9857908180123,670.4697678383325L596.7058085216331,669.9970737682337L597.8117597308176,670.280690210293L599.0182519590188,670.9897313154412L600.1242031682034,671.46242538554L601.9339415105053,671.9351194556388Z"
    fill="#1868b7"
    />
  </g>
</svg>