<?xml version="1.0" standalone="no"?>
<!DOCTYPE svg PUBLIC "-//W3C//DTD SVG 20010904//EN"
 "http://www.w3.org/TR/2001/REC-SVG-20010904/DTD/svg10.dtd">
<svg version="1.0" xmlns="http://www.w3.org/2000/svg" viewBox="0 0 1024 1024" preserveAspectRatio="xMidYMid meet" width="1024pt" height="1024pt">
 <g transform="translate(-25255.4506667581,-29887.16116979712)scale(43.44269189393842)" fill="#000000" stroke="none">
    <path
    d="M599.1187929780356,709.1361427724136L597.6106776927841,708.8525263303543L596.7058085216331,709.1834121794234L595.2982342553981,708.7107181093246L594.1922830462137,708.7107181093246L592.3825447039117,707.4344441200578L590.2711833045594,707.009019456969L589.4668551524252,705.2127819905936L589.4668551524252,704.2673938503959L588.260362924224,703.9365080013268L585.0430503156871,700.8639965456847L584.1381811445361,699.2568367073488L583.6354760494522,698.78414263725L582.5295248402678,696.5152111007758L585.6462964297878,696.846096949845L586.5511656009387,697.1769827989141L587.5565757911064,697.0824439848943L589.0646910763581,695.286206518519L591.4776755327607,692.970005575035L592.4830857229284,692.7809279469953L592.8852497989956,691.788270399788L594.3933650842472,690.7010740385607L596.5047264835994,690.3229187824817L596.7058085216331,691.362845736699L599.0182519590188,691.3155763296892L600.3252852062369,691.8828092138077L600.9285313203375,692.5918503189558L602.2355645675557,692.7809279469953L603.7436798528072,693.6790466801831L603.7436798528072,697.224252205924L603.1404337387066,699.1622978933291L603.0398927196899,701.2421518017637L603.5425978147737,702.0457317209317L603.2409747577234,703.7001609662774L602.7382696626395,703.9365080013268L602.034482529522,705.9690925027517Z"
    fill="#1868b7"
    />
  </g>
</svg>